# Wild Wind starter hull source exported from Blender MCP
mtllib StarterHullBlender.mtl
s off
o Корпус
v 3.000000 2.018900 -10.000000
v 1.500000 -0.999970 -9.000001
v 0.000000 1.000015 -10.000000
v 3.000000 1.000015 -10.000000
v 0.000000 2.037800 10.000001
v 0.000000 -1.000028 7.000000
v 0.000000 2.000000 -10.000000
v 0.000000 -0.999970 -9.000001
v 3.000000 1.981100 6.000000
v 1.500000 -1.000017 6.000000
v 0.000000 -1.000017 6.000000
v 0.000000 0.999956 10.000000
v 3.000000 0.999968 6.000000
v 2.600000 2.000000 6.000000
v 2.600000 2.000000 -9.600000
v 0.000000 1.999999 -9.600001
v 0.000000 1.999945 9.600001
v 2.600005 1.600020 -9.600001
v 2.600005 1.600021 6.000000
v 0.000000 1.600020 -9.600002
v 0.000000 1.599966 9.600000
v 0.000000 1.599974 6.000000
v -3.000000 2.018900 -10.000000
v -1.500000 -0.999970 -9.000001
v -3.000000 1.000015 -10.000000
v -3.000000 1.981100 6.000000
v -1.500000 -1.000017 6.000000
v -3.000000 0.999968 6.000000
v -2.600000 2.000000 6.000000
v -2.600000 2.000000 -9.600000
v -2.600005 1.600020 -9.600001
v -2.600005 1.600021 6.000000
usemtl Тёмный_металл
f 1 4 3
f 1 3 7
f 13 10 2
f 13 2 4
f 10 6 11
f 17 14 19
f 17 19 21
f 9 13 4
f 9 4 1
f 12 6 10
f 12 10 13
f 5 12 13
f 5 13 9
f 4 2 8
f 4 8 3
f 15 16 20
f 15 20 18
f 11 8 2
f 11 2 10
f 1 15 14
f 1 14 9
f 5 9 14
f 5 14 17
usemtl Дерево
f 22 19 18
f 22 18 20
f 21 19 22
usemtl Тёмный_металл
f 14 15 18
f 14 18 19
f 7 16 15
f 7 15 1
f 23 7 3
f 23 3 25
f 28 25 24
f 28 24 27
f 27 11 6
f 17 21 32
f 17 32 29
f 26 23 25
f 26 25 28
f 12 28 27
f 12 27 6
f 5 26 28
f 5 28 12
f 25 3 8
f 25 8 24
f 30 31 20
f 30 20 16
f 11 27 24
f 11 24 8
f 23 26 29
f 23 29 30
f 5 17 29
f 5 29 26
usemtl Дерево
f 22 20 31
f 22 31 32
f 21 22 32
usemtl Тёмный_металл
f 29 32 31
f 29 31 30
f 7 23 30
f 7 30 16
o Излучатель.001
v 1.782233 -0.152005 -0.539795
v 2.239340 0.737407 -0.539795
v 1.782233 -0.152005 -2.539795
v 2.239340 0.737407 -2.539795
v 2.444464 -0.492354 -0.751408
v 2.516753 -0.351697 -0.539795
v 2.829281 0.256401 -0.539795
v 2.901570 0.397058 -0.751408
v 2.516753 -0.351697 -2.539795
v 2.444464 -0.492354 -2.328181
v 2.901570 0.397058 -2.328181
v 2.829281 0.256401 -2.539795
v 2.818330 0.083215 -2.222394
v 2.854889 0.154351 -2.115374
v 2.614639 -0.313115 -2.115374
v 2.651198 -0.241980 -2.222394
v 2.651198 -0.241980 -0.857195
v 2.614639 -0.313115 -0.964216
v 2.854889 0.154351 -0.964216
v 2.818330 0.083215 -0.857195
v 2.843595 0.132375 -2.400945
v 2.915884 0.273032 -2.189332
v 2.553643 -0.431796 -2.189332
v 2.625933 -0.291139 -2.400945
v 2.625933 -0.291139 -0.678644
v 2.553643 -0.431796 -0.890257
v 2.915884 0.273032 -0.890257
v 2.843595 0.132375 -0.678644
v 2.547007 0.222660 -2.222394
v 2.583566 0.293795 -2.115374
v 2.343316 -0.173671 -2.115374
v 2.379875 -0.102535 -2.222394
v 2.379875 -0.102535 -0.857195
v 2.343316 -0.173671 -0.964216
v 2.583566 0.293795 -0.964216
v 2.547007 0.222660 -0.857195
v 1.782233 -0.152005 5.411444
v 2.239340 0.737407 5.411444
v 1.782233 -0.152005 3.411444
v 2.239340 0.737407 3.411444
v 2.444464 -0.492354 5.199831
v 2.516753 -0.351697 5.411444
v 2.829281 0.256401 5.411444
v 2.901570 0.397058 5.199831
v 2.516753 -0.351697 3.411444
v 2.444464 -0.492354 3.623057
v 2.901570 0.397058 3.623057
v 2.829281 0.256401 3.411444
v 2.818330 0.083215 3.728845
v 2.854889 0.154351 3.835865
v 2.614639 -0.313115 3.835865
v 2.651198 -0.241980 3.728845
v 2.651198 -0.241980 5.094043
v 2.614639 -0.313115 4.987023
v 2.854889 0.154351 4.987023
v 2.818330 0.083215 5.094043
v 2.843595 0.132375 3.550294
v 2.915884 0.273032 3.761907
v 2.553643 -0.431796 3.761907
v 2.625933 -0.291139 3.550294
v 2.625933 -0.291139 5.272594
v 2.553643 -0.431796 5.060982
v 2.915884 0.273032 5.060982
v 2.843595 0.132375 5.272594
v 2.547007 0.222660 3.728845
v 2.583566 0.293795 3.835865
v 2.343316 -0.173671 3.835865
v 2.379875 -0.102535 3.728845
v 2.379875 -0.102535 5.094043
v 2.343316 -0.173671 4.987023
v 2.583566 0.293795 4.987023
v 2.547007 0.222660 5.094043
v 1.782233 -0.152005 -6.367159
v 2.239340 0.737407 -6.367159
v 1.782233 -0.152005 -8.367159
v 2.239340 0.737407 -8.367159
v 2.444464 -0.492354 -6.578772
v 2.516753 -0.351697 -6.367159
v 2.829281 0.256401 -6.367159
v 2.901570 0.397058 -6.578772
v 2.516753 -0.351697 -8.367159
v 2.444464 -0.492354 -8.155545
v 2.901570 0.397058 -8.155545
v 2.829281 0.256401 -8.367159
v 2.818330 0.083215 -8.049758
v 2.854889 0.154351 -7.942738
v 2.614639 -0.313115 -7.942738
v 2.651198 -0.241980 -8.049758
v 2.651198 -0.241980 -6.684560
v 2.614639 -0.313115 -6.791580
v 2.854889 0.154351 -6.791580
v 2.818330 0.083215 -6.684560
v 2.843595 0.132375 -8.228310
v 2.915884 0.273032 -8.016696
v 2.553643 -0.431796 -8.016696
v 2.625933 -0.291139 -8.228310
v 2.625933 -0.291139 -6.506009
v 2.553643 -0.431796 -6.717621
v 2.915884 0.273032 -6.717621
v 2.843595 0.132375 -6.506009
v 2.547007 0.222660 -8.049758
v 2.583566 0.293795 -7.942738
v 2.343316 -0.173671 -7.942738
v 2.379875 -0.102535 -8.049758
v 2.379875 -0.102535 -6.684560
v 2.343316 -0.173671 -6.791580
v 2.583566 0.293795 -6.791580
v 2.547007 0.222660 -6.684560
v -1.782233 -0.152005 -0.539795
v -2.239340 0.737407 -0.539795
v -1.782233 -0.152005 -2.539795
v -2.239340 0.737407 -2.539795
v -2.444464 -0.492354 -0.751408
v -2.516753 -0.351697 -0.539795
v -2.829281 0.256401 -0.539795
v -2.901570 0.397058 -0.751408
v -2.516753 -0.351697 -2.539795
v -2.444464 -0.492354 -2.328181
v -2.901570 0.397058 -2.328181
v -2.829281 0.256401 -2.539795
v -2.818330 0.083215 -2.222394
v -2.854889 0.154351 -2.115374
v -2.614639 -0.313115 -2.115374
v -2.651198 -0.241980 -2.222394
v -2.651198 -0.241980 -0.857195
v -2.614639 -0.313115 -0.964216
v -2.854889 0.154351 -0.964216
v -2.818330 0.083215 -0.857195
v -2.843595 0.132375 -2.400945
v -2.915884 0.273032 -2.189332
v -2.553643 -0.431796 -2.189332
v -2.625933 -0.291139 -2.400945
v -2.625933 -0.291139 -0.678644
v -2.553643 -0.431796 -0.890257
v -2.915884 0.273032 -0.890257
v -2.843595 0.132375 -0.678644
v -2.547007 0.222660 -2.222394
v -2.583566 0.293795 -2.115374
v -2.343316 -0.173671 -2.115374
v -2.379875 -0.102535 -2.222394
v -2.379875 -0.102535 -0.857195
v -2.343316 -0.173671 -0.964216
v -2.583566 0.293795 -0.964216
v -2.547007 0.222660 -0.857195
v -1.782233 -0.152005 5.411444
v -2.239340 0.737407 5.411444
v -1.782233 -0.152005 3.411444
v -2.239340 0.737407 3.411444
v -2.444464 -0.492354 5.199831
v -2.516753 -0.351697 5.411444
v -2.829281 0.256401 5.411444
v -2.901570 0.397058 5.199831
v -2.516753 -0.351697 3.411444
v -2.444464 -0.492354 3.623057
v -2.901570 0.397058 3.623057
v -2.829281 0.256401 3.411444
v -2.818330 0.083215 3.728845
v -2.854889 0.154351 3.835865
v -2.614639 -0.313115 3.835865
v -2.651198 -0.241980 3.728845
v -2.651198 -0.241980 5.094043
v -2.614639 -0.313115 4.987023
v -2.854889 0.154351 4.987023
v -2.818330 0.083215 5.094043
v -2.843595 0.132375 3.550294
v -2.915884 0.273032 3.761907
v -2.553643 -0.431796 3.761907
v -2.625933 -0.291139 3.550294
v -2.625933 -0.291139 5.272594
v -2.553643 -0.431796 5.060982
v -2.915884 0.273032 5.060982
v -2.843595 0.132375 5.272594
v -2.547007 0.222660 3.728845
v -2.583566 0.293795 3.835865
v -2.343316 -0.173671 3.835865
v -2.379875 -0.102535 3.728845
v -2.379875 -0.102535 5.094043
v -2.343316 -0.173671 4.987023
v -2.583566 0.293795 4.987023
v -2.547007 0.222660 5.094043
v -1.782233 -0.152005 -6.367159
v -2.239340 0.737407 -6.367159
v -1.782233 -0.152005 -8.367159
v -2.239340 0.737407 -8.367159
v -2.444464 -0.492354 -6.578772
v -2.516753 -0.351697 -6.367159
v -2.829281 0.256401 -6.367159
v -2.901570 0.397058 -6.578772
v -2.516753 -0.351697 -8.367159
v -2.444464 -0.492354 -8.155545
v -2.901570 0.397058 -8.155545
v -2.829281 0.256401 -8.367159
v -2.818330 0.083215 -8.049758
v -2.854889 0.154351 -7.942738
v -2.614639 -0.313115 -7.942738
v -2.651198 -0.241980 -8.049758
v -2.651198 -0.241980 -6.684560
v -2.614639 -0.313115 -6.791580
v -2.854889 0.154351 -6.791580
v -2.818330 0.083215 -6.684560
v -2.843595 0.132375 -8.228310
v -2.915884 0.273032 -8.016696
v -2.553643 -0.431796 -8.016696
v -2.625933 -0.291139 -8.228310
v -2.625933 -0.291139 -6.506009
v -2.553643 -0.431796 -6.717621
v -2.915884 0.273032 -6.717621
v -2.843595 0.132375 -6.506009
v -2.547007 0.222660 -8.049758
v -2.583566 0.293795 -7.942738
v -2.343316 -0.173671 -7.942738
v -2.379875 -0.102535 -8.049758
v -2.379875 -0.102535 -6.684560
v -2.343316 -0.173671 -6.791580
v -2.583566 0.293795 -6.791580
v -2.547007 0.222660 -6.684560
usemtl Тёмный_металл
f 33 34 36
f 33 36 35
f 37 38 33
f 39 40 34
f 41 42 35
f 43 44 36
f 46 51 67
f 46 67 62
f 43 54 53
f 43 53 44
f 55 42 41
f 55 41 56
f 57 38 37
f 57 37 58
f 39 60 59
f 39 59 40
f 39 38 57
f 39 57 60
f 37 42 55
f 37 55 58
f 33 38 39
f 33 39 34
f 35 42 37
f 35 37 33
f 43 36 34
f 43 34 40
f 43 40 59
f 43 59 54
f 53 56 41
f 53 41 44
f 35 36 44
f 35 44 41
f 46 45 53
f 46 53 54
f 48 47 55
f 48 55 56
f 50 49 57
f 50 57 58
f 52 51 59
f 52 59 60
f 49 52 60
f 49 60 57
f 47 50 58
f 47 58 55
f 51 46 54
f 51 54 59
f 45 48 56
f 45 56 53
usemtl Клавдий
f 63 64 61
f 61 62 67
f 67 68 65
f 65 66 63
f 63 61 67
f 67 65 63
usemtl Тёмный_металл
f 52 49 65
f 52 65 68
f 49 50 66
f 49 66 65
f 45 46 62
f 45 62 61
f 48 45 61
f 48 61 64
f 50 47 63
f 50 63 66
f 51 52 68
f 51 68 67
f 47 48 64
f 47 64 63
f 69 70 72
f 69 72 71
f 73 74 69
f 75 76 70
f 77 78 71
f 79 80 72
f 82 87 103
f 82 103 98
f 79 90 89
f 79 89 80
f 91 78 77
f 91 77 92
f 93 74 73
f 93 73 94
f 75 96 95
f 75 95 76
f 75 74 93
f 75 93 96
f 73 78 91
f 73 91 94
f 69 74 75
f 69 75 70
f 71 78 73
f 71 73 69
f 79 72 70
f 79 70 76
f 79 76 95
f 79 95 90
f 89 92 77
f 89 77 80
f 71 72 80
f 71 80 77
f 82 81 89
f 82 89 90
f 84 83 91
f 84 91 92
f 86 85 93
f 86 93 94
f 88 87 95
f 88 95 96
f 85 88 96
f 85 96 93
f 83 86 94
f 83 94 91
f 87 82 90
f 87 90 95
f 81 84 92
f 81 92 89
usemtl Клавдий
f 99 100 97
f 97 98 103
f 103 104 101
f 101 102 99
f 99 97 103
f 103 101 99
usemtl Тёмный_металл
f 88 85 101
f 88 101 104
f 85 86 102
f 85 102 101
f 81 82 98
f 81 98 97
f 84 81 97
f 84 97 100
f 86 83 99
f 86 99 102
f 87 88 104
f 87 104 103
f 83 84 100
f 83 100 99
f 105 106 108
f 105 108 107
f 109 110 105
f 111 112 106
f 113 114 107
f 115 116 108
f 118 123 139
f 118 139 134
f 115 126 125
f 115 125 116
f 127 114 113
f 127 113 128
f 129 110 109
f 129 109 130
f 111 132 131
f 111 131 112
f 111 110 129
f 111 129 132
f 109 114 127
f 109 127 130
f 105 110 111
f 105 111 106
f 107 114 109
f 107 109 105
f 115 108 106
f 115 106 112
f 115 112 131
f 115 131 126
f 125 128 113
f 125 113 116
f 107 108 116
f 107 116 113
f 118 117 125
f 118 125 126
f 120 119 127
f 120 127 128
f 122 121 129
f 122 129 130
f 124 123 131
f 124 131 132
f 121 124 132
f 121 132 129
f 119 122 130
f 119 130 127
f 123 118 126
f 123 126 131
f 117 120 128
f 117 128 125
usemtl Клавдий
f 135 136 133
f 133 134 139
f 139 140 137
f 137 138 135
f 135 133 139
f 139 137 135
usemtl Тёмный_металл
f 124 121 137
f 124 137 140
f 121 122 138
f 121 138 137
f 117 118 134
f 117 134 133
f 120 117 133
f 120 133 136
f 122 119 135
f 122 135 138
f 123 124 140
f 123 140 139
f 119 120 136
f 119 136 135
f 141 143 144
f 141 144 142
f 145 141 146
f 147 142 148
f 149 143 150
f 151 144 152
f 154 170 175
f 154 175 159
f 151 152 161
f 151 161 162
f 163 164 149
f 163 149 150
f 165 166 145
f 165 145 146
f 147 148 167
f 147 167 168
f 147 168 165
f 147 165 146
f 145 166 163
f 145 163 150
f 141 142 147
f 141 147 146
f 143 141 145
f 143 145 150
f 151 148 142
f 151 142 144
f 151 162 167
f 151 167 148
f 161 152 149
f 161 149 164
f 143 149 152
f 143 152 144
f 154 162 161
f 154 161 153
f 156 164 163
f 156 163 155
f 158 166 165
f 158 165 157
f 160 168 167
f 160 167 159
f 157 165 168
f 157 168 160
f 155 163 166
f 155 166 158
f 159 167 162
f 159 162 154
f 153 161 164
f 153 164 156
usemtl Клавдий
f 169 172 171
f 171 174 173
f 173 176 175
f 175 170 169
f 169 171 173
f 173 175 169
usemtl Тёмный_металл
f 160 176 173
f 160 173 157
f 157 173 174
f 157 174 158
f 153 169 170
f 153 170 154
f 156 172 169
f 156 169 153
f 158 174 171
f 158 171 155
f 159 175 176
f 159 176 160
f 155 171 172
f 155 172 156
f 177 179 180
f 177 180 178
f 181 177 182
f 183 178 184
f 185 179 186
f 187 180 188
f 190 206 211
f 190 211 195
f 187 188 197
f 187 197 198
f 199 200 185
f 199 185 186
f 201 202 181
f 201 181 182
f 183 184 203
f 183 203 204
f 183 204 201
f 183 201 182
f 181 202 199
f 181 199 186
f 177 178 183
f 177 183 182
f 179 177 181
f 179 181 186
f 187 184 178
f 187 178 180
f 187 198 203
f 187 203 184
f 197 188 185
f 197 185 200
f 179 185 188
f 179 188 180
f 190 198 197
f 190 197 189
f 192 200 199
f 192 199 191
f 194 202 201
f 194 201 193
f 196 204 203
f 196 203 195
f 193 201 204
f 193 204 196
f 191 199 202
f 191 202 194
f 195 203 198
f 195 198 190
f 189 197 200
f 189 200 192
usemtl Клавдий
f 205 208 207
f 207 210 209
f 209 212 211
f 211 206 205
f 205 207 209
f 209 211 205
usemtl Тёмный_металл
f 196 212 209
f 196 209 193
f 193 209 210
f 193 210 194
f 189 205 206
f 189 206 190
f 192 208 205
f 192 205 189
f 194 210 207
f 194 207 191
f 195 211 212
f 195 212 196
f 191 207 208
f 191 208 192
f 213 215 216
f 213 216 214
f 217 213 218
f 219 214 220
f 221 215 222
f 223 216 224
f 226 242 247
f 226 247 231
f 223 224 233
f 223 233 234
f 235 236 221
f 235 221 222
f 237 238 217
f 237 217 218
f 219 220 239
f 219 239 240
f 219 240 237
f 219 237 218
f 217 238 235
f 217 235 222
f 213 214 219
f 213 219 218
f 215 213 217
f 215 217 222
f 223 220 214
f 223 214 216
f 223 234 239
f 223 239 220
f 233 224 221
f 233 221 236
f 215 221 224
f 215 224 216
f 226 234 233
f 226 233 225
f 228 236 235
f 228 235 227
f 230 238 237
f 230 237 229
f 232 240 239
f 232 239 231
f 229 237 240
f 229 240 232
f 227 235 238
f 227 238 230
f 231 239 234
f 231 234 226
f 225 233 236
f 225 236 228
usemtl Клавдий
f 241 244 243
f 243 246 245
f 245 248 247
f 247 242 241
f 241 243 245
f 245 247 241
usemtl Тёмный_металл
f 232 248 245
f 232 245 229
f 229 245 246
f 229 246 230
f 225 241 242
f 225 242 226
f 228 244 241
f 228 241 225
f 230 246 243
f 230 243 227
f 231 247 248
f 231 248 232
f 227 243 244
f 227 244 228
o Основание_турели
v 0.000000 1.634411 6.900000
v 0.000000 1.724363 6.900000
v -0.142876 1.724363 6.718286
v -0.314157 1.634411 6.758443
v -0.280261 1.724363 6.676610
v -0.456085 1.634411 6.682581
v -0.406876 1.724363 6.608934
v -0.580486 1.634411 6.580487
v -0.517855 1.724363 6.517856
v -0.682580 1.634411 6.456086
v -0.608933 1.724363 6.406877
v -0.758442 1.634411 6.314158
v -0.676610 1.724363 6.280262
v -0.805158 1.634411 6.160157
v -0.718285 1.724363 6.142877
v -0.820932 1.634411 6.000000
v -0.732357 1.724363 6.000000
v -0.805158 1.634411 5.839845
v -0.718285 1.724363 5.857125
v -0.758442 1.634411 5.685844
v -0.676610 1.724363 5.719740
v -0.682580 1.634411 5.543916
v -0.608933 1.724363 5.593125
v -0.580487 1.634411 5.419515
v -0.517855 1.724363 5.482147
v -0.456085 1.634411 5.317421
v -0.406876 1.724363 5.391068
v -0.314157 1.634411 5.241559
v -0.280261 1.724363 5.323391
v -0.160156 1.634411 5.194843
v -0.142876 1.724363 5.281716
v -0.000000 1.634411 5.179069
v -0.000000 1.724362 5.267644
v 0.160156 1.634411 5.194843
v 0.142876 1.724362 5.281716
v 0.314157 1.634411 5.241559
v 0.280261 1.724362 5.323391
v 0.456085 1.634411 5.317421
v 0.406876 1.724362 5.391068
v 0.580486 1.634411 5.419515
v 0.517855 1.724362 5.482147
v 0.682580 1.634411 5.543916
v 0.608933 1.724362 5.593125
v 0.758442 1.634411 5.685844
v 0.676610 1.724362 5.719740
v 0.718285 1.724362 5.857125
v 0.900000 1.634411 6.000000
v 0.900000 1.724362 6.000000
v 0.718285 1.724362 6.142877
v 0.758442 1.634411 6.314158
v 0.676610 1.724362 6.280262
v 0.682580 1.634411 6.456086
v 0.608933 1.724362 6.406877
v 0.580487 1.634411 6.580487
v 0.517855 1.724362 6.517856
v 0.456085 1.634411 6.682581
v 0.406876 1.724363 6.608934
v 0.314157 1.634411 6.758443
v 0.280261 1.724363 6.676610
v 0.142876 1.724363 6.718286
v 0.000000 1.724363 6.900000
v -0.314157 1.724363 6.758443
v -0.456085 1.724363 6.682581
v -0.580486 1.724363 6.580487
v -0.682580 1.724363 6.456086
v -0.758442 1.724363 6.314158
v -0.805158 1.724363 6.160157
v -0.820932 1.724363 6.000000
v -0.805158 1.724363 5.839845
v -0.758442 1.724363 5.685844
v -0.682580 1.724363 5.543916
v -0.580487 1.724363 5.419515
v -0.456085 1.724363 5.317421
v -0.314157 1.724363 5.241559
v -0.160156 1.724363 5.194843
v -0.000000 1.724362 5.179069
v 0.160156 1.724362 5.194843
v 0.314157 1.724362 5.241559
v 0.456085 1.724362 5.317421
v 0.580486 1.724362 5.419515
v 0.682580 1.724362 5.543916
v 0.758442 1.724362 5.685844
v 0.900000 1.724362 6.000000
v 0.758442 1.724362 6.314158
v 0.682580 1.724362 6.456086
v 0.580487 1.724362 6.580487
v 0.456085 1.724362 6.682581
v 0.314157 1.724363 6.758443
v -0.130264 1.938849 6.654881
v 0.000000 1.938849 6.667711
v -0.255522 1.938849 6.616885
v -0.370960 1.938849 6.555182
v -0.472142 1.938849 6.472143
v -0.555181 1.938849 6.370961
v -0.616884 1.938849 6.255523
v -0.654880 1.938849 6.130265
v -0.667710 1.938849 6.000000
v -0.654880 1.938849 5.869738
v -0.616884 1.938849 5.744480
v -0.555181 1.938849 5.629041
v -0.472142 1.938849 5.527859
v -0.370960 1.938849 5.444820
v -0.255522 1.938849 5.383118
v -0.130264 1.938849 5.345121
v 0.000000 1.938849 5.332291
v 0.130264 1.938848 5.345121
v 0.255522 1.938848 5.383118
v 0.370960 1.938848 5.444820
v 0.472142 1.938848 5.527859
v 0.555181 1.938848 5.629041
v 0.616884 1.938848 5.744479
v 0.654880 1.938848 5.869737
v 0.667710 1.938848 6.000000
v 0.654880 1.938848 6.130265
v 0.616884 1.938848 6.255523
v 0.555181 1.938848 6.370961
v 0.472143 1.938848 6.472143
v 0.370960 1.938849 6.555182
v 0.255522 1.938849 6.616885
v 0.130264 1.938849 6.654881
v -0.142876 1.938849 6.718286
v 0.000000 1.938849 6.900000
v -0.280261 1.938849 6.676610
v -0.406876 1.938849 6.608934
v -0.517855 1.938849 6.517856
v -0.608933 1.938849 6.406877
v -0.676610 1.938849 6.280262
v -0.718285 1.938849 6.142877
v -0.732357 1.938849 6.000000
v -0.718285 1.938849 5.857125
v -0.676610 1.938849 5.719740
v -0.608933 1.938849 5.593125
v -0.517855 1.938849 5.482147
v -0.406876 1.938849 5.391068
v -0.280261 1.938849 5.323391
v -0.142876 1.938849 5.281716
v 0.000000 1.938849 5.267644
v 0.142876 1.938848 5.281716
v 0.280261 1.938848 5.323391
v 0.406876 1.938848 5.391068
v 0.517855 1.938848 5.482146
v 0.608933 1.938848 5.593125
v 0.676610 1.938848 5.719740
v 0.718285 1.938848 5.857125
v 0.900000 1.938848 6.000000
v 0.718285 1.938848 6.142877
v 0.676610 1.938848 6.280262
v 0.608933 1.938848 6.406877
v 0.517855 1.938848 6.517856
v 0.406876 1.938849 6.608934
v 0.280261 1.938849 6.676610
v 0.142876 1.938849 6.718286
v 0.000000 2.000448 6.000000
v -0.130264 1.999986 6.654881
v 0.000000 1.999986 6.667711
v -0.255522 1.999986 6.616885
v -0.370960 1.999986 6.555182
v -0.472142 1.999986 6.472143
v -0.555181 1.999986 6.370961
v -0.616884 1.999986 6.255523
v -0.654880 1.999986 6.130265
v -0.667710 1.999986 6.000000
v -0.654880 1.999986 5.869738
v -0.616884 1.999986 5.744480
v -0.555181 1.999986 5.629041
v -0.472142 1.999986 5.527859
v -0.370960 1.999986 5.444820
v -0.255522 1.999986 5.383118
v -0.130264 1.999986 5.345121
v 0.000000 1.999986 5.332291
v 0.130264 1.999986 5.345121
v 0.255522 1.999986 5.383118
v 0.370960 1.999986 5.444820
v 0.472142 1.999986 5.527859
v 0.555181 1.999986 5.629041
v 0.616884 1.999986 5.744479
v 0.654880 1.999986 5.869737
v 0.667710 1.999986 6.000000
v 0.654881 1.999986 6.130265
v 0.616884 1.999986 6.255523
v 0.555181 1.999986 6.370961
v 0.472143 1.999986 6.472143
v 0.370960 1.999986 6.555182
v 0.255522 1.999986 6.616885
v 0.130264 1.999986 6.654881
v 0.142876 1.724363 6.718286
v 0.314157 1.634411 6.758443
v 0.280261 1.724363 6.676610
v 0.456085 1.634411 6.682581
v 0.406876 1.724363 6.608934
v 0.580487 1.634411 6.580487
v 0.517855 1.724362 6.517856
v 0.682580 1.634411 6.456086
v 0.608933 1.724362 6.406877
v 0.758442 1.634411 6.314158
v 0.676610 1.724362 6.280262
v 0.805158 1.634411 6.160157
v 0.718285 1.724362 6.142877
v 0.820932 1.634411 6.000000
v 0.732357 1.724362 6.000000
v 0.805158 1.634411 5.839845
v 0.718285 1.724362 5.857125
v 0.758442 1.634411 5.685844
v 0.676610 1.724362 5.719740
v 0.682580 1.634411 5.543916
v 0.608933 1.724362 5.593125
v 0.580486 1.634411 5.419515
v 0.517855 1.724362 5.482147
v 0.456085 1.634411 5.317421
v 0.406876 1.724362 5.391068
v 0.314157 1.634411 5.241559
v 0.280261 1.724362 5.323391
v 0.160156 1.634411 5.194843
v 0.142876 1.724362 5.281716
v -0.160156 1.634411 5.194843
v -0.142876 1.724363 5.281716
v -0.314157 1.634411 5.241559
v -0.280261 1.724363 5.323391
v -0.456085 1.634411 5.317421
v -0.406876 1.724363 5.391068
v -0.580487 1.634411 5.419515
v -0.517855 1.724363 5.482147
v -0.682580 1.634411 5.543916
v -0.608933 1.724363 5.593125
v -0.758442 1.634411 5.685844
v -0.676610 1.724363 5.719740
v -0.718285 1.724363 5.857125
v -0.900000 1.634411 6.000000
v -0.900000 1.724363 6.000000
v -0.718285 1.724363 6.142877
v -0.758442 1.634411 6.314158
v -0.676610 1.724363 6.280262
v -0.682580 1.634411 6.456086
v -0.608933 1.724363 6.406877
v -0.580486 1.634411 6.580487
v -0.517855 1.724363 6.517856
v -0.456085 1.634411 6.682581
v -0.406876 1.724363 6.608934
v -0.314157 1.634411 6.758443
v -0.280261 1.724363 6.676610
v -0.142876 1.724363 6.718286
v 0.314157 1.724363 6.758443
v 0.456085 1.724362 6.682581
v 0.580487 1.724362 6.580487
v 0.682580 1.724362 6.456086
v 0.758442 1.724362 6.314158
v 0.805158 1.724362 6.160157
v 0.820932 1.724362 6.000000
v 0.805158 1.724362 5.839845
v 0.758442 1.724362 5.685844
v 0.682580 1.724362 5.543916
v 0.580486 1.724362 5.419515
v 0.456085 1.724362 5.317421
v 0.314157 1.724362 5.241559
v 0.160156 1.724362 5.194843
v -0.160156 1.724363 5.194843
v -0.314157 1.724363 5.241559
v -0.456085 1.724363 5.317421
v -0.580487 1.724363 5.419515
v -0.682580 1.724363 5.543916
v -0.758442 1.724363 5.685844
v -0.900000 1.724363 6.000000
v -0.758442 1.724363 6.314158
v -0.682580 1.724363 6.456086
v -0.580486 1.724363 6.580487
v -0.456085 1.724363 6.682581
v -0.314157 1.724363 6.758443
v 0.130264 1.938849 6.654881
v 0.255522 1.938849 6.616885
v 0.370960 1.938849 6.555182
v 0.472143 1.938848 6.472143
v 0.555181 1.938848 6.370961
v 0.616884 1.938848 6.255523
v 0.654880 1.938848 6.130265
v 0.667710 1.938848 6.000000
v 0.654880 1.938848 5.869737
v 0.616884 1.938848 5.744479
v 0.555181 1.938848 5.629041
v 0.472142 1.938848 5.527859
v 0.370960 1.938848 5.444820
v 0.255522 1.938848 5.383118
v 0.130264 1.938848 5.345121
v -0.130264 1.938849 5.345121
v -0.255522 1.938849 5.383118
v -0.370960 1.938849 5.444820
v -0.472142 1.938849 5.527859
v -0.555181 1.938849 5.629041
v -0.616884 1.938849 5.744480
v -0.654880 1.938849 5.869738
v -0.667710 1.938849 6.000000
v -0.654880 1.938849 6.130265
v -0.616884 1.938849 6.255523
v -0.555181 1.938849 6.370961
v -0.472142 1.938849 6.472143
v -0.370960 1.938849 6.555182
v -0.255522 1.938849 6.616885
v -0.130264 1.938849 6.654881
v 0.142876 1.938849 6.718286
v 0.280261 1.938849 6.676610
v 0.406876 1.938849 6.608934
v 0.517855 1.938848 6.517856
v 0.608933 1.938848 6.406877
v 0.676610 1.938848 6.280262
v 0.718285 1.938848 6.142877
v 0.732357 1.938848 6.000000
v 0.718285 1.938848 5.857125
v 0.676610 1.938848 5.719740
v 0.608933 1.938848 5.593125
v 0.517855 1.938848 5.482146
v 0.406876 1.938848 5.391068
v 0.280261 1.938848 5.323391
v 0.142876 1.938848 5.281716
v -0.142876 1.938849 5.281716
v -0.280261 1.938849 5.323391
v -0.406876 1.938849 5.391068
v -0.517855 1.938849 5.482147
v -0.608933 1.938849 5.593125
v -0.676610 1.938849 5.719740
v -0.718285 1.938849 5.857125
v -0.900000 1.938849 6.000000
v -0.718285 1.938849 6.142877
v -0.676610 1.938849 6.280262
v -0.608933 1.938849 6.406877
v -0.517855 1.938849 6.517856
v -0.406876 1.938849 6.608934
v -0.280261 1.938849 6.676610
v -0.142876 1.938849 6.718286
v 0.130264 1.999986 6.654881
v 0.255522 1.999986 6.616885
v 0.370960 1.999986 6.555182
v 0.472143 1.999986 6.472143
v 0.555181 1.999986 6.370961
v 0.616884 1.999986 6.255523
v 0.654881 1.999986 6.130265
v 0.667710 1.999986 6.000000
v 0.654880 1.999986 5.869737
v 0.616884 1.999986 5.744479
v 0.555181 1.999986 5.629041
v 0.472142 1.999986 5.527859
v 0.370960 1.999986 5.444820
v 0.255522 1.999986 5.383118
v 0.130264 1.999986 5.345121
v -0.130264 1.999986 5.345121
v -0.255522 1.999986 5.383118
v -0.370960 1.999986 5.444820
v -0.472142 1.999986 5.527859
v -0.555181 1.999986 5.629041
v -0.616884 1.999986 5.744480
v -0.654880 1.999986 5.869738
v -0.667710 1.999986 6.000000
v -0.654880 1.999986 6.130265
v -0.616884 1.999986 6.255523
v -0.555181 1.999986 6.370961
v -0.472142 1.999986 6.472143
v -0.370960 1.999986 6.555182
v -0.255522 1.999986 6.616885
v -0.130264 1.999986 6.654881
v -0.000000 1.634411 5.100000
v -0.000000 1.724363 5.100000
v -0.142876 1.724363 5.281714
v -0.314157 1.634411 5.241557
v -0.280261 1.724363 5.323390
v -0.456085 1.634411 5.317419
v -0.406876 1.724363 5.391066
v -0.580487 1.634411 5.419513
v -0.517855 1.724363 5.482144
v -0.682580 1.634411 5.543914
v -0.608933 1.724363 5.593123
v -0.758442 1.634411 5.685842
v -0.676610 1.724363 5.719738
v -0.805158 1.634411 5.839843
v -0.718285 1.724363 5.857123
v -0.805158 1.634411 6.160155
v -0.718285 1.724363 6.142875
v -0.758442 1.634411 6.314156
v -0.676610 1.724363 6.280260
v -0.682580 1.634411 6.456084
v -0.608933 1.724363 6.406875
v -0.580486 1.634411 6.580485
v -0.517855 1.724363 6.517853
v -0.456085 1.634411 6.682579
v -0.406876 1.724363 6.608932
v -0.314157 1.634411 6.758441
v -0.280261 1.724363 6.676609
v -0.160156 1.634411 6.805157
v -0.142876 1.724363 6.718284
v 0.000000 1.634411 6.820931
v 0.000000 1.724363 6.732356
v 0.160156 1.634411 6.805157
v 0.142876 1.724363 6.718284
v 0.314157 1.634411 6.758441
v 0.280261 1.724363 6.676609
v 0.456085 1.634411 6.682579
v 0.406876 1.724363 6.608932
v 0.580487 1.634411 6.580485
v 0.517855 1.724362 6.517853
v 0.682580 1.634411 6.456084
v 0.608933 1.724362 6.406875
v 0.758442 1.634411 6.314156
v 0.676610 1.724362 6.280260
v 0.718285 1.724362 6.142875
v 0.718285 1.724362 5.857123
v 0.758442 1.634411 5.685842
v 0.676610 1.724362 5.719738
v 0.682580 1.634411 5.543914
v 0.608933 1.724362 5.593123
v 0.580486 1.634411 5.419513
v 0.517855 1.724362 5.482144
v 0.456085 1.634411 5.317419
v 0.406876 1.724362 5.391066
v 0.314157 1.634411 5.241557
v 0.280261 1.724362 5.323390
v 0.142876 1.724362 5.281714
v -0.000000 1.724362 5.100000
v -0.314157 1.724363 5.241557
v -0.456085 1.724363 5.317419
v -0.580487 1.724363 5.419513
v -0.682580 1.724363 5.543914
v -0.758442 1.724363 5.685842
v -0.805158 1.724363 5.839843
v -0.805158 1.724363 6.160155
v -0.758442 1.724363 6.314156
v -0.682580 1.724363 6.456084
v -0.580486 1.724363 6.580485
v -0.456085 1.724363 6.682579
v -0.314157 1.724363 6.758441
v -0.160156 1.724363 6.805157
v 0.000000 1.724363 6.820931
v 0.160156 1.724363 6.805157
v 0.314157 1.724363 6.758441
v 0.456085 1.724362 6.682579
v 0.580487 1.724362 6.580485
v 0.682580 1.724362 6.456084
v 0.758442 1.724362 6.314156
v 0.758442 1.724362 5.685842
v 0.682580 1.724362 5.543914
v 0.580486 1.724362 5.419513
v 0.456085 1.724362 5.317419
v 0.314157 1.724362 5.241557
v -0.130264 1.938849 5.345119
v 0.000000 1.938849 5.332289
v -0.255522 1.938849 5.383115
v -0.370960 1.938849 5.444818
v -0.472142 1.938849 5.527857
v -0.555181 1.938849 5.629039
v -0.616884 1.938849 5.744477
v -0.654880 1.938849 5.869735
v -0.654880 1.938849 6.130263
v -0.616884 1.938849 6.255520
v -0.555181 1.938849 6.370959
v -0.472142 1.938849 6.472141
v -0.370960 1.938849 6.555180
v -0.255522 1.938849 6.616882
v -0.130264 1.938849 6.654879
v 0.000000 1.938849 6.667709
v 0.130264 1.938849 6.654879
v 0.255522 1.938849 6.616882
v 0.370960 1.938849 6.555180
v 0.472143 1.938848 6.472141
v 0.555181 1.938848 6.370959
v 0.616884 1.938848 6.255520
v 0.654880 1.938848 6.130262
v 0.654880 1.938848 5.869735
v 0.616884 1.938848 5.744477
v 0.555181 1.938848 5.629039
v 0.472142 1.938848 5.527856
v 0.370960 1.938848 5.444818
v 0.255522 1.938848 5.383115
v 0.130264 1.938848 5.345119
v -0.142876 1.938849 5.281714
v -0.000000 1.938849 5.100000
v -0.280261 1.938849 5.323390
v -0.406876 1.938849 5.391066
v -0.517855 1.938849 5.482144
v -0.608933 1.938849 5.593123
v -0.676610 1.938849 5.719738
v -0.718285 1.938849 5.857123
v -0.718285 1.938849 6.142875
v -0.676610 1.938849 6.280260
v -0.608933 1.938849 6.406875
v -0.517855 1.938849 6.517853
v -0.406876 1.938849 6.608932
v -0.280261 1.938849 6.676609
v -0.142876 1.938849 6.718284
v 0.000000 1.938849 6.732356
v 0.142876 1.938849 6.718284
v 0.280261 1.938849 6.676609
v 0.406876 1.938849 6.608932
v 0.517855 1.938848 6.517853
v 0.608933 1.938848 6.406875
v 0.676610 1.938848 6.280260
v 0.718285 1.938848 6.142875
v 0.718285 1.938848 5.857123
v 0.676610 1.938848 5.719738
v 0.608933 1.938848 5.593123
v 0.517855 1.938848 5.482144
v 0.406876 1.938848 5.391066
v 0.280261 1.938848 5.323390
v 0.142876 1.938848 5.281714
v -0.130264 1.999986 5.345119
v 0.000000 1.999986 5.332289
v -0.255522 1.999986 5.383115
v -0.370960 1.999986 5.444818
v -0.472142 1.999986 5.527857
v -0.555181 1.999986 5.629039
v -0.616884 1.999986 5.744477
v -0.654880 1.999986 5.869735
v -0.654880 1.999986 6.130263
v -0.616884 1.999986 6.255520
v -0.555181 1.999986 6.370959
v -0.472142 1.999986 6.472141
v -0.370960 1.999986 6.555180
v -0.255522 1.999986 6.616882
v -0.130264 1.999986 6.654879
v 0.000000 1.999986 6.667709
v 0.130264 1.999986 6.654879
v 0.255522 1.999986 6.616882
v 0.370960 1.999986 6.555180
v 0.472143 1.999986 6.472141
v 0.555181 1.999986 6.370959
v 0.616884 1.999986 6.255520
v 0.654881 1.999986 6.130262
v 0.654880 1.999986 5.869735
v 0.616884 1.999986 5.744477
v 0.555181 1.999986 5.629039
v 0.472142 1.999986 5.527856
v 0.370960 1.999986 5.444818
v 0.255522 1.999986 5.383115
v 0.130264 1.999986 5.345119
v 0.142876 1.724362 5.281714
v 0.314157 1.634411 5.241557
v 0.280261 1.724362 5.323390
v 0.456085 1.634411 5.317419
v 0.406876 1.724362 5.391066
v 0.580486 1.634411 5.419513
v 0.517855 1.724362 5.482144
v 0.682580 1.634411 5.543914
v 0.608933 1.724362 5.593123
v 0.758442 1.634411 5.685842
v 0.676610 1.724362 5.719738
v 0.805158 1.634411 5.839843
v 0.718285 1.724362 5.857123
v 0.805158 1.634411 6.160155
v 0.718285 1.724362 6.142875
v 0.758442 1.634411 6.314156
v 0.676610 1.724362 6.280260
v 0.682580 1.634411 6.456084
v 0.608933 1.724362 6.406875
v 0.580487 1.634411 6.580485
v 0.517855 1.724362 6.517853
v 0.456085 1.634411 6.682579
v 0.406876 1.724363 6.608932
v 0.314157 1.634411 6.758441
v 0.280261 1.724363 6.676609
v 0.160156 1.634411 6.805157
v 0.142876 1.724363 6.718284
v -0.160156 1.634411 6.805157
v -0.142876 1.724363 6.718284
v -0.314157 1.634411 6.758441
v -0.280261 1.724363 6.676609
v -0.456085 1.634411 6.682579
v -0.406876 1.724363 6.608932
v -0.580486 1.634411 6.580485
v -0.517855 1.724363 6.517853
v -0.682580 1.634411 6.456084
v -0.608933 1.724363 6.406875
v -0.758442 1.634411 6.314156
v -0.676610 1.724363 6.280260
v -0.718285 1.724363 6.142875
v -0.718285 1.724363 5.857123
v -0.758442 1.634411 5.685842
v -0.676610 1.724363 5.719738
v -0.682580 1.634411 5.543914
v -0.608933 1.724363 5.593123
v -0.580487 1.634411 5.419513
v -0.517855 1.724363 5.482144
v -0.456085 1.634411 5.317419
v -0.406876 1.724363 5.391066
v -0.314157 1.634411 5.241557
v -0.280261 1.724363 5.323390
v -0.142876 1.724363 5.281714
v 0.314157 1.724362 5.241557
v 0.456085 1.724362 5.317419
v 0.580486 1.724362 5.419513
v 0.682580 1.724362 5.543914
v 0.758442 1.724362 5.685842
v 0.805158 1.724362 5.839843
v 0.805158 1.724362 6.160155
v 0.758442 1.724362 6.314156
v 0.682580 1.724362 6.456084
v 0.580487 1.724362 6.580485
v 0.456085 1.724362 6.682579
v 0.314157 1.724363 6.758441
v 0.160156 1.724363 6.805157
v -0.160156 1.724363 6.805157
v -0.314157 1.724363 6.758441
v -0.456085 1.724363 6.682579
v -0.580486 1.724363 6.580485
v -0.682580 1.724363 6.456084
v -0.758442 1.724363 6.314156
v -0.758442 1.724363 5.685842
v -0.682580 1.724363 5.543914
v -0.580487 1.724363 5.419513
v -0.456085 1.724363 5.317419
v -0.314157 1.724363 5.241557
v 0.130264 1.938848 5.345119
v 0.255522 1.938848 5.383115
v 0.370960 1.938848 5.444818
v 0.472142 1.938848 5.527856
v 0.555181 1.938848 5.629039
v 0.616884 1.938848 5.744477
v 0.654880 1.938848 5.869735
v 0.654880 1.938848 6.130262
v 0.616884 1.938848 6.255520
v 0.555181 1.938848 6.370959
v 0.472143 1.938848 6.472141
v 0.370960 1.938849 6.555180
v 0.255522 1.938849 6.616882
v 0.130264 1.938849 6.654879
v -0.130264 1.938849 6.654879
v -0.255522 1.938849 6.616882
v -0.370960 1.938849 6.555180
v -0.472142 1.938849 6.472141
v -0.555181 1.938849 6.370959
v -0.616884 1.938849 6.255521
v -0.654880 1.938849 6.130263
v -0.654880 1.938849 5.869735
v -0.616884 1.938849 5.744477
v -0.555181 1.938849 5.629039
v -0.472142 1.938849 5.527857
v -0.370960 1.938849 5.444818
v -0.255522 1.938849 5.383115
v -0.130264 1.938849 5.345119
v 0.142876 1.938848 5.281714
v 0.280261 1.938848 5.323390
v 0.406876 1.938848 5.391066
v 0.517855 1.938848 5.482144
v 0.608933 1.938848 5.593123
v 0.676610 1.938848 5.719738
v 0.718285 1.938848 5.857123
v 0.718285 1.938848 6.142875
v 0.676610 1.938848 6.280260
v 0.608933 1.938848 6.406875
v 0.517855 1.938848 6.517853
v 0.406876 1.938849 6.608932
v 0.280261 1.938849 6.676609
v 0.142876 1.938849 6.718284
v -0.142876 1.938849 6.718284
v -0.280261 1.938849 6.676609
v -0.406876 1.938849 6.608932
v -0.517855 1.938849 6.517853
v -0.608933 1.938849 6.406875
v -0.676610 1.938849 6.280260
v -0.718285 1.938849 6.142875
v -0.718285 1.938849 5.857123
v -0.676610 1.938849 5.719738
v -0.608933 1.938849 5.593123
v -0.517855 1.938849 5.482144
v -0.406876 1.938849 5.391066
v -0.280261 1.938849 5.323390
v -0.142876 1.938849 5.281714
v 0.130264 1.999986 5.345119
v 0.255522 1.999986 5.383115
v 0.370960 1.999986 5.444818
v 0.472142 1.999986 5.527856
v 0.555181 1.999986 5.629039
v 0.616884 1.999986 5.744477
v 0.654880 1.999986 5.869735
v 0.654881 1.999986 6.130262
v 0.616884 1.999986 6.255520
v 0.555181 1.999986 6.370959
v 0.472143 1.999986 6.472141
v 0.370960 1.999986 6.555180
v 0.255522 1.999986 6.616882
v 0.130264 1.999986 6.654879
v -0.130264 1.999986 6.654879
v -0.255522 1.999986 6.616882
v -0.370960 1.999986 6.555180
v -0.472142 1.999986 6.472141
v -0.555181 1.999986 6.370959
v -0.616884 1.999986 6.255520
v -0.654880 1.999986 6.130263
v -0.654880 1.999986 5.869735
v -0.616884 1.999986 5.744477
v -0.555181 1.999986 5.629039
v -0.472142 1.999986 5.527857
v -0.370960 1.999986 5.444818
v -0.255522 1.999986 5.383115
v -0.130264 1.999986 5.345119
usemtl Тёмный_металл
f 336 309 249
f 336 249 306
f 252 310 311
f 252 311 254
f 254 311 312
f 254 312 256
f 256 312 313
f 256 313 258
f 258 313 314
f 258 314 260
f 260 314 315
f 260 315 262
f 262 315 316
f 262 316 264
f 264 316 317
f 264 317 266
f 266 317 318
f 266 318 268
f 268 318 319
f 268 319 270
f 270 319 320
f 270 320 272
f 272 320 321
f 272 321 274
f 274 321 322
f 274 322 276
f 276 322 323
f 276 323 278
f 278 323 324
f 278 324 280
f 280 324 325
f 280 325 282
f 282 325 326
f 282 326 284
f 284 326 327
f 284 327 286
f 286 327 328
f 286 328 288
f 288 328 329
f 288 329 290
f 290 329 330
f 290 330 292
f 330 293 294
f 296 331 330
f 294 296 330
f 297 299 332
f 331 296 297
f 297 332 331
f 298 332 333
f 298 333 300
f 300 333 334
f 300 334 302
f 302 334 335
f 302 335 304
f 304 335 336
f 304 336 306
f 279 277 383
f 279 383 384
f 251 253 310
f 309 250 251
f 251 310 309
f 306 249 252
f 252 254 256
f 256 258 260
f 260 262 264
f 264 266 268
f 268 270 272
f 272 274 276
f 276 278 280
f 280 282 284
f 284 286 288
f 288 290 292
f 292 295 298
f 298 300 302
f 302 304 306
f 306 252 256
f 256 260 264
f 264 268 272
f 272 276 280
f 280 284 288
f 288 292 298
f 298 302 306
f 306 256 264
f 264 272 280
f 280 288 298
f 298 306 264
f 264 280 298
f 336 307 308
f 250 309 336
f 308 250 336
f 253 255 311
f 253 311 310
f 255 257 312
f 255 312 311
f 257 259 313
f 257 313 312
f 259 261 314
f 259 314 313
f 261 263 315
f 261 315 314
f 263 265 316
f 263 316 315
f 265 267 317
f 265 317 316
f 267 269 318
f 267 318 317
f 269 271 319
f 269 319 318
f 271 273 320
f 271 320 319
f 273 275 321
f 273 321 320
f 275 277 322
f 275 322 321
f 277 279 323
f 277 323 322
f 279 281 324
f 279 324 323
f 281 283 325
f 281 325 324
f 283 285 326
f 283 326 325
f 285 287 327
f 285 327 326
f 287 289 328
f 287 328 327
f 289 291 329
f 289 329 328
f 291 293 330
f 291 330 329
f 309 310 252
f 309 252 249
f 330 331 295
f 330 295 292
f 299 301 333
f 299 333 332
f 301 303 334
f 301 334 333
f 303 305 335
f 303 335 334
f 305 307 336
f 305 336 335
f 344 343 408
f 344 408 409
f 253 251 369
f 253 369 371
f 305 303 397
f 305 397 398
f 281 279 384
f 281 384 385
f 255 253 371
f 255 371 372
f 307 305 398
f 307 398 399
f 283 281 385
f 283 385 386
f 257 255 372
f 257 372 373
f 308 307 399
f 308 399 400
f 285 283 386
f 285 386 387
f 259 257 373
f 259 373 374
f 250 308 400
f 250 400 370
f 287 285 387
f 287 387 388
f 261 259 374
f 261 374 375
f 289 287 388
f 289 388 389
f 263 261 375
f 263 375 376
f 291 289 389
f 291 389 390
f 265 263 376
f 265 376 377
f 293 291 390
f 293 390 391
f 267 265 377
f 267 377 378
f 294 293 391
f 294 391 392
f 269 267 378
f 269 378 379
f 296 294 392
f 296 392 393
f 271 269 379
f 271 379 380
f 297 296 393
f 297 393 394
f 273 271 380
f 273 380 381
f 299 297 394
f 299 394 395
f 275 273 381
f 275 381 382
f 301 299 395
f 301 395 396
f 277 275 382
f 277 382 383
f 251 250 370
f 251 370 369
f 303 301 396
f 303 396 397
f 338 337 369
f 338 369 370
f 337 339 371
f 337 371 369
f 339 340 372
f 339 372 371
f 340 341 373
f 340 373 372
f 341 342 374
f 341 374 373
f 342 343 375
f 342 375 374
f 343 344 376
f 343 376 375
f 344 345 377
f 344 377 376
f 345 346 378
f 345 378 377
f 346 347 379
f 346 379 378
f 347 348 380
f 347 380 379
f 348 349 381
f 348 381 380
f 349 350 382
f 349 382 381
f 350 351 383
f 350 383 382
f 351 352 384
f 351 384 383
f 352 353 385
f 352 385 384
f 353 354 386
f 353 386 385
f 354 355 387
f 354 387 386
f 355 356 388
f 355 388 387
f 356 357 389
f 356 389 388
f 357 358 390
f 357 390 389
f 358 359 391
f 358 391 390
f 359 360 392
f 359 392 391
f 360 361 393
f 360 393 392
f 361 362 394
f 361 394 393
f 362 363 395
f 362 395 394
f 363 364 396
f 363 396 395
f 364 365 397
f 364 397 396
f 365 366 398
f 365 398 397
f 366 367 399
f 366 399 398
f 367 368 400
f 367 400 399
f 368 338 370
f 368 370 400
f 358 357 422
f 358 422 423
f 345 344 409
f 345 409 410
f 359 358 423
f 359 423 424
f 346 345 410
f 346 410 411
f 360 359 424
f 360 424 425
f 347 346 411
f 347 411 412
f 361 360 425
f 361 425 426
f 348 347 412
f 348 412 413
f 362 361 426
f 362 426 427
f 349 348 413
f 349 413 414
f 363 362 427
f 363 427 428
f 350 349 414
f 350 414 415
f 364 363 428
f 364 428 429
f 351 350 415
f 351 415 416
f 337 338 403
f 337 403 402
f 365 364 429
f 365 429 430
f 352 351 416
f 352 416 417
f 339 337 402
f 339 402 404
f 366 365 430
f 366 430 431
f 353 352 417
f 353 417 418
f 340 339 404
f 340 404 405
f 367 366 431
f 367 431 432
f 354 353 418
f 354 418 419
f 341 340 405
f 341 405 406
f 368 367 432
f 368 432 433
f 355 354 419
f 355 419 420
f 342 341 406
f 342 406 407
f 338 368 433
f 338 433 403
f 356 355 420
f 356 420 421
f 343 342 407
f 343 407 408
f 357 356 421
f 357 421 422
f 401 402 403
f 401 404 402
f 401 405 404
f 401 406 405
f 401 407 406
f 401 408 407
f 401 409 408
f 401 410 409
f 401 411 410
f 401 412 411
f 401 413 412
f 401 414 413
f 401 415 414
f 401 416 415
f 401 417 416
f 401 418 417
f 401 419 418
f 401 420 419
f 401 421 420
f 401 422 421
f 401 423 422
f 401 424 423
f 401 425 424
f 401 426 425
f 401 427 426
f 401 428 427
f 401 429 428
f 401 430 429
f 401 431 430
f 401 432 431
f 401 433 432
f 401 403 433
f 331 332 298
f 331 298 295
f 515 487 249
f 515 249 309
f 435 437 491
f 435 491 490
f 437 439 492
f 437 492 491
f 439 441 493
f 439 493 492
f 441 443 494
f 441 494 493
f 443 445 495
f 443 495 494
f 445 447 496
f 445 496 495
f 447 449 497
f 447 497 496
f 449 451 498
f 449 498 497
f 451 453 499
f 451 499 498
f 453 455 500
f 453 500 499
f 455 457 501
f 455 501 500
f 457 459 502
f 457 502 501
f 459 461 503
f 459 503 502
f 461 280 324
f 461 324 503
f 280 463 504
f 280 504 324
f 463 465 505
f 463 505 504
f 465 467 506
f 465 506 505
f 467 469 507
f 467 507 506
f 469 471 508
f 469 508 507
f 471 473 509
f 471 509 508
f 475 474 509
f 510 477 475
f 475 509 510
f 510 511 480
f 478 477 510
f 478 510 480
f 479 481 512
f 479 512 511
f 481 483 513
f 481 513 512
f 483 485 514
f 483 514 513
f 485 487 515
f 485 515 514
f 462 560 559
f 462 559 460
f 490 436 434
f 250 309 490
f 434 250 490
f 435 249 487
f 487 485 483
f 483 481 479
f 479 476 473
f 473 471 469
f 469 467 465
f 465 463 280
f 280 461 459
f 459 457 455
f 455 453 451
f 451 449 447
f 447 445 443
f 443 441 439
f 439 437 435
f 435 487 483
f 483 479 473
f 473 469 465
f 465 280 459
f 459 455 451
f 451 447 443
f 443 439 435
f 435 483 473
f 473 465 459
f 459 451 443
f 443 435 473
f 473 459 443
f 250 489 488
f 515 309 250
f 488 515 250
f 436 490 491
f 436 491 438
f 438 491 492
f 438 492 440
f 440 492 493
f 440 493 442
f 442 493 494
f 442 494 444
f 444 494 495
f 444 495 446
f 446 495 496
f 446 496 448
f 448 496 497
f 448 497 450
f 450 497 498
f 450 498 452
f 452 498 499
f 452 499 454
f 454 499 500
f 454 500 456
f 456 500 501
f 456 501 458
f 458 501 502
f 458 502 460
f 460 502 503
f 460 503 462
f 462 503 324
f 462 324 281
f 281 324 504
f 281 504 464
f 464 504 505
f 464 505 466
f 466 505 506
f 466 506 468
f 468 506 507
f 468 507 470
f 470 507 508
f 470 508 472
f 472 508 509
f 472 509 474
f 309 249 435
f 309 435 490
f 509 473 476
f 509 476 510
f 480 511 512
f 480 512 482
f 482 512 513
f 482 513 484
f 484 513 514
f 484 514 486
f 486 514 515
f 486 515 488
f 522 582 581
f 522 581 521
f 436 547 546
f 436 546 434
f 486 573 572
f 486 572 484
f 281 385 560
f 281 560 462
f 438 548 547
f 438 547 436
f 488 574 573
f 488 573 486
f 464 561 385
f 464 385 281
f 440 549 548
f 440 548 438
f 489 575 574
f 489 574 488
f 466 562 561
f 466 561 464
f 442 550 549
f 442 549 440
f 250 370 575
f 250 575 489
f 468 563 562
f 468 562 466
f 444 551 550
f 444 550 442
f 470 564 563
f 470 563 468
f 446 552 551
f 446 551 444
f 472 565 564
f 472 564 470
f 448 553 552
f 448 552 446
f 474 566 565
f 474 565 472
f 450 554 553
f 450 553 448
f 475 567 566
f 475 566 474
f 452 555 554
f 452 554 450
f 477 568 567
f 477 567 475
f 454 556 555
f 454 555 452
f 478 569 568
f 478 568 477
f 456 557 556
f 456 556 454
f 480 570 569
f 480 569 478
f 458 558 557
f 458 557 456
f 482 571 570
f 482 570 480
f 460 559 558
f 460 558 458
f 434 546 370
f 434 370 250
f 484 572 571
f 484 571 482
f 338 370 546
f 338 546 516
f 516 546 547
f 516 547 517
f 517 547 548
f 517 548 518
f 518 548 549
f 518 549 519
f 519 549 550
f 519 550 520
f 520 550 551
f 520 551 521
f 521 551 552
f 521 552 522
f 522 552 553
f 522 553 523
f 523 553 554
f 523 554 524
f 524 554 555
f 524 555 525
f 525 555 556
f 525 556 526
f 526 556 557
f 526 557 527
f 527 557 558
f 527 558 528
f 528 558 559
f 528 559 529
f 529 559 560
f 529 560 530
f 530 560 385
f 530 385 353
f 353 385 561
f 353 561 531
f 531 561 562
f 531 562 532
f 532 562 563
f 532 563 533
f 533 563 564
f 533 564 534
f 534 564 565
f 534 565 535
f 535 565 566
f 535 566 536
f 536 566 567
f 536 567 537
f 537 567 568
f 537 568 538
f 538 568 569
f 538 569 539
f 539 569 570
f 539 570 540
f 540 570 571
f 540 571 541
f 541 571 572
f 541 572 542
f 542 572 573
f 542 573 543
f 543 573 574
f 543 574 544
f 544 574 575
f 544 575 545
f 545 575 370
f 545 370 338
f 535 595 594
f 535 594 534
f 523 583 582
f 523 582 522
f 536 596 595
f 536 595 535
f 524 584 583
f 524 583 523
f 537 597 596
f 537 596 536
f 525 585 584
f 525 584 524
f 538 598 597
f 538 597 537
f 526 586 585
f 526 585 525
f 539 599 598
f 539 598 538
f 527 587 586
f 527 586 526
f 540 600 599
f 540 599 539
f 528 588 587
f 528 587 527
f 541 601 600
f 541 600 540
f 529 589 588
f 529 588 528
f 516 576 403
f 516 403 338
f 542 602 601
f 542 601 541
f 530 590 589
f 530 589 529
f 517 577 576
f 517 576 516
f 543 603 602
f 543 602 542
f 353 418 590
f 353 590 530
f 518 578 577
f 518 577 517
f 544 604 603
f 544 603 543
f 531 591 418
f 531 418 353
f 519 579 578
f 519 578 518
f 545 605 604
f 545 604 544
f 532 592 591
f 532 591 531
f 520 580 579
f 520 579 519
f 338 403 605
f 338 605 545
f 533 593 592
f 533 592 532
f 521 581 580
f 521 580 520
f 534 594 593
f 534 593 533
f 401 403 576
f 401 576 577
f 401 577 578
f 401 578 579
f 401 579 580
f 401 580 581
f 401 581 582
f 401 582 583
f 401 583 584
f 401 584 585
f 401 585 586
f 401 586 587
f 401 587 588
f 401 588 589
f 401 589 590
f 401 590 418
f 401 418 591
f 401 591 592
f 401 592 593
f 401 593 594
f 401 594 595
f 401 595 596
f 401 596 597
f 401 597 598
f 401 598 599
f 401 599 600
f 401 600 601
f 401 601 602
f 401 602 603
f 401 603 604
f 401 604 605
f 401 605 403
f 510 476 479
f 510 479 511
f 687 659 606
f 687 606 662
f 609 611 664
f 609 664 663
f 611 613 665
f 611 665 664
f 613 615 666
f 613 666 665
f 615 617 667
f 615 667 666
f 617 619 668
f 617 668 667
f 619 264 316
f 619 316 668
f 264 621 669
f 264 669 316
f 621 623 670
f 621 670 669
f 623 625 671
f 623 671 670
f 625 627 672
f 625 672 671
f 627 629 673
f 627 673 672
f 629 631 674
f 629 674 673
f 631 633 675
f 631 675 674
f 633 635 676
f 633 676 675
f 635 637 677
f 635 677 676
f 637 639 678
f 637 678 677
f 639 641 679
f 639 679 678
f 641 643 680
f 641 680 679
f 643 645 681
f 643 681 680
f 645 647 682
f 645 682 681
f 649 648 682
f 331 296 649
f 649 682 331
f 331 683 652
f 650 296 331
f 650 331 652
f 651 653 684
f 651 684 683
f 653 655 685
f 653 685 684
f 655 657 686
f 655 686 685
f 657 659 687
f 657 687 686
f 634 732 731
f 634 731 632
f 663 610 608
f 607 662 663
f 608 607 663
f 609 606 659
f 659 657 655
f 655 653 651
f 651 295 647
f 647 645 643
f 643 641 639
f 639 637 635
f 635 633 631
f 631 629 627
f 627 625 623
f 623 621 264
f 264 619 617
f 617 615 613
f 613 611 609
f 609 659 655
f 655 651 647
f 647 643 639
f 639 635 631
f 631 627 623
f 623 264 617
f 617 613 609
f 609 655 647
f 647 639 631
f 631 623 617
f 617 609 647
f 647 631 617
f 607 661 660
f 687 662 607
f 660 687 607
f 610 663 664
f 610 664 612
f 612 664 665
f 612 665 614
f 614 665 666
f 614 666 616
f 616 666 667
f 616 667 618
f 618 667 668
f 618 668 620
f 620 668 316
f 620 316 265
f 265 316 669
f 265 669 622
f 622 669 670
f 622 670 624
f 624 670 671
f 624 671 626
f 626 671 672
f 626 672 628
f 628 672 673
f 628 673 630
f 630 673 674
f 630 674 632
f 632 674 675
f 632 675 634
f 634 675 676
f 634 676 636
f 636 676 677
f 636 677 638
f 638 677 678
f 638 678 640
f 640 678 679
f 640 679 642
f 642 679 680
f 642 680 644
f 644 680 681
f 644 681 646
f 646 681 682
f 646 682 648
f 662 606 609
f 662 609 663
f 682 647 295
f 682 295 331
f 652 683 684
f 652 684 654
f 654 684 685
f 654 685 656
f 656 685 686
f 656 686 658
f 658 686 687
f 658 687 660
f 695 755 754
f 695 754 694
f 610 720 718
f 610 718 608
f 658 745 744
f 658 744 656
f 636 733 732
f 636 732 634
f 612 721 720
f 612 720 610
f 660 746 745
f 660 745 658
f 638 734 733
f 638 733 636
f 614 722 721
f 614 721 612
f 661 747 746
f 661 746 660
f 640 735 734
f 640 734 638
f 616 723 722
f 616 722 614
f 607 719 747
f 607 747 661
f 642 736 735
f 642 735 640
f 618 724 723
f 618 723 616
f 644 737 736
f 644 736 642
f 620 725 724
f 620 724 618
f 646 738 737
f 646 737 644
f 265 377 725
f 265 725 620
f 648 739 738
f 648 738 646
f 622 726 377
f 622 377 265
f 649 740 739
f 649 739 648
f 624 727 726
f 624 726 622
f 296 393 740
f 296 740 649
f 626 728 727
f 626 727 624
f 650 741 393
f 650 393 296
f 628 729 728
f 628 728 626
f 652 742 741
f 652 741 650
f 630 730 729
f 630 729 628
f 654 743 742
f 654 742 652
f 632 731 730
f 632 730 630
f 608 718 719
f 608 719 607
f 656 744 743
f 656 743 654
f 689 719 718
f 689 718 688
f 688 718 720
f 688 720 690
f 690 720 721
f 690 721 691
f 691 721 722
f 691 722 692
f 692 722 723
f 692 723 693
f 693 723 724
f 693 724 694
f 694 724 725
f 694 725 695
f 695 725 377
f 695 377 345
f 345 377 726
f 345 726 696
f 696 726 727
f 696 727 697
f 697 727 728
f 697 728 698
f 698 728 729
f 698 729 699
f 699 729 730
f 699 730 700
f 700 730 731
f 700 731 701
f 701 731 732
f 701 732 702
f 702 732 733
f 702 733 703
f 703 733 734
f 703 734 704
f 704 734 735
f 704 735 705
f 705 735 736
f 705 736 706
f 706 736 737
f 706 737 707
f 707 737 738
f 707 738 708
f 708 738 739
f 708 739 709
f 709 739 740
f 709 740 710
f 710 740 393
f 710 393 361
f 361 393 741
f 361 741 711
f 711 741 742
f 711 742 712
f 712 742 743
f 712 743 713
f 713 743 744
f 713 744 714
f 714 744 745
f 714 745 715
f 715 745 746
f 715 746 716
f 716 746 747
f 716 747 717
f 717 747 719
f 717 719 689
f 708 768 767
f 708 767 707
f 345 410 755
f 345 755 695
f 709 769 768
f 709 768 708
f 696 756 410
f 696 410 345
f 710 770 769
f 710 769 709
f 697 757 756
f 697 756 696
f 361 426 770
f 361 770 710
f 698 758 757
f 698 757 697
f 711 771 426
f 711 426 361
f 699 759 758
f 699 758 698
f 712 772 771
f 712 771 711
f 700 760 759
f 700 759 699
f 713 773 772
f 713 772 712
f 701 761 760
f 701 760 700
f 688 748 749
f 688 749 689
f 714 774 773
f 714 773 713
f 702 762 761
f 702 761 701
f 690 750 748
f 690 748 688
f 715 775 774
f 715 774 714
f 703 763 762
f 703 762 702
f 691 751 750
f 691 750 690
f 716 776 775
f 716 775 715
f 704 764 763
f 704 763 703
f 692 752 751
f 692 751 691
f 717 777 776
f 717 776 716
f 705 765 764
f 705 764 704
f 693 753 752
f 693 752 692
f 689 749 777
f 689 777 717
f 706 766 765
f 706 765 705
f 694 754 753
f 694 753 693
f 707 767 766
f 707 766 706
f 401 749 748
f 401 748 750
f 401 750 751
f 401 751 752
f 401 752 753
f 401 753 754
f 401 754 755
f 401 755 410
f 401 410 756
f 401 756 757
f 401 757 758
f 401 758 759
f 401 759 760
f 401 760 761
f 401 761 762
f 401 762 763
f 401 763 764
f 401 764 765
f 401 765 766
f 401 766 767
f 401 767 768
f 401 768 769
f 401 769 770
f 401 770 426
f 401 426 771
f 401 771 772
f 401 772 773
f 401 773 774
f 401 774 775
f 401 775 776
f 401 776 777
f 401 777 749
f 331 295 651
f 331 651 683
f 853 662 606
f 853 606 827
f 779 830 831
f 779 831 781
f 781 831 832
f 781 832 783
f 783 832 833
f 783 833 785
f 785 833 834
f 785 834 787
f 787 834 835
f 787 835 789
f 789 835 496
f 789 496 447
f 447 496 836
f 447 836 791
f 791 836 837
f 791 837 793
f 793 837 838
f 793 838 795
f 795 838 839
f 795 839 797
f 797 839 840
f 797 840 799
f 799 840 841
f 799 841 801
f 801 841 842
f 801 842 803
f 803 842 676
f 803 676 635
f 635 676 843
f 635 843 805
f 805 843 844
f 805 844 807
f 807 844 845
f 807 845 809
f 809 845 846
f 809 846 811
f 811 846 847
f 811 847 813
f 813 847 848
f 813 848 815
f 848 816 817
f 477 510 848
f 817 477 848
f 818 820 849
f 510 477 818
f 818 849 510
f 819 849 850
f 819 850 821
f 821 850 851
f 821 851 823
f 823 851 852
f 823 852 825
f 825 852 853
f 825 853 827
f 804 802 894
f 804 894 895
f 778 780 830
f 662 607 778
f 778 830 662
f 827 606 779
f 779 781 783
f 783 785 787
f 787 789 447
f 447 791 793
f 793 795 797
f 797 799 801
f 801 803 635
f 635 805 807
f 807 809 811
f 811 813 815
f 815 476 819
f 819 821 823
f 823 825 827
f 827 779 783
f 783 787 447
f 447 793 797
f 797 801 635
f 635 807 811
f 811 815 819
f 819 823 827
f 827 783 447
f 447 797 635
f 635 811 819
f 819 827 447
f 447 635 819
f 853 828 829
f 607 662 853
f 829 607 853
f 780 782 831
f 780 831 830
f 782 784 832
f 782 832 831
f 784 786 833
f 784 833 832
f 786 788 834
f 786 834 833
f 788 790 835
f 788 835 834
f 790 448 496
f 790 496 835
f 448 792 836
f 448 836 496
f 792 794 837
f 792 837 836
f 794 796 838
f 794 838 837
f 796 798 839
f 796 839 838
f 798 800 840
f 798 840 839
f 800 802 841
f 800 841 840
f 802 804 842
f 802 842 841
f 804 636 676
f 804 676 842
f 636 806 843
f 636 843 676
f 806 808 844
f 806 844 843
f 808 810 845
f 808 845 844
f 810 812 846
f 810 846 845
f 812 814 847
f 812 847 846
f 814 816 848
f 814 848 847
f 662 830 779
f 662 779 606
f 848 510 476
f 848 476 815
f 820 822 850
f 820 850 849
f 822 824 851
f 822 851 850
f 824 826 852
f 824 852 851
f 826 828 853
f 826 853 852
f 860 859 915
f 860 915 916
f 780 778 882
f 780 882 883
f 826 824 906
f 826 906 907
f 636 804 895
f 636 895 733
f 782 780 883
f 782 883 884
f 828 826 907
f 828 907 908
f 806 636 733
f 806 733 896
f 784 782 884
f 784 884 885
f 829 828 908
f 829 908 909
f 808 806 896
f 808 896 897
f 786 784 885
f 786 885 886
f 607 829 909
f 607 909 719
f 810 808 897
f 810 897 898
f 788 786 886
f 788 886 887
f 812 810 898
f 812 898 899
f 790 788 887
f 790 887 888
f 814 812 899
f 814 899 900
f 448 790 888
f 448 888 553
f 816 814 900
f 816 900 901
f 792 448 553
f 792 553 889
f 817 816 901
f 817 901 902
f 794 792 889
f 794 889 890
f 477 817 902
f 477 902 568
f 796 794 890
f 796 890 891
f 818 477 568
f 818 568 903
f 798 796 891
f 798 891 892
f 820 818 903
f 820 903 904
f 800 798 892
f 800 892 893
f 822 820 904
f 822 904 905
f 802 800 893
f 802 893 894
f 778 607 719
f 778 719 882
f 824 822 905
f 824 905 906
f 689 854 882
f 689 882 719
f 854 855 883
f 854 883 882
f 855 856 884
f 855 884 883
f 856 857 885
f 856 885 884
f 857 858 886
f 857 886 885
f 858 859 887
f 858 887 886
f 859 860 888
f 859 888 887
f 860 523 553
f 860 553 888
f 523 861 889
f 523 889 553
f 861 862 890
f 861 890 889
f 862 863 891
f 862 891 890
f 863 864 892
f 863 892 891
f 864 865 893
f 864 893 892
f 865 866 894
f 865 894 893
f 866 867 895
f 866 895 894
f 867 703 733
f 867 733 895
f 703 868 896
f 703 896 733
f 868 869 897
f 868 897 896
f 869 870 898
f 869 898 897
f 870 871 899
f 870 899 898
f 871 872 900
f 871 900 899
f 872 873 901
f 872 901 900
f 873 874 902
f 873 902 901
f 874 538 568
f 874 568 902
f 538 875 903
f 538 903 568
f 875 876 904
f 875 904 903
f 876 877 905
f 876 905 904
f 877 878 906
f 877 906 905
f 878 879 907
f 878 907 906
f 879 880 908
f 879 908 907
f 880 881 909
f 880 909 908
f 881 689 719
f 881 719 909
f 872 871 927
f 872 927 928
f 523 860 916
f 523 916 583
f 873 872 928
f 873 928 929
f 861 523 583
f 861 583 917
f 874 873 929
f 874 929 930
f 862 861 917
f 862 917 918
f 538 874 930
f 538 930 598
f 863 862 918
f 863 918 919
f 875 538 598
f 875 598 931
f 864 863 919
f 864 919 920
f 876 875 931
f 876 931 932
f 865 864 920
f 865 920 921
f 877 876 932
f 877 932 933
f 866 865 921
f 866 921 922
f 854 689 749
f 854 749 910
f 878 877 933
f 878 933 934
f 867 866 922
f 867 922 923
f 855 854 910
f 855 910 911
f 879 878 934
f 879 934 935
f 703 867 923
f 703 923 763
f 856 855 911
f 856 911 912
f 880 879 935
f 880 935 936
f 868 703 763
f 868 763 924
f 857 856 912
f 857 912 913
f 881 880 936
f 881 936 937
f 869 868 924
f 869 924 925
f 858 857 913
f 858 913 914
f 689 881 937
f 689 937 749
f 870 869 925
f 870 925 926
f 859 858 914
f 859 914 915
f 871 870 926
f 871 926 927
f 401 910 749
f 401 911 910
f 401 912 911
f 401 913 912
f 401 914 913
f 401 915 914
f 401 916 915
f 401 583 916
f 401 917 583
f 401 918 917
f 401 919 918
f 401 920 919
f 401 921 920
f 401 922 921
f 401 923 922
f 401 763 923
f 401 924 763
f 401 925 924
f 401 926 925
f 401 927 926
f 401 928 927
f 401 929 928
f 401 930 929
f 401 598 930
f 401 931 598
f 401 932 931
f 401 933 932
f 401 934 933
f 401 935 934
f 401 936 935
f 401 937 936
f 401 749 937
f 510 849 819
f 510 819 476
o Турель
v -0.500000 2.120333 5.300000
v 0.500000 2.120333 5.300000
v -0.374846 2.000000 6.663450
v -0.454344 2.000000 6.574108
v -0.374846 3.000000 6.360007
v -0.500000 2.949001 6.270951
v -0.500000 2.949001 5.300000
v -0.374846 3.000000 5.435905
v 0.454344 2.000000 6.574108
v 0.374846 2.000000 6.663450
v 0.500000 2.949001 6.270951
v 0.374846 3.000000 6.360010
v 0.374846 3.000000 5.435905
v 0.500000 2.949001 5.300000
v -0.500000 2.120333 6.597866
v -0.374846 2.120333 6.700000
v 0.500000 2.120333 6.597866
v 0.374846 2.120333 6.700000
v -0.454344 1.999999 6.314578
v -0.500000 2.120332 6.314472
v 0.454344 1.999999 6.314578
v 0.500000 2.120332 6.314472
v -0.500000 2.120333 5.300000
v -0.454344 2.000000 5.481271
v 0.454344 2.000000 5.481271
v 0.500000 2.120333 5.300000
v -0.374846 3.000000 6.360007
v 0.374846 3.000000 6.360007
v -0.374846 2.120333 6.700000
v 0.374846 2.120333 6.700000
v -0.066876 2.405199 6.571492
v -0.066876 2.827351 6.464519
v 0.066876 2.827351 6.464519
v 0.066876 2.405199 6.571492
usemtl Тёмный_металл
f 953 942 943
f 953 943 952
f 950 945 942
f 950 942 949
f 942 945 944
f 942 944 943
f 955 947 946
f 955 946 954
f 940 953 952
f 940 952 941
f 949 955 954
f 949 954 948
f 947 955 953
f 947 953 940
f 957 943 944
f 957 944 938
f 945 950 951
f 945 951 944
f 958 959 954
f 958 954 946
f 959 948 954
f 939 951 948
f 939 948 959
f 952 943 957
f 941 952 957
f 941 957 956
f 950 949 948
f 950 948 951
f 962 961 960
f 962 960 963
f 961 956 957
f 938 960 961
f 957 938 961
f 960 938 939
f 960 939 963
f 956 961 962
f 958 946 947
f 956 962 958
f 940 941 956
f 958 947 940
f 958 940 956
f 958 962 963
f 963 939 959
f 963 959 958
f 968 969 964
f 968 964 966
f 970 971 967
f 970 967 965
f 971 968 966
f 971 966 967
f 969 970 965
f 969 965 964
usemtl Тьма
f 971 970 969
f 971 969 968
usemtl Тёмный_металл
f 939 938 944
f 939 944 951
o Ствол
v 0.046144 2.381749 6.310708
v 0.046144 2.783971 6.293132
v 0.028000 2.584024 7.908906
v 0.028000 2.640024 7.908906
v -0.046144 2.381749 6.310708
v -0.046144 2.783971 6.293132
v -0.028000 2.584024 7.908906
v -0.028000 2.640024 7.908906
v -0.000000 2.572024 7.908906
v -0.000000 2.652024 7.908906
v 0.040000 2.612024 7.908906
v -0.040000 2.612024 7.908906
v 0.028000 2.612024 6.775004
v 0.019600 2.592424 6.775004
v 0.000000 2.584024 6.775004
v 0.000000 2.640024 6.775004
v -0.019600 2.631624 6.775004
v -0.028000 2.612024 6.775004
v -0.019600 2.592424 6.775004
v 0.019600 2.631624 6.775004
v 0.028000 2.584024 7.722320
v 0.028000 2.640024 7.722320
v -0.028000 2.584024 7.722320
v -0.028000 2.640024 7.722320
v -0.000000 2.652024 7.722320
v -0.000000 2.572024 7.722320
v -0.040000 2.612024 7.722320
v 0.040000 2.612024 7.722320
v 0.028000 2.612024 7.910501
v 0.019600 2.592424 7.910501
v -0.000000 2.584024 7.910501
v -0.000000 2.640024 7.910501
v -0.019600 2.631624 7.910501
v -0.028000 2.612024 7.910501
v -0.019600 2.592424 7.910501
v 0.019600 2.631624 7.910501
v 0.031466 2.643491 7.722847
v -0.031466 2.580558 7.722847
v 0.044951 2.612024 7.722847
v 0.031466 2.580558 7.722847
v -0.031466 2.643491 7.722847
v -0.000000 2.656976 7.722847
v -0.000000 2.567073 7.722847
v -0.044952 2.612024 7.722847
v 0.032649 2.579375 6.574940
v -0.032650 2.644674 6.574940
v -0.000000 2.658666 6.574940
v -0.000000 2.565382 6.574940
v -0.046642 2.612024 6.574940
v 0.032649 2.644674 6.574940
v -0.032650 2.579375 6.574940
v 0.046642 2.612024 6.574940
v 0.044178 2.390243 6.444754
v -0.044747 2.808253 6.436092
v 0.046689 2.808253 6.436092
v -0.047259 2.390243 6.444754
v 0.046144 2.584223 6.182608
v -0.046144 2.584223 6.182608
usemtl Тёмный_металл
f 1010 1008 975
f 1010 975 982
f 1022 1020 1027
f 1018 1021 1026
f 1029 977 973
f 1029 973 1028
f 1020 1025 977
f 1020 977 1029
f 1023 1026 1021
f 1011 1010 982
f 1011 982 974
f 982 975 1007
f 982 1007 1000
f 985 984 991
f 991 987 988
f 988 989 990
f 990 986 985
f 985 991 988
f 988 990 985
f 978 980 1002
f 978 1002 1006
f 981 979 1004
f 981 1004 1003
f 974 982 1000
f 974 1000 1001
f 979 983 1005
f 979 1005 1004
f 975 981 1003
f 975 1003 1007
f 983 978 1006
f 983 1006 1005
f 980 974 1001
f 980 1001 1002
f 1016 1023 999
f 1016 999 992
f 1009 1015 998
f 1009 998 994
f 1011 1014 997
f 1011 997 992
f 1012 1013 996
f 1012 996 995
f 1013 1008 993
f 1013 993 996
f 1014 1009 994
f 1014 994 997
f 1015 1012 995
f 1015 995 998
f 1023 1021 993
f 1023 993 999
usemtl Тьма
f 984 985 1001
f 984 1001 1000
f 985 986 1002
f 985 1002 1001
f 988 987 1003
f 988 1003 1004
f 990 989 1005
f 990 1005 1006
f 986 990 1006
f 986 1006 1002
f 987 991 1007
f 987 1007 1003
f 991 984 1000
f 991 1000 1007
f 989 988 1004
f 989 1004 1005
usemtl Тёмный_металл
f 983 979 1012
f 983 1012 1015
f 980 978 1009
f 980 1009 1014
f 981 975 1008
f 981 1008 1013
f 979 981 1013
f 979 1013 1012
f 974 980 1014
f 974 1014 1011
f 978 983 1015
f 978 1015 1009
f 992 999 1010
f 992 1010 1011
f 999 993 1008
f 999 1008 1010
f 1019 1022 1027
f 1025 1018 1026
f 994 998 1020
f 994 1020 1022
f 992 997 1019
f 992 1019 1016
f 995 996 1018
f 995 1018 1017
f 996 993 1021
f 996 1021 1018
f 997 994 1022
f 997 1022 1019
f 998 995 1017
f 998 1017 1020
f 1019 1027 1024
f 1016 1019 1024
f 1024 1027 976
f 1024 976 972
f 1028 1023 1024
f 1028 1024 972
f 1017 1018 1025
f 1025 1026 973
f 1025 973 977
f 973 1026 1023
f 973 1023 1028
f 1027 1020 1029
f 1027 1029 976
f 976 1029 1028
f 976 1028 972
f 1024 1023 1016
f 1020 1017 1025
