<svg xmlns="http://www.w3.org/2000/svg" width="1920" height="1080" viewBox="0 0 1920 1080">
  <defs>
    <style>
      .topBar,.panel{fill:#12100d;stroke:#8a6334;stroke-width:2}
      .panelSoft,.row{fill:#1b1711;stroke:#5f4627;stroke-width:1.4}
      .row{fill:#181d20}
      .navItem{fill:#17140f;stroke:#5f4627;stroke-width:1.4}
      .navActive{fill:#33230f;stroke:#d79a43;stroke-width:2.2}
      .btn{fill:#241b10;stroke:#b47a38;stroke-width:2}
      .btnPrimary{fill:#3a260f;stroke:#d79a43;stroke-width:3}
      .chip{fill:#24302a;stroke:#789c63;stroke-width:1.3}
      .chipBlue{fill:#1d2c35;stroke:#5db4d8;stroke-width:1.3}
      .chipWarn{fill:#3a241d;stroke:#c85b42;stroke-width:1.3}
      .barBg{fill:#17140f;stroke:#5f4627;stroke-width:1}
      .green{fill:#7fbc48}.gold,.accent{fill:#e5c17a}.blue{fill:#5db4d8}.rust{fill:#c85b42}.yellow{fill:#dca94a}.red{fill:#c85b42}
      .cloud{fill:#f4dfb5;opacity:.18}.cloud2{fill:#d9c8aa;opacity:.24}
      .rock{fill:#20252b}.island{fill:#30353a;stroke:#80613a;stroke-width:2}
      .ship{fill:#2d3440;stroke:#b68446;stroke-width:2}.shipDark{fill:#151a21;stroke:#775736;stroke-width:2}
      .lamp{fill:#f2b45f;opacity:.88}
      .line{stroke:#8a6334;stroke-width:2}.route{stroke:#d79a43;stroke-width:4;fill:none;stroke-dasharray:12 10}.routeDim{opacity:.4}
      .grid{stroke:#6f7f82;stroke-width:1;opacity:.09}
      .title{font:700 30px Georgia,'Times New Roman',serif;fill:#f0d28c}
      .h1{font:700 24px Georgia,'Times New Roman',serif;fill:#f0d28c}
      .h2{font:700 18px Inter,Arial,sans-serif;fill:#e5c17a}
      .txt{font:500 16px Inter,Arial,sans-serif;fill:#e2d3ad}
      .small{font:500 13px Inter,Arial,sans-serif;fill:#a79369}
      .micro{font:500 11px Inter,Arial,sans-serif;fill:#a79369}
      .num{font:700 22px Inter,Arial,sans-serif;fill:#f0d28c}
      .buttonText{font:700 15px Inter,Arial,sans-serif;fill:#e5c17a}
      .buttonTextBig{font:700 30px Georgia,'Times New Roman',serif;fill:#f0d28c}
      .navText{font:700 15px Inter,Arial,sans-serif;fill:#e5c17a}
      .chipText{font:700 13px Inter,Arial,sans-serif;fill:#d9e3cf}
      .mapLabel{font:700 16px Inter,Arial,sans-serif;fill:#f0d28c}
      .shadow{filter:url(#shadow)}
    </style>
    <filter id="shadow" x="-10%" y="-10%" width="120%" height="130%">
      <feDropShadow dx="0" dy="5" stdDeviation="6" flood-color="#000" flood-opacity=".45"/>
    </filter>
    <linearGradient id="sky" x1="0" y1="0" x2="1" y2="1">
      <stop offset="0" stop-color="#526b83"/><stop offset=".52" stop-color="#d7b782"/><stop offset="1" stop-color="#273747"/>
    </linearGradient>
    <linearGradient id="storm" x1="0" y1="0" x2="0" y2="1">
      <stop offset="0" stop-color="#2b4054" stop-opacity=".05"/><stop offset="1" stop-color="#091016" stop-opacity=".82"/>
    </linearGradient>
    <linearGradient id="gridFade" x1="0" y1="0" x2="0" y2="1">
      <stop offset="0" stop-color="#2f4c56" stop-opacity=".35"/><stop offset="1" stop-color="#090b0e" stop-opacity=".8"/>
    </linearGradient>
  </defs>
  <rect width="1920" height="1080" fill="#121923"/>
    <rect width="1920" height="1080" fill="url(#gridFade)"/>
    <line x1="0" y1="120" x2="1920" y2="120" class="grid" /><line x1="0" y1="170" x2="1920" y2="170" class="grid" /><line x1="0" y1="220" x2="1920" y2="220" class="grid" /><line x1="0" y1="270" x2="1920" y2="270" class="grid" /><line x1="0" y1="320" x2="1920" y2="320" class="grid" /><line x1="0" y1="370" x2="1920" y2="370" class="grid" /><line x1="0" y1="420" x2="1920" y2="420" class="grid" /><line x1="0" y1="470" x2="1920" y2="470" class="grid" /><line x1="0" y1="520" x2="1920" y2="520" class="grid" /><line x1="0" y1="570" x2="1920" y2="570" class="grid" /><line x1="0" y1="620" x2="1920" y2="620" class="grid" /><line x1="0" y1="670" x2="1920" y2="670" class="grid" /><line x1="0" y1="720" x2="1920" y2="720" class="grid" /><line x1="0" y1="770" x2="1920" y2="770" class="grid" /><line x1="0" y1="820" x2="1920" y2="820" class="grid" /><line x1="0" y1="870" x2="1920" y2="870" class="grid" /><line x1="0" y1="920" x2="1920" y2="920" class="grid" /><line x1="0" y1="970" x2="1920" y2="970" class="grid" /><line x1="0" y1="1020" x2="1920" y2="1020" class="grid" />
    <line x1="60" y1="0" x2="60" y2="1080" class="grid" /><line x1="156" y1="0" x2="156" y2="1080" class="grid" /><line x1="252" y1="0" x2="252" y2="1080" class="grid" /><line x1="348" y1="0" x2="348" y2="1080" class="grid" /><line x1="444" y1="0" x2="444" y2="1080" class="grid" /><line x1="540" y1="0" x2="540" y2="1080" class="grid" /><line x1="636" y1="0" x2="636" y2="1080" class="grid" /><line x1="732" y1="0" x2="732" y2="1080" class="grid" /><line x1="828" y1="0" x2="828" y2="1080" class="grid" /><line x1="924" y1="0" x2="924" y2="1080" class="grid" /><line x1="1020" y1="0" x2="1020" y2="1080" class="grid" /><line x1="1116" y1="0" x2="1116" y2="1080" class="grid" /><line x1="1212" y1="0" x2="1212" y2="1080" class="grid" /><line x1="1308" y1="0" x2="1308" y2="1080" class="grid" /><line x1="1404" y1="0" x2="1404" y2="1080" class="grid" /><line x1="1500" y1="0" x2="1500" y2="1080" class="grid" /><line x1="1596" y1="0" x2="1596" y2="1080" class="grid" /><line x1="1692" y1="0" x2="1692" y2="1080" class="grid" /><line x1="1788" y1="0" x2="1788" y2="1080" class="grid" /><line x1="1884" y1="0" x2="1884" y2="1080" class="grid" /><g class="shadow">
    <rect x="24" y="20" width="1872" height="74" class="topBar" rx="10"/>
    <text x="54" y="58" class="title" >ОХОТА</text>
    <text x="54" y="82" class="small" >гарпун, тревога, здоровье цели и трофеи</text>
    <text x="1540" y="58" class="h2" text-anchor="end">07:42 · день 163</text>
    <g><rect x="1574" y="31" width="156" height="52" class="btn" rx="8"/><text x="1652" y="65" class="buttonText" text-anchor="middle">СОХРАНИТЬ</text></g>
    <g><rect x="1744" y="31" width="62" height="52" class="btn" rx="8"/><text x="1775" y="65" class="buttonText" text-anchor="middle">⚙</text></g>
  </g><g class="shadow"><rect x="20" y="112" width="278" height="736" class="panel" rx="10"/><g><rect x="34" y="134" width="244" height="58" class="navItem" rx="8"/><text x="58" y="171" class="navText" >ГОРОД</text></g>
<g><rect x="34" y="210" width="244" height="58" class="navItem" rx="8"/><text x="58" y="247" class="navText" >КАРТА</text></g>
<g><rect x="34" y="286" width="244" height="58" class="navItem" rx="8"/><text x="58" y="323" class="navText" >АНГАР</text></g>
<g><rect x="34" y="362" width="244" height="58" class="navItem" rx="8"/><text x="58" y="399" class="navText" >СБОРКА</text></g>
<g><rect x="34" y="438" width="244" height="58" class="navItem" rx="8"/><text x="58" y="475" class="navText" >ПРОИЗВОДСТВО</text></g>
<g><rect x="34" y="514" width="244" height="58" class="navItem" rx="8"/><text x="58" y="551" class="navText" >ИССЛЕДОВАНИЯ</text></g>
<g><rect x="34" y="590" width="244" height="58" class="navActive" rx="8"/><text x="58" y="627" class="navText" >ФЛОТ</text></g>
<g><rect x="34" y="666" width="244" height="58" class="navItem" rx="8"/><text x="58" y="703" class="navText" >РАЗВЕДКА</text></g>
<g><rect x="34" y="742" width="244" height="58" class="navItem" rx="8"/><text x="58" y="779" class="navText" >ЭНЦИКЛОПЕДИЯ</text></g></g><g class="shadow"><rect x="338" y="116" width="1118" height="732" class="panel" rx="10"/><text x="362" y="158" class="h1" >Охота на левиафана</text>
    <path d="M760 400 C880 260 1160 300 1210 420 C1120 520 900 560 720 500 C650 476 642 438 760 400 Z" fill="#2b3440" stroke="#b68446" stroke-width="3"/>
    <circle cx="1020" cy="388" r="18" class="lamp" />
    <g transform="translate(560 582) scale(0.7)">
    <ellipse class="ship" cx="260" cy="78" rx="244" ry="60"/>
    <rect class="shipDark" x="72" y="100" width="350" height="68" rx="22"/>
    <rect class="shipDark" x="160" y="36" width="140" height="58" rx="20"/>
    <line class="line" x1="30" y1="78" x2="520" y2="78"/>
    <circle class="lamp" cx="440" cy="106" r="7"/>
  </g>
    <line x1="700" y1="650" x2="880" y2="465" class="route" />
    <text x="710" y="250" class="h1" >Малый штормовой левиафан · масса 1.8 т</text>
    <g><rect x="390" y="708" width="420" height="58" class="row" rx="7"/><text x="406" y="732" class="txt" >Гарпун</text><text x="406" y="754" class="small" >трос держит, дистанция 180 м</text><g><rect x="632" y="727" width="120" height="12" class="barBg" rx="6"/><rect x="634" y="729" width="74.24" height="8" class="green" rx="4"/><text x="764" y="739" class="small" >64%</text></g></g>
    <g><rect x="840" y="708" width="420" height="58" class="row" rx="7"/><text x="856" y="732" class="txt" >Тревога</text><text x="856" y="754" class="small" >растёт от шума и выстрелов</text><g><rect x="1082" y="727" width="120" height="12" class="barBg" rx="6"/><rect x="1084" y="729" width="67.28" height="8" class="rust" rx="4"/><text x="1214" y="739" class="small" >58%</text></g></g>
    <g><rect x="390" y="782" width="420" height="58" class="row" rx="7"/><text x="406" y="806" class="txt" >Корпус цели</text><text x="406" y="828" class="small" >здоровье 62%</text><g><rect x="632" y="801" width="120" height="12" class="barBg" rx="6"/><rect x="634" y="803" width="71.92" height="8" class="yellow" rx="4"/><text x="764" y="813" class="small" >62%</text></g></g>
    <g><rect x="840" y="782" width="420" height="58" class="row" rx="7"/><text x="856" y="806" class="txt" >Добыча</text><text x="856" y="828" class="small" >туша, жир, биоматериалы</text><g><rect x="1082" y="801" width="120" height="12" class="barBg" rx="6"/><rect x="1084" y="803" width="34.8" height="8" class="blue" rx="4"/><text x="1214" y="813" class="small" >30%</text></g></g>
  </g><g class="shadow"><rect x="1508" y="116" width="384" height="732" class="panel" rx="10"/><text x="1532" y="158" class="h1" >Команды охоты</text>
    <g><rect x="1540" y="190" width="316" height="58" class="btn" rx="8"/><text x="1698" y="227" class="buttonText" text-anchor="middle">ВЫСТРЕЛ ГАРПУНОМ</text></g>
    <g><rect x="1540" y="268" width="316" height="58" class="btn" rx="8"/><text x="1698" y="305" class="buttonText" text-anchor="middle">ВЫСТРЕЛИТЬ</text></g>
    <g><rect x="1540" y="346" width="316" height="58" class="btnPrimary" rx="8"/><text x="1698" y="383" class="buttonTextBig" text-anchor="middle">ЗАБРАТЬ ТУШУ</text></g>
    <g><rect x="1540" y="454" width="316" height="58" class="row" rx="7"/><text x="1556" y="478" class="txt" >Условие</text><text x="1556" y="500" class="small" >цель разведана</text><g><rect x="1678" y="473" width="120" height="12" class="barBg" rx="6"/><rect x="1680" y="475" width="99.76" height="8" class="green" rx="4"/><text x="1810" y="485" class="small" >86%</text></g></g>
    <g><rect x="1540" y="524" width="316" height="58" class="row" rx="7"/><text x="1556" y="548" class="txt" >Масса</text><text x="1556" y="570" class="small" >влезает в трюм</text><g><rect x="1678" y="543" width="120" height="12" class="barBg" rx="6"/><rect x="1680" y="545" width="60.32" height="8" class="yellow" rx="4"/><text x="1810" y="555" class="small" >52%</text></g></g>
    <g><rect x="1540" y="594" width="316" height="58" class="row" rx="7"/><text x="1556" y="618" class="txt" >Риск</text><text x="1556" y="640" class="small" >таран при тревоге</text><g><rect x="1678" y="613" width="120" height="12" class="barBg" rx="6"/><rect x="1680" y="615" width="51.04" height="8" class="rust" rx="4"/><text x="1810" y="625" class="small" >44%</text></g></g>
  </g><g class="shadow"><rect x="22" y="898" width="1876" height="130" class="panel" rx="10"/><g><rect x="50" y="924" width="210" height="74" class="panelSoft" rx="8"/><text x="68" y="949" class="small" >ДОК</text><text x="68" y="981" class="num accent" >Столица</text></g>
<g><rect x="276" y="924" width="230" height="74" class="panelSoft" rx="8"/><text x="294" y="949" class="small" >КОРАБЛЬ</text><text x="294" y="981" class="num accent" >Пионер</text></g>
<g><rect x="522" y="924" width="190" height="74" class="panelSoft" rx="8"/><text x="540" y="949" class="small" >КОРПУС</text><text x="540" y="981" class="num green" >92%</text></g>
<g><rect x="728" y="924" width="220" height="74" class="panelSoft" rx="8"/><text x="746" y="949" class="small" >ГРУЗ</text><text x="746" y="981" class="num gold" >312/420 кг</text></g>
<g><rect x="964" y="924" width="220" height="74" class="panelSoft" rx="8"/><text x="982" y="949" class="small" >ТОПЛИВО</text><text x="982" y="981" class="num green" >1240 кг</text></g>
<g><rect x="1200" y="924" width="220" height="74" class="panelSoft" rx="8"/><text x="1218" y="949" class="small" >КЛАВДИЙ</text><text x="1218" y="981" class="num blue" >480 кг</text></g>
<g><rect x="1534" y="922" width="328" height="86" class="btnPrimary" rx="8"/><text x="1698" y="973" class="buttonTextBig" text-anchor="middle">ВЗЛЕТЕТЬ</text></g></g>
</svg>
