mtllib wild_wind_simple_boat_ship.mtl
o WildWind_Simple_Boat_Ship
v -3.00000 0.00000 -0.45000
v -2.20000 -0.75000 0.00000
v 1.90000 -0.75000 0.00000
v 3.00000 -0.35000 -0.05000
v 3.10000 0.00000 -0.15000
v 3.00000 0.35000 -0.05000
v 1.90000 0.75000 0.00000
v -2.20000 0.75000 0.00000
v -3.15000 0.00000 0.75000
v -2.30000 -0.85000 0.90000
v 1.90000 -0.85000 0.90000
v 3.05000 -0.45000 0.65000
v 3.25000 0.00000 0.55000
v 3.05000 0.45000 0.65000
v 1.90000 0.85000 0.90000
v -2.30000 0.85000 0.90000
v -2.27500 -0.52500 0.90000
v -0.92500 -0.52500 0.90000
v -0.92500 0.52500 0.90000
v -2.27500 0.52500 0.90000
v -2.27500 -0.52500 1.60000
v -0.92500 -0.52500 1.60000
v -0.92500 0.52500 1.60000
v -2.27500 0.52500 1.60000
v -2.37500 -0.59000 1.61000
v -0.82500 -0.59000 1.61000
v -0.82500 0.59000 1.61000
v -2.37500 0.59000 1.61000
v -2.37500 -0.59000 1.75000
v -0.82500 -0.59000 1.75000
v -0.82500 0.59000 1.75000
v -2.37500 0.59000 1.75000
v -2.30000 -0.45000 1.17000
v -2.26000 -0.45000 1.17000
v -2.26000 -0.15000 1.17000
v -2.30000 -0.15000 1.17000
v -2.30000 -0.45000 1.45000
v -2.26000 -0.45000 1.45000
v -2.26000 -0.15000 1.45000
v -2.30000 -0.15000 1.45000
v -2.30000 0.15000 1.17000
v -2.26000 0.15000 1.17000
v -2.26000 0.45000 1.17000
v -2.30000 0.45000 1.17000
v -2.30000 0.15000 1.45000
v -2.26000 0.15000 1.45000
v -2.26000 0.45000 1.45000
v -2.30000 0.45000 1.45000
v -1.80000 -0.56000 1.19500
v -1.30000 -0.56000 1.19500
v -1.30000 -0.52000 1.19500
v -1.80000 -0.52000 1.19500
v -1.80000 -0.56000 1.44500
v -1.30000 -0.56000 1.44500
v -1.30000 -0.52000 1.44500
v -1.80000 -0.52000 1.44500
v -1.80000 0.52000 1.19500
v -1.30000 0.52000 1.19500
v -1.30000 0.56000 1.19500
v -1.80000 0.56000 1.19500
v -1.80000 0.52000 1.44500
v -1.30000 0.52000 1.44500
v -1.30000 0.56000 1.44500
v -1.80000 0.56000 1.44500
v 0.75000 0.42000 1.18000
v 1.75000 0.42000 1.18000
v 0.75000 0.38803 1.34073
v 1.75000 0.38803 1.34073
v 0.75000 0.29698 1.47698
v 1.75000 0.29698 1.47698
v 0.75000 0.16073 1.56803
v 1.75000 0.16073 1.56803
v 0.75000 0.00000 1.60000
v 1.75000 0.00000 1.60000
v 0.75000 -0.16073 1.56803
v 1.75000 -0.16073 1.56803
v 0.75000 -0.29698 1.47698
v 1.75000 -0.29698 1.47698
v 0.75000 -0.38803 1.34073
v 1.75000 -0.38803 1.34073
v 0.75000 -0.42000 1.18000
v 1.75000 -0.42000 1.18000
v 0.75000 -0.38803 1.01927
v 1.75000 -0.38803 1.01927
v 0.75000 -0.29698 0.88302
v 1.75000 -0.29698 0.88302
v 0.75000 -0.16073 0.79197
v 1.75000 -0.16073 0.79197
v 0.75000 -0.00000 0.76000
v 1.75000 -0.00000 0.76000
v 0.75000 0.16073 0.79197
v 1.75000 0.16073 0.79197
v 0.75000 0.29698 0.88302
v 1.75000 0.29698 0.88302
v 0.75000 0.38803 1.01927
v 1.75000 0.38803 1.01927
v 2.03000 0.00000 1.30000
v 2.03000 0.00000 2.60000
v 2.01630 0.06888 1.30000
v 2.01630 0.06888 2.60000
v 1.97728 0.12728 1.30000
v 1.97728 0.12728 2.60000
v 1.91888 0.16630 1.30000
v 1.91888 0.16630 2.60000
v 1.85000 0.18000 1.30000
v 1.85000 0.18000 2.60000
v 1.78112 0.16630 1.30000
v 1.78112 0.16630 2.60000
v 1.72272 0.12728 1.30000
v 1.72272 0.12728 2.60000
v 1.68370 0.06888 1.30000
v 1.68370 0.06888 2.60000
v 1.67000 0.00000 1.30000
v 1.67000 0.00000 2.60000
v 1.68370 -0.06888 1.30000
v 1.68370 -0.06888 2.60000
v 1.72272 -0.12728 1.30000
v 1.72272 -0.12728 2.60000
v 1.78112 -0.16630 1.30000
v 1.78112 -0.16630 2.60000
v 1.85000 -0.18000 1.30000
v 1.85000 -0.18000 2.60000
v 1.91888 -0.16630 1.30000
v 1.91888 -0.16630 2.60000
v 1.97728 -0.12728 1.30000
v 1.97728 -0.12728 2.60000
v 2.01630 -0.06888 1.30000
v 2.01630 -0.06888 2.60000
v 0.10000 -0.45000 0.90500
v 0.80000 -0.45000 0.90500
v 0.80000 0.45000 0.90500
v 0.10000 0.45000 0.90500
v 0.10000 -0.45000 1.25500
v 0.80000 -0.45000 1.25500
v 0.80000 0.45000 1.25500
v 0.10000 0.45000 1.25500
v 3.12500 0.10000 0.25000
v 3.57500 0.10000 0.25000
v 3.12500 0.08660 0.30000
v 3.57500 0.08660 0.30000
v 3.12500 0.05000 0.33660
v 3.57500 0.05000 0.33660
v 3.12500 0.00000 0.35000
v 3.57500 0.00000 0.35000
v 3.12500 -0.05000 0.33660
v 3.57500 -0.05000 0.33660
v 3.12500 -0.08660 0.30000
v 3.57500 -0.08660 0.30000
v 3.12500 -0.10000 0.25000
v 3.57500 -0.10000 0.25000
v 3.12500 -0.08660 0.20000
v 3.57500 -0.08660 0.20000
v 3.12500 -0.05000 0.16340
v 3.57500 -0.05000 0.16340
v 3.12500 -0.00000 0.15000
v 3.57500 -0.00000 0.15000
v 3.12500 0.05000 0.16340
v 3.57500 0.05000 0.16340
v 3.12500 0.08660 0.20000
v 3.57500 0.08660 0.20000
v 3.58000 0.07500 0.16000
v 3.66000 0.07500 0.16000
v 3.66000 0.82500 0.16000
v 3.58000 0.82500 0.16000
v 3.58000 0.07500 0.34000
v 3.66000 0.07500 0.34000
v 3.66000 0.82500 0.34000
v 3.58000 0.82500 0.34000
v 3.58000 -0.82500 0.16000
v 3.66000 -0.82500 0.16000
v 3.66000 -0.07500 0.16000
v 3.58000 -0.07500 0.16000
v 3.58000 -0.82500 0.34000
v 3.66000 -0.82500 0.34000
v 3.66000 -0.07500 0.34000
v 3.58000 -0.07500 0.34000
v 3.58000 -0.09000 0.32500
v 3.66000 -0.09000 0.32500
v 3.66000 0.09000 0.32500
v 3.58000 0.09000 0.32500
v 3.58000 -0.09000 1.07500
v 3.66000 -0.09000 1.07500
v 3.66000 0.09000 1.07500
v 3.58000 0.09000 1.07500
v 3.58000 -0.09000 -0.57500
v 3.66000 -0.09000 -0.57500
v 3.66000 0.09000 -0.57500
v 3.58000 0.09000 -0.57500
v 3.58000 -0.09000 0.17500
v 3.66000 -0.09000 0.17500
v 3.66000 0.09000 0.17500
v 3.58000 0.09000 0.17500
v -1.85000 0.28000 -0.35000
v 1.35000 0.28000 -0.35000
v -1.85000 0.25869 -0.24285
v 1.35000 0.25869 -0.24285
v -1.85000 0.19799 -0.15201
v 1.35000 0.19799 -0.15201
v -1.85000 0.10715 -0.09131
v 1.35000 0.10715 -0.09131
v -1.85000 0.00000 -0.07000
v 1.35000 0.00000 -0.07000
v -1.85000 -0.10715 -0.09131
v 1.35000 -0.10715 -0.09131
v -1.85000 -0.19799 -0.15201
v 1.35000 -0.19799 -0.15201
v -1.85000 -0.25869 -0.24285
v 1.35000 -0.25869 -0.24285
v -1.85000 -0.28000 -0.35000
v 1.35000 -0.28000 -0.35000
v -1.85000 -0.25869 -0.45715
v 1.35000 -0.25869 -0.45715
v -1.85000 -0.19799 -0.54799
v 1.35000 -0.19799 -0.54799
v -1.85000 -0.10715 -0.60869
v 1.35000 -0.10715 -0.60869
v -1.85000 -0.00000 -0.63000
v 1.35000 -0.00000 -0.63000
v -1.85000 0.10715 -0.60869
v 1.35000 0.10715 -0.60869
v -1.85000 0.19799 -0.54799
v 1.35000 0.19799 -0.54799
v -1.85000 0.25869 -0.45715
v 1.35000 0.25869 -0.45715
v -1.91500 0.00000 1.60000
v -1.91500 0.00000 2.70000
v -1.92525 0.02475 1.60000
v -1.92525 0.02475 2.70000
v -1.95000 0.03500 1.60000
v -1.95000 0.03500 2.70000
v -1.97475 0.02475 1.60000
v -1.97475 0.02475 2.70000
v -1.98500 0.00000 1.60000
v -1.98500 0.00000 2.70000
v -1.97475 -0.02475 1.60000
v -1.97475 -0.02475 2.70000
v -1.95000 -0.03500 1.60000
v -1.95000 -0.03500 2.70000
v -1.92525 -0.02475 1.60000
v -1.92525 -0.02475 2.70000
v -1.87500 -0.03500 2.40000
v -1.22500 -0.03500 2.40000
v -1.22500 -0.00500 2.40000
v -1.87500 -0.00500 2.40000
v -1.87500 -0.03500 2.70000
v -1.22500 -0.03500 2.70000
v -1.22500 -0.00500 2.70000
v -1.87500 -0.00500 2.70000
usemtl hull
f 1 2 10 9
f 2 3 11 10
f 3 4 12 11
f 4 5 13 12
f 5 6 14 13
f 6 7 15 14
f 7 8 16 15
f 8 1 9 16
usemtl deck
f 9 10 11 12 13 14 15 16
usemtl underbody
f 8 7 6 5 4 3 2 1
usemtl cabin
f 17 18 19 20
f 21 24 23 22
f 17 21 22 18
f 18 22 23 19
f 19 23 24 20
f 20 24 21 17
f 25 26 27 28
f 29 32 31 30
f 25 29 30 26
f 26 30 31 27
f 27 31 32 28
f 28 32 29 25
usemtl glass
f 33 34 35 36
f 37 40 39 38
f 33 37 38 34
f 34 38 39 35
f 35 39 40 36
f 36 40 37 33
f 41 42 43 44
f 45 48 47 46
f 41 45 46 42
f 42 46 47 43
f 43 47 48 44
f 44 48 45 41
f 49 50 51 52
f 53 56 55 54
f 49 53 54 50
f 50 54 55 51
f 51 55 56 52
f 52 56 53 49
f 57 58 59 60
f 61 64 63 62
f 57 61 62 58
f 58 62 63 59
f 59 63 64 60
f 60 64 61 57
usemtl engine
f 65 67 68 66
f 67 69 70 68
f 69 71 72 70
f 71 73 74 72
f 73 75 76 74
f 75 77 78 76
f 77 79 80 78
f 79 81 82 80
f 81 83 84 82
f 83 85 86 84
f 85 87 88 86
f 87 89 90 88
f 89 91 92 90
f 91 93 94 92
f 93 95 96 94
f 95 65 66 96
f 95 93 91 89 87 85 83 81 79 77 75 73 71 69 67 65
f 66 68 70 72 74 76 78 80 82 84 86 88 90 92 94 96
f 97 99 100 98
f 99 101 102 100
f 101 103 104 102
f 103 105 106 104
f 105 107 108 106
f 107 109 110 108
f 109 111 112 110
f 111 113 114 112
f 113 115 116 114
f 115 117 118 116
f 117 119 120 118
f 119 121 122 120
f 121 123 124 122
f 123 125 126 124
f 125 127 128 126
f 127 97 98 128
f 127 125 123 121 119 117 115 113 111 109 107 105 103 101 99 97
f 98 100 102 104 106 108 110 112 114 116 118 120 122 124 126 128
f 129 130 131 132
f 133 136 135 134
f 129 133 134 130
f 130 134 135 131
f 131 135 136 132
f 132 136 133 129
usemtl metal
f 137 139 140 138
f 139 141 142 140
f 141 143 144 142
f 143 145 146 144
f 145 147 148 146
f 147 149 150 148
f 149 151 152 150
f 151 153 154 152
f 153 155 156 154
f 155 157 158 156
f 157 159 160 158
f 159 137 138 160
f 159 157 155 153 151 149 147 145 143 141 139 137
f 138 140 142 144 146 148 150 152 154 156 158 160
usemtl propeller
f 161 162 163 164
f 165 168 167 166
f 161 165 166 162
f 162 166 167 163
f 163 167 168 164
f 164 168 165 161
f 169 170 171 172
f 173 176 175 174
f 169 173 174 170
f 170 174 175 171
f 171 175 176 172
f 172 176 173 169
f 177 178 179 180
f 181 184 183 182
f 177 181 182 178
f 178 182 183 179
f 179 183 184 180
f 180 184 181 177
f 185 186 187 188
f 189 192 191 190
f 185 189 190 186
f 186 190 191 187
f 187 191 192 188
f 188 192 189 185
usemtl red
f 193 195 196 194
f 195 197 198 196
f 197 199 200 198
f 199 201 202 200
f 201 203 204 202
f 203 205 206 204
f 205 207 208 206
f 207 209 210 208
f 209 211 212 210
f 211 213 214 212
f 213 215 216 214
f 215 217 218 216
f 217 219 220 218
f 219 221 222 220
f 221 223 224 222
f 223 193 194 224
f 223 221 219 217 215 213 211 209 207 205 203 201 199 197 195 193
f 194 196 198 200 202 204 206 208 210 212 214 216 218 220 222 224
usemtl metal
f 225 227 228 226
f 227 229 230 228
f 229 231 232 230
f 231 233 234 232
f 233 235 236 234
f 235 237 238 236
f 237 239 240 238
f 239 225 226 240
f 239 237 235 233 231 229 227 225
f 226 228 230 232 234 236 238 240
usemtl red
f 241 242 243 244
f 245 248 247 246
f 241 245 246 242
f 242 246 247 243
f 243 247 248 244
f 244 248 245 241
