# Low-poly placeholder airship/boat model generated from reference image
mtllib wild_wind_ship_placeholder.mtl
o WildWind_Ship_Placeholder
v -3.20000 0.00000 0.00000
v -2.40000 -0.75000 0.00000
v 1.80000 -0.75000 0.00000
v 3.00000 -0.45000 0.00000
v 3.20000 0.00000 0.00000
v 3.00000 0.45000 0.00000
v 1.80000 0.75000 0.00000
v -2.40000 0.75000 0.00000
v -3.20000 0.00000 0.75000
v -2.40000 -0.65000 0.95000
v 1.80000 -0.65000 0.95000
v 3.00000 -0.38000 0.80000
v 3.20000 0.00000 0.70000
v 3.00000 0.38000 0.80000
v 1.80000 0.65000 0.95000
v -2.40000 0.65000 0.95000
v -2.80000 0.00000 -0.55000
v -2.00000 -0.55000 0.00000
v 1.80000 -0.55000 0.00000
v 2.70000 -0.30000 0.00000
v 2.90000 0.00000 -0.15000
v 2.70000 0.30000 0.00000
v 1.80000 0.55000 0.00000
v -2.00000 0.55000 0.00000
v -2.47500 -0.57500 0.89000
v -1.02500 -0.57500 0.89000
v -1.02500 0.57500 0.89000
v -2.47500 0.57500 0.89000
v -2.47500 -0.57500 1.67000
v -1.02500 -0.57500 1.67000
v -1.02500 0.57500 1.67000
v -2.47500 0.57500 1.67000
v -2.55000 -0.62500 1.66000
v -0.95000 -0.62500 1.66000
v -0.95000 0.62500 1.66000
v -2.55000 0.62500 1.66000
v -2.55000 -0.62500 1.82000
v -0.95000 -0.62500 1.82000
v -0.95000 0.62500 1.82000
v -2.55000 0.62500 1.82000
v -2.49750 -0.48000 1.19000
v -2.46250 -0.48000 1.19000
v -2.46250 -0.14000 1.19000
v -2.49750 -0.14000 1.19000
v -2.49750 -0.48000 1.53000
v -2.46250 -0.48000 1.53000
v -2.46250 -0.14000 1.53000
v -2.49750 -0.14000 1.53000
v -2.49750 0.14000 1.19000
v -2.46250 0.14000 1.19000
v -2.46250 0.48000 1.19000
v -2.49750 0.48000 1.19000
v -2.49750 0.14000 1.53000
v -2.46250 0.14000 1.53000
v -2.46250 0.48000 1.53000
v -2.49750 0.48000 1.53000
v -1.96000 -0.60750 1.24000
v -1.54000 -0.60750 1.24000
v -1.54000 -0.57250 1.24000
v -1.96000 -0.57250 1.24000
v -1.96000 -0.60750 1.56000
v -1.54000 -0.60750 1.56000
v -1.54000 -0.57250 1.56000
v -1.96000 -0.57250 1.56000
v -1.42000 -0.60750 1.26500
v -1.08000 -0.60750 1.26500
v -1.08000 -0.57250 1.26500
v -1.42000 -0.57250 1.26500
v -1.42000 -0.60750 1.53500
v -1.08000 -0.60750 1.53500
v -1.08000 -0.57250 1.53500
v -1.42000 -0.57250 1.53500
v -1.96000 0.57250 1.24000
v -1.54000 0.57250 1.24000
v -1.54000 0.60750 1.24000
v -1.96000 0.60750 1.24000
v -1.96000 0.57250 1.56000
v -1.54000 0.57250 1.56000
v -1.54000 0.60750 1.56000
v -1.96000 0.60750 1.56000
v -1.42000 0.57250 1.26500
v -1.08000 0.57250 1.26500
v -1.08000 0.60750 1.26500
v -1.42000 0.60750 1.26500
v -1.42000 0.57250 1.53500
v -1.08000 0.57250 1.53500
v -1.08000 0.60750 1.53500
v -1.42000 0.60750 1.53500
v -0.64000 -0.46000 0.98000
v -0.26000 -0.46000 0.98000
v -0.26000 -0.04000 0.98000
v -0.64000 -0.04000 0.98000
v -0.64000 -0.46000 1.32000
v -0.26000 -0.46000 1.32000
v -0.26000 -0.04000 1.32000
v -0.64000 -0.04000 1.32000
v -0.64000 0.04000 0.98000
v -0.26000 0.04000 0.98000
v -0.26000 0.46000 0.98000
v -0.64000 0.46000 0.98000
v -0.64000 0.04000 1.32000
v -0.26000 0.04000 1.32000
v -0.26000 0.46000 1.32000
v -0.64000 0.46000 1.32000
v -0.19000 -0.46000 0.98000
v 0.19000 -0.46000 0.98000
v 0.19000 -0.04000 0.98000
v -0.19000 -0.04000 0.98000
v -0.19000 -0.46000 1.32000
v 0.19000 -0.46000 1.32000
v 0.19000 -0.04000 1.32000
v -0.19000 -0.04000 1.32000
v -0.19000 0.04000 0.98000
v 0.19000 0.04000 0.98000
v 0.19000 0.46000 0.98000
v -0.19000 0.46000 0.98000
v -0.19000 0.04000 1.32000
v 0.19000 0.04000 1.32000
v 0.19000 0.46000 1.32000
v -0.19000 0.46000 1.32000
v 0.26000 -0.46000 0.98000
v 0.64000 -0.46000 0.98000
v 0.64000 -0.04000 0.98000
v 0.26000 -0.04000 0.98000
v 0.26000 -0.46000 1.32000
v 0.64000 -0.46000 1.32000
v 0.64000 -0.04000 1.32000
v 0.26000 -0.04000 1.32000
v 0.26000 0.04000 0.98000
v 0.64000 0.04000 0.98000
v 0.64000 0.46000 0.98000
v 0.26000 0.46000 0.98000
v 0.26000 0.04000 1.32000
v 0.64000 0.04000 1.32000
v 0.64000 0.46000 1.32000
v 0.26000 0.46000 1.32000
v 0.72500 0.43000 1.18000
v 1.77500 0.43000 1.18000
v 0.72500 0.41535 1.29129
v 1.77500 0.41535 1.29129
v 0.72500 0.37239 1.39500
v 1.77500 0.37239 1.39500
v 0.72500 0.30406 1.48406
v 1.77500 0.30406 1.48406
v 0.72500 0.21500 1.55239
v 1.77500 0.21500 1.55239
v 0.72500 0.11129 1.59535
v 1.77500 0.11129 1.59535
v 0.72500 0.00000 1.61000
v 1.77500 0.00000 1.61000
v 0.72500 -0.11129 1.59535
v 1.77500 -0.11129 1.59535
v 0.72500 -0.21500 1.55239
v 1.77500 -0.21500 1.55239
v 0.72500 -0.30406 1.48406
v 1.77500 -0.30406 1.48406
v 0.72500 -0.37239 1.39500
v 1.77500 -0.37239 1.39500
v 0.72500 -0.41535 1.29129
v 1.77500 -0.41535 1.29129
v 0.72500 -0.43000 1.18000
v 1.77500 -0.43000 1.18000
v 0.72500 -0.41535 1.06871
v 1.77500 -0.41535 1.06871
v 0.72500 -0.37239 0.96500
v 1.77500 -0.37239 0.96500
v 0.72500 -0.30406 0.87594
v 1.77500 -0.30406 0.87594
v 0.72500 -0.21500 0.80761
v 1.77500 -0.21500 0.80761
v 0.72500 -0.11129 0.76465
v 1.77500 -0.11129 0.76465
v 0.72500 -0.00000 0.75000
v 1.77500 -0.00000 0.75000
v 0.72500 0.11129 0.76465
v 1.77500 0.11129 0.76465
v 0.72500 0.21500 0.80761
v 1.77500 0.21500 0.80761
v 0.72500 0.30406 0.87594
v 1.77500 0.30406 0.87594
v 0.72500 0.37239 0.96500
v 1.77500 0.37239 0.96500
v 0.72500 0.41535 1.06871
v 1.77500 0.41535 1.06871
v 2.10000 0.00000 1.20500
v 2.10000 0.00000 2.55500
v 2.09119 0.05562 1.20500
v 2.09119 0.05562 2.55500
v 2.06562 0.10580 1.20500
v 2.06562 0.10580 2.55500
v 2.02580 0.14562 1.20500
v 2.02580 0.14562 2.55500
v 1.97562 0.17119 1.20500
v 1.97562 0.17119 2.55500
v 1.92000 0.18000 1.20500
v 1.92000 0.18000 2.55500
v 1.86438 0.17119 1.20500
v 1.86438 0.17119 2.55500
v 1.81420 0.14562 1.20500
v 1.81420 0.14562 2.55500
v 1.77438 0.10580 1.20500
v 1.77438 0.10580 2.55500
v 1.74881 0.05562 1.20500
v 1.74881 0.05562 2.55500
v 1.74000 0.00000 1.20500
v 1.74000 0.00000 2.55500
v 1.74881 -0.05562 1.20500
v 1.74881 -0.05562 2.55500
v 1.77438 -0.10580 1.20500
v 1.77438 -0.10580 2.55500
v 1.81420 -0.14562 1.20500
v 1.81420 -0.14562 2.55500
v 1.86438 -0.17119 1.20500
v 1.86438 -0.17119 2.55500
v 1.92000 -0.18000 1.20500
v 1.92000 -0.18000 2.55500
v 1.97562 -0.17119 1.20500
v 1.97562 -0.17119 2.55500
v 2.02580 -0.14562 1.20500
v 2.02580 -0.14562 2.55500
v 2.06562 -0.10580 1.20500
v 2.06562 -0.10580 2.55500
v 2.09119 -0.05562 1.20500
v 2.09119 -0.05562 2.55500
v 2.14000 0.00000 2.58000
v 2.14000 0.00000 2.68000
v 2.12923 0.06798 2.58000
v 2.12923 0.06798 2.68000
v 2.09798 0.12931 2.58000
v 2.09798 0.12931 2.68000
v 2.04931 0.17798 2.58000
v 2.04931 0.17798 2.68000
v 1.98798 0.20923 2.58000
v 1.98798 0.20923 2.68000
v 1.92000 0.22000 2.58000
v 1.92000 0.22000 2.68000
v 1.85202 0.20923 2.58000
v 1.85202 0.20923 2.68000
v 1.79069 0.17798 2.58000
v 1.79069 0.17798 2.68000
v 1.74202 0.12931 2.58000
v 1.74202 0.12931 2.68000
v 1.71077 0.06798 2.58000
v 1.71077 0.06798 2.68000
v 1.70000 0.00000 2.58000
v 1.70000 0.00000 2.68000
v 1.71077 -0.06798 2.58000
v 1.71077 -0.06798 2.68000
v 1.74202 -0.12931 2.58000
v 1.74202 -0.12931 2.68000
v 1.79069 -0.17798 2.58000
v 1.79069 -0.17798 2.68000
v 1.85202 -0.20923 2.58000
v 1.85202 -0.20923 2.68000
v 1.92000 -0.22000 2.58000
v 1.92000 -0.22000 2.68000
v 1.98798 -0.20923 2.58000
v 1.98798 -0.20923 2.68000
v 2.04931 -0.17798 2.58000
v 2.04931 -0.17798 2.68000
v 2.09798 -0.12931 2.58000
v 2.09798 -0.12931 2.68000
v 2.12923 -0.06798 2.58000
v 2.12923 -0.06798 2.68000
v -1.90000 0.33000 -0.35000
v 1.70000 0.33000 -0.35000
v -1.90000 0.31876 -0.26459
v 1.70000 0.31876 -0.26459
v -1.90000 0.28579 -0.18500
v 1.70000 0.28579 -0.18500
v -1.90000 0.23335 -0.11665
v 1.70000 0.23335 -0.11665
v -1.90000 0.16500 -0.06421
v 1.70000 0.16500 -0.06421
v -1.90000 0.08541 -0.03124
v 1.70000 0.08541 -0.03124
v -1.90000 0.00000 -0.02000
v 1.70000 0.00000 -0.02000
v -1.90000 -0.08541 -0.03124
v 1.70000 -0.08541 -0.03124
v -1.90000 -0.16500 -0.06421
v 1.70000 -0.16500 -0.06421
v -1.90000 -0.23335 -0.11665
v 1.70000 -0.23335 -0.11665
v -1.90000 -0.28579 -0.18500
v 1.70000 -0.28579 -0.18500
v -1.90000 -0.31876 -0.26459
v 1.70000 -0.31876 -0.26459
v -1.90000 -0.33000 -0.35000
v 1.70000 -0.33000 -0.35000
v -1.90000 -0.31876 -0.43541
v 1.70000 -0.31876 -0.43541
v -1.90000 -0.28579 -0.51500
v 1.70000 -0.28579 -0.51500
v -1.90000 -0.23335 -0.58335
v 1.70000 -0.23335 -0.58335
v -1.90000 -0.16500 -0.63579
v 1.70000 -0.16500 -0.63579
v -1.90000 -0.08541 -0.66876
v 1.70000 -0.08541 -0.66876
v -1.90000 -0.00000 -0.68000
v 1.70000 -0.00000 -0.68000
v -1.90000 0.08541 -0.66876
v 1.70000 0.08541 -0.66876
v -1.90000 0.16500 -0.63579
v 1.70000 0.16500 -0.63579
v -1.90000 0.23335 -0.58335
v 1.70000 0.23335 -0.58335
v -1.90000 0.28579 -0.51500
v 1.70000 0.28579 -0.51500
v -1.90000 0.31876 -0.43541
v 1.70000 0.31876 -0.43541
v -1.90000 -0.78500 0.15000
v 2.30000 -0.78500 0.15000
v -1.90000 -0.79168 0.17057
v 2.30000 -0.79168 0.17057
v -1.90000 -0.80918 0.18329
v 2.30000 -0.80918 0.18329
v -1.90000 -0.83082 0.18329
v 2.30000 -0.83082 0.18329
v -1.90000 -0.84832 0.17057
v 2.30000 -0.84832 0.17057
v -1.90000 -0.85500 0.15000
v 2.30000 -0.85500 0.15000
v -1.90000 -0.84832 0.12943
v 2.30000 -0.84832 0.12943
v -1.90000 -0.83082 0.11671
v 2.30000 -0.83082 0.11671
v -1.90000 -0.80918 0.11671
v 2.30000 -0.80918 0.11671
v -1.90000 -0.79168 0.12943
v 2.30000 -0.79168 0.12943
v -1.40000 0.85500 0.18000
v 1.95000 0.85500 0.18000
v -1.40000 0.84832 0.20057
v 1.95000 0.84832 0.20057
v -1.40000 0.83082 0.21329
v 1.95000 0.83082 0.21329
v -1.40000 0.80918 0.21329
v 1.95000 0.80918 0.21329
v -1.40000 0.79168 0.20057
v 1.95000 0.79168 0.20057
v -1.40000 0.78500 0.18000
v 1.95000 0.78500 0.18000
v -1.40000 0.79168 0.15943
v 1.95000 0.79168 0.15943
v -1.40000 0.80918 0.14671
v 1.95000 0.80918 0.14671
v -1.40000 0.83082 0.14671
v 1.95000 0.83082 0.14671
v -1.40000 0.84832 0.15943
v 1.95000 0.84832 0.15943
v 0.93500 -0.82000 0.15000
v 0.93500 -0.82000 1.12000
v 0.92832 -0.79943 0.15000
v 0.92832 -0.79943 1.12000
v 0.91082 -0.78671 0.15000
v 0.91082 -0.78671 1.12000
v 0.88918 -0.78671 0.15000
v 0.88918 -0.78671 1.12000
v 0.87168 -0.79943 0.15000
v 0.87168 -0.79943 1.12000
v 0.86500 -0.82000 0.15000
v 0.86500 -0.82000 1.12000
v 0.87168 -0.84057 0.15000
v 0.87168 -0.84057 1.12000
v 0.88918 -0.85329 0.15000
v 0.88918 -0.85329 1.12000
v 0.91082 -0.85329 0.15000
v 0.91082 -0.85329 1.12000
v 0.92832 -0.84057 0.15000
v 0.92832 -0.84057 1.12000
v 1.58500 0.82000 0.15000
v 1.58500 0.82000 1.40000
v 1.57832 0.84057 0.15000
v 1.57832 0.84057 1.40000
v 1.56082 0.85329 0.15000
v 1.56082 0.85329 1.40000
v 1.53918 0.85329 0.15000
v 1.53918 0.85329 1.40000
v 1.52168 0.84057 0.15000
v 1.52168 0.84057 1.40000
v 1.51500 0.82000 0.15000
v 1.51500 0.82000 1.40000
v 1.52168 0.79943 0.15000
v 1.52168 0.79943 1.40000
v 1.53918 0.78671 0.15000
v 1.53918 0.78671 1.40000
v 1.56082 0.78671 0.15000
v 1.56082 0.78671 1.40000
v 1.57832 0.79943 0.15000
v 1.57832 0.79943 1.40000
v 0.99500 -0.42000 1.75000
v 0.99500 0.42000 1.75000
v 0.98641 -0.42000 1.77645
v 0.98641 0.42000 1.77645
v 0.96391 -0.42000 1.79280
v 0.96391 0.42000 1.79280
v 0.93609 -0.42000 1.79280
v 0.93609 0.42000 1.79280
v 0.91359 -0.42000 1.77645
v 0.91359 0.42000 1.77645
v 0.90500 -0.42000 1.75000
v 0.90500 0.42000 1.75000
v 0.91359 -0.42000 1.72355
v 0.91359 0.42000 1.72355
v 0.93609 -0.42000 1.70720
v 0.93609 0.42000 1.70720
v 0.96391 -0.42000 1.70720
v 0.96391 0.42000 1.70720
v 0.98641 -0.42000 1.72355
v 0.98641 0.42000 1.72355
v 1.26500 0.42000 1.18000
v 1.26500 0.42000 1.75000
v 1.25641 0.44645 1.18000
v 1.25641 0.44645 1.75000
v 1.23391 0.46280 1.18000
v 1.23391 0.46280 1.75000
v 1.20609 0.46280 1.18000
v 1.20609 0.46280 1.75000
v 1.18359 0.44645 1.18000
v 1.18359 0.44645 1.75000
v 1.17500 0.42000 1.18000
v 1.17500 0.42000 1.75000
v 1.18359 0.39355 1.18000
v 1.18359 0.39355 1.75000
v 1.20609 0.37720 1.18000
v 1.20609 0.37720 1.75000
v 1.23391 0.37720 1.18000
v 1.23391 0.37720 1.75000
v 1.25641 0.39355 1.18000
v 1.25641 0.39355 1.75000
v 1.22000 0.46500 1.75000
v 1.92000 0.46500 1.75000
v 1.22000 0.45641 1.77645
v 1.92000 0.45641 1.77645
v 1.22000 0.43391 1.79280
v 1.92000 0.43391 1.79280
v 1.22000 0.40609 1.79280
v 1.92000 0.40609 1.79280
v 1.22000 0.38359 1.77645
v 1.92000 0.38359 1.77645
v 1.22000 0.37500 1.75000
v 1.92000 0.37500 1.75000
v 1.22000 0.38359 1.72355
v 1.92000 0.38359 1.72355
v 1.22000 0.40609 1.70720
v 1.92000 0.40609 1.70720
v 1.22000 0.43391 1.70720
v 1.92000 0.43391 1.70720
v 1.22000 0.45641 1.72355
v 1.92000 0.45641 1.72355
v -2.72500 -0.78000 0.77500
v -2.72500 -0.78000 1.32500
v -2.73232 -0.76232 0.77500
v -2.73232 -0.76232 1.32500
v -2.75000 -0.75500 0.77500
v -2.75000 -0.75500 1.32500
v -2.76768 -0.76232 0.77500
v -2.76768 -0.76232 1.32500
v -2.77500 -0.78000 0.77500
v -2.77500 -0.78000 1.32500
v -2.76768 -0.79768 0.77500
v -2.76768 -0.79768 1.32500
v -2.75000 -0.80500 0.77500
v -2.75000 -0.80500 1.32500
v -2.73232 -0.79768 0.77500
v -2.73232 -0.79768 1.32500
v -2.72500 0.78000 0.77500
v -2.72500 0.78000 1.32500
v -2.73232 0.79768 0.77500
v -2.73232 0.79768 1.32500
v -2.75000 0.80500 0.77500
v -2.75000 0.80500 1.32500
v -2.76768 0.79768 0.77500
v -2.76768 0.79768 1.32500
v -2.77500 0.78000 0.77500
v -2.77500 0.78000 1.32500
v -2.76768 0.76232 0.77500
v -2.76768 0.76232 1.32500
v -2.75000 0.75500 0.77500
v -2.75000 0.75500 1.32500
v -2.73232 0.76232 0.77500
v -2.73232 0.76232 1.32500
v -2.22500 -0.78000 0.77500
v -2.22500 -0.78000 1.32500
v -2.23232 -0.76232 0.77500
v -2.23232 -0.76232 1.32500
v -2.25000 -0.75500 0.77500
v -2.25000 -0.75500 1.32500
v -2.26768 -0.76232 0.77500
v -2.26768 -0.76232 1.32500
v -2.27500 -0.78000 0.77500
v -2.27500 -0.78000 1.32500
v -2.26768 -0.79768 0.77500
v -2.26768 -0.79768 1.32500
v -2.25000 -0.80500 0.77500
v -2.25000 -0.80500 1.32500
v -2.23232 -0.79768 0.77500
v -2.23232 -0.79768 1.32500
v -2.22500 0.78000 0.77500
v -2.22500 0.78000 1.32500
v -2.23232 0.79768 0.77500
v -2.23232 0.79768 1.32500
v -2.25000 0.80500 0.77500
v -2.25000 0.80500 1.32500
v -2.26768 0.79768 0.77500
v -2.26768 0.79768 1.32500
v -2.27500 0.78000 0.77500
v -2.27500 0.78000 1.32500
v -2.26768 0.76232 0.77500
v -2.26768 0.76232 1.32500
v -2.25000 0.75500 0.77500
v -2.25000 0.75500 1.32500
v -2.23232 0.76232 0.77500
v -2.23232 0.76232 1.32500
v -1.72500 -0.78000 0.77500
v -1.72500 -0.78000 1.32500
v -1.73232 -0.76232 0.77500
v -1.73232 -0.76232 1.32500
v -1.75000 -0.75500 0.77500
v -1.75000 -0.75500 1.32500
v -1.76768 -0.76232 0.77500
v -1.76768 -0.76232 1.32500
v -1.77500 -0.78000 0.77500
v -1.77500 -0.78000 1.32500
v -1.76768 -0.79768 0.77500
v -1.76768 -0.79768 1.32500
v -1.75000 -0.80500 0.77500
v -1.75000 -0.80500 1.32500
v -1.73232 -0.79768 0.77500
v -1.73232 -0.79768 1.32500
v -1.72500 0.78000 0.77500
v -1.72500 0.78000 1.32500
v -1.73232 0.79768 0.77500
v -1.73232 0.79768 1.32500
v -1.75000 0.80500 0.77500
v -1.75000 0.80500 1.32500
v -1.76768 0.79768 0.77500
v -1.76768 0.79768 1.32500
v -1.77500 0.78000 0.77500
v -1.77500 0.78000 1.32500
v -1.76768 0.76232 0.77500
v -1.76768 0.76232 1.32500
v -1.75000 0.75500 0.77500
v -1.75000 0.75500 1.32500
v -1.73232 0.76232 0.77500
v -1.73232 0.76232 1.32500
v -0.77500 -0.78000 0.77500
v -0.77500 -0.78000 1.32500
v -0.78232 -0.76232 0.77500
v -0.78232 -0.76232 1.32500
v -0.80000 -0.75500 0.77500
v -0.80000 -0.75500 1.32500
v -0.81768 -0.76232 0.77500
v -0.81768 -0.76232 1.32500
v -0.82500 -0.78000 0.77500
v -0.82500 -0.78000 1.32500
v -0.81768 -0.79768 0.77500
v -0.81768 -0.79768 1.32500
v -0.80000 -0.80500 0.77500
v -0.80000 -0.80500 1.32500
v -0.78232 -0.79768 0.77500
v -0.78232 -0.79768 1.32500
v -0.77500 0.78000 0.77500
v -0.77500 0.78000 1.32500
v -0.78232 0.79768 0.77500
v -0.78232 0.79768 1.32500
v -0.80000 0.80500 0.77500
v -0.80000 0.80500 1.32500
v -0.81768 0.79768 0.77500
v -0.81768 0.79768 1.32500
v -0.82500 0.78000 0.77500
v -0.82500 0.78000 1.32500
v -0.81768 0.76232 0.77500
v -0.81768 0.76232 1.32500
v -0.80000 0.75500 0.77500
v -0.80000 0.75500 1.32500
v -0.78232 0.76232 0.77500
v -0.78232 0.76232 1.32500
v -0.17500 -0.78000 0.77500
v -0.17500 -0.78000 1.32500
v -0.18232 -0.76232 0.77500
v -0.18232 -0.76232 1.32500
v -0.20000 -0.75500 0.77500
v -0.20000 -0.75500 1.32500
v -0.21768 -0.76232 0.77500
v -0.21768 -0.76232 1.32500
v -0.22500 -0.78000 0.77500
v -0.22500 -0.78000 1.32500
v -0.21768 -0.79768 0.77500
v -0.21768 -0.79768 1.32500
v -0.20000 -0.80500 0.77500
v -0.20000 -0.80500 1.32500
v -0.18232 -0.79768 0.77500
v -0.18232 -0.79768 1.32500
v -0.17500 0.78000 0.77500
v -0.17500 0.78000 1.32500
v -0.18232 0.79768 0.77500
v -0.18232 0.79768 1.32500
v -0.20000 0.80500 0.77500
v -0.20000 0.80500 1.32500
v -0.21768 0.79768 0.77500
v -0.21768 0.79768 1.32500
v -0.22500 0.78000 0.77500
v -0.22500 0.78000 1.32500
v -0.21768 0.76232 0.77500
v -0.21768 0.76232 1.32500
v -0.20000 0.75500 0.77500
v -0.20000 0.75500 1.32500
v -0.18232 0.76232 0.77500
v -0.18232 0.76232 1.32500
v 0.42500 -0.78000 0.77500
v 0.42500 -0.78000 1.32500
v 0.41768 -0.76232 0.77500
v 0.41768 -0.76232 1.32500
v 0.40000 -0.75500 0.77500
v 0.40000 -0.75500 1.32500
v 0.38232 -0.76232 0.77500
v 0.38232 -0.76232 1.32500
v 0.37500 -0.78000 0.77500
v 0.37500 -0.78000 1.32500
v 0.38232 -0.79768 0.77500
v 0.38232 -0.79768 1.32500
v 0.40000 -0.80500 0.77500
v 0.40000 -0.80500 1.32500
v 0.41768 -0.79768 0.77500
v 0.41768 -0.79768 1.32500
v 0.42500 0.78000 0.77500
v 0.42500 0.78000 1.32500
v 0.41768 0.79768 0.77500
v 0.41768 0.79768 1.32500
v 0.40000 0.80500 0.77500
v 0.40000 0.80500 1.32500
v 0.38232 0.79768 0.77500
v 0.38232 0.79768 1.32500
v 0.37500 0.78000 0.77500
v 0.37500 0.78000 1.32500
v 0.38232 0.76232 0.77500
v 0.38232 0.76232 1.32500
v 0.40000 0.75500 0.77500
v 0.40000 0.75500 1.32500
v 0.41768 0.76232 0.77500
v 0.41768 0.76232 1.32500
v 1.02500 -0.78000 0.77500
v 1.02500 -0.78000 1.32500
v 1.01768 -0.76232 0.77500
v 1.01768 -0.76232 1.32500
v 1.00000 -0.75500 0.77500
v 1.00000 -0.75500 1.32500
v 0.98232 -0.76232 0.77500
v 0.98232 -0.76232 1.32500
v 0.97500 -0.78000 0.77500
v 0.97500 -0.78000 1.32500
v 0.98232 -0.79768 0.77500
v 0.98232 -0.79768 1.32500
v 1.00000 -0.80500 0.77500
v 1.00000 -0.80500 1.32500
v 1.01768 -0.79768 0.77500
v 1.01768 -0.79768 1.32500
v 1.02500 0.78000 0.77500
v 1.02500 0.78000 1.32500
v 1.01768 0.79768 0.77500
v 1.01768 0.79768 1.32500
v 1.00000 0.80500 0.77500
v 1.00000 0.80500 1.32500
v 0.98232 0.79768 0.77500
v 0.98232 0.79768 1.32500
v 0.97500 0.78000 0.77500
v 0.97500 0.78000 1.32500
v 0.98232 0.76232 0.77500
v 0.98232 0.76232 1.32500
v 1.00000 0.75500 0.77500
v 1.00000 0.75500 1.32500
v 1.01768 0.76232 0.77500
v 1.01768 0.76232 1.32500
v 1.62500 -0.78000 0.77500
v 1.62500 -0.78000 1.32500
v 1.61768 -0.76232 0.77500
v 1.61768 -0.76232 1.32500
v 1.60000 -0.75500 0.77500
v 1.60000 -0.75500 1.32500
v 1.58232 -0.76232 0.77500
v 1.58232 -0.76232 1.32500
v 1.57500 -0.78000 0.77500
v 1.57500 -0.78000 1.32500
v 1.58232 -0.79768 0.77500
v 1.58232 -0.79768 1.32500
v 1.60000 -0.80500 0.77500
v 1.60000 -0.80500 1.32500
v 1.61768 -0.79768 0.77500
v 1.61768 -0.79768 1.32500
v 1.62500 0.78000 0.77500
v 1.62500 0.78000 1.32500
v 1.61768 0.79768 0.77500
v 1.61768 0.79768 1.32500
v 1.60000 0.80500 0.77500
v 1.60000 0.80500 1.32500
v 1.58232 0.79768 0.77500
v 1.58232 0.79768 1.32500
v 1.57500 0.78000 0.77500
v 1.57500 0.78000 1.32500
v 1.58232 0.76232 0.77500
v 1.58232 0.76232 1.32500
v 1.60000 0.75500 0.77500
v 1.60000 0.75500 1.32500
v 1.61768 0.76232 0.77500
v 1.61768 0.76232 1.32500
v -2.90000 -0.75500 1.35000
v -1.00000 -0.75500 1.35000
v -2.90000 -0.75977 1.36469
v -1.00000 -0.75977 1.36469
v -2.90000 -0.77227 1.37378
v -1.00000 -0.77227 1.37378
v -2.90000 -0.78773 1.37378
v -1.00000 -0.78773 1.37378
v -2.90000 -0.80023 1.36469
v -1.00000 -0.80023 1.36469
v -2.90000 -0.80500 1.35000
v -1.00000 -0.80500 1.35000
v -2.90000 -0.80023 1.33531
v -1.00000 -0.80023 1.33531
v -2.90000 -0.78773 1.32622
v -1.00000 -0.78773 1.32622
v -2.90000 -0.77227 1.32622
v -1.00000 -0.77227 1.32622
v -2.90000 -0.75977 1.33531
v -1.00000 -0.75977 1.33531
v -2.90000 0.80500 1.35000
v -1.00000 0.80500 1.35000
v -2.90000 0.80023 1.36469
v -1.00000 0.80023 1.36469
v -2.90000 0.78773 1.37378
v -1.00000 0.78773 1.37378
v -2.90000 0.77227 1.37378
v -1.00000 0.77227 1.37378
v -2.90000 0.75977 1.36469
v -1.00000 0.75977 1.36469
v -2.90000 0.75500 1.35000
v -1.00000 0.75500 1.35000
v -2.90000 0.75977 1.33531
v -1.00000 0.75977 1.33531
v -2.90000 0.77227 1.32622
v -1.00000 0.77227 1.32622
v -2.90000 0.78773 1.32622
v -1.00000 0.78773 1.32622
v -2.90000 0.80023 1.33531
v -1.00000 0.80023 1.33531
v -0.70000 -0.75500 1.35000
v 1.80000 -0.75500 1.35000
v -0.70000 -0.75977 1.36469
v 1.80000 -0.75977 1.36469
v -0.70000 -0.77227 1.37378
v 1.80000 -0.77227 1.37378
v -0.70000 -0.78773 1.37378
v 1.80000 -0.78773 1.37378
v -0.70000 -0.80023 1.36469
v 1.80000 -0.80023 1.36469
v -0.70000 -0.80500 1.35000
v 1.80000 -0.80500 1.35000
v -0.70000 -0.80023 1.33531
v 1.80000 -0.80023 1.33531
v -0.70000 -0.78773 1.32622
v 1.80000 -0.78773 1.32622
v -0.70000 -0.77227 1.32622
v 1.80000 -0.77227 1.32622
v -0.70000 -0.75977 1.33531
v 1.80000 -0.75977 1.33531
v -0.70000 0.80500 1.35000
v 1.80000 0.80500 1.35000
v -0.70000 0.80023 1.36469
v 1.80000 0.80023 1.36469
v -0.70000 0.78773 1.37378
v 1.80000 0.78773 1.37378
v -0.70000 0.77227 1.37378
v 1.80000 0.77227 1.37378
v -0.70000 0.75977 1.36469
v 1.80000 0.75977 1.36469
v -0.70000 0.75500 1.35000
v 1.80000 0.75500 1.35000
v -0.70000 0.75977 1.33531
v 1.80000 0.75977 1.33531
v -0.70000 0.77227 1.32622
v 1.80000 0.77227 1.32622
v -0.70000 0.78773 1.32622
v 1.80000 0.78773 1.32622
v -0.70000 0.80023 1.33531
v 1.80000 0.80023 1.33531
v -1.91500 0.00000 1.49500
v -1.91500 0.00000 2.74500
v -1.92168 0.02057 1.49500
v -1.92168 0.02057 2.74500
v -1.93918 0.03329 1.49500
v -1.93918 0.03329 2.74500
v -1.96082 0.03329 1.49500
v -1.96082 0.03329 2.74500
v -1.97832 0.02057 1.49500
v -1.97832 0.02057 2.74500
v -1.98500 0.00000 1.49500
v -1.98500 0.00000 2.74500
v -1.97832 -0.02057 1.49500
v -1.97832 -0.02057 2.74500
v -1.96082 -0.03329 1.49500
v -1.96082 -0.03329 2.74500
v -1.93918 -0.03329 1.49500
v -1.93918 -0.03329 2.74500
v -1.92168 -0.02057 1.49500
v -1.92168 -0.02057 2.74500
v -1.87500 -0.02750 2.39000
v -1.22500 -0.02750 2.39000
v -1.22500 0.00750 2.39000
v -1.87500 0.00750 2.39000
v -1.87500 -0.02750 2.71000
v -1.22500 -0.02750 2.71000
v -1.22500 0.00750 2.71000
v -1.87500 0.00750 2.71000
v -1.73000 -0.04500 2.49000
v -1.57000 -0.04500 2.49000
v -1.57000 -0.02500 2.49000
v -1.73000 -0.02500 2.49000
v -1.73000 -0.04500 2.61000
v -1.57000 -0.04500 2.61000
v -1.57000 -0.02500 2.61000
v -1.73000 -0.02500 2.61000
v -2.82000 -0.79250 0.31000
v -2.62000 -0.79250 0.31000
v -2.62000 -0.76750 0.31000
v -2.82000 -0.76750 0.31000
v -2.82000 -0.79250 0.59000
v -2.62000 -0.79250 0.59000
v -2.62000 -0.76750 0.59000
v -2.82000 -0.76750 0.59000
v -2.82000 0.76750 0.31000
v -2.62000 0.76750 0.31000
v -2.62000 0.79250 0.31000
v -2.82000 0.79250 0.31000
v -2.82000 0.76750 0.59000
v -2.62000 0.76750 0.59000
v -2.62000 0.79250 0.59000
v -2.82000 0.79250 0.59000
v 2.97500 0.08000 0.28000
v 3.52500 0.08000 0.28000
v 2.97500 0.07391 0.31061
v 3.52500 0.07391 0.31061
v 2.97500 0.05657 0.33657
v 3.52500 0.05657 0.33657
v 2.97500 0.03061 0.35391
v 3.52500 0.03061 0.35391
v 2.97500 0.00000 0.36000
v 3.52500 0.00000 0.36000
v 2.97500 -0.03061 0.35391
v 3.52500 -0.03061 0.35391
v 2.97500 -0.05657 0.33657
v 3.52500 -0.05657 0.33657
v 2.97500 -0.07391 0.31061
v 3.52500 -0.07391 0.31061
v 2.97500 -0.08000 0.28000
v 3.52500 -0.08000 0.28000
v 2.97500 -0.07391 0.24939
v 3.52500 -0.07391 0.24939
v 2.97500 -0.05657 0.22343
v 3.52500 -0.05657 0.22343
v 2.97500 -0.03061 0.20609
v 3.52500 -0.03061 0.20609
v 2.97500 -0.00000 0.20000
v 3.52500 -0.00000 0.20000
v 2.97500 0.03061 0.20609
v 3.52500 0.03061 0.20609
v 2.97500 0.05657 0.22343
v 3.52500 0.05657 0.22343
v 2.97500 0.07391 0.24939
v 3.52500 0.07391 0.24939
v 3.49000 0.18000 0.28000
v 3.67000 0.18000 0.28000
v 3.49000 0.16630 0.34888
v 3.67000 0.16630 0.34888
v 3.49000 0.12728 0.40728
v 3.67000 0.12728 0.40728
v 3.49000 0.06888 0.44630
v 3.67000 0.06888 0.44630
v 3.49000 0.00000 0.46000
v 3.67000 0.00000 0.46000
v 3.49000 -0.06888 0.44630
v 3.67000 -0.06888 0.44630
v 3.49000 -0.12728 0.40728
v 3.67000 -0.12728 0.40728
v 3.49000 -0.16630 0.34888
v 3.67000 -0.16630 0.34888
v 3.49000 -0.18000 0.28000
v 3.67000 -0.18000 0.28000
v 3.49000 -0.16630 0.21112
v 3.67000 -0.16630 0.21112
v 3.49000 -0.12728 0.15272
v 3.67000 -0.12728 0.15272
v 3.49000 -0.06888 0.11370
v 3.67000 -0.06888 0.11370
v 3.49000 -0.00000 0.10000
v 3.67000 -0.00000 0.10000
v 3.49000 0.06888 0.11370
v 3.67000 0.06888 0.11370
v 3.49000 0.12728 0.15272
v 3.67000 0.12728 0.15272
v 3.49000 0.16630 0.21112
v 3.67000 0.16630 0.21112
v 3.51000 0.14500 0.20000
v 3.59000 0.14500 0.20000
v 3.59000 0.79500 0.20000
v 3.51000 0.79500 0.20000
v 3.51000 0.14500 0.36000
v 3.59000 0.14500 0.36000
v 3.59000 0.79500 0.36000
v 3.51000 0.79500 0.36000
v 3.51000 -0.08000 0.42500
v 3.59000 -0.08000 0.42500
v 3.59000 0.08000 0.42500
v 3.51000 0.08000 0.42500
v 3.51000 -0.08000 1.07500
v 3.59000 -0.08000 1.07500
v 3.59000 0.08000 1.07500
v 3.51000 0.08000 1.07500
v 3.51000 -0.79500 0.20000
v 3.59000 -0.79500 0.20000
v 3.59000 -0.14500 0.20000
v 3.51000 -0.14500 0.20000
v 3.51000 -0.79500 0.36000
v 3.59000 -0.79500 0.36000
v 3.59000 -0.14500 0.36000
v 3.51000 -0.14500 0.36000
v 3.51000 -0.08000 -0.51500
v 3.59000 -0.08000 -0.51500
v 3.59000 0.08000 -0.51500
v 3.51000 0.08000 -0.51500
v 3.51000 -0.08000 0.13500
v 3.59000 -0.08000 0.13500
v 3.59000 0.08000 0.13500
v 3.51000 0.08000 0.13500
v -1.80000 -0.06000 -0.85000
v 1.40000 -0.06000 -0.85000
v 1.40000 0.06000 -0.85000
v -1.80000 0.06000 -0.85000
v -1.80000 -0.06000 -0.75000
v 1.40000 -0.06000 -0.75000
v 1.40000 0.06000 -0.75000
v -1.80000 0.06000 -0.75000
usemtl cream
f 1 2 10 9
f 2 3 11 10
f 3 4 12 11
f 4 5 13 12
f 5 6 14 13
f 6 7 15 14
f 7 8 16 15
f 8 1 9 16
f 9 10 11 12 13 14 15 16
f 8 7 6 5 4 3 2 1
usemtl red
f 17 18 2 1
f 18 19 3 2
f 19 20 4 3
f 20 21 5 4
f 21 22 6 5
f 22 23 7 6
f 23 24 8 7
f 24 17 1 8
f 24 23 22 21 20 19 18 17
usemtl cream
f 25 26 27 28
f 29 32 31 30
f 25 29 30 26
f 26 30 31 27
f 27 31 32 28
f 28 32 29 25
f 33 34 35 36
f 37 40 39 38
f 33 37 38 34
f 34 38 39 35
f 35 39 40 36
f 36 40 37 33
usemtl window
f 41 42 43 44
f 45 48 47 46
f 41 45 46 42
f 42 46 47 43
f 43 47 48 44
f 44 48 45 41
f 49 50 51 52
f 53 56 55 54
f 49 53 54 50
f 50 54 55 51
f 51 55 56 52
f 52 56 53 49
f 57 58 59 60
f 61 64 63 62
f 57 61 62 58
f 58 62 63 59
f 59 63 64 60
f 60 64 61 57
f 65 66 67 68
f 69 72 71 70
f 65 69 70 66
f 66 70 71 67
f 67 71 72 68
f 68 72 69 65
f 73 74 75 76
f 77 80 79 78
f 73 77 78 74
f 74 78 79 75
f 75 79 80 76
f 76 80 77 73
f 81 82 83 84
f 85 88 87 86
f 81 85 86 82
f 82 86 87 83
f 83 87 88 84
f 84 88 85 81
usemtl wood
f 89 90 91 92
f 93 96 95 94
f 89 93 94 90
f 90 94 95 91
f 91 95 96 92
f 92 96 93 89
f 97 98 99 100
f 101 104 103 102
f 97 101 102 98
f 98 102 103 99
f 99 103 104 100
f 100 104 101 97
f 105 106 107 108
f 109 112 111 110
f 105 109 110 106
f 106 110 111 107
f 107 111 112 108
f 108 112 109 105
f 113 114 115 116
f 117 120 119 118
f 113 117 118 114
f 114 118 119 115
f 115 119 120 116
f 116 120 117 113
f 121 122 123 124
f 125 128 127 126
f 121 125 126 122
f 122 126 127 123
f 123 127 128 124
f 124 128 125 121
f 129 130 131 132
f 133 136 135 134
f 129 133 134 130
f 130 134 135 131
f 131 135 136 132
f 132 136 133 129
usemtl dark_metal
f 137 139 140 138
f 139 141 142 140
f 141 143 144 142
f 143 145 146 144
f 145 147 148 146
f 147 149 150 148
f 149 151 152 150
f 151 153 154 152
f 153 155 156 154
f 155 157 158 156
f 157 159 160 158
f 159 161 162 160
f 161 163 164 162
f 163 165 166 164
f 165 167 168 166
f 167 169 170 168
f 169 171 172 170
f 171 173 174 172
f 173 175 176 174
f 175 177 178 176
f 177 179 180 178
f 179 181 182 180
f 181 183 184 182
f 183 137 138 184
f 183 181 179 177 175 173 171 169 167 165 163 161 159 157 155 153 151 149 147 145 143 141 139 137
f 138 140 142 144 146 148 150 152 154 156 158 160 162 164 166 168 170 172 174 176 178 180 182 184
f 185 187 188 186
f 187 189 190 188
f 189 191 192 190
f 191 193 194 192
f 193 195 196 194
f 195 197 198 196
f 197 199 200 198
f 199 201 202 200
f 201 203 204 202
f 203 205 206 204
f 205 207 208 206
f 207 209 210 208
f 209 211 212 210
f 211 213 214 212
f 213 215 216 214
f 215 217 218 216
f 217 219 220 218
f 219 221 222 220
f 221 223 224 222
f 223 185 186 224
f 223 221 219 217 215 213 211 209 207 205 203 201 199 197 195 193 191 189 187 185
f 186 188 190 192 194 196 198 200 202 204 206 208 210 212 214 216 218 220 222 224
f 225 227 228 226
f 227 229 230 228
f 229 231 232 230
f 231 233 234 232
f 233 235 236 234
f 235 237 238 236
f 237 239 240 238
f 239 241 242 240
f 241 243 244 242
f 243 245 246 244
f 245 247 248 246
f 247 249 250 248
f 249 251 252 250
f 251 253 254 252
f 253 255 256 254
f 255 257 258 256
f 257 259 260 258
f 259 261 262 260
f 261 263 264 262
f 263 225 226 264
f 263 261 259 257 255 253 251 249 247 245 243 241 239 237 235 233 231 229 227 225
f 226 228 230 232 234 236 238 240 242 244 246 248 250 252 254 256 258 260 262 264
usemtl red
f 265 267 268 266
f 267 269 270 268
f 269 271 272 270
f 271 273 274 272
f 273 275 276 274
f 275 277 278 276
f 277 279 280 278
f 279 281 282 280
f 281 283 284 282
f 283 285 286 284
f 285 287 288 286
f 287 289 290 288
f 289 291 292 290
f 291 293 294 292
f 293 295 296 294
f 295 297 298 296
f 297 299 300 298
f 299 301 302 300
f 301 303 304 302
f 303 305 306 304
f 305 307 308 306
f 307 309 310 308
f 309 311 312 310
f 311 265 266 312
f 311 309 307 305 303 301 299 297 295 293 291 289 287 285 283 281 279 277 275 273 271 269 267 265
f 266 268 270 272 274 276 278 280 282 284 286 288 290 292 294 296 298 300 302 304 306 308 310 312
usemtl brass
f 313 315 316 314
f 315 317 318 316
f 317 319 320 318
f 319 321 322 320
f 321 323 324 322
f 323 325 326 324
f 325 327 328 326
f 327 329 330 328
f 329 331 332 330
f 331 313 314 332
f 331 329 327 325 323 321 319 317 315 313
f 314 316 318 320 322 324 326 328 330 332
f 333 335 336 334
f 335 337 338 336
f 337 339 340 338
f 339 341 342 340
f 341 343 344 342
f 343 345 346 344
f 345 347 348 346
f 347 349 350 348
f 349 351 352 350
f 351 333 334 352
f 351 349 347 345 343 341 339 337 335 333
f 334 336 338 340 342 344 346 348 350 352
f 353 355 356 354
f 355 357 358 356
f 357 359 360 358
f 359 361 362 360
f 361 363 364 362
f 363 365 366 364
f 365 367 368 366
f 367 369 370 368
f 369 371 372 370
f 371 353 354 372
f 371 369 367 365 363 361 359 357 355 353
f 354 356 358 360 362 364 366 368 370 372
f 373 375 376 374
f 375 377 378 376
f 377 379 380 378
f 379 381 382 380
f 381 383 384 382
f 383 385 386 384
f 385 387 388 386
f 387 389 390 388
f 389 391 392 390
f 391 373 374 392
f 391 389 387 385 383 381 379 377 375 373
f 374 376 378 380 382 384 386 388 390 392
f 393 395 396 394
f 395 397 398 396
f 397 399 400 398
f 399 401 402 400
f 401 403 404 402
f 403 405 406 404
f 405 407 408 406
f 407 409 410 408
f 409 411 412 410
f 411 393 394 412
f 411 409 407 405 403 401 399 397 395 393
f 394 396 398 400 402 404 406 408 410 412
f 413 415 416 414
f 415 417 418 416
f 417 419 420 418
f 419 421 422 420
f 421 423 424 422
f 423 425 426 424
f 425 427 428 426
f 427 429 430 428
f 429 431 432 430
f 431 413 414 432
f 431 429 427 425 423 421 419 417 415 413
f 414 416 418 420 422 424 426 428 430 432
f 433 435 436 434
f 435 437 438 436
f 437 439 440 438
f 439 441 442 440
f 441 443 444 442
f 443 445 446 444
f 445 447 448 446
f 447 449 450 448
f 449 451 452 450
f 451 433 434 452
f 451 449 447 445 443 441 439 437 435 433
f 434 436 438 440 442 444 446 448 450 452
f 453 455 456 454
f 455 457 458 456
f 457 459 460 458
f 459 461 462 460
f 461 463 464 462
f 463 465 466 464
f 465 467 468 466
f 467 453 454 468
f 467 465 463 461 459 457 455 453
f 454 456 458 460 462 464 466 468
f 469 471 472 470
f 471 473 474 472
f 473 475 476 474
f 475 477 478 476
f 477 479 480 478
f 479 481 482 480
f 481 483 484 482
f 483 469 470 484
f 483 481 479 477 475 473 471 469
f 470 472 474 476 478 480 482 484
f 485 487 488 486
f 487 489 490 488
f 489 491 492 490
f 491 493 494 492
f 493 495 496 494
f 495 497 498 496
f 497 499 500 498
f 499 485 486 500
f 499 497 495 493 491 489 487 485
f 486 488 490 492 494 496 498 500
f 501 503 504 502
f 503 505 506 504
f 505 507 508 506
f 507 509 510 508
f 509 511 512 510
f 511 513 514 512
f 513 515 516 514
f 515 501 502 516
f 515 513 511 509 507 505 503 501
f 502 504 506 508 510 512 514 516
f 517 519 520 518
f 519 521 522 520
f 521 523 524 522
f 523 525 526 524
f 525 527 528 526
f 527 529 530 528
f 529 531 532 530
f 531 517 518 532
f 531 529 527 525 523 521 519 517
f 518 520 522 524 526 528 530 532
f 533 535 536 534
f 535 537 538 536
f 537 539 540 538
f 539 541 542 540
f 541 543 544 542
f 543 545 546 544
f 545 547 548 546
f 547 533 534 548
f 547 545 543 541 539 537 535 533
f 534 536 538 540 542 544 546 548
f 549 551 552 550
f 551 553 554 552
f 553 555 556 554
f 555 557 558 556
f 557 559 560 558
f 559 561 562 560
f 561 563 564 562
f 563 549 550 564
f 563 561 559 557 555 553 551 549
f 550 552 554 556 558 560 562 564
f 565 567 568 566
f 567 569 570 568
f 569 571 572 570
f 571 573 574 572
f 573 575 576 574
f 575 577 578 576
f 577 579 580 578
f 579 565 566 580
f 579 577 575 573 571 569 567 565
f 566 568 570 572 574 576 578 580
f 581 583 584 582
f 583 585 586 584
f 585 587 588 586
f 587 589 590 588
f 589 591 592 590
f 591 593 594 592
f 593 595 596 594
f 595 581 582 596
f 595 593 591 589 587 585 583 581
f 582 584 586 588 590 592 594 596
f 597 599 600 598
f 599 601 602 600
f 601 603 604 602
f 603 605 606 604
f 605 607 608 606
f 607 609 610 608
f 609 611 612 610
f 611 597 598 612
f 611 609 607 605 603 601 599 597
f 598 600 602 604 606 608 610 612
f 613 615 616 614
f 615 617 618 616
f 617 619 620 618
f 619 621 622 620
f 621 623 624 622
f 623 625 626 624
f 625 627 628 626
f 627 613 614 628
f 627 625 623 621 619 617 615 613
f 614 616 618 620 622 624 626 628
f 629 631 632 630
f 631 633 634 632
f 633 635 636 634
f 635 637 638 636
f 637 639 640 638
f 639 641 642 640
f 641 643 644 642
f 643 629 630 644
f 643 641 639 637 635 633 631 629
f 630 632 634 636 638 640 642 644
f 645 647 648 646
f 647 649 650 648
f 649 651 652 650
f 651 653 654 652
f 653 655 656 654
f 655 657 658 656
f 657 659 660 658
f 659 645 646 660
f 659 657 655 653 651 649 647 645
f 646 648 650 652 654 656 658 660
f 661 663 664 662
f 663 665 666 664
f 665 667 668 666
f 667 669 670 668
f 669 671 672 670
f 671 673 674 672
f 673 675 676 674
f 675 661 662 676
f 675 673 671 669 667 665 663 661
f 662 664 666 668 670 672 674 676
f 677 679 680 678
f 679 681 682 680
f 681 683 684 682
f 683 685 686 684
f 685 687 688 686
f 687 689 690 688
f 689 691 692 690
f 691 677 678 692
f 691 689 687 685 683 681 679 677
f 678 680 682 684 686 688 690 692
f 693 695 696 694
f 695 697 698 696
f 697 699 700 698
f 699 701 702 700
f 701 703 704 702
f 703 705 706 704
f 705 707 708 706
f 707 693 694 708
f 707 705 703 701 699 697 695 693
f 694 696 698 700 702 704 706 708
f 709 711 712 710
f 711 713 714 712
f 713 715 716 714
f 715 717 718 716
f 717 719 720 718
f 719 721 722 720
f 721 723 724 722
f 723 725 726 724
f 725 727 728 726
f 727 709 710 728
f 727 725 723 721 719 717 715 713 711 709
f 710 712 714 716 718 720 722 724 726 728
f 729 731 732 730
f 731 733 734 732
f 733 735 736 734
f 735 737 738 736
f 737 739 740 738
f 739 741 742 740
f 741 743 744 742
f 743 745 746 744
f 745 747 748 746
f 747 729 730 748
f 747 745 743 741 739 737 735 733 731 729
f 730 732 734 736 738 740 742 744 746 748
f 749 751 752 750
f 751 753 754 752
f 753 755 756 754
f 755 757 758 756
f 757 759 760 758
f 759 761 762 760
f 761 763 764 762
f 763 765 766 764
f 765 767 768 766
f 767 749 750 768
f 767 765 763 761 759 757 755 753 751 749
f 750 752 754 756 758 760 762 764 766 768
f 769 771 772 770
f 771 773 774 772
f 773 775 776 774
f 775 777 778 776
f 777 779 780 778
f 779 781 782 780
f 781 783 784 782
f 783 785 786 784
f 785 787 788 786
f 787 769 770 788
f 787 785 783 781 779 777 775 773 771 769
f 770 772 774 776 778 780 782 784 786 788
f 789 791 792 790
f 791 793 794 792
f 793 795 796 794
f 795 797 798 796
f 797 799 800 798
f 799 801 802 800
f 801 803 804 802
f 803 805 806 804
f 805 807 808 806
f 807 789 790 808
f 807 805 803 801 799 797 795 793 791 789
f 790 792 794 796 798 800 802 804 806 808
usemtl flag_red
f 809 810 811 812
f 813 816 815 814
f 809 813 814 810
f 810 814 815 811
f 811 815 816 812
f 812 816 813 809
usemtl cream
f 817 818 819 820
f 821 824 823 822
f 817 821 822 818
f 818 822 823 819
f 819 823 824 820
f 820 824 821 817
usemtl red
f 825 826 827 828
f 829 832 831 830
f 825 829 830 826
f 826 830 831 827
f 827 831 832 828
f 828 832 829 825
f 833 834 835 836
f 837 840 839 838
f 833 837 838 834
f 834 838 839 835
f 835 839 840 836
f 836 840 837 833
usemtl dark_metal
f 841 843 844 842
f 843 845 846 844
f 845 847 848 846
f 847 849 850 848
f 849 851 852 850
f 851 853 854 852
f 853 855 856 854
f 855 857 858 856
f 857 859 860 858
f 859 861 862 860
f 861 863 864 862
f 863 865 866 864
f 865 867 868 866
f 867 869 870 868
f 869 871 872 870
f 871 841 842 872
f 871 869 867 865 863 861 859 857 855 853 851 849 847 845 843 841
f 842 844 846 848 850 852 854 856 858 860 862 864 866 868 870 872
usemtl brass
f 873 875 876 874
f 875 877 878 876
f 877 879 880 878
f 879 881 882 880
f 881 883 884 882
f 883 885 886 884
f 885 887 888 886
f 887 889 890 888
f 889 891 892 890
f 891 893 894 892
f 893 895 896 894
f 895 897 898 896
f 897 899 900 898
f 899 901 902 900
f 901 903 904 902
f 903 873 874 904
f 903 901 899 897 895 893 891 889 887 885 883 881 879 877 875 873
f 874 876 878 880 882 884 886 888 890 892 894 896 898 900 902 904
usemtl wood
f 905 906 907 908
f 909 912 911 910
f 905 909 910 906
f 906 910 911 907
f 907 911 912 908
f 908 912 909 905
f 913 914 915 916
f 917 920 919 918
f 913 917 918 914
f 914 918 919 915
f 915 919 920 916
f 916 920 917 913
f 921 922 923 924
f 925 928 927 926
f 921 925 926 922
f 922 926 927 923
f 923 927 928 924
f 924 928 925 921
f 929 930 931 932
f 933 936 935 934
f 929 933 934 930
f 930 934 935 931
f 931 935 936 932
f 932 936 933 929
usemtl dark_metal
f 937 938 939 940
f 941 944 943 942
f 937 941 942 938
f 938 942 943 939
f 939 943 944 940
f 940 944 941 937
