# Wild Wind Blender MCP export. Units are meters. Unity axes: X=Blender X, Y=Blender Z, Z=-Blender Y.
o Cruiser203TurretC_House
v -5.0000000 -1.2149343 -4.0686913
v 5.0000000 -1.2149343 -4.0686913
v -3.7484624 -1.5999994 3.8562489
v -4.1986771 -1.5999994 3.3369522
v -3.7484624 1.5999994 2.0925102
v -4.6378312 1.1033831 1.5748787
v -5.0000000 1.4368038 -4.0686913
v -3.7484624 1.5999994 -3.2787552
v 4.1986771 -1.5999994 3.3369522
v 3.7484624 -1.5999994 3.8562489
v 4.6378307 1.1033831 1.5748787
v 3.7484620 1.5999994 2.0925179
v 3.7484624 1.5999994 -3.2787552
v 5.0000000 1.4368038 -4.0686913
v -4.6205955 -1.2149343 3.4750462
v -3.7484624 -1.2149343 4.0686893
v 4.6205955 -1.2149343 3.4750462
v 3.7484624 -1.2149343 4.0686893
v -4.5434370 -1.6000013 1.8284569
v -5.0000000 -1.2149363 1.8278427
v 4.5434370 -1.6000013 1.8284569
v 5.0000000 -1.2149363 1.8278427
v -5.0000000 -1.2149343 -4.0686913
v -4.5434370 -1.5999994 -3.0150681
v 4.5434370 -1.5999994 -3.0150681
v 5.0000000 -1.2149343 -4.0686913
v -1.6666665 -1.2149343 -4.0686913
v 1.6666665 -1.2149343 -4.0686913
v 1.2494874 -1.5999994 3.8562489
v -1.2494874 -1.5999994 3.8562489
v 1.2494874 1.5999994 -3.2787552
v -1.2494874 1.5999994 -3.2787552
v -1.6666665 1.4368038 -4.0686913
v 1.6666665 1.4368038 -4.0686913
v 1.5144790 -1.5999994 -3.0150681
v -1.5144790 -1.5999994 -3.0150681
v -1.6666665 -1.2149343 -4.0686913
v 1.6666665 -1.2149343 -4.0686913
v -1.2494876 1.5999994 2.0925102
v 1.2494873 1.5999994 2.0925140
v -1.2494874 -1.2149343 4.0686893
v 1.2494874 -1.2149343 4.0686893
v -1.4200176 -0.9555531 4.1212482
v -1.4200177 1.3406181 2.5092583
v -3.5779321 1.3406181 2.5092583
v -3.5779324 -0.9555531 4.1212502
v 3.5779321 -0.9555531 4.1212502
v 3.5779321 1.3406172 2.5092659
v 1.4200174 1.3406172 2.5092621
v 1.4200176 -0.9555531 4.1212502
v 1.0789572 -0.9555531 4.1212502
v 1.0789571 1.3406172 2.5092621
v -1.0789574 1.3406181 2.5092583
v -1.0789572 -0.9555531 4.1212502
vn -0.9829443 0.0996469 -0.1545679
vn 0.9829443 0.0996469 -0.1545679
vn -0.1304844 -0.9405481 0.3135973
vn -0.3228440 -0.9160550 0.2379390
vn -0.2935554 0.9195085 0.2613988
vn -0.8352548 0.5160624 0.1898127
vn -0.8555130 0.4841130 -0.1836637
vn -0.0945580 0.9922831 -0.0802064
vn 0.3228440 -0.9160550 0.2379390
vn 0.1304844 -0.9405481 0.3135973
vn 0.8352550 0.5160623 0.1898126
vn 0.2935560 0.9195082 0.2613991
vn 0.0945580 0.9922831 -0.0802064
vn 0.8555129 0.4841130 -0.1836636
vn -0.8868014 -0.2789271 0.3684874
vn -0.5032015 -0.0964452 0.8587704
vn 0.8868015 -0.2789272 0.3684871
vn 0.5032027 -0.0964453 0.8587697
vn -0.4313135 -0.9004747 0.0558035
vn -0.9568744 -0.2726408 0.1002913
vn 0.4313134 -0.9004747 0.0558035
vn 0.9568745 -0.2726408 0.1002913
vn -0.9524747 -0.2643061 -0.1514407
vn -0.2789459 -0.9524192 -0.1228284
vn 0.2789458 -0.9524192 -0.1228284
vn 0.9524747 -0.2643061 -0.1514407
vn 0.0000000 0.9236776 -0.3831704
vn 0.0000000 0.9236776 -0.3831704
vn -0.0000001 -0.9494541 0.3139059
vn 0.0000001 -0.9494541 0.3139059
vn 0.0000000 0.9952727 -0.0971198
vn 0.0000000 0.9952727 -0.0971198
vn 0.0000000 0.8307614 -0.5566286
vn 0.0000000 0.8307614 -0.5566287
vn -0.0000001 -0.9879487 -0.1547814
vn 0.0000001 -0.9879487 -0.1547814
vn 0.0000000 0.6732105 -0.7394510
vn 0.0000000 0.6732105 -0.7394510
vn -0.0000001 0.9678863 0.2513886
vn -0.0000001 0.9678862 0.2513888
vn 0.0000000 -0.1437762 0.9896101
vn -0.0000000 -0.1437765 0.9896101
vn 0.4123582 0.2944689 0.8621188
vn 0.3509759 0.6657683 0.6584592
vn -0.3509760 0.6657681 0.6584594
vn -0.4123577 0.2944687 0.8621191
vn 0.4123585 0.2944685 0.8621188
vn 0.3509765 0.6657673 0.6584600
vn -0.3509767 0.6657670 0.6584600
vn -0.4123580 0.2944682 0.8621190
vn 0.4123579 0.2944687 0.8621190
vn 0.3509758 0.6657676 0.6584599
vn -0.3509767 0.6657676 0.6584595
vn -0.4123582 0.2944689 0.8621188
f 18//18 10//10 9//9
f 18//18 9//9 17//17
f 12//12 18//18 17//17
f 12//12 17//17 11//11
f 20//20 6//6 7//7
f 20//20 7//7 1//1
f 27//27 1//1 7//7
f 27//27 7//7 33//33
f 21//21 22//22 17//17
f 21//21 17//17 9//9
f 22//22 11//11 17//17
f 2//2 14//14 11//11
f 2//2 11//11 22//22
f 15//15 6//6 20//20
f 4//4 15//15 20//20
f 4//4 20//20 19//19
f 13//13 12//12 11//11
f 13//13 11//11 14//14
f 36//36 24//24 23//23
f 36//36 23//23 37//37
f 19//19 20//20 1//1
f 19//19 1//1 23//23
f 19//19 23//23 24//24
f 38//38 28//28 2//2
f 38//38 2//2 26//26
f 35//35 25//25 21//21
f 35//35 21//21 9//9
f 35//35 9//9 10//10
f 35//35 10//10 29//29
f 25//25 26//26 2//2
f 25//25 2//2 22//22
f 25//25 22//22 21//21
f 16//16 5//5 6//6
f 16//16 6//6 15//15
f 3//3 16//16 15//15
f 3//3 15//15 4//4
f 30//30 41//41 16//16
f 30//30 16//16 3//3
f 43//43 44//44 45//45
f 43//43 45//45 46//46
f 32//32 8//8 5//5
f 32//32 5//5 39//39
f 31//31 13//13 14//14
f 31//31 14//14 34//34
f 5//5 8//8 7//7
f 5//5 7//7 6//6
f 8//8 32//32 33//33
f 8//8 33//33 7//7
f 32//32 31//31 34//34
f 32//32 34//34 33//33
f 13//13 31//31 40//40
f 13//13 40//40 12//12
f 31//31 32//32 39//39
f 31//31 39//39 40//40
f 47//47 48//48 49//49
f 47//47 49//49 50//50
f 51//51 52//52 53//53
f 51//51 53//53 54//54
f 10//10 18//18 42//42
f 10//10 42//42 29//29
f 29//29 42//42 41//41
f 29//29 41//41 30//30
f 24//24 36//36 30//30
f 24//24 30//30 3//3
f 24//24 3//3 4//4
f 24//24 4//4 19//19
f 36//36 35//35 29//29
f 36//36 29//29 30//30
f 23//23 1//1 27//27
f 23//23 27//27 37//37
f 37//37 27//27 28//28
f 37//37 28//28 38//38
f 25//25 35//35 38//38
f 25//25 38//38 26//26
f 35//35 36//36 37//37
f 35//35 37//37 38//38
f 2//2 28//28 34//34
f 2//2 34//34 14//14
f 28//28 27//27 33//33
f 28//28 33//33 34//34
f 41//41 39//39 44//44
f 41//41 44//44 43//43
f 39//39 5//5 45//45
f 39//39 45//45 44//44
f 5//5 16//16 46//46
f 5//5 46//46 45//45
f 16//16 41//41 43//43
f 16//16 43//43 46//46
f 18//18 12//12 48//48
f 18//18 48//48 47//47
f 12//12 40//40 49//49
f 12//12 49//49 48//48
f 40//40 42//42 50//50
f 40//40 50//50 49//49
f 42//42 18//18 47//47
f 42//42 47//47 50//50
f 42//42 40//40 52//52
f 42//42 52//52 51//51
f 40//40 39//39 53//53
f 40//40 53//53 52//52
f 39//39 41//41 54//54
f 39//39 54//54 53//53
f 41//41 42//42 51//51
f 41//41 51//51 54//54
