# Wild Wind Blender MCP export. Units are meters. Unity axes: X=Blender X, Y=Blender Z, Z=-Blender Y.
o Cruiser203TurretC_Barrel1
v 0.1627459 -0.0280066 11.7024765
v 0.2324950 0.1347408 11.7024765
v -0.0000015 -0.0977554 11.7024765
v 0.1139216 0.0208178 11.7168045
v 0.1828926 -0.0481529 10.0307407
v 0.1627461 -0.0280066 10.0259991
v -0.0000014 -0.1265364 10.0307407
v 0.2612759 0.1347408 10.0307407
v 0.2324952 0.1347408 10.0259991
v 0.1828926 0.3176355 10.0307407
v 0.1627459 0.2974892 11.7024765
v 0.1627461 0.2974892 10.0259991
v -0.0000014 0.3960180 10.0307407
v -0.0000014 0.3672371 10.0259991
v -0.0000015 0.3672371 11.7024765
v -0.1828956 0.3176355 10.0307407
v -0.1627490 0.2974892 10.0259991
v -0.1627492 0.2974892 11.7024765
v -0.2612787 0.1347408 10.0307407
v -0.2324979 0.1347408 10.0259991
v -0.2324980 0.1347408 11.7024765
v -0.1828956 -0.0481529 10.0307407
v -0.1627492 -0.0280066 11.7024765
v -0.1627490 -0.0280066 10.0259991
v -0.1897728 -0.0550308 2.3574905
v -0.0000014 -0.0977554 10.0259991
v -0.0000005 -0.1363621 2.3574905
v 0.1897720 -0.0550308 2.3574905
v 0.0000046 -0.4870386 2.2694988
v 0.4275168 -0.3005056 2.2694988
v -0.4275071 -0.3005056 2.2694988
v 0.0000046 -0.4870386 2.2694988
v 0.4275168 -0.3005056 2.2694988
v -0.4275071 -0.3005056 2.2694988
v -0.0007100 -0.4652605 0.5757732
v 0.4268022 -0.2787275 0.5757732
v -0.4282217 -0.2787275 0.5757732
v -0.6114414 0.1565123 0.5757732
v -0.4282217 0.5917549 0.5757732
v -0.6107268 0.1347342 2.2694988
v -0.4275071 0.5699768 2.2694988
v -0.6107268 0.1347342 2.2694988
v -0.4275071 0.5699768 2.2694988
v -0.2711040 0.1347408 2.3574905
v -0.1897728 0.3245134 2.3574905
v -0.0000005 0.4058447 2.3574905
v 0.1897720 0.3245134 2.3574905
v 0.0000046 0.7565079 2.2694988
v 0.4275168 0.5699768 2.2694988
v 0.0000046 0.7565079 2.2694988
v 0.4275168 0.5699768 2.2694988
v -0.0007100 0.7782860 0.5757732
v 0.4268022 0.5917549 0.5757732
v 0.6100214 0.1565123 0.5757732
v 0.6107360 0.1347342 2.2694988
v 0.6107360 0.1347342 2.2694988
v 0.2711030 0.1347408 2.3574905
v -0.1139249 0.0208178 11.7168045
v -0.1627491 0.1347408 11.7168045
v -0.0000015 -0.0280066 11.7168045
v -0.1139234 0.0208178 4.1550694
v -0.1627476 0.1347408 4.1550694
v -0.0000001 -0.0280066 4.1550694
v 0.1139231 0.0208178 4.1550694
v 0.1627474 0.1347408 4.1550694
v 0.1139231 0.2486649 4.1550694
v 0.1627460 0.1347408 11.7168045
v 0.1139216 0.2486649 11.7168045
v -0.0000015 0.2974882 11.7168045
v -0.1139249 0.2486649 11.7168045
v -0.0000001 0.2974882 4.1550694
v -0.1139234 0.2486649 4.1550694
vn 0.7208276 -0.6395931 0.2670737
vn 0.9803574 -0.0000008 0.1972296
vn 0.0000000 -0.9449705 0.3271555
vn -0.6822659 0.5872046 0.4355502
vn 0.7306681 -0.6373670 -0.2447190
vn 0.6871412 -0.6220103 -0.3754201
vn 0.0000002 -0.9515535 -0.3074835
vn 0.9845127 -0.0000017 -0.1753133
vn 0.9286340 -0.0000029 -0.3709972
vn 0.7306689 0.6373661 -0.2447191
vn 0.7208270 0.6395938 0.2670733
vn 0.6871414 0.6220091 -0.3754214
vn 0.0000003 0.9515532 -0.3074839
vn -0.0000001 0.9095316 -0.4156349
vn 0.0000001 0.9449703 0.3271560
vn -0.7306693 0.6373656 -0.2447190
vn -0.6871415 0.6220088 -0.3754217
vn -0.7208286 0.6395919 0.2670734
vn -0.9845126 -0.0000017 -0.1753134
vn -0.9286339 -0.0000029 -0.3709973
vn -0.9803573 -0.0000013 0.1972295
vn -0.7306686 -0.6373665 -0.2447189
vn -0.7208278 -0.6395929 0.2670732
vn -0.6871411 -0.6220101 -0.3754203
vn -0.6877078 -0.6236706 0.3716084
vn -0.0000001 -0.9095314 -0.4156352
vn -0.0000008 -0.9124665 0.4091516
vn 0.6877074 -0.6236706 0.3716094
vn 0.0000004 0.9364846 0.3507087
vn 0.0656900 0.9456697 0.3184237
vn -0.0656915 0.9456694 0.3184243
vn 0.0094868 0.9583188 -0.2855435
vn 0.9621837 0.2721671 -0.0112992
vn -0.9623610 0.2715711 -0.0105025
vn -0.0004077 -0.9385262 -0.3452076
vn 0.7268435 -0.6299618 -0.2735809
vn -0.7273422 -0.6296237 -0.2730334
vn -0.9812083 0.0067652 -0.1928331
vn -0.7243901 0.6378133 -0.2616355
vn -0.7994266 0.6007636 0.0002663
vn -0.4463488 0.8948441 0.0051626
vn -0.0646453 0.9660210 0.2502486
vn -0.0599254 0.9550066 0.2904674
vn -0.9291173 -0.0000003 0.3697850
vn -0.6877069 0.6236717 0.3716083
vn -0.0000008 0.9124674 0.4091494
vn 0.6877065 0.6236717 0.3716093
vn 0.0000003 0.9537707 0.3005351
vn 0.0599242 0.9550065 0.2904676
vn 0.0002135 0.9999800 0.0063267
vn 0.4466246 0.8947087 0.0047828
vn -0.0004043 0.9450788 -0.3268424
vn 0.7238989 0.6381586 -0.2621525
vn 0.9810930 0.0067757 -0.1934184
vn 0.7990909 0.6012100 -0.0004080
vn 0.0646435 0.9660210 0.2502490
vn 0.9291169 -0.0000001 0.3697860
vn 0.6822666 0.5872033 0.4355509
vn 0.9020945 -0.0000007 0.4315384
vn -0.0000001 0.8736145 0.4866188
vn 0.7211506 0.6386149 0.2685382
vn 0.9812679 0.0000008 0.1926484
vn -0.0000005 0.9416470 0.3366022
vn -0.7211505 0.6386151 0.2685381
vn -0.9812679 0.0000008 0.1926480
vn -0.7211505 -0.6386152 0.2685379
vn -0.9020945 0.0000006 0.4315385
vn -0.6822667 -0.5872026 0.4355518
vn -0.0000001 -0.8736150 0.4866177
vn 0.6822644 -0.5872058 0.4355508
vn -0.0000005 -0.9416468 0.3366027
vn 0.7211505 -0.6386150 0.2685380
f 1//1 2//2 67//67
f 1//1 67//67 4//4
f 5//5 8//8 2//2
f 5//5 2//2 1//1
f 1//1 3//3 7//7
f 1//1 7//7 5//5
f 3//3 1//1 4//4
f 3//3 4//4 60//60
f 6//6 9//9 8//8
f 6//6 8//8 5//5
f 5//5 7//7 26//26
f 5//5 26//26 6//6
f 8//8 10//10 11//11
f 8//8 11//11 2//2
f 9//9 12//12 10//10
f 9//9 10//10 8//8
f 15//15 11//11 10//10
f 15//15 10//10 13//13
f 13//13 10//10 12//12
f 13//13 12//12 14//14
f 16//16 13//13 14//14
f 16//16 14//14 17//17
f 18//18 15//15 13//13
f 18//18 13//13 16//16
f 19//19 16//16 17//17
f 19//19 17//17 20//20
f 21//21 18//18 16//16
f 21//21 16//16 19//19
f 22//22 19//19 20//20
f 22//22 20//20 24//24
f 23//23 21//21 19//19
f 23//23 19//19 22//22
f 3//3 23//23 22//22
f 3//3 22//22 7//7
f 7//7 22//22 24//24
f 7//7 24//24 26//26
f 26//26 24//24 25//25
f 26//26 25//25 27//27
f 24//24 20//20 44//44
f 24//24 44//44 25//25
f 6//6 26//26 27//27
f 6//6 27//27 28//28
f 28//28 27//27 29//29
f 28//28 29//29 30//30
f 27//27 25//25 31//31
f 27//27 31//31 29//29
f 30//30 29//29 32//32
f 30//30 32//32 33//33
f 29//29 31//31 34//34
f 29//29 34//34 32//32
f 33//33 32//32 35//35
f 33//33 35//35 36//36
f 32//32 34//34 37//37
f 32//32 37//37 35//35
f 54//54 36//36 35//35
f 54//54 35//35 37//37
f 54//54 37//37 38//38
f 54//54 38//38 39//39
f 54//54 39//39 52//52
f 54//54 52//52 53//53
f 34//34 40//40 38//38
f 34//34 38//38 37//37
f 40//40 41//41 39//39
f 40//40 39//39 38//38
f 31//31 42//42 40//40
f 31//31 40//40 34//34
f 42//42 43//43 41//41
f 42//42 41//41 40//40
f 25//25 44//44 42//42
f 25//25 42//42 31//31
f 44//44 45//45 43//43
f 44//44 43//43 42//42
f 20//20 17//17 45//45
f 20//20 45//45 44//44
f 17//17 14//14 46//46
f 17//17 46//46 45//45
f 45//45 46//46 48//48
f 45//45 48//48 43//43
f 14//14 12//12 47//47
f 14//14 47//47 46//46
f 46//46 47//47 49//49
f 46//46 49//49 48//48
f 43//43 48//48 50//50
f 43//43 50//50 41//41
f 48//48 49//49 51//51
f 48//48 51//51 50//50
f 41//41 50//50 52//52
f 41//41 52//52 39//39
f 50//50 51//51 53//53
f 50//50 53//53 52//52
f 51//51 55//55 54//54
f 51//51 54//54 53//53
f 55//55 33//33 36//36
f 55//55 36//36 54//54
f 49//49 56//56 55//55
f 49//49 55//55 51//51
f 56//56 30//30 33//33
f 56//56 33//33 55//55
f 47//47 57//57 56//56
f 47//47 56//56 49//49
f 57//57 28//28 30//30
f 57//57 30//30 56//56
f 57//57 47//47 12//12
f 57//57 12//12 9//9
f 28//28 57//57 9//9
f 28//28 9//9 6//6
f 21//21 23//23 58//58
f 21//21 58//58 59//59
f 23//23 3//3 60//60
f 23//23 60//60 58//58
f 61//61 62//62 59//59
f 61//61 59//59 58//58
f 63//63 61//61 58//58
f 63//63 58//58 60//60
f 65//65 66//66 71//71
f 65//65 71//71 72//72
f 65//65 72//72 62//62
f 65//65 62//62 61//61
f 65//65 61//61 63//63
f 65//65 63//63 64//64
f 64//64 63//63 60//60
f 64//64 60//60 4//4
f 65//65 64//64 4//4
f 65//65 4//4 67//67
f 66//66 65//65 67//67
f 66//66 67//67 68//68
f 2//2 11//11 68//68
f 2//2 68//68 67//67
f 71//71 66//66 68//68
f 71//71 68//68 69//69
f 11//11 15//15 69//69
f 11//11 69//69 68//68
f 15//15 18//18 70//70
f 15//15 70//70 69//69
f 72//72 71//71 69//69
f 72//72 69//69 70//70
f 62//62 72//72 70//70
f 62//62 70//70 59//59
f 18//18 21//21 59//59
f 18//18 59//59 70//70
