# Wild Wind Blender MCP export. Units are meters. Unity axes: X=Blender X, Y=Blender Z, Z=-Blender Y.
o Cruiser203CrusherRotorL1
v 0.0000000 1.8524637 -11.1192627
v 0.0000000 1.8524618 11.1192665
v 0.9883442 1.6042805 -11.1192627
v 0.9883442 1.6042795 11.1192665
v 1.7118623 0.9262323 -11.1192627
v 1.7118623 0.9262304 11.1192665
v 1.9766884 0.0000010 -11.1192627
v 1.9766884 -0.0000010 11.1192627
v 1.7118623 -0.9262304 -11.1192627
v 1.7118623 -0.9262323 11.1192627
v 0.9883442 -1.6042795 -11.1192627
v 0.9883442 -1.6042805 11.1192627
v 0.0000000 -1.8524618 -11.1192627
v 0.0000000 -1.8524637 11.1192627
v -0.9883444 -1.6042795 -11.1192627
v -0.9883444 -1.6042805 11.1192627
v -1.7118623 -0.9262304 -11.1192627
v -1.7118623 -0.9262323 11.1192627
v -1.9766886 0.0000010 -11.1192627
v -1.9766886 -0.0000010 11.1192627
v -1.7118623 0.9262323 -11.1192627
v -1.7118623 0.9262304 11.1192665
v -0.9883444 1.6042805 -11.1192627
v -0.9883444 1.6042795 11.1192665
vn -0.0000001 0.7546064 -0.6561778
vn 0.0000001 0.7546062 0.6561778
vn 0.3620244 0.6634773 -0.6547796
vn 0.3620246 0.6634772 0.6547794
vn 0.6472986 0.3952238 -0.6517689
vn 0.6472988 0.3952237 0.6517688
vn 0.7598081 0.0000000 -0.6501474
vn 0.7598083 -0.0000000 0.6501473
vn 0.6472986 -0.3952238 -0.6517689
vn 0.6472988 -0.3952238 0.6517688
vn 0.3620244 -0.6634773 -0.6547796
vn 0.3620246 -0.6634772 0.6547794
vn -0.0000001 -0.7546062 -0.6561778
vn 0.0000001 -0.7546064 0.6561778
vn -0.3620246 -0.6634772 -0.6547794
vn -0.3620244 -0.6634773 0.6547796
vn -0.6472988 -0.3952237 -0.6517688
vn -0.6472986 -0.3952238 0.6517689
vn -0.7598083 0.0000000 -0.6501473
vn -0.7598081 -0.0000000 0.6501474
vn -0.6472988 0.3952238 -0.6517688
vn -0.6472986 0.3952238 0.6517689
vn -0.3620246 0.6634772 -0.6547794
vn -0.3620244 0.6634773 0.6547796
f 1//1 2//2 4//4
f 1//1 4//4 3//3
f 3//3 4//4 6//6
f 3//3 6//6 5//5
f 5//5 6//6 8//8
f 5//5 8//8 7//7
f 7//7 8//8 10//10
f 7//7 10//10 9//9
f 9//9 10//10 12//12
f 9//9 12//12 11//11
f 11//11 12//12 14//14
f 11//11 14//14 13//13
f 13//13 14//14 16//16
f 13//13 16//16 15//15
f 15//15 16//16 18//18
f 15//15 18//18 17//17
f 17//17 18//18 20//20
f 17//17 20//20 19//19
f 19//19 20//20 22//22
f 19//19 22//22 21//21
f 4//4 2//2 24//24
f 4//4 24//24 22//22
f 4//4 22//22 20//20
f 4//4 20//20 18//18
f 4//4 18//18 16//16
f 4//4 16//16 14//14
f 4//4 14//14 12//12
f 4//4 12//12 10//10
f 4//4 10//10 8//8
f 4//4 8//8 6//6
f 21//21 22//22 24//24
f 21//21 24//24 23//23
f 23//23 24//24 2//2
f 23//23 2//2 1//1
f 1//1 3//3 5//5
f 1//1 5//5 7//7
f 1//1 7//7 9//9
f 1//1 9//9 11//11
f 1//1 11//11 13//13
f 1//1 13//13 15//15
f 1//1 15//15 17//17
f 1//1 17//17 19//19
f 1//1 19//19 21//21
f 1//1 21//21 23//23
