# Wild Wind Blender MCP export. Units are meters. Unity axes: X=Blender X, Y=Blender Z, Z=-Blender Y.
o Cruiser203TurretB_Barrel3
v -2.3372543 -0.0280066 11.7024765
v -2.2675052 0.1347408 11.7024765
v -2.5000017 -0.0977554 11.7024765
v -2.3860784 0.0208178 11.7168045
v -2.3171077 -0.0481529 10.0307388
v -2.3372540 -0.0280066 10.0260010
v -2.5000014 -0.1265364 10.0307388
v -2.2387240 0.1347408 10.0307388
v -2.2675049 0.1347408 10.0260010
v -2.3171077 0.3176355 10.0307388
v -2.3372543 0.2974892 11.7024765
v -2.3372540 0.2974892 10.0260010
v -2.5000014 0.3960180 10.0307388
v -2.5000014 0.3672371 10.0260010
v -2.5000017 0.3672371 11.7024765
v -2.6828957 0.3176355 10.0307388
v -2.6627491 0.2974892 10.0260010
v -2.6627493 0.2974892 11.7024765
v -2.7612789 0.1347408 10.0307388
v -2.7324979 0.1347408 10.0260010
v -2.7324982 0.1347408 11.7024765
v -2.6828957 -0.0481529 10.0307388
v -2.6627493 -0.0280066 11.7024765
v -2.6627491 -0.0280066 10.0260010
v -2.6897731 -0.0550308 2.3574905
v -2.5000014 -0.0977554 10.0260010
v -2.5000007 -0.1363621 2.3574905
v -2.3102281 -0.0550308 2.3574905
v -2.4999955 -0.4870386 2.2694988
v -2.0724833 -0.3005056 2.2694988
v -2.9275072 -0.3005056 2.2694988
v -2.4999955 -0.4870386 2.2694988
v -2.0724833 -0.3005056 2.2694988
v -2.9275072 -0.3005056 2.2694988
v -2.5007102 -0.4652605 0.5757732
v -2.0731981 -0.2787275 0.5757732
v -2.9282219 -0.2787275 0.5757732
v -3.1114416 0.1565123 0.5757732
v -2.9282219 0.5917549 0.5757732
v -3.1107271 0.1347342 2.2694988
v -2.9275072 0.5699768 2.2694988
v -3.1107271 0.1347342 2.2694988
v -2.9275072 0.5699768 2.2694988
v -2.7711041 0.1347408 2.3574905
v -2.6897731 0.3245134 2.3574905
v -2.5000007 0.4058447 2.3574905
v -2.3102281 0.3245134 2.3574905
v -2.4999955 0.7565079 2.2694988
v -2.0724833 0.5699768 2.2694988
v -2.4999955 0.7565079 2.2694988
v -2.0724833 0.5699768 2.2694988
v -2.5007102 0.7782860 0.5757732
v -2.0731981 0.5917549 0.5757732
v -1.8899788 0.1565123 0.5757732
v -1.8892641 0.1347342 2.2694988
v -1.8892641 0.1347342 2.2694988
v -2.2288971 0.1347408 2.3574905
v -2.6139250 0.0208178 11.7168045
v -2.6627493 0.1347408 11.7168045
v -2.5000017 -0.0280066 11.7168045
v -2.6139235 0.0208178 4.1550694
v -2.6627476 0.1347408 4.1550694
v -2.5000000 -0.0280066 4.1550694
v -2.3860769 0.0208178 4.1550694
v -2.3372526 0.1347408 4.1550694
v -2.3860769 0.2486649 4.1550694
v -2.3372543 0.1347408 11.7168045
v -2.3860784 0.2486649 11.7168045
v -2.5000017 0.2974882 11.7168045
v -2.6139250 0.2486649 11.7168045
v -2.5000000 0.2974882 4.1550694
v -2.6139235 0.2486649 4.1550694
vn 0.7208269 -0.6395940 0.2670732
vn 0.9803573 -0.0000012 0.1972297
vn 0.0000005 -0.9449703 0.3271561
vn -0.6822670 0.5872028 0.4355509
vn 0.7306682 -0.6373670 -0.2447190
vn 0.6871412 -0.6220103 -0.3754200
vn 0.0000006 -0.9515530 -0.3074846
vn 0.9845127 -0.0000006 -0.1753131
vn 0.9286340 -0.0000009 -0.3709971
vn 0.7306678 0.6373674 -0.2447188
vn 0.7208272 0.6395938 0.2670733
vn 0.6871407 0.6220101 -0.3754211
vn 0.0000006 0.9515529 -0.3074851
vn -0.0000001 0.9095307 -0.4156368
vn 0.0000005 0.9449701 0.3271566
vn -0.7306693 0.6373656 -0.2447192
vn -0.6871430 0.6220067 -0.3754227
vn -0.7208292 0.6395913 0.2670735
vn -0.9845126 -0.0000005 -0.1753134
vn -0.9286340 -0.0000005 -0.3709973
vn -0.9803573 -0.0000013 0.1972297
vn -0.7306695 -0.6373654 -0.2447193
vn -0.7208288 -0.6395917 0.2670735
vn -0.6871433 -0.6220070 -0.3754218
vn -0.6877078 -0.6236706 0.3716085
vn -0.0000001 -0.9095305 -0.4156372
vn -0.0000007 -0.9124664 0.4091516
vn 0.6877075 -0.6236704 0.3716094
vn 0.0000004 0.9364846 0.3507087
vn 0.0656900 0.9456698 0.3184236
vn -0.0656915 0.9456694 0.3184243
vn 0.0094889 0.9583189 -0.2855428
vn 0.9621837 0.2721671 -0.0112992
vn -0.9623610 0.2715711 -0.0105025
vn -0.0004077 -0.9385263 -0.3452076
vn 0.7268435 -0.6299619 -0.2735809
vn -0.7273423 -0.6296237 -0.2730334
vn -0.9812083 0.0067652 -0.1928330
vn -0.7243902 0.6378133 -0.2616355
vn -0.7994266 0.6007636 0.0002663
vn -0.4463488 0.8948441 0.0051626
vn -0.0646454 0.9660210 0.2502486
vn -0.0599255 0.9550066 0.2904674
vn -0.9291174 -0.0000001 0.3697850
vn -0.6877068 0.6236719 0.3716082
vn -0.0000007 0.9124674 0.4091493
vn 0.6877065 0.6236717 0.3716092
vn 0.0000004 0.9537707 0.3005351
vn 0.0599242 0.9550065 0.2904677
vn 0.0002135 0.9999800 0.0063267
vn 0.4466246 0.8947087 0.0047828
vn -0.0004042 0.9450788 -0.3268424
vn 0.7238989 0.6381587 -0.2621525
vn 0.9810930 0.0067757 -0.1934183
vn 0.7990909 0.6012101 -0.0004080
vn 0.0646435 0.9660211 0.2502489
vn 0.9291169 -0.0000000 0.3697860
vn 0.6822648 0.5872061 0.4355499
vn 0.9020944 -0.0000008 0.4315387
vn 0.0000000 0.8736151 0.4866175
vn 0.7211505 0.6386150 0.2685382
vn 0.9812679 0.0000007 0.1926484
vn -0.0000004 0.9416470 0.3366022
vn -0.7211509 0.6386148 0.2685380
vn -0.9812679 0.0000007 0.1926481
vn -0.7211508 -0.6386149 0.2685378
vn -0.9020947 -0.0000007 0.4315383
vn -0.6822662 -0.5872034 0.4355516
vn 0.0000001 -0.8736156 0.4866166
vn 0.6822639 -0.5872067 0.4355505
vn -0.0000004 -0.9416468 0.3366027
vn 0.7211505 -0.6386153 0.2685380
f 1//1 2//2 67//67
f 1//1 67//67 4//4
f 5//5 8//8 2//2
f 5//5 2//2 1//1
f 1//1 3//3 7//7
f 1//1 7//7 5//5
f 3//3 1//1 4//4
f 3//3 4//4 60//60
f 6//6 9//9 8//8
f 6//6 8//8 5//5
f 5//5 7//7 26//26
f 5//5 26//26 6//6
f 8//8 10//10 11//11
f 8//8 11//11 2//2
f 9//9 12//12 10//10
f 9//9 10//10 8//8
f 15//15 11//11 10//10
f 15//15 10//10 13//13
f 13//13 10//10 12//12
f 13//13 12//12 14//14
f 16//16 13//13 14//14
f 16//16 14//14 17//17
f 18//18 15//15 13//13
f 18//18 13//13 16//16
f 19//19 16//16 17//17
f 19//19 17//17 20//20
f 21//21 18//18 16//16
f 21//21 16//16 19//19
f 22//22 19//19 20//20
f 22//22 20//20 24//24
f 23//23 21//21 19//19
f 23//23 19//19 22//22
f 3//3 23//23 22//22
f 3//3 22//22 7//7
f 7//7 22//22 24//24
f 7//7 24//24 26//26
f 26//26 24//24 25//25
f 26//26 25//25 27//27
f 24//24 20//20 44//44
f 24//24 44//44 25//25
f 6//6 26//26 27//27
f 6//6 27//27 28//28
f 28//28 27//27 29//29
f 28//28 29//29 30//30
f 27//27 25//25 31//31
f 27//27 31//31 29//29
f 30//30 29//29 32//32
f 30//30 32//32 33//33
f 29//29 31//31 34//34
f 29//29 34//34 32//32
f 33//33 32//32 35//35
f 33//33 35//35 36//36
f 32//32 34//34 37//37
f 32//32 37//37 35//35
f 54//54 36//36 35//35
f 54//54 35//35 37//37
f 54//54 37//37 38//38
f 54//54 38//38 39//39
f 54//54 39//39 52//52
f 54//54 52//52 53//53
f 34//34 40//40 38//38
f 34//34 38//38 37//37
f 40//40 41//41 39//39
f 40//40 39//39 38//38
f 31//31 42//42 40//40
f 31//31 40//40 34//34
f 42//42 43//43 41//41
f 42//42 41//41 40//40
f 25//25 44//44 42//42
f 25//25 42//42 31//31
f 44//44 45//45 43//43
f 44//44 43//43 42//42
f 20//20 17//17 45//45
f 20//20 45//45 44//44
f 17//17 14//14 46//46
f 17//17 46//46 45//45
f 45//45 46//46 48//48
f 45//45 48//48 43//43
f 14//14 12//12 47//47
f 14//14 47//47 46//46
f 46//46 47//47 49//49
f 46//46 49//49 48//48
f 43//43 48//48 50//50
f 43//43 50//50 41//41
f 48//48 49//49 51//51
f 48//48 51//51 50//50
f 41//41 50//50 52//52
f 41//41 52//52 39//39
f 50//50 51//51 53//53
f 50//50 53//53 52//52
f 51//51 55//55 54//54
f 51//51 54//54 53//53
f 55//55 33//33 36//36
f 55//55 36//36 54//54
f 49//49 56//56 55//55
f 49//49 55//55 51//51
f 56//56 30//30 33//33
f 56//56 33//33 55//55
f 47//47 57//57 56//56
f 47//47 56//56 49//49
f 57//57 28//28 30//30
f 57//57 30//30 56//56
f 57//57 47//47 12//12
f 57//57 12//12 9//9
f 28//28 57//57 9//9
f 28//28 9//9 6//6
f 21//21 23//23 58//58
f 21//21 58//58 59//59
f 23//23 3//3 60//60
f 23//23 60//60 58//58
f 61//61 62//62 59//59
f 61//61 59//59 58//58
f 63//63 61//61 58//58
f 63//63 58//58 60//60
f 65//65 66//66 71//71
f 65//65 71//71 72//72
f 65//65 72//72 62//62
f 65//65 62//62 61//61
f 65//65 61//61 63//63
f 65//65 63//63 64//64
f 64//64 63//63 60//60
f 64//64 60//60 4//4
f 65//65 64//64 4//4
f 65//65 4//4 67//67
f 66//66 65//65 67//67
f 66//66 67//67 68//68
f 2//2 11//11 68//68
f 2//2 68//68 67//67
f 71//71 66//66 68//68
f 71//71 68//68 69//69
f 11//11 15//15 69//69
f 11//11 69//69 68//68
f 15//15 18//18 70//70
f 15//15 70//70 69//69
f 72//72 71//71 69//69
f 72//72 69//69 70//70
f 62//62 72//72 70//70
f 62//62 70//70 59//59
f 18//18 21//21 59//59
f 18//18 59//59 70//70
