# Wild Wind Blender MCP export. Units are meters. Unity axes: X=Blender X, Y=Blender Z, Z=-Blender Y.
o Cruiser203Hull
v 4.2246346 -7.0000000 61.1297913
v 4.4702773 7.0000000 69.4506760
v 8.9450808 -7.0000000 -66.6897202
v 14.1815166 8.4971819 -68.2753906
v 7.2730103 -7.0000000 34.5191841
v 11.8321810 7.0000000 34.5191841
v 8.0927963 -7.0000000 33.4320793
v 12.9339581 7.0000000 33.4320793
v 8.7275133 -7.0000000 -25.7830772
v 13.5686750 7.7979255 -25.7830772
v 8.9450808 -7.0000000 -27.0923576
v 14.1815166 8.4971819 -27.0923576
v 8.6280642 7.0000000 61.1297913
v 6.8129864 -7.0000000 47.8244858
v 11.6304779 7.0000000 47.8244858
v 16.3348713 2.3657017 -70.0000000
v 5.3816023 2.3657017 72.2649460
v 14.4615288 2.3657017 34.5191841
v 15.0000000 2.3657017 33.4320793
v 15.6347179 2.3657017 -25.7830772
v 16.3348713 2.3657017 -27.0923576
v 10.8869143 2.3657017 61.1297913
v 14.0015049 2.3657017 47.8244858
v 0.0000000 -7.0000000 -66.6897202
v 0.0000000 8.4971819 -68.2753906
v 0.0000000 -7.0000000 61.1297913
v 0.0000000 7.0000000 69.4506760
v 0.0000000 -7.0000000 34.5191841
v 0.0000000 -7.0000000 33.4320793
v 0.0000000 -7.0000000 -25.7830772
v 0.0000000 -7.0000000 -27.0923576
v 0.0000000 -7.0000000 47.8244858
v 0.0000000 2.3657017 72.2649460
v 0.0000000 2.3657017 -70.0000000
v 2.7562029 -6.9999995 61.9547081
v 0.0000000 -6.9999995 61.9547081
v 14.6868925 -2.3171492 -68.3448563
v 12.9141855 -2.3171492 34.5191841
v 13.5933132 -2.3171492 33.4320793
v 14.2280312 -2.3171492 -25.7830772
v 14.6868925 -2.3171492 -27.0923576
v 12.4541607 -2.3171492 47.8244858
v 0.0000000 -2.3171492 -68.3448563
v 9.6026907 -2.3171492 61.1297913
v 6.1158180 -2.3171489 69.4811554
v 0.0000000 -2.3171489 69.4811554
v 0.0000000 9.3160667 -68.2753906
v 13.7026110 9.3160667 -68.0000000
v 8.1535873 7.2566090 61.1010323
v 4.0511479 7.2566090 69.1451645
v 12.4550524 7.6423645 33.3939590
v 11.3538523 7.2566090 34.4804916
v 13.0897694 8.4484587 -25.8192120
v 13.7026119 9.3160667 -27.1284904
v 11.1517105 7.2566090 47.8147430
v 0.0000000 7.2566090 69.4506760
v 14.1815166 9.3160667 -68.2753906
v 0.0000000 9.3160667 -68.0123978
v 8.6280642 7.2566090 61.1297913
v 4.4702773 7.2566090 69.4506760
v 12.9339581 7.6423645 33.4320793
v 11.8321810 7.2566090 34.5191841
v 13.5686750 8.4484587 -25.7830772
v 14.1815166 9.3160667 -27.0923576
v 11.6304779 7.2566090 47.8244858
v 0.0000000 7.2566090 69.1451645
v 0.0000000 6.6847525 49.6605453
v 11.3538523 6.3466067 34.4804916
v 12.4550524 6.8631468 33.3939590
v 13.0897694 7.7950649 -25.8192120
v 13.7026110 9.0000010 -27.1284885
v 0.0000000 6.3466067 61.1297913
v 8.1535873 6.3466067 61.1010323
v 11.1517105 6.3466067 47.8147430
v 0.0000000 6.3466067 69.3111496
v 13.7026081 9.0000010 -68.0000000
v 4.0511479 6.3466067 69.3111496
v 0.0000000 9.0000010 -27.0000000
v 0.0000000 9.0000010 -68.0123978
v 12.9339581 7.0000000 4.7772145
v 8.0927963 -7.0000000 4.7772145
v 15.0000000 2.3657017 4.7772145
v 0.0000000 -7.0000000 4.7772145
v 13.5933132 -2.3171492 4.7772145
v 12.9339581 7.6423645 4.7772145
v 12.4550524 7.6423645 4.7400537
v 12.4550524 6.8631468 4.7400537
v 8.7275133 -7.0000000 3.6624601
v 13.5686750 7.7979255 3.6624601
v 15.6347179 2.3657017 3.6624601
v 0.0000000 -7.0000000 3.6624601
v 14.2280312 -2.3171492 3.6624601
v 13.5686750 8.4484587 3.6624601
v 13.0897694 8.4484587 3.6253371
v 13.0897694 7.7950649 3.6253371
v 2.1123173 -7.0000000 61.1297913
v 8.1674356 2.3657017 -70.0000000
v 4.4725404 -7.0000000 -66.6897202
v 2.2351387 7.0000000 69.4506760
v 3.6365051 -7.0000000 34.5191841
v 4.0463982 -7.0000000 33.4320793
v 4.3637567 -7.0000000 -25.7830772
v 4.4725404 -7.0000000 -27.0923576
v 3.4064932 -7.0000000 47.8244858
v 2.6908011 2.3657017 72.2649460
v 1.3781015 -6.9999995 61.9547081
v 3.0579090 -2.3171489 69.4811554
v 7.3434463 -2.3171492 -68.3448563
v 2.2351387 7.2566090 69.4506760
v 2.0255740 7.2566090 69.1451645
v 2.0255740 6.3466067 69.3111496
v 4.0767937 6.5156798 61.1154137
v 6.4956508 7.0322218 33.4130173
v 6.4956508 6.5156817 34.4998360
v 5.9363394 7.9641399 -25.8011456
v 5.9363394 9.0000010 -27.0000000
v 6.4956489 6.5156817 49.6605453
v 6.4956508 7.0322218 4.7586341
v 4.0463982 -7.0000000 4.7772145
v 4.3637567 -7.0000000 3.6624601
v 6.4956508 7.9641399 3.6438985
v 0.0000000 9.0845375 48.5655823
v 0.0000000 9.0000010 -20.1184082
v 0.0000000 10.4770775 5.7241549
v 5.9363375 8.9154663 33.4053688
v 5.9363370 9.0000010 -20.1364746
v 5.9363375 8.9154663 48.5607109
v 5.9363375 10.3080072 5.7055936
v 0.0000000 10.5000010 47.6816368
v 0.0000000 10.6845360 33.1235504
v 5.4984851 10.5154648 33.4252014
v 5.4984846 10.5000010 47.6767654
v 4.3265257 17.9687271 39.2004852
v 0.0000000 18.0984325 39.0352821
v 4.3267627 17.9641132 45.5349655
v 0.0000000 17.9258270 45.5374641
v 5.5896373 11.6530342 36.7260437
v 0.0000000 11.8221054 36.4243927
v 5.5896368 16.5103474 46.2697792
v 0.0000000 16.5103474 46.2746506
v 0.0000000 17.0000000 -7.6729388
v 5.9363360 17.0000000 -7.6729388
v 6.0420971 13.0000000 -20.1113720
v 0.0000000 13.0000000 -20.0933037
v 0.0000000 13.0000000 -14.6528740
v 6.0420961 13.0000000 -14.6528740
v 0.0000000 13.3978958 -0.1794586
v 0.0000000 22.7058754 0.1036211
v 0.4191680 13.3978958 -0.1381757
v 0.2648899 22.7058754 0.1297095
v 0.8222317 13.3978958 -0.0159062
v 0.5449462 22.7058754 0.2146647
v 1.1936929 13.3978958 0.1826415
v 0.8324419 22.7058754 0.3683324
v 1.5192829 13.3978958 0.4498497
v 1.1048357 22.7058754 0.5918831
v 1.7864887 13.3978958 0.7754380
v 1.3393760 22.7058754 0.8776686
v 1.9850392 13.3978958 1.1469011
v 1.5185889 22.7058754 1.2129532
v 2.1073062 13.3978958 1.5499642
v 1.6306468 22.7058754 1.5823610
v 2.1485908 13.3978958 1.9691329
v 1.6687405 22.7058754 1.9691329
v 2.1073062 13.3978958 2.3883016
v 1.6306467 22.7058754 2.3559048
v 1.9850392 13.3978958 2.7913647
v 1.5185889 22.7058754 2.7253127
v 1.7864887 13.3978958 3.1628280
v 1.3393760 22.7058754 3.0605972
v 1.5192829 13.3978958 3.4884162
v 1.1048357 22.7058754 3.3463826
v 1.1936929 13.3978958 3.7556243
v 0.8324419 22.7058754 3.5699334
v 0.8222317 13.3978958 3.9541721
v 0.5449464 22.7058754 3.7236011
v 0.4191680 13.3978958 4.0764408
v 0.2648898 22.7058754 3.8085558
v 0.0000000 13.3978958 4.1177244
v 0.0000000 22.7058754 3.8346448
v -0.4191691 13.3978958 4.0764408
v -0.2648910 22.7058754 3.8085558
v -0.8222326 13.3978958 3.9541721
v -0.5449474 22.7058754 3.7236011
v -1.1936939 13.3978958 3.7556243
v -0.8324429 22.7058754 3.5699334
v -1.5192840 13.3978958 3.4884162
v -1.1048369 22.7058754 3.3463826
v -1.7864896 13.3978958 3.1628280
v -1.3393769 22.7058754 3.0605972
v -1.9850403 13.3978958 2.7913647
v -1.5185899 22.7058754 2.7253127
v -2.1073070 13.3978958 2.3883016
v -1.6306474 22.7058754 2.3559048
v -2.1485915 13.3978958 1.9691329
v -1.6687411 22.7058754 1.9691329
v -2.1073070 13.3978958 1.5499642
v -1.6306474 22.7058754 1.5823610
v -1.9850403 13.3978958 1.1469011
v -1.5185899 22.7058754 1.2129532
v -1.7864896 13.3978958 0.7754380
v -1.3393768 22.7058754 0.8776686
v -1.5192840 13.3978958 0.4498497
v -1.1048369 22.7058754 0.5918831
v -1.1936939 13.3978958 0.1826415
v -0.8324431 22.7058754 0.3683324
v -0.8222326 13.3978958 -0.0159062
v -0.5449471 22.7058754 0.2146647
v -0.4191691 13.3978958 -0.1381757
v -0.2648910 22.7058754 0.1297095
v 0.4191680 22.7058754 -0.1381757
v 0.0000000 22.7058754 -0.1794586
v 0.8222317 22.7058754 -0.0159062
v 1.1936929 22.7058754 0.1826415
v 1.5192829 22.7058754 0.4498497
v 1.7864887 22.7058754 0.7754380
v 1.9850392 22.7058754 1.1469011
v 2.1073062 22.7058754 1.5499642
v 2.1485908 22.7058754 1.9691329
v 2.1073062 22.7058754 2.3883016
v 1.9850392 22.7058754 2.7913647
v 1.7864887 22.7058754 3.1628280
v 1.5192829 22.7058754 3.4884162
v 1.1936929 22.7058754 3.7556243
v 0.8222317 22.7058754 3.9541721
v 0.4191680 22.7058754 4.0764408
v 0.0000000 22.7058754 4.1177244
v -0.4191691 22.7058754 4.0764408
v -0.8222326 22.7058754 3.9541721
v -1.1936939 22.7058754 3.7556243
v -1.5192840 22.7058754 3.4884162
v -1.7864896 22.7058754 3.1628280
v -1.9850403 22.7058754 2.7913647
v -2.1073070 22.7058754 2.3883016
v -2.1485915 22.7058754 1.9691329
v -2.1073070 22.7058754 1.5499642
v -1.9850403 22.7058754 1.1469011
v -1.7864896 22.7058754 0.7754380
v -1.5192840 22.7058754 0.4498497
v -1.1936939 22.7058754 0.1826415
v -0.8222326 22.7058754 -0.0159062
v -0.4191691 22.7058754 -0.1381757
v 0.2648889 20.6041470 0.1297095
v 0.0000000 20.6041470 0.1036211
v 0.5449453 20.6041470 0.2146647
v 0.8324409 20.6041470 0.3683324
v 1.1048348 20.6041470 0.5918831
v 1.3393750 20.6041470 0.8776686
v 1.5185879 20.6041470 1.2129532
v 1.6306459 20.6041470 1.5823610
v 1.6687396 20.6041470 1.9691329
v 1.6306458 20.6041470 2.3559048
v 1.5185879 20.6041470 2.7253127
v 1.3393750 20.6041470 3.0605972
v 1.1048348 20.6041470 3.3463826
v 0.8324409 20.6041470 3.5699334
v 0.5449455 20.6041470 3.7236011
v 0.2648889 20.6041470 3.8085558
v 0.0000000 20.6041470 3.8346448
v -0.2648919 20.6041470 3.8085558
v -0.5449484 20.6041470 3.7236011
v -0.8324439 20.6041470 3.5699334
v -1.1048379 20.6041470 3.3463826
v -1.3393779 20.6041470 3.0605972
v -1.5185907 20.6041470 2.7253127
v -1.6306484 20.6041470 2.3559048
v -1.6687421 20.6041470 1.9691329
v -1.6306484 20.6041470 1.5823610
v -1.5185907 20.6041470 1.2129532
v -1.3393778 20.6041470 0.8776686
v -1.1048379 20.6041470 0.5918831
v -0.8324440 20.6041470 0.3683324
v -0.5449481 20.6041470 0.2146647
v -0.2648920 20.6041470 0.1297095
v 0.0000000 18.1350193 -7.1656399
v 0.0000000 17.0843220 5.7537766
v 0.0000000 18.0812988 5.2813993
v 6.1348062 16.9156799 5.7352166
v 5.3377943 17.9346390 5.2652955
v 5.3377895 17.9887676 -7.1656399
v -4.2246346 -7.0000000 61.1297913
v -4.4702773 7.0000000 69.4506760
v -8.9450808 -7.0000000 -66.6897202
v -14.1815166 8.4971819 -68.2753906
v -7.2730103 -7.0000000 34.5191841
v -11.8321810 7.0000000 34.5191841
v -8.0927963 -7.0000000 33.4320793
v -12.9339581 7.0000000 33.4320793
v -8.7275133 -7.0000000 -25.7830772
v -13.5686750 7.7979255 -25.7830772
v -8.9450808 -7.0000000 -27.0923576
v -14.1815166 8.4971819 -27.0923576
v -8.6280642 7.0000000 61.1297913
v -6.8129864 -7.0000000 47.8244858
v -11.6304779 7.0000000 47.8244858
v -16.3348713 2.3657017 -70.0000000
v -5.3816023 2.3657017 72.2649460
v -14.4615288 2.3657017 34.5191841
v -15.0000000 2.3657017 33.4320793
v -15.6347179 2.3657017 -25.7830772
v -16.3348713 2.3657017 -27.0923576
v -10.8869143 2.3657017 61.1297913
v -14.0015049 2.3657017 47.8244858
v -2.7562029 -6.9999995 61.9547081
v -14.6868925 -2.3171492 -68.3448563
v -12.9141855 -2.3171492 34.5191841
v -13.5933132 -2.3171492 33.4320793
v -14.2280312 -2.3171492 -25.7830772
v -14.6868925 -2.3171492 -27.0923576
v -12.4541607 -2.3171492 47.8244858
v -9.6026907 -2.3171492 61.1297913
v -6.1158180 -2.3171489 69.4811554
v -13.7026110 9.3160667 -68.0000000
v -8.1535873 7.2566090 61.1010323
v -4.0511479 7.2566090 69.1451645
v -12.4550524 7.6423645 33.3939590
v -11.3538523 7.2566090 34.4804916
v -13.0897694 8.4484587 -25.8192120
v -13.7026119 9.3160667 -27.1284904
v -11.1517105 7.2566090 47.8147430
v -14.1815166 9.3160667 -68.2753906
v -8.6280642 7.2566090 61.1297913
v -4.4702773 7.2566090 69.4506760
v -12.9339581 7.6423645 33.4320793
v -11.8321810 7.2566090 34.5191841
v -13.5686750 8.4484587 -25.7830772
v -14.1815166 9.3160667 -27.0923576
v -11.6304779 7.2566090 47.8244858
v -11.3538523 6.3466067 34.4804916
v -12.4550524 6.8631468 33.3939590
v -13.0897694 7.7950649 -25.8192120
v -13.7026110 9.0000010 -27.1284885
v -8.1535873 6.3466067 61.1010323
v -11.1517105 6.3466067 47.8147430
v -13.7026081 9.0000010 -68.0000000
v -4.0511479 6.3466067 69.3111496
v -12.9339581 7.0000000 4.7772145
v -8.0927963 -7.0000000 4.7772145
v -15.0000000 2.3657017 4.7772145
v -13.5933132 -2.3171492 4.7772145
v -12.9339581 7.6423645 4.7772145
v -12.4550524 7.6423645 4.7400537
v -12.4550524 6.8631468 4.7400537
v -8.7275133 -7.0000000 3.6624601
v -13.5686750 7.7979255 3.6624601
v -15.6347179 2.3657017 3.6624601
v -14.2280312 -2.3171492 3.6624601
v -13.5686750 8.4484587 3.6624601
v -13.0897694 8.4484587 3.6253371
v -13.0897694 7.7950649 3.6253371
v -2.1123173 -7.0000000 61.1297913
v -8.1674356 2.3657017 -70.0000000
v -4.4725404 -7.0000000 -66.6897202
v -2.2351387 7.0000000 69.4506760
v -3.6365051 -7.0000000 34.5191841
v -4.0463982 -7.0000000 33.4320793
v -4.3637567 -7.0000000 -25.7830772
v -4.4725404 -7.0000000 -27.0923576
v -3.4064932 -7.0000000 47.8244858
v -2.6908011 2.3657017 72.2649460
v -1.3781015 -6.9999995 61.9547081
v -3.0579090 -2.3171489 69.4811554
v -7.3434463 -2.3171492 -68.3448563
v -2.2351387 7.2566090 69.4506760
v -2.0255740 7.2566090 69.1451645
v -2.0255740 6.3466067 69.3111496
v -4.0767937 6.5156798 61.1154137
v -6.4956508 7.0322218 33.4130173
v -6.4956508 6.5156817 34.4998360
v -5.9363394 7.9641399 -25.8011456
v -5.9363394 9.0000010 -27.0000000
v -6.4956489 6.5156817 49.6605453
v -6.4956508 7.0322218 4.7586341
v -4.0463982 -7.0000000 4.7772145
v -4.3637567 -7.0000000 3.6624601
v -6.4956508 7.9641399 3.6438985
v -5.9363375 8.9154663 33.4053688
v -5.9363370 9.0000010 -20.1364746
v -5.9363375 8.9154663 48.5607109
v -5.9363375 10.3080072 5.7055936
v -5.4984851 10.5154648 33.4252014
v -5.4984846 10.5000010 47.6767654
v -4.3265257 17.9687271 39.2004852
v -4.3267627 17.9641132 45.5349655
v -5.5896373 11.6530342 36.7260437
v -5.5896368 16.5103474 46.2697792
v -5.9363360 17.0000000 -7.6729388
v -6.0420971 13.0000000 -20.1113720
v -6.0420961 13.0000000 -14.6528740
v -0.4191680 13.3978958 -0.1381757
v -0.2648899 22.7058754 0.1297095
v -0.8222317 13.3978958 -0.0159062
v -0.5449462 22.7058754 0.2146647
v -1.1936929 13.3978958 0.1826415
v -0.8324419 22.7058754 0.3683324
v -1.5192829 13.3978958 0.4498497
v -1.1048357 22.7058754 0.5918831
v -1.7864887 13.3978958 0.7754380
v -1.3393760 22.7058754 0.8776686
v -1.9850392 13.3978958 1.1469011
v -1.5185889 22.7058754 1.2129532
v -2.1073062 13.3978958 1.5499642
v -1.6306468 22.7058754 1.5823610
v -2.1485908 13.3978958 1.9691329
v -1.6687405 22.7058754 1.9691329
v -2.1073062 13.3978958 2.3883016
v -1.6306467 22.7058754 2.3559048
v -1.9850392 13.3978958 2.7913647
v -1.5185889 22.7058754 2.7253127
v -1.7864887 13.3978958 3.1628280
v -1.3393760 22.7058754 3.0605972
v -1.5192829 13.3978958 3.4884162
v -1.1048357 22.7058754 3.3463826
v -1.1936929 13.3978958 3.7556243
v -0.8324419 22.7058754 3.5699334
v -0.8222317 13.3978958 3.9541721
v -0.5449464 22.7058754 3.7236011
v -0.4191680 13.3978958 4.0764408
v -0.2648898 22.7058754 3.8085558
v 0.4191691 13.3978958 4.0764408
v 0.2648910 22.7058754 3.8085558
v 0.8222326 13.3978958 3.9541721
v 0.5449474 22.7058754 3.7236011
v 1.1936939 13.3978958 3.7556243
v 0.8324429 22.7058754 3.5699334
v 1.5192840 13.3978958 3.4884162
v 1.1048369 22.7058754 3.3463826
v 1.7864896 13.3978958 3.1628280
v 1.3393769 22.7058754 3.0605972
v 1.9850403 13.3978958 2.7913647
v 1.5185899 22.7058754 2.7253127
v 2.1073070 13.3978958 2.3883016
v 1.6306474 22.7058754 2.3559048
v 2.1485915 13.3978958 1.9691329
v 1.6687411 22.7058754 1.9691329
v 2.1073070 13.3978958 1.5499642
v 1.6306474 22.7058754 1.5823610
v 1.9850403 13.3978958 1.1469011
v 1.5185899 22.7058754 1.2129532
v 1.7864896 13.3978958 0.7754380
v 1.3393768 22.7058754 0.8776686
v 1.5192840 13.3978958 0.4498497
v 1.1048369 22.7058754 0.5918831
v 1.1936939 13.3978958 0.1826415
v 0.8324431 22.7058754 0.3683324
v 0.8222326 13.3978958 -0.0159062
v 0.5449471 22.7058754 0.2146647
v 0.4191691 13.3978958 -0.1381757
v 0.2648910 22.7058754 0.1297095
v -0.4191680 22.7058754 -0.1381757
v -0.8222317 22.7058754 -0.0159062
v -1.1936929 22.7058754 0.1826415
v -1.5192829 22.7058754 0.4498497
v -1.7864887 22.7058754 0.7754380
v -1.9850392 22.7058754 1.1469011
v -2.1073062 22.7058754 1.5499642
v -2.1485908 22.7058754 1.9691329
v -2.1073062 22.7058754 2.3883016
v -1.9850392 22.7058754 2.7913647
v -1.7864887 22.7058754 3.1628280
v -1.5192829 22.7058754 3.4884162
v -1.1936929 22.7058754 3.7556243
v -0.8222317 22.7058754 3.9541721
v -0.4191680 22.7058754 4.0764408
v 0.4191691 22.7058754 4.0764408
v 0.8222326 22.7058754 3.9541721
v 1.1936939 22.7058754 3.7556243
v 1.5192840 22.7058754 3.4884162
v 1.7864896 22.7058754 3.1628280
v 1.9850403 22.7058754 2.7913647
v 2.1073070 22.7058754 2.3883016
v 2.1485915 22.7058754 1.9691329
v 2.1073070 22.7058754 1.5499642
v 1.9850403 22.7058754 1.1469011
v 1.7864896 22.7058754 0.7754380
v 1.5192840 22.7058754 0.4498497
v 1.1936939 22.7058754 0.1826415
v 0.8222326 22.7058754 -0.0159062
v 0.4191691 22.7058754 -0.1381757
v -0.2648889 20.6041470 0.1297095
v -0.5449453 20.6041470 0.2146647
v -0.8324409 20.6041470 0.3683324
v -1.1048348 20.6041470 0.5918831
v -1.3393750 20.6041470 0.8776686
v -1.5185879 20.6041470 1.2129532
v -1.6306459 20.6041470 1.5823610
v -1.6687396 20.6041470 1.9691329
v -1.6306458 20.6041470 2.3559048
v -1.5185879 20.6041470 2.7253127
v -1.3393750 20.6041470 3.0605972
v -1.1048348 20.6041470 3.3463826
v -0.8324409 20.6041470 3.5699334
v -0.5449455 20.6041470 3.7236011
v -0.2648889 20.6041470 3.8085558
v 0.2648919 20.6041470 3.8085558
v 0.5449484 20.6041470 3.7236011
v 0.8324439 20.6041470 3.5699334
v 1.1048379 20.6041470 3.3463826
v 1.3393779 20.6041470 3.0605972
v 1.5185907 20.6041470 2.7253127
v 1.6306484 20.6041470 2.3559048
v 1.6687421 20.6041470 1.9691329
v 1.6306484 20.6041470 1.5823610
v 1.5185907 20.6041470 1.2129532
v 1.3393778 20.6041470 0.8776686
v 1.1048379 20.6041470 0.5918831
v 0.8324440 20.6041470 0.3683324
v 0.5449481 20.6041470 0.2146647
v 0.2648920 20.6041470 0.1297095
v -6.1348062 16.9156799 5.7352166
v -5.3377943 17.9346390 5.2652955
v -5.3377895 17.9887676 -7.1656399
vn 0.3598384 -0.9223195 0.1408659
vn 0.4393835 0.2967491 0.8478692
vn 0.2202013 -0.7961370 -0.5636286
vn 0.5069842 0.2183162 -0.8338496
vn 0.2796616 -0.9558358 0.0903740
vn 0.8993983 0.2237410 0.3755298
vn 0.3531758 -0.9266853 0.1285349
vn 0.8990951 0.2163351 0.3805616
vn 0.3111597 -0.9495559 0.0390292
vn 0.9494552 0.1909484 0.2491458
vn 0.3244871 -0.9449190 0.0428497
vn 0.9575746 0.1496763 0.2462678
vn 0.9163066 0.2217914 0.3334529
vn 0.3281000 -0.9437920 0.0400856
vn 0.9627176 0.2425456 0.1197769
vn 0.4792099 -0.0223555 -0.8774155
vn 0.3275205 0.0203734 0.9446244
vn 0.9425621 0.0848207 0.3230823
vn 0.9537542 0.0685914 0.2926568
vn 0.9673882 0.0257485 0.2519866
vn 0.9705912 0.0063699 0.2406491
vn 0.9394771 0.1056452 0.3259171
vn 0.9879938 0.0902756 0.1253733
vn 0.0000000 -0.7665531 -0.6421809
vn 0.0000000 0.1349042 -0.9908586
vn 0.0000000 -0.9999999 0.0000004
vn 0.0000000 0.2575280 0.9662709
vn 0.0000000 -0.9999999 -0.0000000
vn 0.0000000 -0.9999999 -0.0000000
vn 0.0000000 -0.9999999 -0.0000000
vn 0.0000000 -0.9999999 -0.0000000
vn 0.0000000 -0.9999999 -0.0000000
vn 0.0000000 0.0039494 0.9999922
vn 0.0000000 -0.0307510 -0.9995271
vn 0.1823123 -0.9441966 0.2743265
vn 0.0000000 -0.9590507 0.2832343
vn 0.4717050 -0.5436249 -0.6942381
vn 0.7840518 -0.5650496 0.2568692
vn 0.8089927 -0.5383640 0.2359979
vn 0.8085358 -0.5705826 0.1438931
vn 0.8083084 -0.5703399 0.1461161
vn 0.8194986 -0.5638982 0.1021806
vn 0.0000000 -0.3332438 -0.9428408
vn 0.7979438 -0.5350814 0.2774411
vn 0.4137896 -0.6090020 0.6766792
vn 0.0000000 -0.6891501 0.7246187
vn -0.0000000 0.6062261 -0.7952924
vn -0.2277236 0.8921059 0.3902423
vn -0.5722049 0.7933888 -0.2076436
vn -0.2641056 0.8021810 -0.5354940
vn -0.5083405 0.8587132 -0.0648195
vn -0.6633370 0.7117672 -0.2310228
vn -0.7086692 0.7047177 0.0340731
vn -0.5396535 0.8282181 0.1510925
vn -0.5895309 0.8046440 -0.0707193
vn 0.0000000 0.6062266 0.7952920
vn 0.4204192 0.5500671 -0.7215775
vn -0.0000000 0.6066056 0.7950028
vn 0.6022389 0.7682323 0.2170883
vn 0.3367443 0.5416244 0.7702248
vn 0.5806801 0.7303797 0.3596613
vn 0.5004520 0.7706352 0.3945494
vn 0.5854609 0.7194982 0.3735744
vn 0.5474688 0.7648273 0.3395838
vn 0.6190409 0.7818401 0.0742593
vn 0.0000000 0.5153701 -0.8569677
vn -0.1270533 0.7895349 0.6004100
vn -0.4813559 0.8762453 0.0221474
vn -0.6593077 0.7214753 -0.2116288
vn -0.5027068 0.8226053 0.2657188
vn -0.7161726 0.6952510 0.0610149
vn 0.0000000 0.9999419 0.0107881
vn -0.5923924 0.7767084 -0.2139982
vn -0.6012672 0.7956569 -0.0735378
vn 0.0000000 0.5170784 -0.8559380
vn -0.4208361 0.5502740 0.7211764
vn -0.3111811 0.4800238 -0.8202094
vn -0.0027993 0.9999961 0.0000000
vn 0.0000000 0.6058483 0.7955803
vn 0.9313779 0.2188248 0.2909483
vn 0.2907302 -0.9538166 0.0755641
vn 0.9508685 0.0559426 0.3044985
vn 0.0000000 -0.9999999 -0.0000000
vn 0.7980970 -0.5584004 0.2263413
vn 0.5700938 0.7075712 0.4175358
vn -0.7172286 0.6968326 0.0027421
vn -0.4992180 0.8340418 0.2348522
vn 0.3480369 -0.9317074 0.1038837
vn 0.9441705 0.1566596 0.2898271
vn 0.9566218 0.0391950 0.2886841
vn 0.0000000 -0.9999999 -0.0000000
vn 0.8130125 -0.5379588 0.2227351
vn 0.5423183 0.7549232 0.3687572
vn -0.5326315 0.8316018 0.1572962
vn -0.7051897 0.7088571 0.0151326
vn 0.0000000 -0.9999999 0.0000004
vn 0.0000000 -0.0307510 -0.9995270
vn 0.0000000 -0.7665531 -0.6421809
vn 0.0000000 0.2575278 0.9662709
vn 0.0000000 -0.9999999 -0.0000000
vn 0.0000000 -0.9999999 -0.0000000
vn 0.0000000 -0.9999999 -0.0000000
vn 0.0000000 -0.9999999 -0.0000000
vn 0.0000000 -0.9999999 -0.0000000
vn 0.0000000 0.0039491 0.9999922
vn 0.0000000 -0.9590508 0.2832341
vn 0.0000000 -0.6891503 0.7246184
vn 0.0000000 -0.3332438 -0.9428406
vn 0.0000000 0.6062266 0.7952920
vn 0.0000000 0.5153701 -0.8569677
vn -0.0017073 0.5189344 -0.8548124
vn 0.0106692 0.9998552 0.0132549
vn 0.5748217 0.7938793 0.1983322
vn 0.5156392 0.8360993 0.1872277
vn 0.5454426 0.7760230 0.3166713
vn 0.0769149 0.9782453 0.1926662
vn 0.1570734 0.9494825 0.2716814
vn 0.5031278 0.8067946 0.3097498
vn 0.0000000 -0.9999999 -0.0000000
vn 0.0000000 -0.9999999 -0.0000000
vn 0.6550831 0.7039620 0.2744151
vn -0.2867405 0.4442037 0.8488009
vn -0.2264365 0.5923370 -0.7732163
vn -0.5044435 0.5163990 0.6920034
vn 0.9707112 0.2397740 0.0151037
vn 0.4678459 0.5491303 -0.6925142
vn 0.4941466 0.4890714 0.7187686
vn 0.7880719 0.4217511 0.4484068
vn -0.3291346 0.3473390 0.8780809
vn -0.3813624 0.9122303 -0.1496622
vn 0.5829741 0.8033640 -0.1214392
vn 0.5249357 0.3898708 0.7565998
vn 0.4104469 0.7436190 -0.5277918
vn -0.2636795 0.7551356 -0.6002028
vn 0.3696456 0.7801747 0.5046679
vn -0.2681264 0.7851790 0.5582134
vn 0.6945855 0.5126056 -0.5047638
vn -0.3998439 0.6456522 -0.6505828
vn 0.5469422 0.3480102 0.7614087
vn -0.2671694 0.3291344 0.9056993
vn -0.3870881 0.6113858 -0.6901957
vn 0.6299701 0.6007457 -0.4921811
vn 0.4170857 0.5702156 -0.7077385
vn -0.2259234 0.5948665 -0.7714224
vn -0.3170036 0.9147016 -0.2506585
vn 0.5438426 0.8112048 -0.2149001
vn -0.0000001 -0.5683035 -0.8228191
vn 0.0000000 0.6500660 0.7598777
vn 0.1557565 -0.5839653 -0.7966959
vn -0.1441628 0.6599091 0.7373853
vn 0.2956241 -0.6230855 -0.7241346
vn -0.2751541 0.6855833 0.6739924
vn 0.4092314 -0.6697405 -0.6196590
vn -0.3835308 0.7180806 0.5807447
vn 0.4942370 -0.7118825 -0.4989521
vn -0.4662555 0.7490287 0.4707035
vn 0.5537412 -0.7444896 -0.3729694
vn -0.5251926 0.7739770 0.3537405
vn 0.5923499 -0.7668548 -0.2470936
vn -0.5639647 0.7915806 0.2352531
vn 0.6139275 -0.7797335 -0.1229174
vn -0.5858327 0.8018993 0.1172924
vn 0.6208569 -0.7839240 -0.0000000
vn -0.5928868 0.8052858 -0.0000000
vn 0.6139275 -0.7797335 0.1229174
vn -0.5858327 0.8018993 -0.1172924
vn 0.5923499 -0.7668548 0.2470936
vn -0.5639659 0.7915798 -0.2352528
vn 0.5537412 -0.7444894 0.3729694
vn -0.5251939 0.7739762 -0.3537404
vn 0.4942370 -0.7118824 0.4989521
vn -0.4662555 0.7490286 -0.4707035
vn 0.4092314 -0.6697406 0.6196588
vn -0.3835320 0.7180803 -0.5807441
vn 0.2956238 -0.6230851 0.7241350
vn -0.2751534 0.6855836 -0.6739924
vn 0.1557566 -0.5839658 0.7966956
vn -0.1441618 0.6599085 -0.7373859
vn -0.0000001 -0.5683029 0.8228194
vn 0.0000000 0.6500667 -0.7598771
vn -0.1557566 -0.5839657 0.7966956
vn 0.1441615 0.6599087 -0.7373860
vn -0.2956239 -0.6230852 0.7241349
vn 0.2751524 0.6855835 -0.6739928
vn -0.4092316 -0.6697406 0.6196589
vn 0.3835311 0.7180804 -0.5807447
vn -0.4942372 -0.7118824 0.4989520
vn 0.4662557 0.7490284 -0.4707036
vn -0.5537413 -0.7444894 0.3729694
vn 0.5251941 0.7739760 -0.3537404
vn -0.5923503 -0.7668546 0.2470935
vn 0.5639662 0.7915796 -0.2352526
vn -0.6139277 -0.7797335 0.1229170
vn 0.5858331 0.8018990 -0.1172921
vn -0.6208570 -0.7839238 -0.0000000
vn 0.5928870 0.8052856 -0.0000000
vn -0.6139277 -0.7797335 -0.1229170
vn 0.5858331 0.8018990 0.1172921
vn -0.5923503 -0.7668546 -0.2470935
vn 0.5639649 0.7915805 0.2352529
vn -0.5537413 -0.7444894 -0.3729693
vn 0.5251929 0.7739767 0.3537406
vn -0.4942372 -0.7118824 -0.4989520
vn 0.4662558 0.7490286 0.4707035
vn -0.4092314 -0.6697404 -0.6196589
vn 0.3835318 0.7180801 0.5807446
vn -0.2956242 -0.6230855 -0.7241345
vn 0.2751535 0.6855832 0.6739928
vn -0.1557566 -0.5839652 -0.7966960
vn 0.1441594 0.6599095 0.7373856
vn 0.1557551 0.5839662 -0.7966955
vn 0.0000000 0.5683031 -0.8228193
vn 0.2956230 0.6230887 -0.7241322
vn 0.4092298 0.6697454 -0.6196548
vn 0.4942329 0.7118884 -0.4989478
vn 0.5537356 0.7444956 -0.3729655
vn 0.5923436 0.7668606 -0.2470910
vn 0.6139206 0.7797391 -0.1229160
vn 0.6208498 0.7839296 -0.0000000
vn 0.6139206 0.7797391 0.1229160
vn 0.5923424 0.7668614 0.2470912
vn 0.5537343 0.7444962 0.3729659
vn 0.4942329 0.7118884 0.4989478
vn 0.4092290 0.6697457 0.6196550
vn 0.2956229 0.6230883 0.7241325
vn 0.1557562 0.5839666 0.7966951
vn 0.0000000 0.5683026 0.8228196
vn -0.1557561 0.5839666 0.7966952
vn -0.2956239 0.6230882 0.7241324
vn -0.4092299 0.6697454 0.6196547
vn -0.4942329 0.7118884 0.4989477
vn -0.5537344 0.7444963 0.3729659
vn -0.5923426 0.7668613 0.2470911
vn -0.6139207 0.7797391 0.1229156
vn -0.6208498 0.7839296 -0.0000000
vn -0.6139207 0.7797391 -0.1229156
vn -0.5923437 0.7668605 -0.2470908
vn -0.5537356 0.7444956 -0.3729655
vn -0.4942329 0.7118884 -0.4989477
vn -0.4092289 0.6697456 -0.6196551
vn -0.2956237 0.6230886 -0.7241321
vn -0.1557579 0.5839660 -0.7966952
vn -0.1557567 0.5839654 0.7966958
vn -0.0000001 0.5683035 0.8228191
vn -0.2956243 0.6230856 0.7241344
vn -0.4092315 0.6697407 0.6196588
vn -0.4942372 0.7118824 0.4989520
vn -0.5537413 0.7444894 0.3729693
vn -0.5923501 0.7668546 0.2470937
vn -0.6139275 0.7797335 0.1229173
vn -0.6208568 0.7839240 -0.0000000
vn -0.6139277 0.7797335 -0.1229173
vn -0.5923500 0.7668546 -0.2470938
vn -0.5537412 0.7444895 -0.3729694
vn -0.4942372 0.7118824 -0.4989519
vn -0.4092317 0.6697407 -0.6196586
vn -0.2956238 0.6230851 -0.7241350
vn -0.1557567 0.5839660 -0.7966954
vn -0.0000001 0.5683029 -0.8228195
vn 0.1557563 0.5839655 -0.7966958
vn 0.2956238 0.6230850 -0.7241351
vn 0.4092316 0.6697405 -0.6196589
vn 0.4942372 0.7118822 -0.4989521
vn 0.5537412 0.7444894 -0.3729694
vn 0.5923502 0.7668546 -0.2470936
vn 0.6139277 0.7797334 -0.1229171
vn 0.6208571 0.7839237 -0.0000000
vn 0.6139277 0.7797334 0.1229171
vn 0.5923504 0.7668545 0.2470937
vn 0.5537413 0.7444894 0.3729692
vn 0.4942373 0.7118823 0.4989520
vn 0.4092315 0.6697403 0.6196592
vn 0.2956241 0.6230854 0.7241346
vn 0.1557564 0.5839652 0.7966961
vn -0.2635621 0.7855344 -0.5598845
vn -0.2459732 0.2082097 0.9466498
vn -0.2669561 0.7801078 0.5658323
vn 0.4978009 0.2615676 0.8269080
vn 0.3224292 0.7987928 0.5079070
vn 0.3320312 0.8071703 -0.4880895
vn -0.3598384 -0.9223195 0.1408659
vn -0.4393834 0.2967490 0.8478692
vn -0.2202013 -0.7961370 -0.5636286
vn -0.5069842 0.2183162 -0.8338496
vn -0.2796615 -0.9558358 0.0903739
vn -0.8993983 0.2237410 0.3755296
vn -0.3531758 -0.9266853 0.1285349
vn -0.8990952 0.2163352 0.3805615
vn -0.3111598 -0.9495559 0.0390292
vn -0.9494552 0.1909484 0.2491457
vn -0.3244872 -0.9449190 0.0428497
vn -0.9575747 0.1496762 0.2462675
vn -0.9163066 0.2217915 0.3334529
vn -0.3281000 -0.9437920 0.0400856
vn -0.9627176 0.2425456 0.1197769
vn -0.4792099 -0.0223554 -0.8774157
vn -0.3275205 0.0203731 0.9446244
vn -0.9425621 0.0848208 0.3230823
vn -0.9537542 0.0685915 0.2926568
vn -0.9673882 0.0257484 0.2519866
vn -0.9705912 0.0063698 0.2406491
vn -0.9394771 0.1056452 0.3259171
vn -0.9879938 0.0902755 0.1253733
vn -0.1823123 -0.9441966 0.2743265
vn -0.4717050 -0.5436247 -0.6942382
vn -0.7840518 -0.5650496 0.2568692
vn -0.8089926 -0.5383640 0.2359978
vn -0.8085359 -0.5705826 0.1438931
vn -0.8083085 -0.5703399 0.1461161
vn -0.8194986 -0.5638982 0.1021806
vn -0.7979437 -0.5350814 0.2774411
vn -0.4137895 -0.6090021 0.6766790
vn 0.2277237 0.8921059 0.3902423
vn 0.5722048 0.7933888 -0.2076436
vn 0.2641056 0.8021810 -0.5354940
vn 0.5083403 0.8587133 -0.0648192
vn 0.6633369 0.7117672 -0.2310227
vn 0.7086689 0.7047179 0.0340726
vn 0.5396537 0.8282180 0.1510923
vn 0.5895309 0.8046440 -0.0707193
vn -0.4204191 0.5500671 -0.7215775
vn -0.6022391 0.7682322 0.2170883
vn -0.3367443 0.5416244 0.7702248
vn -0.5806803 0.7303795 0.3596613
vn -0.5004522 0.7706351 0.3945495
vn -0.5854610 0.7194983 0.3735742
vn -0.5474687 0.7648274 0.3395838
vn -0.6190410 0.7818400 0.0742593
vn 0.4813560 0.8762453 0.0221477
vn 0.6593077 0.7214754 -0.2116286
vn 0.5027068 0.8226054 0.2657186
vn 0.7161723 0.6952513 0.0610144
vn 0.5923924 0.7767084 -0.2139982
vn 0.6012672 0.7956569 -0.0735378
vn 0.4208361 0.5502740 0.7211764
vn 0.3111811 0.4800238 -0.8202094
vn -0.9313779 0.2188248 0.2909482
vn -0.2907302 -0.9538166 0.0755641
vn -0.9508686 0.0559426 0.3044984
vn -0.7980970 -0.5584004 0.2263413
vn -0.5700937 0.7075712 0.4175358
vn 0.7172286 0.6968325 0.0027421
vn 0.4992180 0.8340418 0.2348522
vn -0.3480369 -0.9317072 0.1038837
vn -0.9441706 0.1566596 0.2898270
vn -0.9566218 0.0391950 0.2886841
vn -0.8130125 -0.5379588 0.2227351
vn -0.5423183 0.7549232 0.3687572
vn 0.5326315 0.8316017 0.1572962
vn 0.7051897 0.7088571 0.0151326
vn 0.0000000 -0.9999999 0.0000004
vn 0.0000000 -0.0307509 -0.9995271
vn 0.0000000 -0.7665531 -0.6421809
vn 0.0000000 0.2575278 0.9662709
vn 0.0000000 -0.9999999 -0.0000000
vn 0.0000000 -0.9999999 -0.0000000
vn 0.0000000 -0.9999999 -0.0000000
vn 0.0000000 -0.9999999 -0.0000000
vn 0.0000000 -0.9999999 -0.0000000
vn 0.0000000 0.0039489 0.9999922
vn 0.0000000 -0.9590508 0.2832341
vn 0.0000000 -0.6891504 0.7246184
vn 0.0000000 -0.3332437 -0.9428408
vn 0.0000000 0.6062266 0.7952920
vn 0.0000000 0.5153701 -0.8569677
vn 0.0017073 0.5189344 -0.8548124
vn -0.0106692 0.9998552 0.0132549
vn -0.5748217 0.7938792 0.1983324
vn -0.5156392 0.8360992 0.1872279
vn -0.5454426 0.7760230 0.3166713
vn -0.0769149 0.9782453 0.1926662
vn -0.1570734 0.9494825 0.2716814
vn -0.5031277 0.8067946 0.3097498
vn 0.0000000 -0.9999999 -0.0000000
vn 0.0000000 -0.9999999 -0.0000000
vn -0.6550831 0.7039620 0.2744152
vn -0.9707113 0.2397740 0.0151037
vn -0.4678459 0.5491303 -0.6925142
vn -0.4941466 0.4890711 0.7187687
vn -0.7880719 0.4217512 0.4484068
vn -0.5829741 0.8033640 -0.1214392
vn -0.5249356 0.3898704 0.7566000
vn -0.4104469 0.7436190 -0.5277919
vn -0.3696456 0.7801747 0.5046679
vn -0.6945854 0.5126056 -0.5047638
vn -0.5469422 0.3480101 0.7614087
vn -0.6299701 0.6007457 -0.4921812
vn -0.4170857 0.5702156 -0.7077385
vn -0.5438426 0.8112048 -0.2149001
vn -0.1557567 -0.5839653 -0.7966959
vn 0.1441625 0.6599092 0.7373853
vn -0.2956242 -0.6230855 -0.7241345
vn 0.2751541 0.6855833 0.6739924
vn -0.4092315 -0.6697404 -0.6196589
vn 0.3835312 0.7180805 0.5807446
vn -0.4942371 -0.7118824 -0.4989520
vn 0.4662556 0.7490286 0.4707035
vn -0.5537413 -0.7444894 -0.3729693
vn 0.5251921 0.7739773 0.3537407
vn -0.5923501 -0.7668548 -0.2470936
vn 0.5639644 0.7915808 0.2352531
vn -0.6139277 -0.7797335 -0.1229173
vn 0.5858325 0.8018996 0.1172924
vn -0.6208570 -0.7839238 -0.0000000
vn 0.5928870 0.8052856 -0.0000000
vn -0.6139277 -0.7797335 0.1229173
vn 0.5858331 0.8018990 -0.1172923
vn -0.5923501 -0.7668548 0.2470936
vn 0.5639654 0.7915801 -0.2352529
vn -0.5537413 -0.7444894 0.3729694
vn 0.5251939 0.7739761 -0.3537403
vn -0.4942372 -0.7118824 0.4989521
vn 0.4662564 0.7490283 -0.4707033
vn -0.4092316 -0.6697406 0.6196589
vn 0.3835320 0.7180803 -0.5807441
vn -0.2956239 -0.6230851 0.7241350
vn 0.2751534 0.6855836 -0.6739924
vn -0.1557567 -0.5839657 0.7966956
vn 0.1441615 0.6599086 -0.7373860
vn 0.1557565 -0.5839657 0.7966956
vn -0.1441612 0.6599087 -0.7373860
vn 0.2956237 -0.6230852 0.7241349
vn -0.2751524 0.6855835 -0.6739928
vn 0.4092315 -0.6697406 0.6196589
vn -0.3835311 0.7180804 -0.5807447
vn 0.4942370 -0.7118824 0.4989521
vn -0.4662565 0.7490281 -0.4707034
vn 0.5537412 -0.7444894 0.3729694
vn -0.5251947 0.7739758 -0.3537402
vn 0.5923502 -0.7668547 0.2470936
vn -0.5639658 0.7915799 -0.2352527
vn 0.6139275 -0.7797335 0.1229170
vn -0.5858328 0.8018993 -0.1172922
vn 0.6208569 -0.7839240 -0.0000000
vn -0.5928873 0.8052855 -0.0000000
vn 0.6139275 -0.7797335 -0.1229170
vn -0.5858335 0.8018988 0.1172921
vn 0.5923502 -0.7668547 -0.2470936
vn -0.5639654 0.7915801 0.2352528
vn 0.5537412 -0.7444896 -0.3729694
vn -0.5251929 0.7739767 0.3537406
vn 0.4942370 -0.7118824 -0.4989520
vn -0.4662562 0.7490284 0.4707033
vn 0.4092313 -0.6697405 -0.6196590
vn -0.3835327 0.7180797 0.5807444
vn 0.2956240 -0.6230855 -0.7241345
vn -0.2751528 0.6855832 0.6739929
vn 0.1557564 -0.5839653 -0.7966959
vn -0.1441584 0.6599096 0.7373857
vn -0.1557554 0.5839662 -0.7966955
vn -0.2956230 0.6230887 -0.7241322
vn -0.4092294 0.6697455 -0.6196549
vn -0.4942328 0.7118884 -0.4989478
vn -0.5537360 0.7444952 -0.3729654
vn -0.5923439 0.7668603 -0.2470909
vn -0.6139209 0.7797390 -0.1229160
vn -0.6208496 0.7839296 -0.0000000
vn -0.6139203 0.7797393 0.1229160
vn -0.5923429 0.7668610 0.2470911
vn -0.5537344 0.7444963 0.3729659
vn -0.4942322 0.7118887 0.4989480
vn -0.4092290 0.6697457 0.6196550
vn -0.2956229 0.6230883 0.7241325
vn -0.1557565 0.5839666 0.7966950
vn 0.1557564 0.5839665 0.7966951
vn 0.2956239 0.6230882 0.7241324
vn 0.4092299 0.6697454 0.6196547
vn 0.4942322 0.7118887 0.4989479
vn 0.5537338 0.7444966 0.3729660
vn 0.5923430 0.7668611 0.2470910
vn 0.6139209 0.7797390 0.1229156
vn 0.6208496 0.7839296 -0.0000000
vn 0.6139203 0.7797394 -0.1229157
vn 0.5923433 0.7668608 -0.2470909
vn 0.5537356 0.7444956 -0.3729655
vn 0.4942324 0.7118886 -0.4989478
vn 0.4092281 0.6697459 -0.6196554
vn 0.2956243 0.6230885 -0.7241319
vn 0.1557587 0.5839658 -0.7966952
vn 0.1557564 0.5839654 0.7966958
vn 0.2956240 0.6230856 0.7241345
vn 0.4092312 0.6697407 0.6196588
vn 0.4942370 0.7118825 0.4989521
vn 0.5537411 0.7444896 0.3729694
vn 0.5923498 0.7668548 0.2470937
vn 0.6139273 0.7797337 0.1229173
vn 0.6208566 0.7839241 -0.0000000
vn 0.6139274 0.7797337 -0.1229174
vn 0.5923498 0.7668548 -0.2470938
vn 0.5537409 0.7444896 -0.3729695
vn 0.4942370 0.7118825 -0.4989520
vn 0.4092315 0.6697409 -0.6196587
vn 0.2956236 0.6230851 -0.7241350
vn 0.1557565 0.5839660 -0.7966954
vn -0.1557566 0.5839656 -0.7966958
vn -0.2956240 0.6230850 -0.7241350
vn -0.4092318 0.6697404 -0.6196588
vn -0.4942375 0.7118821 -0.4989520
vn -0.5537414 0.7444893 -0.3729694
vn -0.5923505 0.7668545 -0.2470935
vn -0.6139278 0.7797333 -0.1229171
vn -0.6208572 0.7839236 -0.0000000
vn -0.6139278 0.7797333 0.1229171
vn -0.5923505 0.7668543 0.2470936
vn -0.5537415 0.7444893 0.3729692
vn -0.4942375 0.7118822 0.4989519
vn -0.4092317 0.6697403 0.6196591
vn -0.2956244 0.6230854 0.7241346
vn -0.1557567 0.5839651 0.7966961
vn -0.4978009 0.2615675 0.8269080
vn -0.3224292 0.7987928 0.5079070
vn -0.3320312 0.8071702 -0.4880897
f 57//57 4//4 25//25
f 57//57 25//25 47//47
f 22//22 13//13 2//2
f 22//22 2//2 17//17
f 101//101 7//7 5//5
f 101//101 5//5 100//100
f 19//19 8//8 6//6
f 19//19 6//6 18//18
f 82//82 80//80 8//8
f 82//82 8//8 19//19
f 119//119 81//81 7//7
f 119//119 7//7 101//101
f 103//103 11//11 9//9
f 103//103 9//9 102//102
f 21//21 12//12 10//10
f 21//21 10//10 20//20
f 16//16 4//4 12//12
f 16//16 12//12 21//21
f 98//98 3//3 11//11
f 98//98 11//11 103//103
f 104//104 14//14 1//1
f 104//104 1//1 96//96
f 23//23 15//15 13//13
f 23//23 13//13 22//22
f 18//18 6//6 15//15
f 18//18 15//15 23//23
f 100//100 5//5 14//14
f 100//100 14//14 104//104
f 38//38 18//18 23//23
f 38//38 23//23 42//42
f 42//42 23//23 22//22
f 42//42 22//22 44//44
f 37//37 16//16 21//21
f 37//37 21//21 41//41
f 41//41 21//21 20//20
f 41//41 20//20 40//40
f 84//84 82//82 19//19
f 84//84 19//19 39//39
f 39//39 19//19 18//18
f 39//39 18//18 38//38
f 44//44 22//22 17//17
f 44//44 17//17 45//45
f 108//108 97//97 16//16
f 108//108 16//16 37//37
f 107//107 105//105 33//33
f 107//107 33//33 46//46
f 99//99 2//2 60//60
f 99//99 60//60 109//109
f 10//10 12//12 64//64
f 10//10 64//64 63//63
f 76//76 48//48 58//58
f 76//76 58//58 79//79
f 13//13 15//15 65//65
f 13//13 65//65 59//59
f 6//6 8//8 61//61
f 6//6 61//61 62//62
f 12//12 4//4 57//57
f 12//12 57//57 64//64
f 89//89 10//10 63//63
f 89//89 63//63 93//93
f 105//105 99//99 27//27
f 105//105 27//27 33//33
f 96//96 106//106 36//36
f 96//96 36//36 26//26
f 106//106 107//107 46//46
f 106//106 46//46 36//36
f 98//98 108//108 37//37
f 98//98 37//37 3//3
f 1//1 44//44 45//45
f 1//1 45//45 35//35
f 7//7 39//39 38//38
f 7//7 38//38 5//5
f 81//81 84//84 39//39
f 81//81 39//39 7//7
f 11//11 41//41 40//40
f 11//11 40//40 9//9
f 3//3 37//37 41//41
f 3//3 41//41 11//11
f 14//14 42//42 44//44
f 14//14 44//44 1//1
f 5//5 38//38 42//42
f 5//5 42//42 14//14
f 94//94 53//53 70//70
f 94//94 70//70 95//95
f 52//52 51//51 69//69
f 52//52 69//69 68//68
f 50//50 49//49 73//73
f 50//50 73//73 77//77
f 110//110 50//50 77//77
f 110//110 77//77 111//111
f 15//15 6//6 62//62
f 15//15 62//62 65//65
f 2//2 13//13 59//59
f 2//2 59//59 60//60
f 49//49 50//50 60//60
f 49//49 60//60 59//59
f 51//51 52//52 62//62
f 51//51 62//62 61//61
f 86//86 51//51 61//61
f 86//86 61//61 85//85
f 54//54 53//53 63//63
f 54//54 63//63 64//64
f 48//48 54//54 64//64
f 48//48 64//64 57//57
f 55//55 49//49 59//59
f 55//55 59//59 65//65
f 52//52 55//55 65//65
f 52//52 65//65 62//62
f 110//110 66//66 56//56
f 110//110 56//56 109//109
f 126//126 143//143 146//146
f 126//126 146//146 142//142
f 126//126 142//142 128//128
f 126//126 128//128 121//121
f 126//126 121//121 115//115
f 67//67 117//117 127//127
f 67//67 127//127 122//122
f 112//112 117//117 67//67
f 112//112 67//67 72//72
f 53//53 54//54 71//71
f 53//53 71//71 70//70
f 54//54 48//48 76//76
f 54//54 76//76 71//71
f 49//49 55//55 74//74
f 49//49 74//74 73//73
f 55//55 52//52 68//68
f 55//55 68//68 74//74
f 117//117 114//114 125//125
f 117//117 125//125 127//127
f 112//112 111//111 77//77
f 112//112 77//77 73//73
f 113//113 114//114 68//68
f 113//113 68//68 69//69
f 128//128 131//131 125//125
f 128//128 125//125 113//113
f 128//128 113//113 118//118
f 94//94 86//86 85//85
f 94//94 85//85 93//93
f 51//51 86//86 87//87
f 51//51 87//87 69//69
f 88//88 92//92 84//84
f 88//88 84//84 81//81
f 8//8 80//80 85//85
f 8//8 85//85 61//61
f 92//92 90//90 82//82
f 92//92 82//82 84//84
f 120//120 88//88 81//81
f 120//120 81//81 119//119
f 90//90 89//89 80//80
f 90//90 80//80 82//82
f 20//20 10//10 89//89
f 20//20 89//89 90//90
f 102//102 9//9 88//88
f 102//102 88//88 120//120
f 40//40 20//20 90//90
f 40//40 90//90 92//92
f 9//9 40//40 92//92
f 9//9 92//92 88//88
f 53//53 94//94 93//93
f 53//53 93//93 63//63
f 86//86 94//94 95//95
f 86//86 95//95 87//87
f 80//80 89//89 93//93
f 80//80 93//93 85//85
f 87//87 95//95 121//121
f 87//87 121//121 118//118
f 30//30 102//102 120//120
f 30//30 120//120 91//91
f 91//91 120//120 119//119
f 91//91 119//119 83//83
f 69//69 87//87 118//118
f 69//69 118//118 113//113
f 70//70 71//71 116//116
f 70//70 116//116 115//115
f 72//72 75//75 111//111
f 72//72 111//111 112//112
f 95//95 70//70 115//115
f 95//95 115//115 121//121
f 73//73 74//74 117//117
f 73//73 117//117 112//112
f 74//74 68//68 114//114
f 74//74 114//114 117//117
f 50//50 110//110 109//109
f 50//50 109//109 60//60
f 66//66 110//110 111//111
f 66//66 111//111 75//75
f 24//24 43//43 108//108
f 24//24 108//108 98//98
f 35//35 45//45 107//107
f 35//35 107//107 106//106
f 1//1 35//35 106//106
f 1//1 106//106 96//96
f 17//17 2//2 99//99
f 17//17 99//99 105//105
f 34//34 25//25 4//4
f 34//34 4//4 16//16
f 34//34 16//16 97//97
f 27//27 99//99 109//109
f 27//27 109//109 56//56
f 45//45 17//17 105//105
f 45//45 105//105 107//107
f 43//43 34//34 97//97
f 43//43 97//97 108//108
f 28//28 100//100 104//104
f 28//28 104//104 32//32
f 32//32 104//104 96//96
f 32//32 96//96 26//26
f 24//24 98//98 103//103
f 24//24 103//103 31//31
f 31//31 103//103 102//102
f 31//31 102//102 30//30
f 83//83 119//119 101//101
f 83//83 101//101 29//29
f 29//29 101//101 100//100
f 29//29 100//100 28//28
f 47//47 58//58 48//48
f 47//47 48//48 57//57
f 122//122 127//127 132//132
f 122//122 132//132 129//129
f 127//127 125//125 131//131
f 127//127 131//131 132//132
f 114//114 113//113 125//125
f 115//115 116//116 126//126
f 118//118 121//121 128//128
f 126//126 116//116 78//78
f 126//126 78//78 123//123
f 130//130 131//131 128//128
f 130//130 128//128 124//124
f 129//129 132//132 139//139
f 129//129 139//139 140//140
f 71//71 76//76 79//79
f 71//71 79//79 78//78
f 71//71 78//78 116//116
f 134//134 136//136 135//135
f 134//134 135//135 133//133
f 132//132 131//131 137//137
f 132//132 137//137 139//139
f 131//131 130//130 138//138
f 131//131 138//138 137//137
f 130//130 129//129 140//140
f 130//130 140//140 138//138
f 134//134 133//133 137//137
f 134//134 137//137 138//138
f 135//135 136//136 140//140
f 135//135 140//140 139//139
f 136//136 134//134 138//138
f 136//136 138//138 140//140
f 133//133 135//135 139//139
f 133//133 139//139 137//137
f 145//145 146//146 143//143
f 145//145 143//143 144//144
f 126//126 123//123 144//144
f 126//126 144//144 143//143
f 141//141 142//142 146//146
f 141//141 146//146 145//145
f 147//147 212//212 211//211
f 147//147 211//211 149//149
f 149//149 211//211 213//213
f 149//149 213//213 151//151
f 151//151 213//213 214//214
f 151//151 214//214 153//153
f 153//153 214//214 215//215
f 153//153 215//215 155//155
f 155//155 215//215 216//216
f 155//155 216//216 157//157
f 157//157 216//216 217//217
f 157//157 217//217 159//159
f 159//159 217//217 218//218
f 159//159 218//218 161//161
f 161//161 218//218 219//219
f 161//161 219//219 163//163
f 163//163 219//219 220//220
f 163//163 220//220 165//165
f 165//165 220//220 221//221
f 165//165 221//221 167//167
f 167//167 221//221 222//222
f 167//167 222//222 169//169
f 169//169 222//222 223//223
f 169//169 223//223 171//171
f 171//171 223//223 224//224
f 171//171 224//224 173//173
f 173//173 224//224 225//225
f 173//173 225//225 175//175
f 175//175 225//225 226//226
f 175//175 226//226 177//177
f 177//177 226//226 227//227
f 177//177 227//227 179//179
f 179//179 227//227 228//228
f 179//179 228//228 181//181
f 181//181 228//228 229//229
f 181//181 229//229 183//183
f 183//183 229//229 230//230
f 183//183 230//230 185//185
f 185//185 230//230 231//231
f 185//185 231//231 187//187
f 187//187 231//231 232//232
f 187//187 232//232 189//189
f 189//189 232//232 233//233
f 189//189 233//233 191//191
f 191//191 233//233 234//234
f 191//191 234//234 193//193
f 193//193 234//234 235//235
f 193//193 235//235 195//195
f 195//195 235//235 236//236
f 195//195 236//236 197//197
f 197//197 236//236 237//237
f 197//197 237//237 199//199
f 199//199 237//237 238//238
f 199//199 238//238 201//201
f 201//201 238//238 239//239
f 201//201 239//239 203//203
f 203//203 239//239 240//240
f 203//203 240//240 205//205
f 205//205 240//240 241//241
f 205//205 241//241 207//207
f 188//188 186//186 262//262
f 188//188 262//262 263//263
f 207//207 241//241 242//242
f 207//207 242//242 209//209
f 209//209 242//242 212//212
f 209//209 212//212 147//147
f 147//147 149//149 151//151
f 147//147 151//151 153//153
f 147//147 153//153 155//155
f 147//147 155//155 157//157
f 147//147 157//157 159//159
f 147//147 159//159 161//161
f 147//147 161//161 163//163
f 147//147 163//163 165//165
f 147//147 165//165 167//167
f 147//147 167//167 169//169
f 147//147 169//169 171//171
f 147//147 171//171 173//173
f 147//147 173//173 175//175
f 147//147 175//175 177//177
f 147//147 177//177 179//179
f 147//147 179//179 181//181
f 147//147 181//181 183//183
f 147//147 183//183 185//185
f 147//147 185//185 187//187
f 147//147 187//187 189//189
f 147//147 189//189 191//191
f 147//147 191//191 193//193
f 147//147 193//193 195//195
f 147//147 195//195 197//197
f 147//147 197//197 199//199
f 147//147 199//199 201//201
f 147//147 201//201 203//203
f 147//147 203//203 205//205
f 147//147 205//205 207//207
f 147//147 207//207 209//209
f 141//141 145//145 144//144
f 141//141 144//144 123//123
f 141//141 123//123 78//78
f 141//141 78//78 67//67
f 141//141 67//67 122//122
f 141//141 122//122 129//129
f 141//141 129//129 130//130
f 141//141 130//130 124//124
f 148//148 150//150 211//211
f 148//148 211//211 212//212
f 150//150 152//152 213//213
f 150//150 213//213 211//211
f 152//152 154//154 214//214
f 152//152 214//214 213//213
f 154//154 156//156 215//215
f 154//154 215//215 214//214
f 156//156 158//158 216//216
f 156//156 216//216 215//215
f 158//158 160//160 217//217
f 158//158 217//217 216//216
f 160//160 162//162 218//218
f 160//160 218//218 217//217
f 162//162 164//164 219//219
f 162//162 219//219 218//218
f 164//164 166//166 220//220
f 164//164 220//220 219//219
f 166//166 168//168 221//221
f 166//166 221//221 220//220
f 168//168 170//170 222//222
f 168//168 222//222 221//221
f 170//170 172//172 223//223
f 170//170 223//223 222//222
f 172//172 174//174 224//224
f 172//172 224//224 223//223
f 174//174 176//176 225//225
f 174//174 225//225 224//224
f 176//176 178//178 226//226
f 176//176 226//226 225//225
f 178//178 180//180 227//227
f 178//178 227//227 226//226
f 180//180 182//182 228//228
f 180//180 228//228 227//227
f 182//182 184//184 229//229
f 182//182 229//229 228//228
f 184//184 186//186 230//230
f 184//184 230//230 229//229
f 186//186 188//188 231//231
f 186//186 231//231 230//230
f 188//188 190//190 232//232
f 188//188 232//232 231//231
f 190//190 192//192 233//233
f 190//190 233//233 232//232
f 192//192 194//194 234//234
f 192//192 234//234 233//233
f 194//194 196//196 235//235
f 194//194 235//235 234//234
f 196//196 198//198 236//236
f 196//196 236//236 235//235
f 198//198 200//200 237//237
f 198//198 237//237 236//236
f 200//200 202//202 238//238
f 200//200 238//238 237//237
f 202//202 204//204 239//239
f 202//202 239//239 238//238
f 204//204 206//206 240//240
f 204//204 240//240 239//239
f 206//206 208//208 241//241
f 206//206 241//241 240//240
f 208//208 210//210 242//242
f 208//208 242//242 241//241
f 210//210 148//148 212//212
f 210//210 212//212 242//242
f 243//243 244//244 274//274
f 243//243 274//274 273//273
f 243//243 273//273 272//272
f 243//243 272//272 271//271
f 243//243 271//271 270//270
f 243//243 270//270 269//269
f 243//243 269//269 268//268
f 243//243 268//268 267//267
f 243//243 267//267 266//266
f 243//243 266//266 265//265
f 243//243 265//265 264//264
f 243//243 264//264 263//263
f 243//243 263//263 262//262
f 243//243 262//262 261//261
f 243//243 261//261 260//260
f 243//243 260//260 259//259
f 243//243 259//259 258//258
f 243//243 258//258 257//257
f 243//243 257//257 256//256
f 243//243 256//256 255//255
f 243//243 255//255 254//254
f 243//243 254//254 253//253
f 243//243 253//253 252//252
f 243//243 252//252 251//251
f 243//243 251//251 250//250
f 243//243 250//250 249//249
f 243//243 249//249 248//248
f 243//243 248//248 247//247
f 243//243 247//247 246//246
f 243//243 246//246 245//245
f 162//162 160//160 249//249
f 162//162 249//249 250//250
f 190//190 188//188 263//263
f 190//190 263//263 264//264
f 164//164 162//162 250//250
f 164//164 250//250 251//251
f 192//192 190//190 264//264
f 192//192 264//264 265//265
f 166//166 164//164 251//251
f 166//166 251//251 252//252
f 194//194 192//192 265//265
f 194//194 265//265 266//266
f 168//168 166//166 252//252
f 168//168 252//252 253//253
f 196//196 194//194 266//266
f 196//196 266//266 267//267
f 170//170 168//168 253//253
f 170//170 253//253 254//254
f 198//198 196//196 267//267
f 198//198 267//267 268//268
f 172//172 170//170 254//254
f 172//172 254//254 255//255
f 200//200 198//198 268//268
f 200//200 268//268 269//269
f 174//174 172//172 255//255
f 174//174 255//255 256//256
f 202//202 200//200 269//269
f 202//202 269//269 270//270
f 176//176 174//174 256//256
f 176//176 256//256 257//257
f 150//150 148//148 244//244
f 150//150 244//244 243//243
f 204//204 202//202 270//270
f 204//204 270//270 271//271
f 178//178 176//176 257//257
f 178//178 257//257 258//258
f 152//152 150//150 243//243
f 152//152 243//243 245//245
f 206//206 204//204 271//271
f 206//206 271//271 272//272
f 180//180 178//178 258//258
f 180//180 258//258 259//259
f 154//154 152//152 245//245
f 154//154 245//245 246//246
f 208//208 206//206 272//272
f 208//208 272//272 273//273
f 182//182 180//180 259//259
f 182//182 259//259 260//260
f 156//156 154//154 246//246
f 156//156 246//246 247//247
f 210//210 208//208 273//273
f 210//210 273//273 274//274
f 184//184 182//182 260//260
f 184//184 260//260 261//261
f 158//158 156//156 247//247
f 158//158 247//247 248//248
f 148//148 210//210 274//274
f 148//148 274//274 244//244
f 186//186 184//184 261//261
f 186//186 261//261 262//262
f 160//160 158//158 248//248
f 160//160 248//248 249//249
f 279//279 277//277 276//276
f 279//279 276//276 278//278
f 280//280 279//279 278//278
f 280//280 278//278 142//142
f 275//275 280//280 142//142
f 275//275 142//142 141//141
f 141//141 124//124 276//276
f 141//141 276//276 277//277
f 141//141 277//277 275//275
f 279//279 280//280 275//275
f 279//279 275//275 277//277
f 124//124 128//128 278//278
f 124//124 278//278 276//276
f 128//128 142//142 278//278
f 321//321 47//47 25//25
f 321//321 25//25 284//284
f 302//302 297//297 282//282
f 302//302 282//282 293//293
f 356//356 355//355 285//285
f 356//356 285//285 287//287
f 299//299 298//298 286//286
f 299//299 286//286 288//288
f 339//339 299//299 288//288
f 339//339 288//288 337//337
f 374//374 356//356 287//287
f 374//374 287//287 338//338
f 358//358 357//357 289//289
f 358//358 289//289 291//291
f 301//301 300//300 290//290
f 301//301 290//290 292//292
f 296//296 301//301 292//292
f 296//296 292//292 284//284
f 353//353 358//358 291//291
f 353//353 291//291 283//283
f 359//359 351//351 281//281
f 359//359 281//281 294//294
f 303//303 302//302 293//293
f 303//303 293//293 295//295
f 298//298 303//303 295//295
f 298//298 295//295 286//286
f 355//355 359//359 294//294
f 355//355 294//294 285//285
f 306//306 310//310 303//303
f 306//306 303//303 298//298
f 310//310 311//311 302//302
f 310//310 302//302 303//303
f 305//305 309//309 301//301
f 305//305 301//301 296//296
f 309//309 308//308 300//300
f 309//309 300//300 301//301
f 340//340 307//307 299//299
f 340//340 299//299 339//339
f 307//307 306//306 298//298
f 307//307 298//298 299//299
f 311//311 312//312 297//297
f 311//311 297//297 302//302
f 363//363 305//305 296//296
f 363//363 296//296 352//352
f 362//362 46//46 33//33
f 362//362 33//33 360//360
f 354//354 364//364 323//323
f 354//354 323//323 282//282
f 290//290 326//326 327//327
f 290//290 327//327 292//292
f 335//335 79//79 58//58
f 335//335 58//58 313//313
f 293//293 322//322 328//328
f 293//293 328//328 295//295
f 286//286 325//325 324//324
f 286//286 324//324 288//288
f 292//292 327//327 321//321
f 292//292 321//321 284//284
f 345//345 348//348 326//326
f 345//345 326//326 290//290
f 360//360 33//33 27//27
f 360//360 27//27 354//354
f 351//351 26//26 36//36
f 351//351 36//36 361//361
f 361//361 36//36 46//46
f 361//361 46//46 362//362
f 353//353 283//283 305//305
f 353//353 305//305 363//363
f 281//281 304//304 312//312
f 281//281 312//312 311//311
f 287//287 285//285 306//306
f 287//287 306//306 307//307
f 338//338 287//287 307//307
f 338//338 307//307 340//340
f 291//291 289//289 308//308
f 291//291 308//308 309//309
f 283//283 291//291 309//309
f 283//283 309//309 305//305
f 294//294 281//281 311//311
f 294//294 311//311 310//310
f 285//285 294//294 310//310
f 285//285 310//310 306//306
f 349//349 350//350 331//331
f 349//349 331//331 318//318
f 317//317 329//329 330//330
f 317//317 330//330 316//316
f 315//315 336//336 333//333
f 315//315 333//333 314//314
f 365//365 366//366 336//336
f 365//365 336//336 315//315
f 295//295 328//328 325//325
f 295//295 325//325 286//286
f 282//282 323//323 322//322
f 282//282 322//322 293//293
f 314//314 322//322 323//323
f 314//314 323//323 315//315
f 316//316 324//324 325//325
f 316//316 325//325 317//317
f 342//342 341//341 324//324
f 342//342 324//324 316//316
f 319//319 327//327 326//326
f 319//319 326//326 318//318
f 313//313 321//321 327//327
f 313//313 327//327 319//319
f 320//320 328//328 322//322
f 320//320 322//322 314//314
f 317//317 325//325 328//328
f 317//317 328//328 320//320
f 365//365 364//364 56//56
f 365//365 56//56 66//66
f 378//378 370//370 376//376
f 378//378 376//376 380//380
f 378//378 380//380 387//387
f 378//378 387//387 389//389
f 378//378 389//389 388//388
f 67//67 122//122 379//379
f 67//67 379//379 372//372
f 367//367 72//72 67//67
f 367//367 67//67 372//372
f 318//318 331//331 332//332
f 318//318 332//332 319//319
f 319//319 332//332 335//335
f 319//319 335//335 313//313
f 314//314 333//333 334//334
f 314//314 334//334 320//320
f 320//320 334//334 329//329
f 320//320 329//329 317//317
f 372//372 379//379 377//377
f 372//372 377//377 369//369
f 367//367 333//333 336//336
f 367//367 336//336 366//366
f 368//368 330//330 329//329
f 368//368 329//329 369//369
f 380//380 373//373 368//368
f 380//380 368//368 377//377
f 380//380 377//377 381//381
f 349//349 348//348 341//341
f 349//349 341//341 342//342
f 316//316 330//330 343//343
f 316//316 343//343 342//342
f 344//344 338//338 340//340
f 344//344 340//340 347//347
f 288//288 324//324 341//341
f 288//288 341//341 337//337
f 347//347 340//340 339//339
f 347//347 339//339 346//346
f 375//375 374//374 338//338
f 375//375 338//338 344//344
f 346//346 339//339 337//337
f 346//346 337//337 345//345
f 300//300 346//346 345//345
f 300//300 345//345 290//290
f 357//357 375//375 344//344
f 357//357 344//344 289//289
f 308//308 347//347 346//346
f 308//308 346//346 300//300
f 289//289 344//344 347//347
f 289//289 347//347 308//308
f 318//318 326//326 348//348
f 318//318 348//348 349//349
f 342//342 343//343 350//350
f 342//342 350//350 349//349
f 337//337 341//341 348//348
f 337//337 348//348 345//345
f 343//343 373//373 376//376
f 343//343 376//376 350//350
f 30//30 91//91 375//375
f 30//30 375//375 357//357
f 91//91 83//83 374//374
f 91//91 374//374 375//375
f 330//330 368//368 373//373
f 330//330 373//373 343//343
f 331//331 370//370 371//371
f 331//331 371//371 332//332
f 72//72 367//367 366//366
f 72//72 366//366 75//75
f 350//350 376//376 370//370
f 350//350 370//370 331//331
f 333//333 367//367 372//372
f 333//333 372//372 334//334
f 334//334 372//372 369//369
f 334//334 369//369 329//329
f 315//315 323//323 364//364
f 315//315 364//364 365//365
f 66//66 75//75 366//366
f 66//66 366//366 365//365
f 24//24 353//353 363//363
f 24//24 363//363 43//43
f 304//304 361//361 362//362
f 304//304 362//362 312//312
f 281//281 351//351 361//361
f 281//281 361//361 304//304
f 297//297 360//360 354//354
f 297//297 354//354 282//282
f 34//34 352//352 296//296
f 34//34 296//296 284//284
f 34//34 284//284 25//25
f 27//27 56//56 364//364
f 27//27 364//364 354//354
f 312//312 362//362 360//360
f 312//312 360//360 297//297
f 43//43 363//363 352//352
f 43//43 352//352 34//34
f 28//28 32//32 359//359
f 28//28 359//359 355//355
f 32//32 26//26 351//351
f 32//32 351//351 359//359
f 24//24 31//31 358//358
f 24//24 358//358 353//353
f 31//31 30//30 357//357
f 31//31 357//357 358//358
f 83//83 29//29 356//356
f 83//83 356//356 374//374
f 29//29 28//28 355//355
f 29//29 355//355 356//356
f 47//47 321//321 313//313
f 47//47 313//313 58//58
f 122//122 129//129 382//382
f 122//122 382//382 379//379
f 379//379 382//382 381//381
f 379//379 381//381 377//377
f 369//369 377//377 368//368
f 370//370 378//378 371//371
f 373//373 380//380 376//376
f 378//378 123//123 78//78
f 378//378 78//78 371//371
f 130//130 124//124 380//380
f 130//130 380//380 381//381
f 129//129 140//140 386//386
f 129//129 386//386 382//382
f 332//332 371//371 78//78
f 332//332 78//78 79//79
f 332//332 79//79 335//335
f 134//134 383//383 384//384
f 134//134 384//384 136//136
f 382//382 386//386 385//385
f 382//382 385//385 381//381
f 381//381 385//385 138//138
f 381//381 138//138 130//130
f 134//134 138//138 385//385
f 134//134 385//385 383//383
f 384//384 386//386 140//140
f 384//384 140//140 136//136
f 383//383 385//385 386//386
f 383//383 386//386 384//384
f 145//145 144//144 388//388
f 145//145 388//388 389//389
f 378//378 388//388 144//144
f 378//378 144//144 123//123
f 141//141 145//145 389//389
f 141//141 389//389 387//387
f 147//147 390//390 450//450
f 147//147 450//450 212//212
f 390//390 392//392 451//451
f 390//390 451//451 450//450
f 392//392 394//394 452//452
f 392//392 452//452 451//451
f 394//394 396//396 453//453
f 394//394 453//453 452//452
f 396//396 398//398 454//454
f 396//396 454//454 453//453
f 398//398 400//400 455//455
f 398//398 455//455 454//454
f 400//400 402//402 456//456
f 400//400 456//456 455//455
f 402//402 404//404 457//457
f 402//402 457//457 456//456
f 404//404 406//406 458//458
f 404//404 458//458 457//457
f 406//406 408//408 459//459
f 406//406 459//459 458//458
f 408//408 410//410 460//460
f 408//408 460//460 459//459
f 410//410 412//412 461//461
f 410//410 461//461 460//460
f 412//412 414//414 462//462
f 412//412 462//462 461//461
f 414//414 416//416 463//463
f 414//414 463//463 462//462
f 416//416 418//418 464//464
f 416//416 464//464 463//463
f 418//418 179//179 227//227
f 418//418 227//227 464//464
f 179//179 420//420 465//465
f 179//179 465//465 227//227
f 420//420 422//422 466//466
f 420//420 466//466 465//465
f 422//422 424//424 467//467
f 422//422 467//467 466//466
f 424//424 426//426 468//468
f 424//424 468//468 467//467
f 426//426 428//428 469//469
f 426//426 469//469 468//468
f 428//428 430//430 470//470
f 428//428 470//470 469//469
f 430//430 432//432 471//471
f 430//430 471//471 470//470
f 432//432 434//434 472//472
f 432//432 472//472 471//471
f 434//434 436//436 473//473
f 434//434 473//473 472//472
f 436//436 438//438 474//474
f 436//436 474//474 473//473
f 438//438 440//440 475//475
f 438//438 475//475 474//474
f 440//440 442//442 476//476
f 440//440 476//476 475//475
f 442//442 444//444 477//477
f 442//442 477//477 476//476
f 444//444 446//446 478//478
f 444//444 478//478 477//477
f 427//427 498//498 497//497
f 427//427 497//497 425//425
f 446//446 448//448 479//479
f 446//446 479//479 478//478
f 448//448 147//147 212//212
f 448//448 212//212 479//479
f 147//147 448//448 446//446
f 147//147 446//446 444//444
f 147//147 444//444 442//442
f 147//147 442//442 440//440
f 147//147 440//440 438//438
f 147//147 438//438 436//436
f 147//147 436//436 434//434
f 147//147 434//434 432//432
f 147//147 432//432 430//430
f 147//147 430//430 428//428
f 147//147 428//428 426//426
f 147//147 426//426 424//424
f 147//147 424//424 422//422
f 147//147 422//422 420//420
f 147//147 420//420 179//179
f 147//147 179//179 418//418
f 147//147 418//418 416//416
f 147//147 416//416 414//414
f 147//147 414//414 412//412
f 147//147 412//412 410//410
f 147//147 410//410 408//408
f 147//147 408//408 406//406
f 147//147 406//406 404//404
f 147//147 404//404 402//402
f 147//147 402//402 400//400
f 147//147 400//400 398//398
f 147//147 398//398 396//396
f 147//147 396//396 394//394
f 147//147 394//394 392//392
f 147//147 392//392 390//390
f 148//148 212//212 450//450
f 148//148 450//450 391//391
f 391//391 450//450 451//451
f 391//391 451//451 393//393
f 393//393 451//451 452//452
f 393//393 452//452 395//395
f 395//395 452//452 453//453
f 395//395 453//453 397//397
f 397//397 453//453 454//454
f 397//397 454//454 399//399
f 399//399 454//454 455//455
f 399//399 455//455 401//401
f 401//401 455//455 456//456
f 401//401 456//456 403//403
f 403//403 456//456 457//457
f 403//403 457//457 405//405
f 405//405 457//457 458//458
f 405//405 458//458 407//407
f 407//407 458//458 459//459
f 407//407 459//459 409//409
f 409//409 459//459 460//460
f 409//409 460//460 411//411
f 411//411 460//460 461//461
f 411//411 461//461 413//413
f 413//413 461//461 462//462
f 413//413 462//462 415//415
f 415//415 462//462 463//463
f 415//415 463//463 417//417
f 417//417 463//463 464//464
f 417//417 464//464 419//419
f 419//419 464//464 227//227
f 419//419 227//227 180//180
f 180//180 227//227 465//465
f 180//180 465//465 421//421
f 421//421 465//465 466//466
f 421//421 466//466 423//423
f 423//423 466//466 467//467
f 423//423 467//467 425//425
f 425//425 467//467 468//468
f 425//425 468//468 427//427
f 427//427 468//468 469//469
f 427//427 469//469 429//429
f 429//429 469//469 470//470
f 429//429 470//470 431//431
f 431//431 470//470 471//471
f 431//431 471//471 433//433
f 433//433 471//471 472//472
f 433//433 472//472 435//435
f 435//435 472//472 473//473
f 435//435 473//473 437//437
f 437//437 473//473 474//474
f 437//437 474//474 439//439
f 439//439 474//474 475//475
f 439//439 475//475 441//441
f 441//441 475//475 476//476
f 441//441 476//476 443//443
f 443//443 476//476 477//477
f 443//443 477//477 445//445
f 445//445 477//477 478//478
f 445//445 478//478 447//447
f 447//447 478//478 479//479
f 447//447 479//479 449//449
f 449//449 479//479 212//212
f 449//449 212//212 148//148
f 480//480 481//481 482//482
f 480//480 482//482 483//483
f 480//480 483//483 484//484
f 480//480 484//484 485//485
f 480//480 485//485 486//486
f 480//480 486//486 487//487
f 480//480 487//487 488//488
f 480//480 488//488 489//489
f 480//480 489//489 490//490
f 480//480 490//490 491//491
f 480//480 491//491 492//492
f 480//480 492//492 493//493
f 480//480 493//493 494//494
f 480//480 494//494 259//259
f 480//480 259//259 495//495
f 480//480 495//495 496//496
f 480//480 496//496 497//497
f 480//480 497//497 498//498
f 480//480 498//498 499//499
f 480//480 499//499 500//500
f 480//480 500//500 501//501
f 480//480 501//501 502//502
f 480//480 502//502 503//503
f 480//480 503//503 504//504
f 480//480 504//504 505//505
f 480//480 505//505 506//506
f 480//480 506//506 507//507
f 480//480 507//507 508//508
f 480//480 508//508 509//509
f 480//480 509//509 244//244
f 403//403 486//486 485//485
f 403//403 485//485 401//401
f 429//429 499//499 498//498
f 429//429 498//498 427//427
f 405//405 487//487 486//486
f 405//405 486//486 403//403
f 431//431 500//500 499//499
f 431//431 499//499 429//429
f 407//407 488//488 487//487
f 407//407 487//487 405//405
f 433//433 501//501 500//500
f 433//433 500//500 431//431
f 409//409 489//489 488//488
f 409//409 488//488 407//407
f 435//435 502//502 501//501
f 435//435 501//501 433//433
f 411//411 490//490 489//489
f 411//411 489//489 409//409
f 437//437 503//503 502//502
f 437//437 502//502 435//435
f 413//413 491//491 490//490
f 413//413 490//490 411//411
f 439//439 504//504 503//503
f 439//439 503//503 437//437
f 415//415 492//492 491//491
f 415//415 491//491 413//413
f 441//441 505//505 504//504
f 441//441 504//504 439//439
f 417//417 493//493 492//492
f 417//417 492//492 415//415
f 391//391 480//480 244//244
f 391//391 244//244 148//148
f 443//443 506//506 505//505
f 443//443 505//505 441//441
f 419//419 494//494 493//493
f 419//419 493//493 417//417
f 393//393 481//481 480//480
f 393//393 480//480 391//391
f 445//445 507//507 506//506
f 445//445 506//506 443//443
f 180//180 259//259 494//494
f 180//180 494//494 419//419
f 395//395 482//482 481//481
f 395//395 481//481 393//393
f 447//447 508//508 507//507
f 447//447 507//507 445//445
f 421//421 495//495 259//259
f 421//421 259//259 180//180
f 397//397 483//483 482//482
f 397//397 482//482 395//395
f 449//449 509//509 508//508
f 449//449 508//508 447//447
f 423//423 496//496 495//495
f 423//423 495//495 421//421
f 399//399 484//484 483//483
f 399//399 483//483 397//397
f 148//148 244//244 509//509
f 148//148 509//509 449//449
f 425//425 497//497 496//496
f 425//425 496//496 423//423
f 401//401 485//485 484//484
f 401//401 484//484 399//399
f 511//511 510//510 276//276
f 511//511 276//276 277//277
f 512//512 387//387 510//510
f 512//512 510//510 511//511
f 275//275 141//141 387//387
f 275//275 387//387 512//512
f 511//511 277//277 275//275
f 511//511 275//275 512//512
f 124//124 276//276 510//510
f 124//124 510//510 380//380
f 380//380 510//510 387//387
