# Wild Wind Blender MCP export. Units are meters. Unity axes: X=Blender X, Y=Blender Z, Z=-Blender Y.
o Cruiser203EmitterDeck
v 13.5111465 -0.2712045 2.3498516
v 14.3267069 1.3156668 2.3498516
v 13.5111465 -0.2712045 -1.2185097
v 14.3267069 1.3156668 -1.2185097
v 14.6926861 -0.8784479 1.9722958
v 14.8216639 -0.6274902 2.3498516
v 15.3792686 0.4574657 2.3498516
v 15.5082455 0.7084234 1.9722958
v 14.8216639 -0.6274902 -1.2185097
v 14.6926861 -0.8784479 -0.8409538
v 15.5082455 0.7084234 -0.8409538
v 15.3792686 0.4574657 -1.2185097
v 15.3597298 0.1484711 -0.6522093
v 15.4249592 0.2753892 -0.4612665
v 14.9963083 -0.5586537 -0.4612665
v 15.0615377 -0.4317356 -0.6522093
v 15.0615377 -0.4317356 1.7835512
v 14.9963083 -0.5586537 1.5926075
v 15.4249592 0.2753892 1.5926075
v 15.3597298 0.1484711 1.7835512
v 15.4048071 0.2361803 -0.9707775
v 15.5337868 0.4871380 -0.5932217
v 14.8874817 -0.7704024 -0.5932217
v 15.0164614 -0.5194448 -0.9707775
v 15.0164614 -0.5194448 2.1021185
v 14.8874817 -0.7704024 1.7245626
v 15.5337868 0.4871380 1.7245626
v 15.4048071 0.2361803 2.1021185
v 14.8756409 0.3972650 -0.6522093
v 14.9408703 0.5241831 -0.4612665
v 14.5122194 -0.3098598 -0.4612665
v 14.5774488 -0.1829417 -0.6522093
v 14.5774488 -0.1829417 1.7835512
v 14.5122194 -0.3098598 1.5926075
v 14.9408703 0.5241831 1.5926075
v 14.8756409 0.3972650 1.7835512
v 13.5111465 -0.2712045 14.8199930
v 14.3267069 1.3156668 14.8199930
v 13.5111465 -0.2712045 11.2516317
v 14.3267069 1.3156668 11.2516317
v 14.6926861 -0.8784479 14.4424372
v 14.8216639 -0.6274902 14.8199930
v 15.3792686 0.4574657 14.8199930
v 15.5082455 0.7084234 14.4424372
v 14.8216639 -0.6274902 11.2516317
v 14.6926861 -0.8784479 11.6291895
v 15.5082455 0.7084234 11.6291895
v 15.3792686 0.4574657 11.2516317
v 15.3597298 0.1484711 11.8179331
v 15.4249592 0.2753892 12.0088778
v 14.9963083 -0.5586537 12.0088778
v 15.0615377 -0.4317356 11.8179331
v 15.0615377 -0.4317356 14.2536936
v 14.9963083 -0.5586537 14.0627508
v 15.4249592 0.2753892 14.0627508
v 15.3597298 0.1484711 14.2536936
v 15.4048071 0.2361803 11.4993639
v 15.5337868 0.4871380 11.8769197
v 14.8874817 -0.7704024 11.8769197
v 15.0164614 -0.5194448 11.4993639
v 15.0164614 -0.5194448 14.5722628
v 14.8874817 -0.7704024 14.1947050
v 15.5337868 0.4871380 14.1947050
v 15.4048071 0.2361803 14.5722628
v 14.8756409 0.3972650 11.8179331
v 14.9408703 0.5241831 12.0088778
v 14.5122194 -0.3098598 12.0088778
v 14.5774488 -0.1829417 11.8179331
v 14.5774488 -0.1829417 14.2536936
v 14.5122194 -0.3098598 14.0627508
v 14.9408703 0.5241831 14.0627508
v 14.8756409 0.3972650 14.2536936
v 14.0793810 0.3972650 30.9932289
v 14.1446104 0.5241831 30.8022842
v 13.7159595 -0.3098598 30.8022842
v 13.7811890 -0.1829417 30.9932289
v 13.7811890 -0.1829417 28.5574684
v 13.7159595 -0.3098598 28.7484131
v 14.1446104 0.5241831 28.7484131
v 14.0793810 0.3972650 28.5574684
v 14.6085472 0.2361803 31.3117981
v 14.7375278 0.4871380 30.9342422
v 14.0912218 -0.7704024 30.9342422
v 14.2202015 -0.5194448 31.3117981
v 14.2202015 -0.5194448 28.2389030
v 14.0912218 -0.7704024 28.6164589
v 14.7375278 0.4871380 28.6164589
v 14.6085472 0.2361803 28.2389030
v 14.5634708 0.1484711 30.9932289
v 14.6287003 0.2753892 30.8022842
v 14.2000494 -0.5586537 30.8022842
v 14.2652788 -0.4317356 30.9932289
v 14.2652788 -0.4317356 28.5574684
v 14.2000494 -0.5586537 28.7484131
v 14.6287003 0.2753892 28.7484131
v 14.5634708 0.1484711 28.5574684
v 14.5830088 0.4574657 27.9911690
v 14.7119865 0.7084234 28.3687248
v 13.8964262 -0.8784479 28.3687248
v 14.0254040 -0.6274902 27.9911690
v 14.7119865 0.7084234 31.1819763
v 14.5830088 0.4574657 31.5595284
v 14.0254040 -0.6274902 31.5595284
v 13.8964262 -0.8784479 31.1819763
v 13.5304480 1.3156668 27.9911690
v 12.7148867 -0.2712045 27.9911690
v 13.5304480 1.3156668 31.5595284
v 12.7148867 -0.2712045 31.5595284
v 12.6433563 0.3972650 42.8802452
v 12.7085857 0.5241831 42.6893044
v 12.2799349 -0.3098598 42.6893044
v 12.3451643 -0.1829417 42.8802452
v 12.3451643 -0.1829417 40.4444847
v 12.2799349 -0.3098598 40.6354294
v 12.7085857 0.5241831 40.6354294
v 12.6433563 0.3972650 40.4444847
v 13.1725225 0.2361803 43.1988182
v 13.3015022 0.4871380 42.8212585
v 12.6551971 -0.7704024 42.8212585
v 12.7841768 -0.5194448 43.1988182
v 12.7841768 -0.5194448 40.1259193
v 12.6551971 -0.7704024 40.5034752
v 13.3015022 0.4871380 40.5034752
v 13.1725225 0.2361803 40.1259193
v 13.1274462 0.1484711 42.8802452
v 13.1926746 0.2753892 42.6893044
v 12.7640238 -0.5586537 42.6893044
v 12.8292532 -0.4317356 42.8802452
v 12.8292532 -0.4317356 40.4444847
v 12.7640238 -0.5586537 40.6354294
v 13.1926746 0.2753892 40.6354294
v 13.1274462 0.1484711 40.4444847
v 13.1469841 0.4574657 39.8781853
v 13.2759619 0.7084234 40.2557411
v 12.4604015 -0.8784479 40.2557411
v 12.5893793 -0.6274902 39.8781853
v 13.2759619 0.7084234 43.0689888
v 13.1469841 0.4574657 43.4465446
v 12.5893793 -0.6274902 43.4465446
v 12.4604015 -0.8784479 43.0689888
v 12.0944233 1.3156668 39.8781853
v 11.2788620 -0.2712045 39.8781853
v 12.0944233 1.3156668 43.4465446
v 11.2788620 -0.2712045 43.4465446
v 14.1938000 -0.2712045 -13.4724493
v 15.0093613 1.3156668 -13.4724493
v 14.1938000 -0.2712045 -17.0408115
v 15.0093613 1.3156668 -17.0408115
v 15.3753395 -0.8784479 -13.8500051
v 15.5043173 -0.6274902 -13.4724493
v 16.0619221 0.4574657 -13.4724493
v 16.1908989 0.7084234 -13.8500051
v 15.5043173 -0.6274902 -17.0408115
v 15.3753395 -0.8784479 -16.6632538
v 16.1908989 0.7084234 -16.6632538
v 16.0619221 0.4574657 -17.0408115
v 16.0423832 0.1484711 -16.4745102
v 16.1076126 0.2753892 -16.2835674
v 15.6789627 -0.5586537 -16.2835674
v 15.7441921 -0.4317356 -16.4745102
v 15.7441921 -0.4317356 -14.0387497
v 15.6789627 -0.5586537 -14.2296934
v 16.1076126 0.2753892 -14.2296934
v 16.0423832 0.1484711 -14.0387497
v 16.0874615 0.2361803 -16.7930775
v 16.2164402 0.4871380 -16.4155216
v 15.5701351 -0.7704024 -16.4155216
v 15.6991148 -0.5194448 -16.7930775
v 15.6991148 -0.5194448 -13.7201815
v 15.5701351 -0.7704024 -14.0977383
v 16.2164402 0.4871380 -14.0977383
v 16.0874615 0.2361803 -13.7201815
v 15.5582943 0.3972650 -16.4745102
v 15.6235237 0.5241831 -16.2835674
v 15.1948729 -0.3098598 -16.2835674
v 15.2601023 -0.1829417 -16.4745102
v 15.2601023 -0.1829417 -14.0387497
v 15.1948729 -0.3098598 -14.2296934
v 15.6235237 0.5241831 -14.2296934
v 15.5582943 0.3972650 -14.0387497
v 14.1938000 -0.2712045 -27.5858383
v 15.0093613 1.3156668 -27.5858383
v 14.1938000 -0.2712045 -31.1541977
v 15.0093613 1.3156668 -31.1541977
v 15.3753395 -0.8784479 -27.9633942
v 15.5043173 -0.6274902 -27.5858383
v 16.0619221 0.4574657 -27.5858383
v 16.1908989 0.7084234 -27.9633942
v 15.5043173 -0.6274902 -31.1541977
v 15.3753395 -0.8784479 -30.7766418
v 16.1908989 0.7084234 -30.7766418
v 16.0619221 0.4574657 -31.1541977
v 16.0423832 0.1484711 -30.5878983
v 16.1076126 0.2753892 -30.3969536
v 15.6789627 -0.5586537 -30.3969536
v 15.7441921 -0.4317356 -30.5878983
v 15.7441921 -0.4317356 -28.1521378
v 15.6789627 -0.5586537 -28.3430824
v 16.1076126 0.2753892 -28.3430824
v 16.0423832 0.1484711 -28.1521378
v 16.0874615 0.2361803 -30.9064636
v 16.2164402 0.4871380 -30.5289116
v 15.5701351 -0.7704024 -30.5289116
v 15.6991148 -0.5194448 -30.9064636
v 15.6991148 -0.5194448 -27.8335686
v 15.5701351 -0.7704024 -28.2111244
v 16.2164402 0.4871380 -28.2111244
v 16.0874615 0.2361803 -27.8335686
v 15.5582943 0.3972650 -30.5878983
v 15.6235237 0.5241831 -30.3969536
v 15.1948729 -0.3098598 -30.3969536
v 15.2601023 -0.1829417 -30.5878983
v 15.2601023 -0.1829417 -28.1521378
v 15.1948729 -0.3098598 -28.3430824
v 15.6235237 0.5241831 -28.3430824
v 15.5582943 0.3972650 -28.1521378
v 14.6818447 -0.2712045 -58.4861488
v 15.4974060 1.3156668 -58.4861488
v 14.6818447 -0.2712045 -62.0545120
v 15.4974060 1.3156668 -62.0545120
v 15.8633852 -0.8784479 -58.8637047
v 15.9923620 -0.6274902 -58.4861488
v 16.5499668 0.4574657 -58.4861488
v 16.6789455 0.7084234 -58.8637047
v 15.9923620 -0.6274902 -62.0545120
v 15.8633852 -0.8784479 -61.6769562
v 16.6789455 0.7084234 -61.6769562
v 16.5499668 0.4574657 -62.0545120
v 16.5304298 0.1484711 -61.4882126
v 16.5956593 0.2753892 -61.2972641
v 16.1670074 -0.5586537 -61.2972641
v 16.2322369 -0.4317356 -61.4882126
v 16.2322369 -0.4317356 -59.0524483
v 16.1670074 -0.5586537 -59.2433929
v 16.5956593 0.2753892 -59.2433929
v 16.5304298 0.1484711 -59.0524483
v 16.5755062 0.2361803 -61.8067780
v 16.7044849 0.4871380 -61.4292221
v 16.0581799 -0.7704024 -61.4292221
v 16.1871605 -0.5194448 -61.8067780
v 16.1871605 -0.5194448 -58.7338829
v 16.0581799 -0.7704024 -59.1114426
v 16.7044849 0.4871380 -59.1114426
v 16.5755062 0.2361803 -58.7338829
v 16.0463390 0.3972650 -61.4882126
v 16.1115685 0.5241831 -61.2972641
v 15.6829176 -0.3098598 -61.2972641
v 15.7481470 -0.1829417 -61.4882126
v 15.7481470 -0.1829417 -59.0524483
v 15.6829176 -0.3098598 -59.2433929
v 16.1115685 0.5241831 -59.2433929
v 16.0463390 0.3972650 -59.0524483
v 14.6818447 -0.2712045 -70.8183060
v 15.4974060 1.3156668 -70.8183060
v 14.6818447 -0.2712045 -74.3866730
v 15.4974060 1.3156668 -74.3866730
v 15.8633852 -0.8784479 -71.1958618
v 15.9923620 -0.6274902 -70.8183060
v 16.5499668 0.4574657 -70.8183060
v 16.6789455 0.7084234 -71.1958618
v 15.9923620 -0.6274902 -74.3866730
v 15.8633852 -0.8784479 -74.0091171
v 16.6789455 0.7084234 -74.0091171
v 16.5499668 0.4574657 -74.3866730
v 16.5304298 0.1484711 -73.8203735
v 16.5956593 0.2753892 -73.6294250
v 16.1670074 -0.5586537 -73.6294250
v 16.2322369 -0.4317356 -73.8203735
v 16.2322369 -0.4317356 -71.3846054
v 16.1670074 -0.5586537 -71.5755539
v 16.5956593 0.2753892 -71.5755539
v 16.5304298 0.1484711 -71.3846054
v 16.5755062 0.2361803 -74.1389313
v 16.7044849 0.4871380 -73.7613831
v 16.0581799 -0.7704024 -73.7613831
v 16.1871605 -0.5194448 -74.1389313
v 16.1871605 -0.5194448 -71.0660400
v 16.0581799 -0.7704024 -71.4436035
v 16.7044849 0.4871380 -71.4436035
v 16.5755062 0.2361803 -71.0660400
v 16.0463390 0.3972650 -73.8203735
v 16.1115685 0.5241831 -73.6294250
v 15.6829176 -0.3098598 -73.6294250
v 15.7481470 -0.1829417 -73.8203735
v 15.7481470 -0.1829417 -71.3846054
v 15.6829176 -0.3098598 -71.5755539
v 16.1115685 0.5241831 -71.5755539
v 16.0463390 0.3972650 -71.3846054
v 14.6818447 -0.2712045 -45.2072449
v 15.4974060 1.3156668 -45.2072449
v 14.6818447 -0.2712045 -48.7756081
v 15.4974060 1.3156668 -48.7756081
v 15.8633852 -0.8784479 -45.5847969
v 15.9923620 -0.6274902 -45.2072449
v 16.5499668 0.4574657 -45.2072449
v 16.6789455 0.7084234 -45.5847969
v 15.9923620 -0.6274902 -48.7756081
v 15.8633852 -0.8784479 -48.3980522
v 16.6789455 0.7084234 -48.3980522
v 16.5499668 0.4574657 -48.7756081
v 16.5304298 0.1484711 -48.2093086
v 16.5956593 0.2753892 -48.0183601
v 16.1670074 -0.5586537 -48.0183601
v 16.2322369 -0.4317356 -48.2093086
v 16.2322369 -0.4317356 -45.7735443
v 16.1670074 -0.5586537 -45.9644890
v 16.5956593 0.2753892 -45.9644890
v 16.5304298 0.1484711 -45.7735443
v 16.5755062 0.2361803 -48.5278702
v 16.7044849 0.4871380 -48.1503143
v 16.0581799 -0.7704024 -48.1503143
v 16.1871605 -0.5194448 -48.5278702
v 16.1871605 -0.5194448 -45.4549713
v 16.0581799 -0.7704024 -45.8325348
v 16.7044849 0.4871380 -45.8325348
v 16.5755062 0.2361803 -45.4549713
v 16.0463390 0.3972650 -48.2093086
v 16.1115685 0.5241831 -48.0183601
v 15.6829176 -0.3098598 -48.0183601
v 15.7481470 -0.1829417 -48.2093086
v 15.7481470 -0.1829417 -45.7735443
v 15.6829176 -0.3098598 -45.9644890
v 16.1115685 0.5241831 -45.9644890
v 16.0463390 0.3972650 -45.7735443
v -13.5111465 -0.2712045 2.3498516
v -14.3267069 1.3156668 2.3498516
v -13.5111465 -0.2712045 -1.2185097
v -14.3267069 1.3156668 -1.2185097
v -14.6926861 -0.8784479 1.9722958
v -14.8216639 -0.6274902 2.3498516
v -15.3792686 0.4574657 2.3498516
v -15.5082455 0.7084234 1.9722958
v -14.8216639 -0.6274902 -1.2185097
v -14.6926861 -0.8784479 -0.8409538
v -15.5082455 0.7084234 -0.8409538
v -15.3792686 0.4574657 -1.2185097
v -15.3597298 0.1484711 -0.6522093
v -15.4249592 0.2753892 -0.4612665
v -14.9963083 -0.5586537 -0.4612665
v -15.0615377 -0.4317356 -0.6522093
v -15.0615377 -0.4317356 1.7835512
v -14.9963083 -0.5586537 1.5926075
v -15.4249592 0.2753892 1.5926075
v -15.3597298 0.1484711 1.7835512
v -15.4048071 0.2361803 -0.9707775
v -15.5337868 0.4871380 -0.5932217
v -14.8874817 -0.7704024 -0.5932217
v -15.0164614 -0.5194448 -0.9707775
v -15.0164614 -0.5194448 2.1021185
v -14.8874817 -0.7704024 1.7245626
v -15.5337868 0.4871380 1.7245626
v -15.4048071 0.2361803 2.1021185
v -14.8756409 0.3972650 -0.6522093
v -14.9408703 0.5241831 -0.4612665
v -14.5122194 -0.3098598 -0.4612665
v -14.5774488 -0.1829417 -0.6522093
v -14.5774488 -0.1829417 1.7835512
v -14.5122194 -0.3098598 1.5926075
v -14.9408703 0.5241831 1.5926075
v -14.8756409 0.3972650 1.7835512
v -13.5111465 -0.2712045 14.8199930
v -14.3267069 1.3156668 14.8199930
v -13.5111465 -0.2712045 11.2516317
v -14.3267069 1.3156668 11.2516317
v -14.6926861 -0.8784479 14.4424372
v -14.8216639 -0.6274902 14.8199930
v -15.3792686 0.4574657 14.8199930
v -15.5082455 0.7084234 14.4424372
v -14.8216639 -0.6274902 11.2516317
v -14.6926861 -0.8784479 11.6291895
v -15.5082455 0.7084234 11.6291895
v -15.3792686 0.4574657 11.2516317
v -15.3597298 0.1484711 11.8179331
v -15.4249592 0.2753892 12.0088778
v -14.9963083 -0.5586537 12.0088778
v -15.0615377 -0.4317356 11.8179331
v -15.0615377 -0.4317356 14.2536936
v -14.9963083 -0.5586537 14.0627508
v -15.4249592 0.2753892 14.0627508
v -15.3597298 0.1484711 14.2536936
v -15.4048071 0.2361803 11.4993639
v -15.5337868 0.4871380 11.8769197
v -14.8874817 -0.7704024 11.8769197
v -15.0164614 -0.5194448 11.4993639
v -15.0164614 -0.5194448 14.5722628
v -14.8874817 -0.7704024 14.1947050
v -15.5337868 0.4871380 14.1947050
v -15.4048071 0.2361803 14.5722628
v -14.8756409 0.3972650 11.8179331
v -14.9408703 0.5241831 12.0088778
v -14.5122194 -0.3098598 12.0088778
v -14.5774488 -0.1829417 11.8179331
v -14.5774488 -0.1829417 14.2536936
v -14.5122194 -0.3098598 14.0627508
v -14.9408703 0.5241831 14.0627508
v -14.8756409 0.3972650 14.2536936
v -14.0793810 0.3972650 30.9932289
v -14.1446104 0.5241831 30.8022842
v -13.7159595 -0.3098598 30.8022842
v -13.7811890 -0.1829417 30.9932289
v -13.7811890 -0.1829417 28.5574684
v -13.7159595 -0.3098598 28.7484131
v -14.1446104 0.5241831 28.7484131
v -14.0793810 0.3972650 28.5574684
v -14.6085472 0.2361803 31.3117981
v -14.7375278 0.4871380 30.9342422
v -14.0912218 -0.7704024 30.9342422
v -14.2202015 -0.5194448 31.3117981
v -14.2202015 -0.5194448 28.2389030
v -14.0912218 -0.7704024 28.6164589
v -14.7375278 0.4871380 28.6164589
v -14.6085472 0.2361803 28.2389030
v -14.5634708 0.1484711 30.9932289
v -14.6287003 0.2753892 30.8022842
v -14.2000494 -0.5586537 30.8022842
v -14.2652788 -0.4317356 30.9932289
v -14.2652788 -0.4317356 28.5574684
v -14.2000494 -0.5586537 28.7484131
v -14.6287003 0.2753892 28.7484131
v -14.5634708 0.1484711 28.5574684
v -14.5830088 0.4574657 27.9911690
v -14.7119865 0.7084234 28.3687248
v -13.8964262 -0.8784479 28.3687248
v -14.0254040 -0.6274902 27.9911690
v -14.7119865 0.7084234 31.1819763
v -14.5830088 0.4574657 31.5595284
v -14.0254040 -0.6274902 31.5595284
v -13.8964262 -0.8784479 31.1819763
v -13.5304480 1.3156668 27.9911690
v -12.7148867 -0.2712045 27.9911690
v -13.5304480 1.3156668 31.5595284
v -12.7148867 -0.2712045 31.5595284
v -12.6433563 0.3972650 42.8802452
v -12.7085857 0.5241831 42.6893044
v -12.2799349 -0.3098598 42.6893044
v -12.3451643 -0.1829417 42.8802452
v -12.3451643 -0.1829417 40.4444847
v -12.2799349 -0.3098598 40.6354294
v -12.7085857 0.5241831 40.6354294
v -12.6433563 0.3972650 40.4444847
v -13.1725225 0.2361803 43.1988182
v -13.3015022 0.4871380 42.8212585
v -12.6551971 -0.7704024 42.8212585
v -12.7841768 -0.5194448 43.1988182
v -12.7841768 -0.5194448 40.1259193
v -12.6551971 -0.7704024 40.5034752
v -13.3015022 0.4871380 40.5034752
v -13.1725225 0.2361803 40.1259193
v -13.1274462 0.1484711 42.8802452
v -13.1926746 0.2753892 42.6893044
v -12.7640238 -0.5586537 42.6893044
v -12.8292532 -0.4317356 42.8802452
v -12.8292532 -0.4317356 40.4444847
v -12.7640238 -0.5586537 40.6354294
v -13.1926746 0.2753892 40.6354294
v -13.1274462 0.1484711 40.4444847
v -13.1469841 0.4574657 39.8781853
v -13.2759619 0.7084234 40.2557411
v -12.4604015 -0.8784479 40.2557411
v -12.5893793 -0.6274902 39.8781853
v -13.2759619 0.7084234 43.0689888
v -13.1469841 0.4574657 43.4465446
v -12.5893793 -0.6274902 43.4465446
v -12.4604015 -0.8784479 43.0689888
v -12.0944233 1.3156668 39.8781853
v -11.2788620 -0.2712045 39.8781853
v -12.0944233 1.3156668 43.4465446
v -11.2788620 -0.2712045 43.4465446
v -14.1938000 -0.2712045 -13.4724493
v -15.0093613 1.3156668 -13.4724493
v -14.1938000 -0.2712045 -17.0408115
v -15.0093613 1.3156668 -17.0408115
v -15.3753395 -0.8784479 -13.8500051
v -15.5043173 -0.6274902 -13.4724493
v -16.0619221 0.4574657 -13.4724493
v -16.1908989 0.7084234 -13.8500051
v -15.5043173 -0.6274902 -17.0408115
v -15.3753395 -0.8784479 -16.6632538
v -16.1908989 0.7084234 -16.6632538
v -16.0619221 0.4574657 -17.0408115
v -16.0423832 0.1484711 -16.4745102
v -16.1076126 0.2753892 -16.2835674
v -15.6789627 -0.5586537 -16.2835674
v -15.7441921 -0.4317356 -16.4745102
v -15.7441921 -0.4317356 -14.0387497
v -15.6789627 -0.5586537 -14.2296934
v -16.1076126 0.2753892 -14.2296934
v -16.0423832 0.1484711 -14.0387497
v -16.0874615 0.2361803 -16.7930775
v -16.2164402 0.4871380 -16.4155216
v -15.5701351 -0.7704024 -16.4155216
v -15.6991148 -0.5194448 -16.7930775
v -15.6991148 -0.5194448 -13.7201815
v -15.5701351 -0.7704024 -14.0977383
v -16.2164402 0.4871380 -14.0977383
v -16.0874615 0.2361803 -13.7201815
v -15.5582943 0.3972650 -16.4745102
v -15.6235237 0.5241831 -16.2835674
v -15.1948729 -0.3098598 -16.2835674
v -15.2601023 -0.1829417 -16.4745102
v -15.2601023 -0.1829417 -14.0387497
v -15.1948729 -0.3098598 -14.2296934
v -15.6235237 0.5241831 -14.2296934
v -15.5582943 0.3972650 -14.0387497
v -14.1938000 -0.2712045 -27.5858383
v -15.0093613 1.3156668 -27.5858383
v -14.1938000 -0.2712045 -31.1541977
v -15.0093613 1.3156668 -31.1541977
v -15.3753395 -0.8784479 -27.9633942
v -15.5043173 -0.6274902 -27.5858383
v -16.0619221 0.4574657 -27.5858383
v -16.1908989 0.7084234 -27.9633942
v -15.5043173 -0.6274902 -31.1541977
v -15.3753395 -0.8784479 -30.7766418
v -16.1908989 0.7084234 -30.7766418
v -16.0619221 0.4574657 -31.1541977
v -16.0423832 0.1484711 -30.5878983
v -16.1076126 0.2753892 -30.3969536
v -15.6789627 -0.5586537 -30.3969536
v -15.7441921 -0.4317356 -30.5878983
v -15.7441921 -0.4317356 -28.1521378
v -15.6789627 -0.5586537 -28.3430824
v -16.1076126 0.2753892 -28.3430824
v -16.0423832 0.1484711 -28.1521378
v -16.0874615 0.2361803 -30.9064636
v -16.2164402 0.4871380 -30.5289116
v -15.5701351 -0.7704024 -30.5289116
v -15.6991148 -0.5194448 -30.9064636
v -15.6991148 -0.5194448 -27.8335686
v -15.5701351 -0.7704024 -28.2111244
v -16.2164402 0.4871380 -28.2111244
v -16.0874615 0.2361803 -27.8335686
v -15.5582943 0.3972650 -30.5878983
v -15.6235237 0.5241831 -30.3969536
v -15.1948729 -0.3098598 -30.3969536
v -15.2601023 -0.1829417 -30.5878983
v -15.2601023 -0.1829417 -28.1521378
v -15.1948729 -0.3098598 -28.3430824
v -15.6235237 0.5241831 -28.3430824
v -15.5582943 0.3972650 -28.1521378
v -14.6818447 -0.2712045 -58.4861488
v -15.4974060 1.3156668 -58.4861488
v -14.6818447 -0.2712045 -62.0545120
v -15.4974060 1.3156668 -62.0545120
v -15.8633852 -0.8784479 -58.8637047
v -15.9923620 -0.6274902 -58.4861488
v -16.5499668 0.4574657 -58.4861488
v -16.6789455 0.7084234 -58.8637047
v -15.9923620 -0.6274902 -62.0545120
v -15.8633852 -0.8784479 -61.6769562
v -16.6789455 0.7084234 -61.6769562
v -16.5499668 0.4574657 -62.0545120
v -16.5304298 0.1484711 -61.4882126
v -16.5956593 0.2753892 -61.2972641
v -16.1670074 -0.5586537 -61.2972641
v -16.2322369 -0.4317356 -61.4882126
v -16.2322369 -0.4317356 -59.0524483
v -16.1670074 -0.5586537 -59.2433929
v -16.5956593 0.2753892 -59.2433929
v -16.5304298 0.1484711 -59.0524483
v -16.5755062 0.2361803 -61.8067780
v -16.7044849 0.4871380 -61.4292221
v -16.0581799 -0.7704024 -61.4292221
v -16.1871605 -0.5194448 -61.8067780
v -16.1871605 -0.5194448 -58.7338829
v -16.0581799 -0.7704024 -59.1114426
v -16.7044849 0.4871380 -59.1114426
v -16.5755062 0.2361803 -58.7338829
v -16.0463390 0.3972650 -61.4882126
v -16.1115685 0.5241831 -61.2972641
v -15.6829176 -0.3098598 -61.2972641
v -15.7481470 -0.1829417 -61.4882126
v -15.7481470 -0.1829417 -59.0524483
v -15.6829176 -0.3098598 -59.2433929
v -16.1115685 0.5241831 -59.2433929
v -16.0463390 0.3972650 -59.0524483
v -14.6818447 -0.2712045 -70.8183060
v -15.4974060 1.3156668 -70.8183060
v -14.6818447 -0.2712045 -74.3866730
v -15.4974060 1.3156668 -74.3866730
v -15.8633852 -0.8784479 -71.1958618
v -15.9923620 -0.6274902 -70.8183060
v -16.5499668 0.4574657 -70.8183060
v -16.6789455 0.7084234 -71.1958618
v -15.9923620 -0.6274902 -74.3866730
v -15.8633852 -0.8784479 -74.0091171
v -16.6789455 0.7084234 -74.0091171
v -16.5499668 0.4574657 -74.3866730
v -16.5304298 0.1484711 -73.8203735
v -16.5956593 0.2753892 -73.6294250
v -16.1670074 -0.5586537 -73.6294250
v -16.2322369 -0.4317356 -73.8203735
v -16.2322369 -0.4317356 -71.3846054
v -16.1670074 -0.5586537 -71.5755539
v -16.5956593 0.2753892 -71.5755539
v -16.5304298 0.1484711 -71.3846054
v -16.5755062 0.2361803 -74.1389313
v -16.7044849 0.4871380 -73.7613831
v -16.0581799 -0.7704024 -73.7613831
v -16.1871605 -0.5194448 -74.1389313
v -16.1871605 -0.5194448 -71.0660400
v -16.0581799 -0.7704024 -71.4436035
v -16.7044849 0.4871380 -71.4436035
v -16.5755062 0.2361803 -71.0660400
v -16.0463390 0.3972650 -73.8203735
v -16.1115685 0.5241831 -73.6294250
v -15.6829176 -0.3098598 -73.6294250
v -15.7481470 -0.1829417 -73.8203735
v -15.7481470 -0.1829417 -71.3846054
v -15.6829176 -0.3098598 -71.5755539
v -16.1115685 0.5241831 -71.5755539
v -16.0463390 0.3972650 -71.3846054
v -14.6818447 -0.2712045 -45.2072449
v -15.4974060 1.3156668 -45.2072449
v -14.6818447 -0.2712045 -48.7756081
v -15.4974060 1.3156668 -48.7756081
v -15.8633852 -0.8784479 -45.5847969
v -15.9923620 -0.6274902 -45.2072449
v -16.5499668 0.4574657 -45.2072449
v -16.6789455 0.7084234 -45.5847969
v -15.9923620 -0.6274902 -48.7756081
v -15.8633852 -0.8784479 -48.3980522
v -16.6789455 0.7084234 -48.3980522
v -16.5499668 0.4574657 -48.7756081
v -16.5304298 0.1484711 -48.2093086
v -16.5956593 0.2753892 -48.0183601
v -16.1670074 -0.5586537 -48.0183601
v -16.2322369 -0.4317356 -48.2093086
v -16.2322369 -0.4317356 -45.7735443
v -16.1670074 -0.5586537 -45.9644890
v -16.5956593 0.2753892 -45.9644890
v -16.5304298 0.1484711 -45.7735443
v -16.5755062 0.2361803 -48.5278702
v -16.7044849 0.4871380 -48.1503143
v -16.0581799 -0.7704024 -48.1503143
v -16.1871605 -0.5194448 -48.5278702
v -16.1871605 -0.5194448 -45.4549713
v -16.0581799 -0.7704024 -45.8325348
v -16.7044849 0.4871380 -45.8325348
v -16.5755062 0.2361803 -45.4549713
v -16.0463390 0.3972650 -48.2093086
v -16.1115685 0.5241831 -48.0183601
v -15.6829176 -0.3098598 -48.0183601
v -15.7481470 -0.1829417 -48.2093086
v -15.7481470 -0.1829417 -45.7735443
v -15.6829176 -0.3098598 -45.9644890
v -16.1115685 0.5241831 -45.9644890
v -16.0463390 0.3972650 -45.7735443
vn -0.9239125 -0.1905812 0.3317595
vn -0.3534918 0.8086159 0.4703020
vn -0.9239125 -0.1905812 -0.3317595
vn -0.3534917 0.8086159 -0.4703020
vn 0.0844277 -0.9646994 0.2494533
vn 0.4122626 -0.5938202 0.6909538
vn 0.7806156 0.0453610 0.6233631
vn 0.8899687 0.4001161 0.2187760
vn 0.4122627 -0.5938202 -0.6909538
vn 0.0844276 -0.9646994 -0.2494534
vn 0.8899682 0.4001165 -0.2187768
vn 0.7806152 0.0453611 -0.6233636
vn 0.7041366 -0.6239715 0.3388971
vn 0.5885670 -0.7992986 0.1212869
vn 0.9864559 0.0374753 0.1596881
vn 0.8875552 -0.2638126 0.3776884
vn 0.8875548 -0.2638124 -0.3776898
vn 0.9864559 0.0374756 -0.1596880
vn 0.5885668 -0.7992988 -0.1212868
vn 0.7041361 -0.6239713 -0.3388985
vn 0.9075935 -0.3653122 -0.2069324
vn 0.9850557 -0.1616966 -0.0593238
vn 0.7340901 -0.6758968 -0.0653860
vn 0.8365263 -0.5042706 -0.2143243
vn 0.8365262 -0.5042707 0.2143241
vn 0.7340901 -0.6758967 0.0653856
vn 0.9850558 -0.1616966 0.0593232
vn 0.9075937 -0.3653121 0.2069317
vn 0.6068980 -0.5855744 0.5373801
vn 0.3093202 -0.9241004 0.2244093
vn 0.9569414 0.2305652 0.1763596
vn 0.8724130 -0.0748439 0.4830051
vn 0.8724132 -0.0748435 -0.4830049
vn 0.9569415 0.2305652 -0.1763592
vn 0.3093201 -0.9241005 -0.2244090
vn 0.6068979 -0.5855745 -0.5373800
vn -0.9239125 -0.1905813 0.3317596
vn -0.3534917 0.8086158 0.4703021
vn -0.9239125 -0.1905812 -0.3317595
vn -0.3534915 0.8086160 -0.4703019
vn 0.0844277 -0.9646993 0.2494537
vn 0.4122627 -0.5938199 0.6909540
vn 0.7806156 0.0453612 0.6233632
vn 0.8899687 0.4001161 0.2187760
vn 0.4122626 -0.5938206 -0.6909534
vn 0.0844274 -0.9646995 -0.2494528
vn 0.8899682 0.4001167 -0.2187766
vn 0.7806154 0.0453618 -0.6233634
vn 0.7041362 -0.6239721 0.3388968
vn 0.5885668 -0.7992988 0.1212867
vn 0.9864560 0.0374761 0.1596878
vn 0.8875554 -0.2638125 0.3776882
vn 0.8875542 -0.2638135 -0.3776904
vn 0.9864559 0.0374746 -0.1596885
vn 0.5885676 -0.7992981 -0.1212874
vn 0.7041358 -0.6239710 -0.3388998
vn 0.9075936 -0.3653120 -0.2069322
vn 0.9850557 -0.1616965 -0.0593239
vn 0.7340899 -0.6758969 -0.0653860
vn 0.8365263 -0.5042707 -0.2143240
vn 0.8365262 -0.5042707 0.2143245
vn 0.7340901 -0.6758967 0.0653855
vn 0.9850558 -0.1616965 0.0593231
vn 0.9075937 -0.3653119 0.2069320
vn 0.6068979 -0.5855746 0.5373800
vn 0.3093202 -0.9241005 0.2244089
vn 0.9569414 0.2305658 0.1763591
vn 0.8724133 -0.0748428 0.4830048
vn 0.8724128 -0.0748449 -0.4830052
vn 0.9569414 0.2305650 -0.1763599
vn 0.3093200 -0.9241000 -0.2244106
vn 0.6068987 -0.5855733 -0.5373808
vn 0.6068987 -0.5855749 -0.5373790
vn 0.3093200 -0.9241006 -0.2244085
vn 0.9569415 0.2305648 -0.1763599
vn 0.8724128 -0.0748452 -0.4830052
vn 0.8724135 -0.0748432 0.4830046
vn 0.9569416 0.2305653 0.1763588
vn 0.3093201 -0.9241010 0.2244070
vn 0.6068967 -0.5855770 0.5373788
vn 0.9075931 -0.3653126 0.2069337
vn 0.9850556 -0.1616969 0.0593249
vn 0.7340897 -0.6758972 0.0653855
vn 0.8365259 -0.5042714 0.2143239
vn 0.8365265 -0.5042709 -0.2143230
vn 0.7340903 -0.6758965 -0.0653855
vn 0.9850556 -0.1616975 -0.0593238
vn 0.9075931 -0.3653137 -0.2069317
vn 0.7041364 -0.6239721 -0.3388964
vn 0.5885660 -0.7992997 -0.1212844
vn 0.9864559 0.0374735 -0.1596888
vn 0.8875543 -0.2638129 -0.3776903
vn 0.8875542 -0.2638146 0.3776896
vn 0.9864559 0.0374756 0.1596877
vn 0.5885639 -0.7993011 0.1212860
vn 0.7041332 -0.6239756 0.3388968
vn 0.7806156 0.0453616 -0.6233631
vn 0.8899682 0.4001168 -0.2187766
vn 0.0844288 -0.9646992 -0.2494538
vn 0.4122650 -0.5938191 -0.6909533
vn 0.8899678 0.4001175 0.2187770
vn 0.7806149 0.0453624 0.6233640
vn 0.4122630 -0.5938200 0.6909538
vn 0.0844279 -0.9646992 0.2494539
vn -0.3534918 0.8086159 -0.4703018
vn -0.9239125 -0.1905813 -0.3317596
vn -0.3534917 0.8086160 0.4703017
vn -0.9239125 -0.1905811 0.3317596
vn 0.6068989 -0.5855733 -0.5373803
vn 0.3093204 -0.9241000 -0.2244102
vn 0.9569413 0.2305657 -0.1763598
vn 0.8724129 -0.0748441 -0.4830053
vn 0.8724126 -0.0748462 0.4830056
vn 0.9569416 0.2305640 0.1763605
vn 0.3093202 -0.9241000 0.2244111
vn 0.6068988 -0.5855727 0.5373811
vn 0.9075933 -0.3653125 0.2069331
vn 0.9850558 -0.1616962 0.0593236
vn 0.7340906 -0.6758962 0.0653853
vn 0.8365257 -0.5042715 0.2143245
vn 0.8365266 -0.5042705 -0.2143234
vn 0.7340909 -0.6758959 -0.0653849
vn 0.9850557 -0.1616967 -0.0593237
vn 0.9075933 -0.3653128 -0.2069324
vn 0.7041368 -0.6239696 -0.3389001
vn 0.5885671 -0.7992985 -0.1212882
vn 0.9864558 0.0374748 -0.1596894
vn 0.8875545 -0.2638116 -0.3776909
vn 0.8875548 -0.2638123 0.3776897
vn 0.9864557 0.0374740 0.1596900
vn 0.5885679 -0.7992977 0.1212887
vn 0.7041375 -0.6239692 0.3388995
vn 0.7806146 0.0453593 -0.6233644
vn 0.8899683 0.4001158 -0.2187776
vn 0.0844291 -0.9646991 -0.2494541
vn 0.4122645 -0.5938193 -0.6909534
vn 0.8899672 0.4001190 0.2187765
vn 0.7806146 0.0453645 0.6233642
vn 0.4122628 -0.5938194 0.6909544
vn 0.0844285 -0.9646991 0.2494548
vn -0.3534916 0.8086159 -0.4703022
vn -0.9239125 -0.1905813 -0.3317597
vn -0.3534916 0.8086162 0.4703015
vn -0.9239126 -0.1905810 0.3317597
vn -0.9239125 -0.1905812 0.3317597
vn -0.3534918 0.8086159 0.4703020
vn -0.9239125 -0.1905809 -0.3317597
vn -0.3534918 0.8086159 -0.4703020
vn 0.0844283 -0.9646993 0.2494541
vn 0.4122633 -0.5938191 0.6909544
vn 0.7806129 0.0453612 0.6233665
vn 0.8899676 0.4001167 0.2187792
vn 0.4122621 -0.5938190 -0.6909550
vn 0.0844276 -0.9646993 -0.2494542
vn 0.8899677 0.4001170 -0.2187783
vn 0.7806132 0.0453622 -0.6233661
vn 0.7041348 -0.6239709 0.3389018
vn 0.5885666 -0.7992984 0.1212909
vn 0.9864556 0.0374749 0.1596904
vn 0.8875537 -0.2638133 0.3776916
vn 0.8875546 -0.2638112 -0.3776909
vn 0.9864557 0.0374767 -0.1596898
vn 0.5885666 -0.7992986 -0.1212889
vn 0.7041357 -0.6239710 -0.3388999
vn 0.9075935 -0.3653123 -0.2069321
vn 0.9850557 -0.1616967 -0.0593232
vn 0.7340900 -0.6758968 -0.0653849
vn 0.8365264 -0.5042707 -0.2143238
vn 0.8365270 -0.5042697 0.2143236
vn 0.7340909 -0.6758960 0.0653849
vn 0.9850557 -0.1616968 0.0593242
vn 0.9075933 -0.3653123 0.2069333
vn 0.6068977 -0.5855749 0.5373799
vn 0.3093202 -0.9241005 0.2244090
vn 0.9569415 0.2305644 0.1763598
vn 0.8724128 -0.0748449 0.4830053
vn 0.8724131 -0.0748433 -0.4830051
vn 0.9569417 0.2305647 -0.1763592
vn 0.3093205 -0.9241004 -0.2244088
vn 0.6068973 -0.5855747 -0.5373806
vn -0.9239125 -0.1905810 0.3317597
vn -0.3534918 0.8086159 0.4703018
vn -0.9239125 -0.1905810 -0.3317597
vn -0.3534918 0.8086159 -0.4703018
vn 0.0844285 -0.9646989 0.2494549
vn 0.4122636 -0.5938179 0.6909551
vn 0.7806128 0.0453627 0.6233665
vn 0.8899673 0.4001175 0.2187790
vn 0.4122636 -0.5938182 -0.6909550
vn 0.0844288 -0.9646989 -0.2494549
vn 0.8899675 0.4001174 -0.2187785
vn 0.7806131 0.0453617 -0.6233663
vn 0.7041360 -0.6239699 0.3389012
vn 0.5885659 -0.7992988 0.1212906
vn 0.9864557 0.0374771 0.1596891
vn 0.8875551 -0.2638097 0.3776906
vn 0.8875529 -0.2638157 -0.3776919
vn 0.9864557 0.0374746 -0.1596899
vn 0.5885658 -0.7992993 -0.1212886
vn 0.7041340 -0.6239731 -0.3388994
vn 0.9075934 -0.3653127 -0.2069318
vn 0.9850558 -0.1616965 -0.0593232
vn 0.7340909 -0.6758960 -0.0653852
vn 0.8365265 -0.5042707 -0.2143236
vn 0.8365256 -0.5042717 0.2143245
vn 0.7340897 -0.6758972 0.0653851
vn 0.9850557 -0.1616968 0.0593242
vn 0.9075930 -0.3653127 0.2069339
vn 0.6068978 -0.5855745 0.5373803
vn 0.3093204 -0.9241006 0.2244081
vn 0.9569415 0.2305662 0.1763583
vn 0.8724138 -0.0748404 0.4830042
vn 0.8724135 -0.0748422 -0.4830047
vn 0.9569415 0.2305655 -0.1763587
vn 0.3093207 -0.9241005 -0.2244080
vn 0.6068975 -0.5855751 -0.5373799
vn -0.9239125 -0.1905810 0.3317597
vn -0.3534917 0.8086162 0.4703015
vn -0.9239125 -0.1905814 -0.3317597
vn -0.3534917 0.8086158 -0.4703022
vn 0.0844289 -0.9646991 0.2494542
vn 0.4122641 -0.5938196 0.6909534
vn 0.7806156 0.0453613 0.6233631
vn 0.8899685 0.4001162 0.2187761
vn 0.4122635 -0.5938197 -0.6909537
vn 0.0844275 -0.9646994 -0.2494538
vn 0.8899685 0.4001155 -0.2187781
vn 0.7806147 0.0453600 -0.6233644
vn 0.7041340 -0.6239732 0.3388995
vn 0.5885671 -0.7992983 0.1212890
vn 0.9864556 0.0374756 0.1596900
vn 0.8875529 -0.2638168 0.3776911
vn 0.8875529 -0.2638162 -0.3776915
vn 0.9864556 0.0374744 -0.1596905
vn 0.5885646 -0.7993002 -0.1212884
vn 0.7041325 -0.6239752 -0.3388989
vn 0.9075937 -0.3653122 -0.2069316
vn 0.9850557 -0.1616965 -0.0593236
vn 0.7340897 -0.6758972 -0.0653844
vn 0.8365265 -0.5042711 -0.2143223
vn 0.8365253 -0.5042731 0.2143224
vn 0.7340904 -0.6758967 0.0653838
vn 0.9850557 -0.1616977 0.0593221
vn 0.9075926 -0.3653154 0.2069308
vn 0.6068945 -0.5855773 0.5373810
vn 0.3093199 -0.9241008 0.2244081
vn 0.9569421 0.2305629 0.1763589
vn 0.8724131 -0.0748450 0.4830048
vn 0.8724128 -0.0748450 -0.4830054
vn 0.9569423 0.2305616 -0.1763597
vn 0.3093199 -0.9241010 -0.2244070
vn 0.6068953 -0.5855766 -0.5373809
vn -0.9239128 -0.1905814 0.3317591
vn -0.3534916 0.8086160 0.4703021
vn -0.9239125 -0.1905816 -0.3317596
vn -0.3534923 0.8086158 -0.4703017
vn 0.0844293 -0.9647002 0.2494501
vn 0.4122634 -0.5938226 0.6909513
vn 0.7806149 0.0453595 0.6233643
vn 0.8899689 0.4001145 0.2187779
vn 0.4122684 -0.5938174 -0.6909527
vn 0.0844308 -0.9646988 -0.2494548
vn 0.8899676 0.4001176 -0.2187771
vn 0.7806160 0.0453623 -0.6233627
vn 0.7041351 -0.6239736 0.3388962
vn 0.5885669 -0.7992986 0.1212872
vn 0.9864557 0.0374796 0.1596884
vn 0.8875550 -0.2638117 0.3776896
vn 0.8875551 -0.2638109 -0.3776899
vn 0.9864557 0.0374759 -0.1596889
vn 0.5885612 -0.7993028 -0.1212875
vn 0.7041347 -0.6239736 -0.3388971
vn 0.9075947 -0.3653113 -0.2069292
vn 0.9850560 -0.1616956 -0.0593229
vn 0.7340925 -0.6758942 -0.0653843
vn 0.8365289 -0.5042681 -0.2143198
vn 0.8365254 -0.5042718 0.2143249
vn 0.7340894 -0.6758978 0.0653837
vn 0.9850558 -0.1616971 0.0593222
vn 0.9075936 -0.3653118 0.2069330
vn 0.6068943 -0.5855806 0.5373777
vn 0.3093193 -0.9241019 0.2244042
vn 0.9569420 0.2305649 0.1763577
vn 0.8724136 -0.0748424 0.4830041
vn 0.8724139 -0.0748399 -0.4830040
vn 0.9569417 0.2305657 -0.1763574
vn 0.3093193 -0.9241017 -0.2244051
vn 0.6068950 -0.5855784 -0.5373792
vn -0.9239124 -0.1905818 0.3317596
vn -0.3534922 0.8086155 0.4703024
vn -0.9239125 -0.1905811 -0.3317597
vn -0.3534919 0.8086158 -0.4703020
vn 0.0844279 -0.9646992 0.2494539
vn 0.4122610 -0.5938218 0.6909534
vn 0.7806149 0.0453604 0.6233640
vn 0.8899684 0.4001161 0.2187770
vn 0.4122668 -0.5938185 -0.6909527
vn 0.0844295 -0.9646991 -0.2494542
vn 0.8899689 0.4001144 -0.2187782
vn 0.7806158 0.0453580 -0.6233632
vn 0.7041357 -0.6239725 0.3388970
vn 0.5885667 -0.7992988 0.1212876
vn 0.9864558 0.0374800 0.1596881
vn 0.8875557 -0.2638098 0.3776896
vn 0.8875546 -0.2638122 -0.3776902
vn 0.9864557 0.0374776 -0.1596884
vn 0.5885630 -0.7993015 -0.1212877
vn 0.7041336 -0.6239747 -0.3388975
vn 0.9075943 -0.3653123 -0.2069291
vn 0.9850558 -0.1616968 -0.0593229
vn 0.7340915 -0.6758955 -0.0653839
vn 0.8365285 -0.5042691 -0.2143196
vn 0.8365242 -0.5042740 0.2143245
vn 0.7340895 -0.6758977 0.0653835
vn 0.9850558 -0.1616969 0.0593221
vn 0.9075928 -0.3653137 0.2069327
vn 0.6068957 -0.5855777 0.5373790
vn 0.3093202 -0.9241014 0.2244050
vn 0.9569417 0.2305662 0.1763571
vn 0.8724142 -0.0748391 0.4830036
vn 0.8724144 -0.0748387 -0.4830035
vn 0.9569416 0.2305665 -0.1763570
vn 0.3093202 -0.9241013 -0.2244055
vn 0.6068957 -0.5855774 -0.5373794
vn 0.9239125 -0.1905812 0.3317595
vn 0.3534918 0.8086159 0.4703020
vn 0.9239125 -0.1905811 -0.3317595
vn 0.3534917 0.8086159 -0.4703020
vn -0.0844279 -0.9646996 0.2494529
vn -0.4122632 -0.5938206 0.6909531
vn -0.7806159 0.0453608 0.6233630
vn -0.8899687 0.4001161 0.2187760
vn -0.4122630 -0.5938202 -0.6909535
vn -0.0844276 -0.9646994 -0.2494534
vn -0.8899683 0.4001165 -0.2187768
vn -0.7806154 0.0453610 -0.6233634
vn -0.7041363 -0.6239709 0.3388989
vn -0.5885671 -0.7992984 0.1212881
vn -0.9864559 0.0374751 0.1596883
vn -0.8875548 -0.2638128 0.3776893
vn -0.8875548 -0.2638127 -0.3776896
vn -0.9864559 0.0374753 -0.1596883
vn -0.5885670 -0.7992986 -0.1212870
vn -0.7041363 -0.6239712 -0.3388983
vn -0.9075938 -0.3653122 -0.2069312
vn -0.9850557 -0.1616966 -0.0593235
vn -0.7340901 -0.6758968 -0.0653860
vn -0.8365265 -0.5042707 -0.2143235
vn -0.8365264 -0.5042708 0.2143237
vn -0.7340901 -0.6758968 0.0653853
vn -0.9850558 -0.1616966 0.0593232
vn -0.9075937 -0.3653122 0.2069315
vn -0.6068982 -0.5855740 0.5373803
vn -0.3093204 -0.9241002 0.2244096
vn -0.9569415 0.2305650 0.1763597
vn -0.8724128 -0.0748444 0.4830053
vn -0.8724129 -0.0748440 -0.4830053
vn -0.9569415 0.2305649 -0.1763596
vn -0.3093204 -0.9241003 -0.2244094
vn -0.6068980 -0.5855742 -0.5373803
vn 0.9239125 -0.1905813 0.3317596
vn 0.3534917 0.8086158 0.4703021
vn 0.9239125 -0.1905813 -0.3317595
vn 0.3534916 0.8086160 -0.4703020
vn -0.0844277 -0.9646994 0.2494532
vn -0.4122629 -0.5938205 0.6909534
vn -0.7806157 0.0453609 0.6233630
vn -0.8899687 0.4001159 0.2187760
vn -0.4122627 -0.5938209 -0.6909531
vn -0.0844274 -0.9646995 -0.2494528
vn -0.8899683 0.4001166 -0.2187766
vn -0.7806156 0.0453612 -0.6233632
vn -0.7041358 -0.6239715 0.3388985
vn -0.5885668 -0.7992987 0.1212878
vn -0.9864559 0.0374756 0.1596881
vn -0.8875550 -0.2638127 0.3776892
vn -0.8875541 -0.2638139 -0.3776903
vn -0.9864558 0.0374740 -0.1596889
vn -0.5885677 -0.7992980 -0.1212875
vn -0.7041360 -0.6239709 -0.3388994
vn -0.9075937 -0.3653125 -0.2069310
vn -0.9850557 -0.1616967 -0.0593235
vn -0.7340899 -0.6758969 -0.0653860
vn -0.8365264 -0.5042710 -0.2143233
vn -0.8365262 -0.5042709 0.2143240
vn -0.7340900 -0.6758969 0.0653851
vn -0.9850558 -0.1616966 0.0593231
vn -0.9075937 -0.3653120 0.2069318
vn -0.6068981 -0.5855745 0.5373800
vn -0.3093205 -0.9241003 0.2244090
vn -0.9569414 0.2305653 0.1763594
vn -0.8724130 -0.0748435 0.4830051
vn -0.8724125 -0.0748457 -0.4830058
vn -0.9569415 0.2305645 -0.1763604
vn -0.3093203 -0.9241000 -0.2244107
vn -0.6068987 -0.5855731 -0.5373807
vn -0.6068986 -0.5855741 -0.5373798
vn -0.3093200 -0.9241003 -0.2244096
vn -0.9569413 0.2305655 -0.1763597
vn -0.8724129 -0.0748444 -0.4830052
vn -0.8724135 -0.0748427 0.4830045
vn -0.9569416 0.2305657 0.1763585
vn -0.3093199 -0.9241009 0.2244073
vn -0.6068966 -0.5855768 0.5373792
vn -0.9075931 -0.3653122 0.2069338
vn -0.9850556 -0.1616969 0.0593248
vn -0.7340897 -0.6758972 0.0653855
vn -0.8365262 -0.5042709 0.2143241
vn -0.8365265 -0.5042711 -0.2143223
vn -0.7340903 -0.6758965 -0.0653855
vn -0.9850556 -0.1616973 -0.0593238
vn -0.9075932 -0.3653138 -0.2069311
vn -0.7041366 -0.6239714 -0.3388972
vn -0.5885661 -0.7992995 -0.1212859
vn -0.9864560 0.0374740 -0.1596880
vn -0.8875550 -0.2638127 -0.3776890
vn -0.8875545 -0.2638137 0.3776896
vn -0.9864559 0.0374760 0.1596875
vn -0.5885645 -0.7993006 0.1212862
vn -0.7041340 -0.6239743 0.3388973
vn -0.7806157 0.0453612 -0.6233630
vn -0.8899682 0.4001168 -0.2187766
vn -0.0844289 -0.9646992 -0.2494538
vn -0.4122652 -0.5938193 -0.6909530
vn -0.8899675 0.4001177 0.2187776
vn -0.7806146 0.0453627 0.6233643
vn -0.4122635 -0.5938200 0.6909534
vn -0.0844280 -0.9646993 0.2494537
vn 0.3534918 0.8086160 -0.4703017
vn 0.9239125 -0.1905811 -0.3317596
vn 0.3534917 0.8086160 0.4703017
vn 0.9239125 -0.1905811 0.3317596
vn -0.6068990 -0.5855735 -0.5373800
vn -0.3093205 -0.9241000 -0.2244099
vn -0.9569414 0.2305653 -0.1763600
vn -0.8724128 -0.0748446 -0.4830054
vn -0.8724130 -0.0748441 0.4830051
vn -0.9569414 0.2305656 0.1763597
vn -0.3093199 -0.9240996 0.2244127
vn -0.6068986 -0.5855716 0.5373825
vn -0.9075934 -0.3653117 0.2069336
vn -0.9850559 -0.1616957 0.0593236
vn -0.7340904 -0.6758965 0.0653853
vn -0.8365256 -0.5042714 0.2143251
vn -0.8365265 -0.5042708 -0.2143232
vn -0.7340909 -0.6758959 -0.0653847
vn -0.9850557 -0.1616973 -0.0593235
vn -0.9075930 -0.3653138 -0.2069321
vn -0.7041364 -0.6239703 -0.3388998
vn -0.5885672 -0.7992985 -0.1212881
vn -0.9864557 0.0374740 -0.1596896
vn -0.8875540 -0.2638130 -0.3776911
vn -0.8875548 -0.2638120 0.3776902
vn -0.9864557 0.0374753 0.1596892
vn -0.5885676 -0.7992978 0.1212899
vn -0.7041364 -0.6239691 0.3389020
vn -0.7806144 0.0453591 -0.6233647
vn -0.8899686 0.4001154 -0.2187776
vn -0.0844292 -0.9646991 -0.2494539
vn -0.4122647 -0.5938191 -0.6909535
vn -0.8899669 0.4001197 0.2187764
vn -0.7806144 0.0453655 0.6233643
vn -0.4122627 -0.5938193 0.6909546
vn -0.0844285 -0.9646991 0.2494548
vn 0.3534914 0.8086160 -0.4703020
vn 0.9239126 -0.1905810 -0.3317597
vn 0.3534917 0.8086161 0.4703016
vn 0.9239125 -0.1905813 0.3317597
vn 0.9239125 -0.1905812 0.3317597
vn 0.3534918 0.8086159 0.4703020
vn 0.9239125 -0.1905809 -0.3317597
vn 0.3534918 0.8086159 -0.4703020
vn -0.0844280 -0.9646991 0.2494542
vn -0.4122627 -0.5938192 0.6909546
vn -0.7806129 0.0453611 0.6233667
vn -0.8899676 0.4001168 0.2187792
vn -0.4122623 -0.5938191 -0.6909549
vn -0.0844276 -0.9646991 -0.2494544
vn -0.8899679 0.4001168 -0.2187777
vn -0.7806140 0.0453614 -0.6233652
vn -0.7041347 -0.6239711 0.3389019
vn -0.5885665 -0.7992985 0.1212904
vn -0.9864556 0.0374748 0.1596904
vn -0.8875535 -0.2638133 0.3776920
vn -0.8875551 -0.2638116 -0.3776896
vn -0.9864557 0.0374765 -0.1596888
vn -0.5885671 -0.7992983 -0.1212890
vn -0.7041363 -0.6239705 -0.3388993
vn -0.9075936 -0.3653127 -0.2069311
vn -0.9850557 -0.1616969 -0.0593231
vn -0.7340900 -0.6758968 -0.0653851
vn -0.8365264 -0.5042710 -0.2143230
vn -0.8365266 -0.5042701 0.2143245
vn -0.7340906 -0.6758962 0.0653855
vn -0.9850557 -0.1616965 0.0593242
vn -0.9075933 -0.3653122 0.2069335
vn -0.6068977 -0.5855749 0.5373801
vn -0.3093199 -0.9241005 0.2244091
vn -0.9569416 0.2305646 0.1763598
vn -0.8724128 -0.0748448 0.4830054
vn -0.8724131 -0.0748432 -0.4830050
vn -0.9569417 0.2305648 -0.1763592
vn -0.3093205 -0.9241004 -0.2244088
vn -0.6068974 -0.5855746 -0.5373806
vn 0.9239125 -0.1905812 0.3317597
vn 0.3534919 0.8086159 0.4703019
vn 0.9239125 -0.1905810 -0.3317597
vn 0.3534918 0.8086159 -0.4703018
vn -0.0844281 -0.9646989 0.2494549
vn -0.4122629 -0.5938182 0.6909553
vn -0.7806128 0.0453630 0.6233665
vn -0.8899672 0.4001178 0.2187789
vn -0.4122634 -0.5938186 -0.6909547
vn -0.0844284 -0.9646989 -0.2494549
vn -0.8899678 0.4001169 -0.2187779
vn -0.7806140 0.0453610 -0.6233653
vn -0.7041358 -0.6239704 0.3389006
vn -0.5885658 -0.7992991 0.1212898
vn -0.9864556 0.0374765 0.1596895
vn -0.8875547 -0.2638101 0.3776913
vn -0.8875538 -0.2638147 -0.3776903
vn -0.9864559 0.0374750 -0.1596889
vn -0.5885648 -0.7993001 -0.1212886
vn -0.7041338 -0.6239736 -0.3388988
vn -0.9075936 -0.3653130 -0.2069308
vn -0.9850557 -0.1616968 -0.0593230
vn -0.7340906 -0.6758963 -0.0653853
vn -0.8365265 -0.5042709 -0.2143228
vn -0.8365256 -0.5042713 0.2143254
vn -0.7340897 -0.6758972 0.0653856
vn -0.9850557 -0.1616969 0.0593242
vn -0.9075929 -0.3653126 0.2069343
vn -0.6068976 -0.5855752 0.5373799
vn -0.3093201 -0.9241009 0.2244073
vn -0.9569416 0.2305655 0.1763587
vn -0.8724135 -0.0748415 0.4830047
vn -0.8724135 -0.0748422 -0.4830047
vn -0.9569416 0.2305655 -0.1763587
vn -0.3093206 -0.9241006 -0.2244080
vn -0.6068974 -0.5855752 -0.5373799
vn 0.9239125 -0.1905814 0.3317597
vn 0.3534918 0.8086160 0.4703017
vn 0.9239124 -0.1905817 -0.3317597
vn 0.3534918 0.8086156 -0.4703024
vn -0.0844283 -0.9646992 0.2494537
vn -0.4122631 -0.5938208 0.6909530
vn -0.7806155 0.0453607 0.6233634
vn -0.8899686 0.4001160 0.2187762
vn -0.4122648 -0.5938187 -0.6909539
vn -0.0844282 -0.9646992 -0.2494540
vn -0.8899685 0.4001155 -0.2187781
vn -0.7806146 0.0453606 -0.6233645
vn -0.7041352 -0.6239724 0.3388986
vn -0.5885673 -0.7992982 0.1212882
vn -0.9864558 0.0374753 0.1596892
vn -0.8875535 -0.2638163 0.3776900
vn -0.8875535 -0.2638139 -0.3776918
vn -0.9864555 0.0374751 -0.1596907
vn -0.5885646 -0.7993001 -0.1212889
vn -0.7041338 -0.6239731 -0.3388999
vn -0.9075941 -0.3653106 -0.2069325
vn -0.9850557 -0.1616965 -0.0593240
vn -0.7340902 -0.6758967 -0.0653849
vn -0.8365275 -0.5042690 -0.2143235
vn -0.8365255 -0.5042729 0.2143219
vn -0.7340899 -0.6758972 0.0653832
vn -0.9850556 -0.1616979 0.0593221
vn -0.9075928 -0.3653149 0.2069308
vn -0.6068949 -0.5855767 0.5373812
vn -0.3093205 -0.9241005 0.2244086
vn -0.9569421 0.2305628 0.1763592
vn -0.8724129 -0.0748451 0.4830051
vn -0.8724130 -0.0748436 -0.4830051
vn -0.9569421 0.2305628 -0.1763592
vn -0.3093199 -0.9241008 -0.2244078
vn -0.6068954 -0.5855759 -0.5373816
vn 0.9239128 -0.1905814 0.3317591
vn 0.3534916 0.8086160 0.4703021
vn 0.9239123 -0.1905822 -0.3317595
vn 0.3534926 0.8086154 -0.4703021
vn -0.0844293 -0.9647002 0.2494499
vn -0.4122638 -0.5938221 0.6909515
vn -0.7806147 0.0453599 0.6233643
vn -0.8899690 0.4001141 0.2187780
vn -0.4122685 -0.5938175 -0.6909526
vn -0.0844308 -0.9646989 -0.2494547
vn -0.8899677 0.4001176 -0.2187771
vn -0.7806159 0.0453626 -0.6233628
vn -0.7041362 -0.6239725 0.3388960
vn -0.5885683 -0.7992977 0.1212867
vn -0.9864559 0.0374800 0.1596873
vn -0.8875554 -0.2638120 0.3776886
vn -0.8875538 -0.2638134 -0.3776914
vn -0.9864557 0.0374748 -0.1596898
vn -0.5885631 -0.7993014 -0.1212873
vn -0.7041351 -0.6239732 -0.3388973
vn -0.9075949 -0.3653098 -0.2069302
vn -0.9850561 -0.1616953 -0.0593233
vn -0.7340925 -0.6758942 -0.0653846
vn -0.8365293 -0.5042671 -0.2143209
vn -0.8365253 -0.5042719 0.2143251
vn -0.7340889 -0.6758983 0.0653833
vn -0.9850560 -0.1616966 0.0593221
vn -0.9075940 -0.3653105 0.2069332
vn -0.6068944 -0.5855795 0.5373787
vn -0.3093198 -0.9241015 0.2244054
vn -0.9569418 0.2305655 0.1763576
vn -0.8724137 -0.0748417 0.4830041
vn -0.8724138 -0.0748402 -0.4830042
vn -0.9569417 0.2305655 -0.1763576
vn -0.3093192 -0.9241018 -0.2244047
vn -0.6068950 -0.5855787 -0.5373790
vn 0.9239125 -0.1905815 0.3317596
vn 0.3534921 0.8086157 0.4703022
vn 0.9239125 -0.1905811 -0.3317597
vn 0.3534919 0.8086158 -0.4703020
vn -0.0844280 -0.9646994 0.2494538
vn -0.4122613 -0.5938213 0.6909537
vn -0.7806149 0.0453613 0.6233641
vn -0.8899684 0.4001162 0.2187770
vn -0.4122663 -0.5938191 -0.6909524
vn -0.0844296 -0.9646990 -0.2494540
vn -0.8899689 0.4001144 -0.2187782
vn -0.7806156 0.0453574 -0.6233635
vn -0.7041356 -0.6239730 0.3388962
vn -0.5885659 -0.7992995 0.1212867
vn -0.9864559 0.0374798 0.1596874
vn -0.8875561 -0.2638097 0.3776886
vn -0.8875540 -0.2638128 -0.3776913
vn -0.9864557 0.0374765 -0.1596895
vn -0.5885628 -0.7993017 -0.1212873
vn -0.7041335 -0.6239749 -0.3388973
vn -0.9075936 -0.3653136 -0.2069297
vn -0.9850557 -0.1616972 -0.0593233
vn -0.7340913 -0.6758955 -0.0653842
vn -0.8365279 -0.5042700 -0.2143200
vn -0.8365245 -0.5042735 0.2143244
vn -0.7340892 -0.6758980 0.0653830
vn -0.9850558 -0.1616968 0.0593221
vn -0.9075931 -0.3653129 0.2069330
vn -0.6068959 -0.5855774 0.5373793
vn -0.3093205 -0.9241012 0.2244054
vn -0.9569417 0.2305658 0.1763574
vn -0.8724140 -0.0748395 0.4830039
vn -0.8724140 -0.0748395 -0.4830039
vn -0.9569417 0.2305658 -0.1763574
vn -0.3093199 -0.9241016 -0.2244047
vn -0.6068956 -0.5855780 -0.5373788
f 1//1 2//2 4//4
f 1//1 4//4 3//3
f 5//5 6//6 1//1
f 7//7 8//8 2//2
f 9//9 10//10 3//3
f 11//11 12//12 4//4
f 14//14 19//19 35//35
f 14//14 35//35 30//30
f 11//11 22//22 21//21
f 11//11 21//21 12//12
f 23//23 10//10 9//9
f 23//23 9//9 24//24
f 25//25 6//6 5//5
f 25//25 5//5 26//26
f 7//7 28//28 27//27
f 7//7 27//27 8//8
f 7//7 6//6 25//25
f 7//7 25//25 28//28
f 5//5 10//10 23//23
f 5//5 23//23 26//26
f 1//1 6//6 7//7
f 1//1 7//7 2//2
f 3//3 10//10 5//5
f 3//3 5//5 1//1
f 11//11 4//4 2//2
f 11//11 2//2 8//8
f 11//11 8//8 27//27
f 11//11 27//27 22//22
f 21//21 24//24 9//9
f 21//21 9//9 12//12
f 3//3 4//4 12//12
f 3//3 12//12 9//9
f 14//14 13//13 21//21
f 14//14 21//21 22//22
f 16//16 15//15 23//23
f 16//16 23//23 24//24
f 18//18 17//17 25//25
f 18//18 25//25 26//26
f 20//20 19//19 27//27
f 20//20 27//27 28//28
f 17//17 20//20 28//28
f 17//17 28//28 25//25
f 15//15 18//18 26//26
f 15//15 26//26 23//23
f 19//19 14//14 22//22
f 19//19 22//22 27//27
f 13//13 16//16 24//24
f 13//13 24//24 21//21
f 32//32 29//29 30//30
f 32//32 30//30 35//35
f 32//32 35//35 36//36
f 32//32 36//36 33//33
f 32//32 33//33 34//34
f 32//32 34//34 31//31
f 20//20 17//17 33//33
f 20//20 33//33 36//36
f 17//17 18//18 34//34
f 17//17 34//34 33//33
f 13//13 14//14 30//30
f 13//13 30//30 29//29
f 16//16 13//13 29//29
f 16//16 29//29 32//32
f 18//18 15//15 31//31
f 18//18 31//31 34//34
f 19//19 20//20 36//36
f 19//19 36//36 35//35
f 15//15 16//16 32//32
f 15//15 32//32 31//31
f 43//43 44//44 38//38
f 47//47 40//40 38//38
f 47//47 38//38 44//44
f 47//47 58//58 57//57
f 47//47 57//57 48//48
f 37//37 38//38 40//40
f 37//37 40//40 39//39
f 39//39 46//46 41//41
f 39//39 41//41 37//37
f 51//51 54//54 62//62
f 51//51 62//62 59//59
f 56//56 53//53 69//69
f 56//56 69//69 72//72
f 43//43 64//64 63//63
f 43//43 63//63 44//44
f 37//37 42//42 43//43
f 37//37 43//43 38//38
f 41//41 42//42 37//37
f 45//45 46//46 39//39
f 59//59 46//46 45//45
f 59//59 45//45 60//60
f 61//61 42//42 41//41
f 61//61 41//41 62//62
f 43//43 42//42 61//61
f 43//43 61//61 64//64
f 57//57 60//60 45//45
f 57//57 45//45 48//48
f 50//50 55//55 71//71
f 50//50 71//71 66//66
f 47//47 44//44 63//63
f 47//47 63//63 58//58
f 47//47 48//48 40//40
f 54//54 53//53 61//61
f 54//54 61//61 62//62
f 56//56 55//55 63//63
f 56//56 63//63 64//64
f 41//41 46//46 59//59
f 41//41 59//59 62//62
f 52//52 49//49 65//65
f 52//52 65//65 68//68
f 68//68 65//65 66//66
f 68//68 66//66 71//71
f 68//68 71//71 72//72
f 68//68 72//72 69//69
f 68//68 69//69 70//70
f 68//68 70//70 67//67
f 52//52 51//51 59//59
f 52//52 59//59 60//60
f 54//54 51//51 67//67
f 54//54 67//67 70//70
f 51//51 52//52 68//68
f 51//51 68//68 67//67
f 55//55 56//56 72//72
f 55//55 72//72 71//71
f 49//49 52//52 60//60
f 49//49 60//60 57//57
f 39//39 40//40 48//48
f 39//39 48//48 45//45
f 50//50 49//49 57//57
f 50//50 57//57 58//58
f 49//49 50//50 66//66
f 49//49 66//66 65//65
f 55//55 50//50 58//58
f 55//55 58//58 63//63
f 53//53 54//54 70//70
f 53//53 70//70 69//69
f 53//53 56//56 64//64
f 53//53 64//64 61//61
f 92//92 89//89 81//81
f 92//92 81//81 84//84
f 92//92 91//91 75//75
f 92//92 75//75 76//76
f 90//90 95//95 87//87
f 90//90 87//87 82//82
f 96//96 95//95 79//79
f 96//96 79//79 80//80
f 95//95 96//96 88//88
f 95//95 88//88 87//87
f 106//106 105//105 97//97
f 106//106 97//97 100//100
f 96//96 93//93 85//85
f 96//96 85//85 88//88
f 90//90 89//89 73//73
f 90//90 73//73 74//74
f 94//94 93//93 77//77
f 94//94 77//77 78//78
f 91//91 94//94 78//78
f 91//91 78//78 75//75
f 93//93 94//94 86//86
f 93//93 86//86 85//85
f 77//77 80//80 79//79
f 77//77 79//79 74//74
f 77//77 74//74 73//73
f 77//77 73//73 76//76
f 77//77 76//76 75//75
f 77//77 75//75 78//78
f 93//93 96//96 80//80
f 93//93 80//80 77//77
f 104//104 99//99 86//86
f 104//104 86//86 83//83
f 89//89 90//90 82//82
f 89//89 82//82 81//81
f 91//91 92//92 84//84
f 91//91 84//84 83//83
f 98//98 97//97 105//105
f 98//98 101//101 82//82
f 98//98 82//82 87//87
f 95//95 90//90 74//74
f 95//95 74//74 79//79
f 88//88 85//85 100//100
f 88//88 100//100 97//97
f 102//102 103//103 84//84
f 102//102 84//84 81//81
f 84//84 103//103 104//104
f 84//84 104//104 83//83
f 86//86 99//99 100//100
f 86//86 100//100 85//85
f 100//100 99//99 106//106
f 104//104 103//103 108//108
f 108//108 103//103 102//102
f 108//108 102//102 107//107
f 102//102 81//81 82//82
f 102//102 82//82 101//101
f 89//89 92//92 76//76
f 89//89 76//76 73//73
f 94//94 91//91 83//83
f 94//94 83//83 86//86
f 106//106 99//99 104//104
f 106//106 104//104 108//108
f 108//108 107//107 105//105
f 108//108 105//105 106//106
f 98//98 87//87 88//88
f 98//98 88//88 97//97
f 98//98 105//105 107//107
f 98//98 107//107 101//101
f 102//102 101//101 107//107
f 128//128 125//125 117//117
f 128//128 117//117 120//120
f 128//128 127//127 111//111
f 128//128 111//111 112//112
f 126//126 131//131 123//123
f 126//126 123//123 118//118
f 132//132 131//131 115//115
f 132//132 115//115 116//116
f 131//131 132//132 124//124
f 131//131 124//124 123//123
f 142//142 141//141 133//133
f 142//142 133//133 136//136
f 132//132 129//129 121//121
f 132//132 121//121 124//124
f 126//126 125//125 109//109
f 126//126 109//109 110//110
f 130//130 129//129 113//113
f 130//130 113//113 114//114
f 127//127 130//130 114//114
f 127//127 114//114 111//111
f 129//129 130//130 122//122
f 129//129 122//122 121//121
f 113//113 116//116 115//115
f 113//113 115//115 110//110
f 113//113 110//110 109//109
f 113//113 109//109 112//112
f 113//113 112//112 111//111
f 113//113 111//111 114//114
f 129//129 132//132 116//116
f 129//129 116//116 113//113
f 140//140 135//135 122//122
f 140//140 122//122 119//119
f 125//125 126//126 118//118
f 125//125 118//118 117//117
f 127//127 128//128 120//120
f 127//127 120//120 119//119
f 134//134 133//133 141//141
f 134//134 137//137 118//118
f 134//134 118//118 123//123
f 131//131 126//126 110//110
f 131//131 110//110 115//115
f 124//124 121//121 136//136
f 124//124 136//136 133//133
f 138//138 139//139 120//120
f 138//138 120//120 117//117
f 120//120 139//139 140//140
f 120//120 140//140 119//119
f 122//122 135//135 136//136
f 122//122 136//136 121//121
f 136//136 135//135 142//142
f 140//140 139//139 144//144
f 144//144 139//139 138//138
f 144//144 138//138 143//143
f 138//138 117//117 118//118
f 138//138 118//118 137//137
f 125//125 128//128 112//112
f 125//125 112//112 109//109
f 130//130 127//127 119//119
f 130//130 119//119 122//122
f 142//142 135//135 140//140
f 142//142 140//140 144//144
f 144//144 143//143 141//141
f 144//144 141//141 142//142
f 134//134 123//123 124//124
f 134//134 124//124 133//133
f 134//134 141//141 143//143
f 134//134 143//143 137//137
f 138//138 137//137 143//143
f 145//145 146//146 148//148
f 145//145 148//148 147//147
f 149//149 150//150 145//145
f 151//151 152//152 146//146
f 153//153 154//154 147//147
f 155//155 156//156 148//148
f 158//158 163//163 179//179
f 158//158 179//179 174//174
f 155//155 166//166 165//165
f 155//155 165//165 156//156
f 167//167 154//154 153//153
f 167//167 153//153 168//168
f 169//169 150//150 149//149
f 169//169 149//149 170//170
f 151//151 172//172 171//171
f 151//151 171//171 152//152
f 151//151 150//150 169//169
f 151//151 169//169 172//172
f 149//149 154//154 167//167
f 149//149 167//167 170//170
f 145//145 150//150 151//151
f 145//145 151//151 146//146
f 147//147 154//154 149//149
f 147//147 149//149 145//145
f 155//155 148//148 146//146
f 155//155 146//146 152//152
f 155//155 152//152 171//171
f 155//155 171//171 166//166
f 165//165 168//168 153//153
f 165//165 153//153 156//156
f 147//147 148//148 156//156
f 147//147 156//156 153//153
f 158//158 157//157 165//165
f 158//158 165//165 166//166
f 160//160 159//159 167//167
f 160//160 167//167 168//168
f 162//162 161//161 169//169
f 162//162 169//169 170//170
f 164//164 163//163 171//171
f 164//164 171//171 172//172
f 161//161 164//164 172//172
f 161//161 172//172 169//169
f 159//159 162//162 170//170
f 159//159 170//170 167//167
f 163//163 158//158 166//166
f 163//163 166//166 171//171
f 157//157 160//160 168//168
f 157//157 168//168 165//165
f 176//176 173//173 174//174
f 176//176 174//174 179//179
f 176//176 179//179 180//180
f 176//176 180//180 177//177
f 176//176 177//177 178//178
f 176//176 178//178 175//175
f 164//164 161//161 177//177
f 164//164 177//177 180//180
f 161//161 162//162 178//178
f 161//161 178//178 177//177
f 157//157 158//158 174//174
f 157//157 174//174 173//173
f 160//160 157//157 173//173
f 160//160 173//173 176//176
f 162//162 159//159 175//175
f 162//162 175//175 178//178
f 163//163 164//164 180//180
f 163//163 180//180 179//179
f 159//159 160//160 176//176
f 159//159 176//176 175//175
f 181//181 182//182 184//184
f 181//181 184//184 183//183
f 185//185 186//186 181//181
f 187//187 188//188 182//182
f 189//189 190//190 183//183
f 191//191 192//192 184//184
f 194//194 199//199 215//215
f 194//194 215//215 210//210
f 191//191 202//202 201//201
f 191//191 201//201 192//192
f 203//203 190//190 189//189
f 203//203 189//189 204//204
f 205//205 186//186 185//185
f 205//205 185//185 206//206
f 187//187 208//208 207//207
f 187//187 207//207 188//188
f 187//187 186//186 205//205
f 187//187 205//205 208//208
f 185//185 190//190 203//203
f 185//185 203//203 206//206
f 181//181 186//186 187//187
f 181//181 187//187 182//182
f 183//183 190//190 185//185
f 183//183 185//185 181//181
f 191//191 184//184 182//182
f 191//191 182//182 188//188
f 191//191 188//188 207//207
f 191//191 207//207 202//202
f 201//201 204//204 189//189
f 201//201 189//189 192//192
f 183//183 184//184 192//192
f 183//183 192//192 189//189
f 194//194 193//193 201//201
f 194//194 201//201 202//202
f 196//196 195//195 203//203
f 196//196 203//203 204//204
f 198//198 197//197 205//205
f 198//198 205//205 206//206
f 200//200 199//199 207//207
f 200//200 207//207 208//208
f 197//197 200//200 208//208
f 197//197 208//208 205//205
f 195//195 198//198 206//206
f 195//195 206//206 203//203
f 199//199 194//194 202//202
f 199//199 202//202 207//207
f 193//193 196//196 204//204
f 193//193 204//204 201//201
f 212//212 209//209 210//210
f 212//212 210//210 215//215
f 212//212 215//215 216//216
f 212//212 216//216 213//213
f 212//212 213//213 214//214
f 212//212 214//214 211//211
f 200//200 197//197 213//213
f 200//200 213//213 216//216
f 197//197 198//198 214//214
f 197//197 214//214 213//213
f 193//193 194//194 210//210
f 193//193 210//210 209//209
f 196//196 193//193 209//209
f 196//196 209//209 212//212
f 198//198 195//195 211//211
f 198//198 211//211 214//214
f 199//199 200//200 216//216
f 199//199 216//216 215//215
f 195//195 196//196 212//212
f 195//195 212//212 211//211
f 217//217 218//218 220//220
f 217//217 220//220 219//219
f 221//221 222//222 217//217
f 223//223 224//224 218//218
f 225//225 226//226 219//219
f 227//227 228//228 220//220
f 230//230 235//235 251//251
f 230//230 251//251 246//246
f 227//227 238//238 237//237
f 227//227 237//237 228//228
f 239//239 226//226 225//225
f 239//239 225//225 240//240
f 241//241 222//222 221//221
f 241//241 221//221 242//242
f 223//223 244//244 243//243
f 223//223 243//243 224//224
f 223//223 222//222 241//241
f 223//223 241//241 244//244
f 221//221 226//226 239//239
f 221//221 239//239 242//242
f 217//217 222//222 223//223
f 217//217 223//223 218//218
f 219//219 226//226 221//221
f 219//219 221//221 217//217
f 227//227 220//220 218//218
f 227//227 218//218 224//224
f 227//227 224//224 243//243
f 227//227 243//243 238//238
f 237//237 240//240 225//225
f 237//237 225//225 228//228
f 219//219 220//220 228//228
f 219//219 228//228 225//225
f 230//230 229//229 237//237
f 230//230 237//237 238//238
f 232//232 231//231 239//239
f 232//232 239//239 240//240
f 234//234 233//233 241//241
f 234//234 241//241 242//242
f 236//236 235//235 243//243
f 236//236 243//243 244//244
f 233//233 236//236 244//244
f 233//233 244//244 241//241
f 231//231 234//234 242//242
f 231//231 242//242 239//239
f 235//235 230//230 238//238
f 235//235 238//238 243//243
f 229//229 232//232 240//240
f 229//229 240//240 237//237
f 248//248 245//245 246//246
f 248//248 246//246 251//251
f 248//248 251//251 252//252
f 248//248 252//252 249//249
f 248//248 249//249 250//250
f 248//248 250//250 247//247
f 236//236 233//233 249//249
f 236//236 249//249 252//252
f 233//233 234//234 250//250
f 233//233 250//250 249//249
f 229//229 230//230 246//246
f 229//229 246//246 245//245
f 232//232 229//229 245//245
f 232//232 245//245 248//248
f 234//234 231//231 247//247
f 234//234 247//247 250//250
f 235//235 236//236 252//252
f 235//235 252//252 251//251
f 231//231 232//232 248//248
f 231//231 248//248 247//247
f 253//253 254//254 256//256
f 253//253 256//256 255//255
f 257//257 258//258 253//253
f 259//259 260//260 254//254
f 261//261 262//262 255//255
f 263//263 264//264 256//256
f 266//266 271//271 287//287
f 266//266 287//287 282//282
f 263//263 274//274 273//273
f 263//263 273//273 264//264
f 275//275 262//262 261//261
f 275//275 261//261 276//276
f 277//277 258//258 257//257
f 277//277 257//257 278//278
f 259//259 280//280 279//279
f 259//259 279//279 260//260
f 259//259 258//258 277//277
f 259//259 277//277 280//280
f 257//257 262//262 275//275
f 257//257 275//275 278//278
f 253//253 258//258 259//259
f 253//253 259//259 254//254
f 255//255 262//262 257//257
f 255//255 257//257 253//253
f 263//263 256//256 254//254
f 263//263 254//254 260//260
f 263//263 260//260 279//279
f 263//263 279//279 274//274
f 273//273 276//276 261//261
f 273//273 261//261 264//264
f 255//255 256//256 264//264
f 255//255 264//264 261//261
f 266//266 265//265 273//273
f 266//266 273//273 274//274
f 268//268 267//267 275//275
f 268//268 275//275 276//276
f 270//270 269//269 277//277
f 270//270 277//277 278//278
f 272//272 271//271 279//279
f 272//272 279//279 280//280
f 269//269 272//272 280//280
f 269//269 280//280 277//277
f 267//267 270//270 278//278
f 267//267 278//278 275//275
f 271//271 266//266 274//274
f 271//271 274//274 279//279
f 265//265 268//268 276//276
f 265//265 276//276 273//273
f 284//284 281//281 282//282
f 284//284 282//282 287//287
f 284//284 287//287 288//288
f 284//284 288//288 285//285
f 284//284 285//285 286//286
f 284//284 286//286 283//283
f 272//272 269//269 285//285
f 272//272 285//285 288//288
f 269//269 270//270 286//286
f 269//269 286//286 285//285
f 265//265 266//266 282//282
f 265//265 282//282 281//281
f 268//268 265//265 281//281
f 268//268 281//281 284//284
f 270//270 267//267 283//283
f 270//270 283//283 286//286
f 271//271 272//272 288//288
f 271//271 288//288 287//287
f 267//267 268//268 284//284
f 267//267 284//284 283//283
f 289//289 290//290 292//292
f 289//289 292//292 291//291
f 293//293 294//294 289//289
f 295//295 296//296 290//290
f 297//297 298//298 291//291
f 299//299 300//300 292//292
f 302//302 307//307 323//323
f 302//302 323//323 318//318
f 299//299 310//310 309//309
f 299//299 309//309 300//300
f 311//311 298//298 297//297
f 311//311 297//297 312//312
f 313//313 294//294 293//293
f 313//313 293//293 314//314
f 295//295 316//316 315//315
f 295//295 315//315 296//296
f 295//295 294//294 313//313
f 295//295 313//313 316//316
f 293//293 298//298 311//311
f 293//293 311//311 314//314
f 289//289 294//294 295//295
f 289//289 295//295 290//290
f 291//291 298//298 293//293
f 291//291 293//293 289//289
f 299//299 292//292 290//290
f 299//299 290//290 296//296
f 299//299 296//296 315//315
f 299//299 315//315 310//310
f 309//309 312//312 297//297
f 309//309 297//297 300//300
f 291//291 292//292 300//300
f 291//291 300//300 297//297
f 302//302 301//301 309//309
f 302//302 309//309 310//310
f 304//304 303//303 311//311
f 304//304 311//311 312//312
f 306//306 305//305 313//313
f 306//306 313//313 314//314
f 308//308 307//307 315//315
f 308//308 315//315 316//316
f 305//305 308//308 316//316
f 305//305 316//316 313//313
f 303//303 306//306 314//314
f 303//303 314//314 311//311
f 307//307 302//302 310//310
f 307//307 310//310 315//315
f 301//301 304//304 312//312
f 301//301 312//312 309//309
f 320//320 317//317 318//318
f 320//320 318//318 323//323
f 320//320 323//323 324//324
f 320//320 324//324 321//321
f 320//320 321//321 322//322
f 320//320 322//322 319//319
f 308//308 305//305 321//321
f 308//308 321//321 324//324
f 305//305 306//306 322//322
f 305//305 322//322 321//321
f 301//301 302//302 318//318
f 301//301 318//318 317//317
f 304//304 301//301 317//317
f 304//304 317//317 320//320
f 306//306 303//303 319//319
f 306//306 319//319 322//322
f 307//307 308//308 324//324
f 307//307 324//324 323//323
f 303//303 304//304 320//320
f 303//303 320//320 319//319
f 325//325 327//327 328//328
f 325//325 328//328 326//326
f 329//329 325//325 330//330
f 331//331 326//326 332//332
f 333//333 327//327 334//334
f 335//335 328//328 336//336
f 338//338 354//354 359//359
f 338//338 359//359 343//343
f 335//335 336//336 345//345
f 335//335 345//345 346//346
f 347//347 348//348 333//333
f 347//347 333//333 334//334
f 349//349 350//350 329//329
f 349//349 329//329 330//330
f 331//331 332//332 351//351
f 331//331 351//351 352//352
f 331//331 352//352 349//349
f 331//331 349//349 330//330
f 329//329 350//350 347//347
f 329//329 347//347 334//334
f 325//325 326//326 331//331
f 325//325 331//331 330//330
f 327//327 325//325 329//329
f 327//327 329//329 334//334
f 335//335 332//332 326//326
f 335//335 326//326 328//328
f 335//335 346//346 351//351
f 335//335 351//351 332//332
f 345//345 336//336 333//333
f 345//345 333//333 348//348
f 327//327 333//333 336//336
f 327//327 336//336 328//328
f 338//338 346//346 345//345
f 338//338 345//345 337//337
f 340//340 348//348 347//347
f 340//340 347//347 339//339
f 342//342 350//350 349//349
f 342//342 349//349 341//341
f 344//344 352//352 351//351
f 344//344 351//351 343//343
f 341//341 349//349 352//352
f 341//341 352//352 344//344
f 339//339 347//347 350//350
f 339//339 350//350 342//342
f 343//343 351//351 346//346
f 343//343 346//346 338//338
f 337//337 345//345 348//348
f 337//337 348//348 340//340
f 356//356 355//355 358//358
f 356//356 358//358 357//357
f 356//356 357//357 360//360
f 356//356 360//360 359//359
f 356//356 359//359 354//354
f 356//356 354//354 353//353
f 344//344 360//360 357//357
f 344//344 357//357 341//341
f 341//341 357//357 358//358
f 341//341 358//358 342//342
f 337//337 353//353 354//354
f 337//337 354//354 338//338
f 340//340 356//356 353//353
f 340//340 353//353 337//337
f 342//342 358//358 355//355
f 342//342 355//355 339//339
f 343//343 359//359 360//360
f 343//343 360//360 344//344
f 339//339 355//355 356//356
f 339//339 356//356 340//340
f 367//367 362//362 368//368
f 371//371 368//368 362//362
f 371//371 362//362 364//364
f 371//371 372//372 381//381
f 371//371 381//381 382//382
f 361//361 363//363 364//364
f 361//361 364//364 362//362
f 363//363 361//361 365//365
f 363//363 365//365 370//370
f 375//375 383//383 386//386
f 375//375 386//386 378//378
f 380//380 396//396 393//393
f 380//380 393//393 377//377
f 367//367 368//368 387//387
f 367//367 387//387 388//388
f 361//361 362//362 367//367
f 361//361 367//367 366//366
f 365//365 361//361 366//366
f 369//369 363//363 370//370
f 383//383 384//384 369//369
f 383//383 369//369 370//370
f 385//385 386//386 365//365
f 385//385 365//365 366//366
f 367//367 388//388 385//385
f 367//367 385//385 366//366
f 381//381 372//372 369//369
f 381//381 369//369 384//384
f 374//374 390//390 395//395
f 374//374 395//395 379//379
f 371//371 382//382 387//387
f 371//371 387//387 368//368
f 371//371 364//364 372//372
f 378//378 386//386 385//385
f 378//378 385//385 377//377
f 380//380 388//388 387//387
f 380//380 387//387 379//379
f 365//365 386//386 383//383
f 365//365 383//383 370//370
f 376//376 392//392 389//389
f 376//376 389//389 373//373
f 392//392 391//391 394//394
f 392//392 394//394 393//393
f 392//392 393//393 396//396
f 392//392 396//396 395//395
f 392//392 395//395 390//390
f 392//392 390//390 389//389
f 376//376 384//384 383//383
f 376//376 383//383 375//375
f 378//378 394//394 391//391
f 378//378 391//391 375//375
f 375//375 391//391 392//392
f 375//375 392//392 376//376
f 379//379 395//395 396//396
f 379//379 396//396 380//380
f 373//373 381//381 384//384
f 373//373 384//384 376//376
f 363//363 369//369 372//372
f 363//363 372//372 364//364
f 374//374 382//382 381//381
f 374//374 381//381 373//373
f 373//373 389//389 390//390
f 373//373 390//390 374//374
f 379//379 387//387 382//382
f 379//379 382//382 374//374
f 377//377 393//393 394//394
f 377//377 394//394 378//378
f 377//377 385//385 388//388
f 377//377 388//388 380//380
f 416//416 408//408 405//405
f 416//416 405//405 413//413
f 416//416 400//400 399//399
f 416//416 399//399 415//415
f 414//414 406//406 411//411
f 414//414 411//411 419//419
f 420//420 404//404 403//403
f 420//420 403//403 419//419
f 419//419 411//411 412//412
f 419//419 412//412 420//420
f 430//430 424//424 421//421
f 430//430 421//421 429//429
f 420//420 412//412 409//409
f 420//420 409//409 417//417
f 414//414 398//398 397//397
f 414//414 397//397 413//413
f 418//418 402//402 401//401
f 418//418 401//401 417//417
f 415//415 399//399 402//402
f 415//415 402//402 418//418
f 417//417 409//409 410//410
f 417//417 410//410 418//418
f 401//401 402//402 399//399
f 401//401 399//399 400//400
f 401//401 400//400 397//397
f 401//401 397//397 398//398
f 401//401 398//398 403//403
f 401//401 403//403 404//404
f 417//417 401//401 404//404
f 417//417 404//404 420//420
f 428//428 407//407 410//410
f 428//428 410//410 423//423
f 413//413 405//405 406//406
f 413//413 406//406 414//414
f 415//415 407//407 408//408
f 415//415 408//408 416//416
f 422//422 429//429 421//421
f 422//422 411//411 406//406
f 422//422 406//406 425//425
f 419//419 403//403 398//398
f 419//419 398//398 414//414
f 412//412 421//421 424//424
f 412//412 424//424 409//409
f 426//426 405//405 408//408
f 426//426 408//408 427//427
f 408//408 407//407 428//428
f 408//408 428//428 427//427
f 410//410 409//409 424//424
f 410//410 424//424 423//423
f 424//424 430//430 423//423
f 428//428 432//432 427//427
f 432//432 431//431 426//426
f 432//432 426//426 427//427
f 426//426 425//425 406//406
f 426//426 406//406 405//405
f 413//413 397//397 400//400
f 413//413 400//400 416//416
f 418//418 410//410 407//407
f 418//418 407//407 415//415
f 430//430 432//432 428//428
f 430//430 428//428 423//423
f 432//432 430//430 429//429
f 432//432 429//429 431//431
f 422//422 421//421 412//412
f 422//422 412//412 411//411
f 422//422 425//425 431//431
f 422//422 431//431 429//429
f 426//426 431//431 425//425
f 452//452 444//444 441//441
f 452//452 441//441 449//449
f 452//452 436//436 435//435
f 452//452 435//435 451//451
f 450//450 442//442 447//447
f 450//450 447//447 455//455
f 456//456 440//440 439//439
f 456//456 439//439 455//455
f 455//455 447//447 448//448
f 455//455 448//448 456//456
f 466//466 460//460 457//457
f 466//466 457//457 465//465
f 456//456 448//448 445//445
f 456//456 445//445 453//453
f 450//450 434//434 433//433
f 450//450 433//433 449//449
f 454//454 438//438 437//437
f 454//454 437//437 453//453
f 451//451 435//435 438//438
f 451//451 438//438 454//454
f 453//453 445//445 446//446
f 453//453 446//446 454//454
f 437//437 438//438 435//435
f 437//437 435//435 436//436
f 437//437 436//436 433//433
f 437//437 433//433 434//434
f 437//437 434//434 439//439
f 437//437 439//439 440//440
f 453//453 437//437 440//440
f 453//453 440//440 456//456
f 464//464 443//443 446//446
f 464//464 446//446 459//459
f 449//449 441//441 442//442
f 449//449 442//442 450//450
f 451//451 443//443 444//444
f 451//451 444//444 452//452
f 458//458 465//465 457//457
f 458//458 447//447 442//442
f 458//458 442//442 461//461
f 455//455 439//439 434//434
f 455//455 434//434 450//450
f 448//448 457//457 460//460
f 448//448 460//460 445//445
f 462//462 441//441 444//444
f 462//462 444//444 463//463
f 444//444 443//443 464//464
f 444//444 464//464 463//463
f 446//446 445//445 460//460
f 446//446 460//460 459//459
f 460//460 466//466 459//459
f 464//464 468//468 463//463
f 468//468 467//467 462//462
f 468//468 462//462 463//463
f 462//462 461//461 442//442
f 462//462 442//442 441//441
f 449//449 433//433 436//436
f 449//449 436//436 452//452
f 454//454 446//446 443//443
f 454//454 443//443 451//451
f 466//466 468//468 464//464
f 466//466 464//464 459//459
f 468//468 466//466 465//465
f 468//468 465//465 467//467
f 458//458 457//457 448//448
f 458//458 448//448 447//447
f 458//458 461//461 467//467
f 458//458 467//467 465//465
f 462//462 467//467 461//461
f 469//469 471//471 472//472
f 469//469 472//472 470//470
f 473//473 469//469 474//474
f 475//475 470//470 476//476
f 477//477 471//471 478//478
f 479//479 472//472 480//480
f 482//482 498//498 503//503
f 482//482 503//503 487//487
f 479//479 480//480 489//489
f 479//479 489//489 490//490
f 491//491 492//492 477//477
f 491//491 477//477 478//478
f 493//493 494//494 473//473
f 493//493 473//473 474//474
f 475//475 476//476 495//495
f 475//475 495//495 496//496
f 475//475 496//496 493//493
f 475//475 493//493 474//474
f 473//473 494//494 491//491
f 473//473 491//491 478//478
f 469//469 470//470 475//475
f 469//469 475//475 474//474
f 471//471 469//469 473//473
f 471//471 473//473 478//478
f 479//479 476//476 470//470
f 479//479 470//470 472//472
f 479//479 490//490 495//495
f 479//479 495//495 476//476
f 489//489 480//480 477//477
f 489//489 477//477 492//492
f 471//471 477//477 480//480
f 471//471 480//480 472//472
f 482//482 490//490 489//489
f 482//482 489//489 481//481
f 484//484 492//492 491//491
f 484//484 491//491 483//483
f 486//486 494//494 493//493
f 486//486 493//493 485//485
f 488//488 496//496 495//495
f 488//488 495//495 487//487
f 485//485 493//493 496//496
f 485//485 496//496 488//488
f 483//483 491//491 494//494
f 483//483 494//494 486//486
f 487//487 495//495 490//490
f 487//487 490//490 482//482
f 481//481 489//489 492//492
f 481//481 492//492 484//484
f 500//500 499//499 502//502
f 500//500 502//502 501//501
f 500//500 501//501 504//504
f 500//500 504//504 503//503
f 500//500 503//503 498//498
f 500//500 498//498 497//497
f 488//488 504//504 501//501
f 488//488 501//501 485//485
f 485//485 501//501 502//502
f 485//485 502//502 486//486
f 481//481 497//497 498//498
f 481//481 498//498 482//482
f 484//484 500//500 497//497
f 484//484 497//497 481//481
f 486//486 502//502 499//499
f 486//486 499//499 483//483
f 487//487 503//503 504//504
f 487//487 504//504 488//488
f 483//483 499//499 500//500
f 483//483 500//500 484//484
f 505//505 507//507 508//508
f 505//505 508//508 506//506
f 509//509 505//505 510//510
f 511//511 506//506 512//512
f 513//513 507//507 514//514
f 515//515 508//508 516//516
f 518//518 534//534 539//539
f 518//518 539//539 523//523
f 515//515 516//516 525//525
f 515//515 525//525 526//526
f 527//527 528//528 513//513
f 527//527 513//513 514//514
f 529//529 530//530 509//509
f 529//529 509//509 510//510
f 511//511 512//512 531//531
f 511//511 531//531 532//532
f 511//511 532//532 529//529
f 511//511 529//529 510//510
f 509//509 530//530 527//527
f 509//509 527//527 514//514
f 505//505 506//506 511//511
f 505//505 511//511 510//510
f 507//507 505//505 509//509
f 507//507 509//509 514//514
f 515//515 512//512 506//506
f 515//515 506//506 508//508
f 515//515 526//526 531//531
f 515//515 531//531 512//512
f 525//525 516//516 513//513
f 525//525 513//513 528//528
f 507//507 513//513 516//516
f 507//507 516//516 508//508
f 518//518 526//526 525//525
f 518//518 525//525 517//517
f 520//520 528//528 527//527
f 520//520 527//527 519//519
f 522//522 530//530 529//529
f 522//522 529//529 521//521
f 524//524 532//532 531//531
f 524//524 531//531 523//523
f 521//521 529//529 532//532
f 521//521 532//532 524//524
f 519//519 527//527 530//530
f 519//519 530//530 522//522
f 523//523 531//531 526//526
f 523//523 526//526 518//518
f 517//517 525//525 528//528
f 517//517 528//528 520//520
f 536//536 535//535 538//538
f 536//536 538//538 537//537
f 536//536 537//537 540//540
f 536//536 540//540 539//539
f 536//536 539//539 534//534
f 536//536 534//534 533//533
f 524//524 540//540 537//537
f 524//524 537//537 521//521
f 521//521 537//537 538//538
f 521//521 538//538 522//522
f 517//517 533//533 534//534
f 517//517 534//534 518//518
f 520//520 536//536 533//533
f 520//520 533//533 517//517
f 522//522 538//538 535//535
f 522//522 535//535 519//519
f 523//523 539//539 540//540
f 523//523 540//540 524//524
f 519//519 535//535 536//536
f 519//519 536//536 520//520
f 541//541 543//543 544//544
f 541//541 544//544 542//542
f 545//545 541//541 546//546
f 547//547 542//542 548//548
f 549//549 543//543 550//550
f 551//551 544//544 552//552
f 554//554 570//570 575//575
f 554//554 575//575 559//559
f 551//551 552//552 561//561
f 551//551 561//561 562//562
f 563//563 564//564 549//549
f 563//563 549//549 550//550
f 565//565 566//566 545//545
f 565//565 545//545 546//546
f 547//547 548//548 567//567
f 547//547 567//567 568//568
f 547//547 568//568 565//565
f 547//547 565//565 546//546
f 545//545 566//566 563//563
f 545//545 563//563 550//550
f 541//541 542//542 547//547
f 541//541 547//547 546//546
f 543//543 541//541 545//545
f 543//543 545//545 550//550
f 551//551 548//548 542//542
f 551//551 542//542 544//544
f 551//551 562//562 567//567
f 551//551 567//567 548//548
f 561//561 552//552 549//549
f 561//561 549//549 564//564
f 543//543 549//549 552//552
f 543//543 552//552 544//544
f 554//554 562//562 561//561
f 554//554 561//561 553//553
f 556//556 564//564 563//563
f 556//556 563//563 555//555
f 558//558 566//566 565//565
f 558//558 565//565 557//557
f 560//560 568//568 567//567
f 560//560 567//567 559//559
f 557//557 565//565 568//568
f 557//557 568//568 560//560
f 555//555 563//563 566//566
f 555//555 566//566 558//558
f 559//559 567//567 562//562
f 559//559 562//562 554//554
f 553//553 561//561 564//564
f 553//553 564//564 556//556
f 572//572 571//571 574//574
f 572//572 574//574 573//573
f 572//572 573//573 576//576
f 572//572 576//576 575//575
f 572//572 575//575 570//570
f 572//572 570//570 569//569
f 560//560 576//576 573//573
f 560//560 573//573 557//557
f 557//557 573//573 574//574
f 557//557 574//574 558//558
f 553//553 569//569 570//570
f 553//553 570//570 554//554
f 556//556 572//572 569//569
f 556//556 569//569 553//553
f 558//558 574//574 571//571
f 558//558 571//571 555//555
f 559//559 575//575 576//576
f 559//559 576//576 560//560
f 555//555 571//571 572//572
f 555//555 572//572 556//556
f 577//577 579//579 580//580
f 577//577 580//580 578//578
f 581//581 577//577 582//582
f 583//583 578//578 584//584
f 585//585 579//579 586//586
f 587//587 580//580 588//588
f 590//590 606//606 611//611
f 590//590 611//611 595//595
f 587//587 588//588 597//597
f 587//587 597//597 598//598
f 599//599 600//600 585//585
f 599//599 585//585 586//586
f 601//601 602//602 581//581
f 601//601 581//581 582//582
f 583//583 584//584 603//603
f 583//583 603//603 604//604
f 583//583 604//604 601//601
f 583//583 601//601 582//582
f 581//581 602//602 599//599
f 581//581 599//599 586//586
f 577//577 578//578 583//583
f 577//577 583//583 582//582
f 579//579 577//577 581//581
f 579//579 581//581 586//586
f 587//587 584//584 578//578
f 587//587 578//578 580//580
f 587//587 598//598 603//603
f 587//587 603//603 584//584
f 597//597 588//588 585//585
f 597//597 585//585 600//600
f 579//579 585//585 588//588
f 579//579 588//588 580//580
f 590//590 598//598 597//597
f 590//590 597//597 589//589
f 592//592 600//600 599//599
f 592//592 599//599 591//591
f 594//594 602//602 601//601
f 594//594 601//601 593//593
f 596//596 604//604 603//603
f 596//596 603//603 595//595
f 593//593 601//601 604//604
f 593//593 604//604 596//596
f 591//591 599//599 602//602
f 591//591 602//602 594//594
f 595//595 603//603 598//598
f 595//595 598//598 590//590
f 589//589 597//597 600//600
f 589//589 600//600 592//592
f 608//608 607//607 610//610
f 608//608 610//610 609//609
f 608//608 609//609 612//612
f 608//608 612//612 611//611
f 608//608 611//611 606//606
f 608//608 606//606 605//605
f 596//596 612//612 609//609
f 596//596 609//609 593//593
f 593//593 609//609 610//610
f 593//593 610//610 594//594
f 589//589 605//605 606//606
f 589//589 606//606 590//590
f 592//592 608//608 605//605
f 592//592 605//605 589//589
f 594//594 610//610 607//607
f 594//594 607//607 591//591
f 595//595 611//611 612//612
f 595//595 612//612 596//596
f 591//591 607//607 608//608
f 591//591 608//608 592//592
f 613//613 615//615 616//616
f 613//613 616//616 614//614
f 617//617 613//613 618//618
f 619//619 614//614 620//620
f 621//621 615//615 622//622
f 623//623 616//616 624//624
f 626//626 642//642 647//647
f 626//626 647//647 631//631
f 623//623 624//624 633//633
f 623//623 633//633 634//634
f 635//635 636//636 621//621
f 635//635 621//621 622//622
f 637//637 638//638 617//617
f 637//637 617//617 618//618
f 619//619 620//620 639//639
f 619//619 639//639 640//640
f 619//619 640//640 637//637
f 619//619 637//637 618//618
f 617//617 638//638 635//635
f 617//617 635//635 622//622
f 613//613 614//614 619//619
f 613//613 619//619 618//618
f 615//615 613//613 617//617
f 615//615 617//617 622//622
f 623//623 620//620 614//614
f 623//623 614//614 616//616
f 623//623 634//634 639//639
f 623//623 639//639 620//620
f 633//633 624//624 621//621
f 633//633 621//621 636//636
f 615//615 621//621 624//624
f 615//615 624//624 616//616
f 626//626 634//634 633//633
f 626//626 633//633 625//625
f 628//628 636//636 635//635
f 628//628 635//635 627//627
f 630//630 638//638 637//637
f 630//630 637//637 629//629
f 632//632 640//640 639//639
f 632//632 639//639 631//631
f 629//629 637//637 640//640
f 629//629 640//640 632//632
f 627//627 635//635 638//638
f 627//627 638//638 630//630
f 631//631 639//639 634//634
f 631//631 634//634 626//626
f 625//625 633//633 636//636
f 625//625 636//636 628//628
f 644//644 643//643 646//646
f 644//644 646//646 645//645
f 644//644 645//645 648//648
f 644//644 648//648 647//647
f 644//644 647//647 642//642
f 644//644 642//642 641//641
f 632//632 648//648 645//645
f 632//632 645//645 629//629
f 629//629 645//645 646//646
f 629//629 646//646 630//630
f 625//625 641//641 642//642
f 625//625 642//642 626//626
f 628//628 644//644 641//641
f 628//628 641//641 625//625
f 630//630 646//646 643//643
f 630//630 643//643 627//627
f 631//631 647//647 648//648
f 631//631 648//648 632//632
f 627//627 643//643 644//644
f 627//627 644//644 628//628
