# Wild Wind Blender MCP export. Units are meters. Unity axes: X=Blender X, Y=Blender Z, Z=-Blender Y.
o Cruiser203CrusherHousing
v 11.6360216 -3.2270842 6.6146469
v 11.6360216 -3.2270842 -17.7484436
v -11.2266035 -3.2270842 -17.7484436
v -11.2266035 -3.2270842 6.6146469
v 10.8231020 2.6933928 5.8017273
v 10.8231020 2.6934328 -16.9355774
v -10.4136839 2.6933928 -16.9355316
v -10.4136839 2.6933947 5.8017273
v 11.6360216 2.6934338 -17.7484970
v -11.2266035 2.6933928 -17.7484436
v 11.6360216 2.6933928 6.6146469
v -11.2266035 2.6933928 6.6146469
v 8.9520178 0.4690800 3.7984390
v 8.9520178 0.4691124 -14.9322815
v -8.5425959 0.4690800 -14.9322510
v -8.5425959 0.4690809 3.7984390
v 11.1649532 -0.2418737 -17.2464905
v 11.1649532 -0.2418938 6.1126633
v -10.7555351 -0.2418938 6.1126633
v -10.7555351 -0.2418938 -17.2464600
vn 0.6134151 -0.4931581 0.6168607
vn 0.6134163 -0.4931585 -0.6168592
vn -0.6134143 -0.4931598 -0.6168600
vn -0.6134151 -0.4931580 0.6168607
vn -0.1212716 0.9849436 -0.1232053
vn -0.1212720 0.9849432 0.1232076
vn 0.1212701 0.9849434 0.1232071
vn 0.1212705 0.9849435 -0.1232061
vn 0.6139279 0.4918068 -0.6174291
vn -0.6139318 0.4918044 -0.6174272
vn 0.6139301 0.4918061 0.6174275
vn -0.6139302 0.4918061 0.6174273
vn -0.3355154 0.8863534 -0.3190722
vn -0.3355154 0.8863526 0.3190744
vn 0.3355143 0.8863534 0.3190734
vn 0.3355143 0.8863536 -0.3190727
vn 0.7097960 -0.0020849 -0.7044042
vn 0.7097964 -0.0020813 0.7044038
vn -0.7097963 -0.0020814 0.7044039
vn -0.7097966 -0.0020842 -0.7044036
f 3//3 2//2 1//1
f 3//3 1//1 4//4
f 8//8 5//5 13//13
f 8//8 13//13 16//16
f 17//17 9//9 11//11
f 17//17 11//11 18//18
f 18//18 11//11 12//12
f 18//18 12//12 19//19
f 20//20 10//10 9//9
f 20//20 9//9 17//17
f 19//19 12//12 10//10
f 19//19 10//10 20//20
f 7//7 6//6 9//9
f 7//7 9//9 10//10
f 6//6 5//5 11//11
f 6//6 11//11 9//9
f 5//5 8//8 12//12
f 5//5 12//12 11//11
f 8//8 7//7 10//10
f 8//8 10//10 12//12
f 14//14 15//15 16//16
f 14//14 16//16 13//13
f 6//6 7//7 15//15
f 6//6 15//15 14//14
f 7//7 8//8 16//16
f 7//7 16//16 15//15
f 5//5 6//6 14//14
f 5//5 14//14 13//13
f 4//4 19//19 20//20
f 4//4 20//20 3//3
f 3//3 20//20 17//17
f 3//3 17//17 2//2
f 1//1 18//18 19//19
f 1//1 19//19 4//4
f 2//2 17//17 18//18
f 2//2 18//18 1//1
