# Wild Wind Blender MCP export. Units are meters. Unity axes: X=Blender X, Y=Blender Z, Z=-Blender Y.
o Cruiser203TurretA_Ring
v 2.4764118 -2.8839579 4.1214371
v 2.4764118 -2.4391446 4.1214371
v 0.6868394 -2.8839579 4.3330536
v 3.5034142 -2.8839588 2.6406860
v 3.9353080 -2.8839588 1.9183311
v 3.5034142 -2.4391451 2.6406860
v 3.9353080 -2.4391451 1.9183311
v 3.1310501 -2.4391451 2.3651505
v 3.5163448 -2.4391451 1.7207336
v 2.6274395 -2.4391451 2.9220200
v 3.1310503 -1.8311167 2.3651505
v 3.5163448 -1.8311167 1.7207336
v 2.6274400 -1.8311167 2.9220200
v 2.8592784 -1.8311167 2.1640511
v 3.2105615 -1.8311167 1.5765190
v 2.4001222 -1.8311167 2.6717644
v 2.8592784 -1.4757605 2.1640511
v 3.2105620 -1.4757605 1.5765190
v 2.4001222 -1.4757605 2.6717644
v 0.0522534 -1.4730749 0.0869598
v 1.2322432 -1.4757605 3.3734970
v 1.8507403 -1.4757605 3.0801430
v 0.5683982 -1.4757595 3.5405502
v -0.1152790 -1.4757595 3.5748863
v -0.7925199 -1.4757595 3.4751778
v -1.4372960 -1.4757595 3.2452698
v -2.0248287 -1.4757595 2.8939857
v -2.5325413 -1.4757595 2.4348297
v -2.9409237 -1.4757595 1.8854408
v -3.2342741 -1.4757595 1.2669487
v -3.4013288 -1.4757595 0.6031036
v -3.4356635 -1.4757605 -0.0805740
v -3.3359592 -1.4757605 -0.7578125
v -3.1060488 -1.4757605 -1.4025917
v -2.7547653 -1.4757605 -1.9901237
v -2.2956090 -1.4757605 -2.4978333
v -1.7462279 -1.4757605 -2.9062157
v -1.1277301 -1.4757614 -3.1995697
v -0.4638849 -1.4757614 -3.3666229
v 0.2197922 -1.4757614 -3.4009590
v 0.8970326 -1.4757614 -3.3012543
v 1.5418092 -1.4757614 -3.0713425
v 2.1293418 -1.4757614 -2.7200584
v 2.6370544 -1.4757614 -2.2609024
v 3.0454314 -1.4757614 -1.7115250
v 3.3387880 -1.4757614 -1.0930214
v 3.5058422 -1.4757614 -0.4291763
v 3.5401769 -1.4757614 0.2545013
v 3.4404724 -1.4757614 0.9317398
v 3.4404721 -1.8311176 0.9317398
v 3.5401764 -1.8311176 0.2545013
v 3.7685151 -1.8311176 1.0135307
v 3.8778727 -1.8311176 0.2707214
v 3.7685146 -2.4391451 1.0135307
v 3.8778722 -2.4391456 0.2707214
v 4.2179770 -2.4391451 1.1255951
v 4.3405604 -2.4391456 0.2929459
v 4.2179770 -2.8839588 1.1255951
v 4.3405604 -2.8839588 0.2929459
v 4.2983470 -2.8839593 -0.5476189
v 4.0867300 -2.8839598 -2.3371925
v 4.2983470 -2.4391460 -0.5476189
v 4.0867271 -2.4391460 -2.3371964
v 3.8402135 -2.4391456 -0.4791489
v 3.6569853 -2.4391460 -1.2072678
v 3.8402135 -1.8311176 -0.4791489
v 3.6569853 -1.8311176 -1.2072678
v 3.5058420 -1.8311176 -0.4291763
v 3.3387878 -1.8311176 -1.0930214
v 3.0454311 -1.8311176 -1.7115250
v 2.6370544 -1.8311176 -2.2609024
v 4.0867276 -1.8311186 -2.3371964
v 2.8873110 -1.8311176 -2.4882202
v 4.0867271 -2.4391460 -2.3371964
v 2.8873110 -2.4391460 -2.4882202
v 2.3304424 -2.4391460 -2.9918289
v 1.6860251 -2.4391460 -3.3771248
v 2.6059773 -2.4391460 -3.3641930
v 2.3304429 -1.8311176 -2.9918289
v 1.6860254 -1.8311176 -3.3771248
v 2.1293418 -1.8311176 -2.7200584
v 1.5418092 -1.8311176 -3.0713425
v 0.8970324 -1.8311176 -3.3012505
v 0.2197921 -1.8311176 -3.4009590
v 0.9788229 -1.8311176 -3.6292953
v 0.2360127 -1.8311176 -3.7386551
v 0.9788225 -2.4391460 -3.6292953
v 0.2360123 -2.4391456 -3.7386551
v 1.0908861 -2.4391460 -4.0787582
v 0.2582365 -2.4391460 -4.2013435
v 1.0908860 -2.8839593 -4.0787582
v 1.8836206 -2.4391460 -3.7960854
v 1.8836206 -2.8839598 -3.7960854
v 2.6059773 -2.8839598 -3.3641930
v 0.2582363 -2.8839593 -4.2013435
v -0.5823275 -2.8839593 -4.1591263
v -1.3985052 -2.8839588 -3.9537392
v -0.5823272 -2.4391456 -4.1591263
v -1.3985052 -2.4391451 -3.9537392
v -0.5138581 -2.4391456 -3.7009926
v -1.2419751 -2.4391451 -3.5177650
v -0.5138577 -1.8311176 -3.7009926
v -1.2419747 -1.8311176 -3.5177650
v -0.4638849 -1.8311176 -3.3666229
v -1.1277303 -1.8311176 -3.1995659
v -1.7462279 -1.8311167 -2.9062157
v -2.2956090 -1.8311167 -2.4978333
v -1.9203548 -1.8311167 -3.1960106
v -2.5229268 -1.8311167 -2.7480927
v -1.9203550 -2.4391451 -3.1960106
v -2.5229273 -2.4391451 -2.7480927
v -2.1589320 -2.4391451 -3.5930710
v -2.8343825 -2.4391451 -3.0909767
v -2.1589320 -2.8839588 -3.5930710
v -2.8343825 -2.8839588 -3.0909767
v -3.3989019 -2.8839583 -2.4667587
v -3.8307960 -2.8839579 -1.7444038
v -3.3989017 -2.4391451 -2.4667587
v -3.8307960 -2.4391446 -1.7444038
v -3.0265379 -2.4391451 -2.1912231
v -3.4118326 -2.4391446 -1.5468063
v -3.0265377 -1.8311167 -2.1912231
v -3.4118321 -1.8311167 -1.5468063
v -2.7547653 -1.8311167 -1.9901237
v -3.1060491 -1.8311167 -1.4025917
v -3.3359597 -1.8311167 -0.7578125
v -3.4356637 -1.8311167 -0.0805740
v -3.6640022 -1.8311167 -0.8396034
v -3.7733595 -1.8311157 -0.0967941
v -3.6640027 -2.4391441 -0.8396034
v -3.7733598 -2.4391441 -0.0967941
v -4.1134648 -2.4391441 -0.9516678
v -4.2360482 -2.4391441 -0.1190186
v -4.1134648 -2.8839579 -0.9516678
v -4.2360482 -2.8839579 -0.1190186
v -4.1938348 -2.8839574 0.7215462
v -3.9884458 -2.8839569 1.5377235
v -4.1938348 -2.4391441 0.7215462
v -3.9884458 -2.4391441 1.5377235
v -3.7357011 -2.4391441 0.6530762
v -3.5524728 -2.4391441 1.3811951
v -3.7357006 -1.8311157 0.6530762
v -3.5524724 -1.8311157 1.3811951
v -3.4013290 -1.8311157 0.6031036
v -3.2342746 -1.8311157 1.2669487
v -2.9409242 -1.8311157 1.8854408
v -2.5325413 -1.8311157 2.4348297
v -3.2307198 -1.8311157 2.0595703
v -2.7827983 -1.8311157 2.6621475
v -3.2307200 -2.4391441 2.0595703
v -2.7827988 -2.4391441 2.6621475
v -3.6277788 -2.4391441 2.2981453
v -3.1256835 -2.4391441 2.9736023
v -3.6277757 -2.8839569 2.2981491
v -3.1256835 -2.8839569 2.9736023
v -2.5014648 -2.8839569 3.5381203
v -1.7791084 -2.8839569 3.9700165
v -2.5014648 -2.4391441 3.5381203
v -1.7791084 -2.4391441 3.9700165
v -2.2259300 -2.4391441 3.1657562
v -1.5815130 -2.4391441 3.5510521
v -2.2259295 -1.8311157 3.1657562
v -1.5815126 -1.8311157 3.5510521
v -2.0248287 -1.8311157 2.8939857
v -1.4372960 -1.8311157 3.2452698
v -0.7925199 -1.8311157 3.4751816
v -0.1152791 -1.8311157 3.5748863
v -0.8743101 -1.8311157 3.8032227
v -0.1314995 -1.8311157 3.9125824
v -0.8743104 -2.4391441 3.8032227
v -0.1314998 -2.4391441 3.9125824
v -0.9863740 -2.4391441 4.2526855
v -0.1537242 -2.4391441 4.3752708
v -0.9863741 -2.8839569 4.2526855
v -0.1537243 -2.8839574 4.3752708
v 0.6868396 -2.4391441 4.3330536
v 0.6183704 -2.4391441 3.8749199
v 1.3464872 -2.4391441 3.6916924
v 0.6183708 -1.8311157 3.8749199
v 1.3464876 -1.8311167 3.6916924
v 0.5683982 -1.8311157 3.5405502
v 1.2322432 -1.8311167 3.3734970
v 1.8507403 -1.8311167 3.0801430
v 2.4764121 -1.8311148 4.1214371
v 2.4764118 -2.4391427 4.1214371
vn 0.2963082 -0.8714668 0.3908286
vn 0.2717696 0.8931105 0.3584619
vn 0.0324061 -0.9224575 0.3847364
vn 0.4925392 -0.8106790 0.3165511
vn 0.6197792 -0.7325829 0.2814179
vn 0.4925427 0.8106765 0.3165525
vn 0.6197888 0.7325734 0.2814218
vn 0.4355546 0.8432228 0.3150674
vn 0.5719165 0.7781232 0.2596845
vn 0.7646234 0.5994571 0.2366481
vn 0.4615002 0.8219312 0.3338363
vn 0.6197891 0.7325731 0.2814217
vn 0.5834997 0.7917798 0.1805904
vn 0.4355537 0.8432234 0.3150671
vn 0.5719163 0.7781232 0.2596846
vn 0.3188858 0.8825211 0.3456421
vn 0.4618680 0.8216347 0.3340576
vn 0.6200761 0.7322915 0.2815223
vn 0.3335623 0.8706664 0.3614918
vn 0.0000002 0.9999999 -0.0000002
vn 0.1394522 0.9125674 0.3844135
vn 0.2289028 0.8977538 0.3763528
vn 0.0585841 0.9196803 0.3882731
vn -0.0188620 0.9210382 0.3890153
vn -0.0973965 0.9169984 0.3868176
vn -0.1817443 0.9064896 0.3811112
vn -0.2776816 0.8864829 0.3701904
vn -0.3927787 0.8503392 0.3502117
vn -0.5355611 0.7844784 0.3126788
vn -0.7047364 0.6675369 0.2402936
vn -0.8498836 0.5142364 0.1151467
vn -0.8834238 0.4670599 -0.0376490
vn -0.7882475 0.5875890 -0.1827703
vn -0.6200752 0.7322922 -0.2815228
vn -0.4618670 0.8216350 -0.3340582
vn -0.3335627 0.8706661 -0.3614921
vn -0.2289027 0.8977537 -0.3763534
vn -0.1394520 0.9125672 -0.3844142
vn -0.0585838 0.9196801 -0.3882737
vn 0.0188623 0.9210377 -0.3890162
vn 0.0973971 0.9169980 -0.3868181
vn 0.1817446 0.9064893 -0.3811114
vn 0.2776822 0.8864825 -0.3701907
vn 0.3927781 0.8503391 -0.3502124
vn 0.5355603 0.7844785 -0.3126797
vn 0.7047373 0.6675359 -0.2402941
vn 0.8498843 0.5142352 -0.1151471
vn 0.8834243 0.4670590 0.0376490
vn 0.7882477 0.5875886 0.1827707
vn 0.7048531 0.6902661 0.1634470
vn 0.7678885 0.6397470 0.0327272
vn 0.7880922 0.5878038 0.1827490
vn 0.8833458 0.4672076 0.0376480
vn 0.7048532 0.6902659 0.1634468
vn 0.7678880 0.6397475 0.0327271
vn 0.7880923 0.5878040 0.1827489
vn 0.8833456 0.4672079 0.0376481
vn 0.7880977 -0.5877963 0.1827504
vn 0.8833471 -0.4672051 0.0376483
vn 0.8489541 -0.5237520 -0.0704334
vn 0.7548436 -0.6051317 -0.2530349
vn 0.8489628 0.5237376 -0.0704343
vn 0.6383973 0.7393587 -0.2140036
vn 0.7478969 0.6560344 -0.1013363
vn 0.9152684 0.4021095 0.0243261
vn 0.8497792 0.5144104 -0.1151408
vn 0.5493467 0.8354670 0.0146004
vn 0.7478970 0.6560344 -0.1013364
vn 0.6407558 0.7359962 -0.2184988
vn 0.5002096 0.8151579 -0.2920754
vn 0.3733241 0.8659077 -0.3329158
vn 0.9177683 0.3908247 -0.0704084
vn 0.1800953 0.9180599 -0.3531737
vn 0.4290420 0.9026847 -0.0329151
vn 0.2000242 0.8978456 -0.3922546
vn 0.2666993 0.8957732 -0.3556148
vn 0.1756082 0.9129589 -0.3683312
vn 0.2389179 0.8977636 -0.3700526
vn 0.2773272 0.8867626 -0.3697861
vn 0.1814625 0.9067563 -0.3806105
vn 0.2666988 0.8957735 -0.3556145
vn 0.1756085 0.9129589 -0.3683311
vn 0.0944082 0.9221785 -0.3750651
vn 0.0183045 0.9257630 -0.3776611
vn 0.0972237 0.9172562 -0.3862495
vn 0.0188258 0.9212921 -0.3884153
vn 0.0944078 0.9221786 -0.3750651
vn 0.0183045 0.9257630 -0.3776611
vn 0.0972234 0.9172562 -0.3862494
vn 0.0188258 0.9212919 -0.3884155
vn 0.0972230 -0.9172566 -0.3862487
vn 0.1814627 0.9067563 -0.3806106
vn 0.1814607 -0.9067582 -0.3806070
vn 0.2389165 -0.8977647 -0.3700506
vn 0.0188253 -0.9212940 -0.3884111
vn -0.0584745 -0.9199358 -0.3876840
vn -0.1392185 -0.9128303 -0.3838736
vn -0.0584740 0.9199356 -0.3876844
vn -0.1392189 0.9128293 -0.3838758
vn -0.0568307 0.9245539 -0.3767896
vn -0.1349918 0.9182750 -0.3722205
vn -0.0584740 0.9199356 -0.3876844
vn -0.1392187 0.9128293 -0.3838760
vn -0.0568309 0.9245538 -0.3767897
vn -0.1349916 0.9182751 -0.3722206
vn -0.2205909 0.9053964 -0.3627631
vn -0.3188857 0.8825206 -0.3456433
vn -0.2285780 0.8980271 -0.3758982
vn -0.3331881 0.8709533 -0.3611457
vn -0.2205911 0.9053963 -0.3627632
vn -0.3188859 0.8825206 -0.3456433
vn -0.2285786 0.8980269 -0.3758984
vn -0.3331878 0.8709532 -0.3611459
vn -0.2285764 -0.8980292 -0.3758943
vn -0.3331842 -0.8709565 -0.3611411
vn -0.4614932 -0.8219371 -0.3338313
vn -0.6197796 -0.7325827 -0.2814175
vn -0.4614998 0.8219312 -0.3338367
vn -0.6197889 0.7325730 -0.2814222
vn -0.4355530 0.8432236 -0.3150675
vn -0.5719158 0.7781234 -0.2596847
vn -0.4614998 0.8219312 -0.3338368
vn -0.6197887 0.7325732 -0.2814222
vn -0.4355531 0.8432236 -0.3150675
vn -0.5719153 0.7781237 -0.2596849
vn -0.7048528 0.6902665 -0.1634467
vn -0.7678877 0.6397480 -0.0327273
vn -0.7880923 0.5878038 -0.1827488
vn -0.8833454 0.4672081 -0.0376482
vn -0.7048531 0.6902662 -0.1634468
vn -0.7678878 0.6397477 -0.0327275
vn -0.7880925 0.5878036 -0.1827489
vn -0.8833455 0.4672079 -0.0376480
vn -0.7880979 -0.5877961 -0.1827500
vn -0.8833472 -0.4672050 -0.0376479
vn -0.8497816 -0.5144062 0.1151410
vn -0.7045079 -0.6677982 0.2402378
vn -0.8497791 0.5144105 0.1151405
vn -0.7045131 0.6677921 0.2402395
vn -0.7478964 0.6560351 0.1013357
vn -0.6407557 0.7359965 0.2184981
vn -0.8497790 0.5144107 0.1151402
vn -0.7045131 0.6677921 0.2402395
vn -0.7478962 0.6560352 0.1013358
vn -0.6407557 0.7359964 0.2184981
vn -0.5002100 0.8151579 0.2920744
vn -0.3733248 0.8659075 0.3329154
vn -0.5352235 0.7847725 0.3125190
vn -0.3923992 0.8506322 0.3499253
vn -0.5002103 0.8151577 0.2920747
vn -0.3733248 0.8659075 0.3329153
vn -0.5352243 0.7847719 0.3125190
vn -0.3923994 0.8506321 0.3499255
vn -0.5352145 -0.7847803 0.3125146
vn -0.3923945 -0.8506361 0.3499212
vn -0.2773243 -0.8867651 0.3697823
vn -0.1814611 -0.9067579 0.3806075
vn -0.2773272 0.8867626 0.3697859
vn -0.1814625 0.9067565 0.3806102
vn -0.2666989 0.8957735 0.3556143
vn -0.1756079 0.9129592 0.3683307
vn -0.2773268 0.8867628 0.3697858
vn -0.1814621 0.9067566 0.3806100
vn -0.2666989 0.8957735 0.3556143
vn -0.1756076 0.9129592 0.3683307
vn -0.0944076 0.9221788 0.3750646
vn -0.0183045 0.9257632 0.3776604
vn -0.0972227 0.9172566 0.3862489
vn -0.0188256 0.9212923 0.3884149
vn -0.0944077 0.9221789 0.3750645
vn -0.0183042 0.9257632 0.3776604
vn -0.0972230 0.9172565 0.3862489
vn -0.0188254 0.9212923 0.3884149
vn -0.0972233 -0.9172564 0.3862492
vn -0.0188257 -0.9212937 0.3884115
vn 0.0324061 0.9224573 0.3847365
vn 0.0568310 0.9245539 0.3767896
vn -0.0255457 0.9162684 0.3997494
vn 0.0584743 0.9199358 0.3876839
vn -0.0233539 0.9305404 0.3654437
vn 0.0568310 0.9245541 0.3767891
vn 0.1349919 0.9182754 0.3722199
vn 0.2205905 0.9053971 0.3627617
vn 0.6832023 0.6570655 0.3185901
vn 0.5202552 0.8188268 0.2426053
f 2//2 176//176 3//3
f 2//2 3//3 1//1
f 6//6 2//2 1//1
f 6//6 1//1 4//4
f 1//1 3//3 175//175
f 1//1 175//175 174//174
f 1//1 174//174 157//157
f 1//1 157//157 156//156
f 1//1 156//156 155//155
f 1//1 155//155 154//154
f 1//1 154//154 137//137
f 1//1 137//137 136//136
f 1//1 136//136 135//135
f 1//1 135//135 134//134
f 1//1 134//134 117//117
f 1//1 117//117 116//116
f 1//1 116//116 115//115
f 1//1 115//115 114//114
f 1//1 114//114 97//97
f 1//1 97//97 96//96
f 1//1 96//96 95//95
f 1//1 95//95 91//91
f 1//1 91//91 93//93
f 1//1 93//93 94//94
f 1//1 94//94 61//61
f 1//1 61//61 60//60
f 1//1 60//60 59//59
f 1//1 59//59 58//58
f 1//1 58//58 5//5
f 1//1 5//5 4//4
f 5//5 7//7 6//6
f 5//5 6//6 4//4
f 9//9 8//8 6//6
f 9//9 6//6 7//7
f 10//10 185//185 2//2
f 10//10 2//2 6//6
f 10//10 6//6 8//8
f 8//8 9//9 12//12
f 8//8 12//12 11//11
f 10//10 8//8 11//11
f 10//10 11//11 13//13
f 15//15 14//14 11//11
f 15//15 11//11 12//12
f 14//14 16//16 13//13
f 14//14 13//13 11//11
f 14//14 15//15 18//18
f 14//14 18//18 17//17
f 16//16 14//14 17//17
f 16//16 17//17 19//19
f 20//20 17//17 18//18
f 20//20 19//19 17//17
f 20//20 23//23 21//21
f 20//20 21//21 22//22
f 20//20 22//22 19//19
f 20//20 24//24 23//23
f 20//20 25//25 24//24
f 20//20 26//26 25//25
f 20//20 27//27 26//26
f 20//20 28//28 27//27
f 20//20 29//29 28//28
f 20//20 30//30 29//29
f 20//20 31//31 30//30
f 20//20 32//32 31//31
f 20//20 33//33 32//32
f 20//20 34//34 33//33
f 20//20 35//35 34//34
f 20//20 36//36 35//35
f 20//20 37//37 36//36
f 20//20 38//38 37//37
f 20//20 39//39 38//38
f 20//20 40//40 39//39
f 20//20 41//41 40//40
f 20//20 42//42 41//41
f 20//20 43//43 42//42
f 20//20 44//44 43//43
f 20//20 45//45 44//44
f 20//20 46//46 45//45
f 20//20 47//47 46//46
f 20//20 48//48 47//47
f 20//20 49//49 48//48
f 20//20 18//18 49//49
f 50//50 51//51 48//48
f 50//50 48//48 49//49
f 15//15 50//50 49//49
f 15//15 49//49 18//18
f 51//51 50//50 52//52
f 51//51 52//52 53//53
f 50//50 15//15 12//12
f 50//50 12//12 52//52
f 54//54 55//55 53//53
f 54//54 53//53 52//52
f 9//9 54//54 52//52
f 9//9 52//52 12//12
f 55//55 54//54 56//56
f 55//55 56//56 57//57
f 54//54 9//9 7//7
f 54//54 7//7 56//56
f 59//59 57//57 56//56
f 59//59 56//56 58//58
f 58//58 56//56 7//7
f 58//58 7//7 5//5
f 60//60 62//62 57//57
f 60//60 57//57 59//59
f 63//63 62//62 60//60
f 63//63 60//60 61//61
f 65//65 64//64 62//62
f 65//65 62//62 63//63
f 65//65 63//63 74//74
f 64//64 55//55 57//57
f 64//64 57//57 62//62
f 64//64 65//65 67//67
f 64//64 67//67 66//66
f 55//55 64//64 66//66
f 55//55 66//66 53//53
f 69//69 68//68 66//66
f 69//69 66//66 67//67
f 68//68 51//51 53//53
f 68//68 53//53 66//66
f 68//68 69//69 46//46
f 68//68 46//46 47//47
f 51//51 68//68 47//47
f 51//51 47//47 48//48
f 69//69 70//70 45//45
f 69//69 45//45 46//46
f 70//70 69//69 67//67
f 70//70 67//67 72//72
f 70//70 71//71 44//44
f 70//70 44//44 45//45
f 71//71 70//70 72//72
f 71//71 72//72 73//73
f 74//74 75//75 73//73
f 74//74 73//73 72//72
f 65//65 74//74 72//72
f 65//65 72//72 67//67
f 75//75 74//74 63//63
f 75//75 63//63 78//78
f 75//75 78//78 76//76
f 75//75 76//76 79//79
f 75//75 79//79 73//73
f 76//76 77//77 80//80
f 76//76 80//80 79//79
f 77//77 76//76 78//78
f 77//77 78//78 92//92
f 82//82 81//81 79//79
f 82//82 79//79 80//80
f 81//81 71//71 73//73
f 81//81 73//73 79//79
f 81//81 82//82 42//42
f 81//81 42//42 43//43
f 71//71 81//81 43//43
f 71//71 43//43 44//44
f 82//82 83//83 41//41
f 82//82 41//41 42//42
f 83//83 82//82 80//80
f 83//83 80//80 85//85
f 83//83 84//84 40//40
f 83//83 40//40 41//41
f 84//84 83//83 85//85
f 84//84 85//85 86//86
f 87//87 88//88 86//86
f 87//87 86//86 85//85
f 77//77 87//87 85//85
f 77//77 85//85 80//80
f 88//88 87//87 89//89
f 88//88 89//89 90//90
f 87//87 77//77 92//92
f 87//87 92//92 89//89
f 95//95 90//90 89//89
f 95//95 89//89 91//91
f 91//91 89//89 92//92
f 91//91 92//92 93//93
f 93//93 92//92 78//78
f 93//93 78//78 94//94
f 78//78 63//63 61//61
f 78//78 61//61 94//94
f 96//96 98//98 90//90
f 96//96 90//90 95//95
f 97//97 99//99 98//98
f 97//97 98//98 96//96
f 101//101 100//100 98//98
f 101//101 98//98 99//99
f 100//100 88//88 90//90
f 100//100 90//90 98//98
f 100//100 101//101 103//103
f 100//100 103//103 102//102
f 88//88 100//100 102//102
f 88//88 102//102 86//86
f 105//105 104//104 102//102
f 105//105 102//102 103//103
f 104//104 84//84 86//86
f 104//104 86//86 102//102
f 104//104 105//105 38//38
f 104//104 38//38 39//39
f 84//84 104//104 39//39
f 84//84 39//39 40//40
f 105//105 106//106 37//37
f 105//105 37//37 38//38
f 106//106 105//105 103//103
f 106//106 103//103 108//108
f 106//106 107//107 36//36
f 106//106 36//36 37//37
f 107//107 106//106 108//108
f 107//107 108//108 109//109
f 110//110 111//111 109//109
f 110//110 109//109 108//108
f 101//101 110//110 108//108
f 101//101 108//108 103//103
f 111//111 110//110 112//112
f 111//111 112//112 113//113
f 110//110 101//101 99//99
f 110//110 99//99 112//112
f 115//115 113//113 112//112
f 115//115 112//112 114//114
f 114//114 112//112 99//99
f 114//114 99//99 97//97
f 116//116 118//118 113//113
f 116//116 113//113 115//115
f 117//117 119//119 118//118
f 117//117 118//118 116//116
f 121//121 120//120 118//118
f 121//121 118//118 119//119
f 120//120 111//111 113//113
f 120//120 113//113 118//118
f 120//120 121//121 123//123
f 120//120 123//123 122//122
f 111//111 120//120 122//122
f 111//111 122//122 109//109
f 125//125 124//124 122//122
f 125//125 122//122 123//123
f 124//124 107//107 109//109
f 124//124 109//109 122//122
f 124//124 125//125 34//34
f 124//124 34//34 35//35
f 107//107 124//124 35//35
f 107//107 35//35 36//36
f 125//125 126//126 33//33
f 125//125 33//33 34//34
f 126//126 125//125 123//123
f 126//126 123//123 128//128
f 126//126 127//127 32//32
f 126//126 32//32 33//33
f 127//127 126//126 128//128
f 127//127 128//128 129//129
f 130//130 131//131 129//129
f 130//130 129//129 128//128
f 121//121 130//130 128//128
f 121//121 128//128 123//123
f 131//131 130//130 132//132
f 131//131 132//132 133//133
f 130//130 121//121 119//119
f 130//130 119//119 132//132
f 135//135 133//133 132//132
f 135//135 132//132 134//134
f 134//134 132//132 119//119
f 134//134 119//119 117//117
f 136//136 138//138 133//133
f 136//136 133//133 135//135
f 137//137 139//139 138//138
f 137//137 138//138 136//136
f 141//141 140//140 138//138
f 141//141 138//138 139//139
f 140//140 131//131 133//133
f 140//140 133//133 138//138
f 140//140 141//141 143//143
f 140//140 143//143 142//142
f 131//131 140//140 142//142
f 131//131 142//142 129//129
f 145//145 144//144 142//142
f 145//145 142//142 143//143
f 144//144 127//127 129//129
f 144//144 129//129 142//142
f 144//144 145//145 30//30
f 144//144 30//30 31//31
f 127//127 144//144 31//31
f 127//127 31//31 32//32
f 145//145 146//146 29//29
f 145//145 29//29 30//30
f 146//146 145//145 143//143
f 146//146 143//143 148//148
f 146//146 147//147 28//28
f 146//146 28//28 29//29
f 147//147 146//146 148//148
f 147//147 148//148 149//149
f 150//150 151//151 149//149
f 150//150 149//149 148//148
f 141//141 150//150 148//148
f 141//141 148//148 143//143
f 151//151 150//150 152//152
f 151//151 152//152 153//153
f 150//150 141//141 139//139
f 150//150 139//139 152//152
f 155//155 153//153 152//152
f 155//155 152//152 154//154
f 154//154 152//152 139//139
f 154//154 139//139 137//137
f 156//156 158//158 153//153
f 156//156 153//153 155//155
f 157//157 159//159 158//158
f 157//157 158//158 156//156
f 161//161 160//160 158//158
f 161//161 158//158 159//159
f 160//160 151//151 153//153
f 160//160 153//153 158//158
f 160//160 161//161 163//163
f 160//160 163//163 162//162
f 151//151 160//160 162//162
f 151//151 162//162 149//149
f 165//165 164//164 162//162
f 165//165 162//162 163//163
f 164//164 147//147 149//149
f 164//164 149//149 162//162
f 164//164 165//165 26//26
f 164//164 26//26 27//27
f 147//147 164//164 27//27
f 147//147 27//27 28//28
f 165//165 166//166 25//25
f 165//165 25//25 26//26
f 166//166 165//165 163//163
f 166//166 163//163 168//168
f 166//166 167//167 24//24
f 166//166 24//24 25//25
f 167//167 166//166 168//168
f 167//167 168//168 169//169
f 170//170 171//171 169//169
f 170//170 169//169 168//168
f 161//161 170//170 168//168
f 161//161 168//168 163//163
f 171//171 170//170 172//172
f 171//171 172//172 173//173
f 170//170 161//161 159//159
f 170//170 159//159 172//172
f 175//175 173//173 172//172
f 175//175 172//172 174//174
f 174//174 172//172 159//159
f 174//174 159//159 157//157
f 3//3 176//176 173//173
f 3//3 173//173 175//175
f 177//177 171//171 173//173
f 177//177 173//173 176//176
f 178//178 177//177 176//176
f 178//178 176//176 2//2
f 178//178 2//2 185//185
f 177//177 178//178 180//180
f 177//177 180//180 179//179
f 171//171 177//177 179//179
f 171//171 179//179 169//169
f 182//182 181//181 179//179
f 182//182 179//179 180//180
f 181//181 167//167 169//169
f 181//181 169//169 179//179
f 181//181 182//182 21//21
f 181//181 21//21 23//23
f 167//167 181//181 23//23
f 167//167 23//23 24//24
f 182//182 183//183 22//22
f 182//182 22//22 21//21
f 183//183 182//182 180//180
f 183//183 180//180 184//184
f 183//183 16//16 19//19
f 183//183 19//19 22//22
f 16//16 183//183 184//184
f 16//16 184//184 13//13
f 178//178 185//185 184//184
f 178//178 184//184 180//180
f 185//185 10//10 13//13
f 185//185 13//13 184//184
